<svg xmlns="http://www.w3.org/2000/svg" width="180.97" height="102.004" viewBox="0 0 180.97 102.004">
  <g id="Grupo_544" data-name="Grupo 544" transform="translate(-475.561 -701.574)">
    <path id="Trazado_1054" data-name="Trazado 1054" d="M656.531,762.771s-40.511,31.664-90.484,31.664-90.486-31.664-90.486-31.664,32.439-61.2,90.486-61.2C623.218,701.574,656.531,762.771,656.531,762.771Z" transform="translate(0)" fill="#334060"/>
    <path id="Trazado_1055" data-name="Trazado 1055" d="M656.531,778.33s-40.511,40.808-90.484,40.808-90.486-40.808-90.486-40.808,40.513-40.812,90.486-40.812S656.531,778.33,656.531,778.33Z" transform="translate(0 -15.559)" fill="#fff"/>
    <path id="Trazado_1056" data-name="Trazado 1056" d="M575.939,783.643a32.842,32.842,0,1,1,32.84,32.836A32.838,32.838,0,0,1,575.939,783.643Z" transform="translate(-43.451 -21.31)" fill="#334060"/>
    <path id="Trazado_1057" data-name="Trazado 1057" d="M633.841,773.513a13.934,13.934,0,1,1,13.936,13.93A13.938,13.938,0,0,1,633.841,773.513Z" transform="translate(-68.515 -25.11)" fill="#fff"/>
  </g>
</svg>
