<svg xmlns="http://www.w3.org/2000/svg" width="1006" height="378" viewBox="0 0 1006 378">
  <g id="Grupo_707" data-name="Grupo 707" transform="translate(-786 -4823)">
    <text id="Epidemiológico" transform="translate(1474 4823)" fill="#333" font-size="22" font-family="SkolarSansLatn-Bd, Skolar Sans Latin"><tspan x="0" y="22">Epidemiológico</tspan></text>
    <text id="_28" data-name="28" transform="translate(1716 4823)" fill="#333" font-size="22" font-family="SkolarSansLatn-Bd, Skolar Sans Latin"><tspan x="0" y="22">28</tspan></text>
    <text id="Administrativo" transform="translate(1474 4861)" fill="#333" font-size="22" font-family="SkolarSansLatn-Bd, Skolar Sans Latin"><tspan x="0" y="22">Administrativo</tspan></text>
    <text id="_24" data-name="24" transform="translate(1716 4861)" fill="#333" font-size="22" font-family="SkolarSansLatn-Bd, Skolar Sans Latin"><tspan x="0" y="22">24</tspan></text>
    <text id="Compras_públicas" data-name="Compras públicas" transform="translate(1474 4899)" fill="#333" font-size="22" font-family="SkolarSansLatn-Bd, Skolar Sans Latin"><tspan x="0" y="22">Compras públicas</tspan></text>
    <text id="_23" data-name="23" transform="translate(1716 4899)" fill="#333" font-size="22" font-family="SkolarSansLatn-Bd, Skolar Sans Latin"><tspan x="0" y="22">23</tspan></text>
    <text id="Medidas_económicas" data-name="Medidas económicas" transform="translate(1474 4937)" fill="#333" font-size="22" font-family="SkolarSansLatn-Bd, Skolar Sans Latin"><tspan x="0" y="22">Medidas económicas</tspan></text>
    <text id="_6" data-name="6" transform="translate(1716 4937)" fill="#333" font-size="22" font-family="SkolarSansLatn-Bd, Skolar Sans Latin"><tspan x="0" y="22">6</tspan></text>
    <text id="Austeridad" transform="translate(1474 4975)" fill="#333" font-size="22" font-family="SkolarSansLatn-Bd, Skolar Sans Latin"><tspan x="0" y="22">Austeridad</tspan></text>
    <text id="_6-2" data-name="6" transform="translate(1716 4975)" fill="#333" font-size="22" font-family="SkolarSansLatn-Bd, Skolar Sans Latin"><tspan x="0" y="22">6</tspan></text>
    <text id="Educación" transform="translate(1474 5013)" fill="#333" font-size="22" font-family="SkolarSansLatn-Bd, Skolar Sans Latin"><tspan x="0" y="22">Educación</tspan></text>
    <text id="_5" data-name="5" transform="translate(1716 5013)" fill="#333" font-size="22" font-family="SkolarSansLatn-Bd, Skolar Sans Latin"><tspan x="0" y="22">5</tspan></text>
    <text id="Energía" transform="translate(1474 5051)" fill="#333" font-size="22" font-family="SkolarSansLatn-Bd, Skolar Sans Latin"><tspan x="0" y="22">Energía</tspan></text>
    <text id="_5-2" data-name="5" transform="translate(1716 5051)" fill="#333" font-size="22" font-family="SkolarSansLatn-Bd, Skolar Sans Latin"><tspan x="0" y="22">5</tspan></text>
    <text id="Militarización" transform="translate(1474 5089)" fill="#333" font-size="22" font-family="SkolarSansLatn-Bd, Skolar Sans Latin"><tspan x="0" y="22">Militarización</tspan></text>
    <text id="_4" data-name="4" transform="translate(1716 5089)" fill="#333" font-size="22" font-family="SkolarSansLatn-Bd, Skolar Sans Latin"><tspan x="0" y="22">4</tspan></text>
    <text id="_23-2" data-name="23" transform="translate(1716 5127)" fill="#333" font-size="22" font-family="SkolarSansLatn-Bd, Skolar Sans Latin"><tspan x="0" y="22">23</tspan></text>
    <text id="Otros" transform="translate(1474 5127)" fill="#333" font-size="22" font-family="SkolarSansLatn-Bd, Skolar Sans Latin"><tspan x="0" y="22">Otros</tspan></text>
    <rect id="Rectángulo_615" data-name="Rectángulo 615" width="26" height="26" transform="translate(866 5157) rotate(-90)" fill="#b5b5b5"/>
    <rect id="Rectángulo_1693" data-name="Rectángulo 1693" width="26" height="26" transform="translate(866 5201) rotate(-90)" fill="#b5b5b5"/>
    <rect id="Rectángulo_1684" data-name="Rectángulo 1684" width="26" height="26" transform="translate(826 5157) rotate(-90)" fill="#b5b5b5"/>
    <rect id="Rectángulo_1694" data-name="Rectángulo 1694" width="26" height="26" transform="translate(826 5201) rotate(-90)" fill="#b5b5b5"/>
    <rect id="Rectángulo_1692" data-name="Rectángulo 1692" width="26" height="26" transform="translate(786 5157) rotate(-90)" fill="#b5b5b5"/>
    <rect id="Rectángulo_1696" data-name="Rectángulo 1696" width="26" height="26" transform="translate(786 5201) rotate(-90)" fill="#b5b5b5"/>
    <rect id="Rectángulo_591" data-name="Rectángulo 591" width="26" height="26" transform="translate(866 5113) rotate(-90)" fill="#97c789"/>
    <rect id="Rectángulo_1683" data-name="Rectángulo 1683" width="26" height="26" transform="translate(826 5113) rotate(-90)" fill="#b3d0f7"/>
    <rect id="Rectángulo_1691" data-name="Rectángulo 1691" width="26" height="26" transform="translate(786 5113) rotate(-90)" fill="#b3d0f7"/>
    <rect id="Rectángulo_592" data-name="Rectángulo 592" width="26" height="26" transform="translate(866 5070) rotate(-90)" fill="#a59035"/>
    <rect id="Rectángulo_1682" data-name="Rectángulo 1682" width="26" height="26" transform="translate(826 5070) rotate(-90)" fill="#a59035"/>
    <rect id="Rectángulo_1689" data-name="Rectángulo 1689" width="26" height="26" transform="translate(786 5070) rotate(-90)" fill="#a59035"/>
    <rect id="Rectángulo_593" data-name="Rectángulo 593" width="25" height="26" transform="translate(866 5026) rotate(-90)" fill="#d19486"/>
    <rect id="Rectángulo_1681" data-name="Rectángulo 1681" width="25" height="26" transform="translate(826 5026) rotate(-90)" fill="#d19486"/>
    <rect id="Rectángulo_1690" data-name="Rectángulo 1690" width="25" height="26" transform="translate(786 5026) rotate(-90)" fill="#d19486"/>
    <rect id="Rectángulo_587" data-name="Rectángulo 587" width="27" height="26" transform="translate(866 4983) rotate(-90)" fill="#fce371"/>
    <rect id="Rectángulo_1679" data-name="Rectángulo 1679" width="27" height="26" transform="translate(826 4983) rotate(-90)" fill="#fce371"/>
    <rect id="Rectángulo_1687" data-name="Rectángulo 1687" width="27" height="26" transform="translate(786 4983) rotate(-90)" fill="#fce371"/>
    <rect id="Rectángulo_588" data-name="Rectángulo 588" width="26" height="26" transform="translate(866 4939) rotate(-90)" fill="#f9e471"/>
    <rect id="Rectángulo_1680" data-name="Rectángulo 1680" width="26" height="26" transform="translate(826 4939) rotate(-90)" fill="#f9e471"/>
    <rect id="Rectángulo_1688" data-name="Rectángulo 1688" width="26" height="26" transform="translate(786 4939) rotate(-90)" fill="#f9e471"/>
    <rect id="Rectángulo_589" data-name="Rectángulo 589" width="27" height="26" transform="translate(866 4896) rotate(-90)" fill="#000c2d"/>
    <rect id="Rectángulo_1677" data-name="Rectángulo 1677" width="27" height="26" transform="translate(826 4896) rotate(-90)" fill="#000c2d"/>
    <rect id="Rectángulo_1685" data-name="Rectángulo 1685" width="27" height="26" transform="translate(786 4896) rotate(-90)" fill="#000c2d"/>
    <rect id="Rectángulo_590" data-name="Rectángulo 590" width="26" height="26" transform="translate(866 4852) rotate(-90)" fill="#000c2d"/>
    <rect id="Rectángulo_1678" data-name="Rectángulo 1678" width="26" height="26" transform="translate(826 4852) rotate(-90)" fill="#000c2d"/>
    <rect id="Rectángulo_1686" data-name="Rectángulo 1686" width="26" height="26" transform="translate(786 4852) rotate(-90)" fill="#000c2d"/>
    <rect id="Rectángulo_616" data-name="Rectángulo 616" width="26" height="25" transform="translate(1023 5157) rotate(-90)" fill="#b5b5b5"/>
    <rect id="Rectángulo_617" data-name="Rectángulo 617" width="26" height="25" transform="translate(1023 5113) rotate(-90)" fill="#97c789"/>
    <rect id="Rectángulo_618" data-name="Rectángulo 618" width="26" height="25" transform="translate(1023 5070) rotate(-90)" fill="#680f22"/>
    <rect id="Rectángulo_619" data-name="Rectángulo 619" width="25" height="25" transform="translate(1023 5026) rotate(-90)" fill="#d19486"/>
    <rect id="Rectángulo_620" data-name="Rectángulo 620" width="27" height="25" transform="translate(1023 4983) rotate(-90)" fill="#f9e471"/>
    <rect id="Rectángulo_621" data-name="Rectángulo 621" width="26" height="25" transform="translate(1023 4939) rotate(-90)" fill="#f9e471"/>
    <rect id="Rectángulo_622" data-name="Rectángulo 622" width="27" height="25" transform="translate(1023 4896) rotate(-90)" fill="#000c2d"/>
    <rect id="Rectángulo_623" data-name="Rectángulo 623" width="26" height="25" transform="translate(1023 4852) rotate(-90)" fill="#000c2d"/>
    <rect id="Rectángulo_624" data-name="Rectángulo 624" width="26" height="27" transform="translate(944 5157) rotate(-90)" fill="#b5b5b5"/>
    <rect id="Rectángulo_594" data-name="Rectángulo 594" width="26" height="27" transform="translate(944 5113) rotate(-90)" fill="#97c789"/>
    <rect id="Rectángulo_595" data-name="Rectángulo 595" width="26" height="27" transform="translate(944 5070) rotate(-90)" fill="#a59035"/>
    <rect id="Rectángulo_596" data-name="Rectángulo 596" width="25" height="27" transform="translate(944 5026) rotate(-90)" fill="#d19486"/>
    <rect id="Rectángulo_597" data-name="Rectángulo 597" width="27" height="27" transform="translate(944 4983) rotate(-90)" fill="#fce371"/>
    <rect id="Rectángulo_598" data-name="Rectángulo 598" width="26" height="27" transform="translate(944 4939) rotate(-90)" fill="#f9e471"/>
    <rect id="Rectángulo_599" data-name="Rectángulo 599" width="27" height="27" transform="translate(944 4896) rotate(-90)" fill="#000c2d"/>
    <rect id="Rectángulo_600" data-name="Rectángulo 600" width="26" height="27" transform="translate(944 4852) rotate(-90)" fill="#000c2d"/>
    <rect id="Rectángulo_627" data-name="Rectángulo 627" width="26" height="26" transform="translate(1101 5157) rotate(-90)" fill="#b5b5b5"/>
    <rect id="Rectángulo_628" data-name="Rectángulo 628" width="26" height="26" transform="translate(1101 5113) rotate(-90)" fill="#8765ab"/>
    <rect id="Rectángulo_629" data-name="Rectángulo 629" width="26" height="26" transform="translate(1101 5070) rotate(-90)" fill="#680f22"/>
    <rect id="Rectángulo_630" data-name="Rectángulo 630" width="25" height="26" transform="translate(1101 5026) rotate(-90)" fill="#d19486"/>
    <rect id="Rectángulo_631" data-name="Rectángulo 631" width="27" height="26" transform="translate(1101 4983) rotate(-90)" fill="#d19486"/>
    <rect id="Rectángulo_632" data-name="Rectángulo 632" width="26" height="26" transform="translate(1101 4939) rotate(-90)" fill="#f9e471"/>
    <rect id="Rectángulo_633" data-name="Rectángulo 633" width="27" height="26" transform="translate(1101 4896) rotate(-90)" fill="#000c2d"/>
    <rect id="Rectángulo_634" data-name="Rectángulo 634" width="26" height="26" transform="translate(1101 4852) rotate(-90)" fill="#000c2d"/>
    <rect id="Rectángulo_651" data-name="Rectángulo 651" width="26" height="25" transform="translate(1180 5157) rotate(-90)" fill="#b5b5b5"/>
    <rect id="Rectángulo_652" data-name="Rectángulo 652" width="26" height="25" transform="translate(1180 5113) rotate(-90)" fill="#8765ab"/>
    <rect id="Rectángulo_653" data-name="Rectángulo 653" width="26" height="25" transform="translate(1180 5070) rotate(-90)" fill="#680f22"/>
    <rect id="Rectángulo_654" data-name="Rectángulo 654" width="25" height="25" transform="translate(1180 5026) rotate(-90)" fill="#d19486"/>
    <rect id="Rectángulo_655" data-name="Rectángulo 655" width="27" height="25" transform="translate(1180 4983) rotate(-90)" fill="#d19486"/>
    <rect id="Rectángulo_656" data-name="Rectángulo 656" width="26" height="25" transform="translate(1180 4939) rotate(-90)" fill="#f9e471"/>
    <rect id="Rectángulo_657" data-name="Rectángulo 657" width="27" height="25" transform="translate(1180 4896) rotate(-90)" fill="#000c2d"/>
    <rect id="Rectángulo_658" data-name="Rectángulo 658" width="26" height="25" transform="translate(1180 4852) rotate(-90)" fill="#000c2d"/>
    <rect id="Rectángulo_675" data-name="Rectángulo 675" width="26" height="25" transform="translate(1298 5157) rotate(-90)" fill="#b5b5b5"/>
    <rect id="Rectángulo_676" data-name="Rectángulo 676" width="26" height="25" transform="translate(1298 5113) rotate(-90)" fill="#b5b5b5"/>
    <rect id="Rectángulo_677" data-name="Rectángulo 677" width="26" height="25" transform="translate(1298 5070) rotate(-90)" fill="#b3d0f7"/>
    <rect id="Rectángulo_678" data-name="Rectángulo 678" width="25" height="25" transform="translate(1298 5026) rotate(-90)" fill="#d19486"/>
    <rect id="Rectángulo_679" data-name="Rectángulo 679" width="27" height="25" transform="translate(1298 4983) rotate(-90)" fill="#d19486"/>
    <rect id="Rectángulo_680" data-name="Rectángulo 680" width="26" height="25" transform="translate(1298 4939) rotate(-90)" fill="#f9e471"/>
    <rect id="Rectángulo_681" data-name="Rectángulo 681" width="27" height="25" transform="translate(1298 4896) rotate(-90)" fill="#f9e471"/>
    <rect id="Rectángulo_682" data-name="Rectángulo 682" width="26" height="25" transform="translate(1298 4852) rotate(-90)" fill="#000c2d"/>
    <rect id="Rectángulo_625" data-name="Rectángulo 625" width="26" height="27" transform="translate(905 5157) rotate(-90)" fill="#b5b5b5"/>
    <rect id="Rectángulo_1695" data-name="Rectángulo 1695" width="26" height="27" transform="translate(905 5201) rotate(-90)" fill="#b5b5b5"/>
    <rect id="Rectángulo_601" data-name="Rectángulo 601" width="26" height="27" transform="translate(905 5113) rotate(-90)" fill="#97c789"/>
    <rect id="Rectángulo_602" data-name="Rectángulo 602" width="26" height="27" transform="translate(905 5070) rotate(-90)" fill="#a59035"/>
    <rect id="Rectángulo_603" data-name="Rectángulo 603" width="25" height="27" transform="translate(905 5026) rotate(-90)" fill="#d19486"/>
    <rect id="Rectángulo_604" data-name="Rectángulo 604" width="27" height="27" transform="translate(905 4983) rotate(-90)" fill="#fce371"/>
    <rect id="Rectángulo_605" data-name="Rectángulo 605" width="26" height="27" transform="translate(905 4939) rotate(-90)" fill="#f9e471"/>
    <rect id="Rectángulo_606" data-name="Rectángulo 606" width="27" height="27" transform="translate(905 4896) rotate(-90)" fill="#000c2d"/>
    <rect id="Rectángulo_607" data-name="Rectángulo 607" width="26" height="27" transform="translate(905 4852) rotate(-90)" fill="#000c2d"/>
    <rect id="Rectángulo_635" data-name="Rectángulo 635" width="26" height="26" transform="translate(1062 5157) rotate(-90)" fill="#b5b5b5"/>
    <rect id="Rectángulo_636" data-name="Rectángulo 636" width="26" height="26" transform="translate(1062 5113) rotate(-90)" fill="#8765ab"/>
    <rect id="Rectángulo_637" data-name="Rectángulo 637" width="26" height="26" transform="translate(1062 5070) rotate(-90)" fill="#680f22"/>
    <rect id="Rectángulo_638" data-name="Rectángulo 638" width="25" height="26" transform="translate(1062 5026) rotate(-90)" fill="#d19486"/>
    <rect id="Rectángulo_639" data-name="Rectángulo 639" width="27" height="26" transform="translate(1062 4983) rotate(-90)" fill="#d19486"/>
    <rect id="Rectángulo_640" data-name="Rectángulo 640" width="26" height="26" transform="translate(1062 4939) rotate(-90)" fill="#f9e471"/>
    <rect id="Rectángulo_641" data-name="Rectángulo 641" width="27" height="26" transform="translate(1062 4896) rotate(-90)" fill="#000c2d"/>
    <rect id="Rectángulo_642" data-name="Rectángulo 642" width="26" height="26" transform="translate(1062 4852) rotate(-90)" fill="#000c2d"/>
    <rect id="Rectángulo_626" data-name="Rectángulo 626" width="26" height="26" transform="translate(984 5157) rotate(-90)" fill="#b5b5b5"/>
    <rect id="Rectángulo_608" data-name="Rectángulo 608" width="26" height="26" transform="translate(984 5113) rotate(-90)" fill="#97c789"/>
    <rect id="Rectángulo_609" data-name="Rectángulo 609" width="26" height="26" transform="translate(984 5070) rotate(-90)" fill="#a59035"/>
    <rect id="Rectángulo_610" data-name="Rectángulo 610" width="25" height="26" transform="translate(984 5026) rotate(-90)" fill="#d19486"/>
    <rect id="Rectángulo_611" data-name="Rectángulo 611" width="27" height="26" transform="translate(984 4983) rotate(-90)" fill="#f9e471"/>
    <rect id="Rectángulo_612" data-name="Rectángulo 612" width="26" height="26" transform="translate(984 4939) rotate(-90)" fill="#f9e471"/>
    <rect id="Rectángulo_613" data-name="Rectángulo 613" width="27" height="26" transform="translate(984 4896) rotate(-90)" fill="#000c2d"/>
    <rect id="Rectángulo_614" data-name="Rectángulo 614" width="26" height="26" transform="translate(984 4852) rotate(-90)" fill="#000c2d"/>
    <rect id="Rectángulo_643" data-name="Rectángulo 643" width="26" height="25" transform="translate(1141 5157) rotate(-90)" fill="#b5b5b5"/>
    <rect id="Rectángulo_644" data-name="Rectángulo 644" width="26" height="25" transform="translate(1141 5113) rotate(-90)" fill="#8765ab"/>
    <rect id="Rectángulo_645" data-name="Rectángulo 645" width="26" height="25" transform="translate(1141 5070) rotate(-90)" fill="#680f22"/>
    <rect id="Rectángulo_646" data-name="Rectángulo 646" width="25" height="25" transform="translate(1141 5026) rotate(-90)" fill="#d19486"/>
    <rect id="Rectángulo_647" data-name="Rectángulo 647" width="27" height="25" transform="translate(1141 4983) rotate(-90)" fill="#d19486"/>
    <rect id="Rectángulo_648" data-name="Rectángulo 648" width="26" height="25" transform="translate(1141 4939) rotate(-90)" fill="#f9e471"/>
    <rect id="Rectángulo_649" data-name="Rectángulo 649" width="27" height="25" transform="translate(1141 4896) rotate(-90)" fill="#000c2d"/>
    <rect id="Rectángulo_650" data-name="Rectángulo 650" width="26" height="25" transform="translate(1141 4852) rotate(-90)" fill="#000c2d"/>
    <rect id="Rectángulo_667" data-name="Rectángulo 667" width="26" height="26" transform="translate(1258 5157) rotate(-90)" fill="#b5b5b5"/>
    <rect id="Rectángulo_668" data-name="Rectángulo 668" width="26" height="26" transform="translate(1258 5113) rotate(-90)" fill="#b5b5b5"/>
    <rect id="Rectángulo_669" data-name="Rectángulo 669" width="26" height="26" transform="translate(1258 5070) rotate(-90)" fill="#b3d0f7"/>
    <rect id="Rectángulo_670" data-name="Rectángulo 670" width="25" height="26" transform="translate(1258 5026) rotate(-90)" fill="#d19486"/>
    <rect id="Rectángulo_671" data-name="Rectángulo 671" width="27" height="26" transform="translate(1258 4983) rotate(-90)" fill="#d19486"/>
    <rect id="Rectángulo_672" data-name="Rectángulo 672" width="26" height="26" transform="translate(1258 4939) rotate(-90)" fill="#f9e471"/>
    <rect id="Rectángulo_673" data-name="Rectángulo 673" width="27" height="26" transform="translate(1258 4896) rotate(-90)" fill="#000c2d"/>
    <rect id="Rectángulo_674" data-name="Rectángulo 674" width="26" height="26" transform="translate(1258 4852) rotate(-90)" fill="#000c2d"/>
    <rect id="Rectángulo_659" data-name="Rectángulo 659" width="26" height="26" transform="translate(1219 5157) rotate(-90)" fill="#b5b5b5"/>
    <rect id="Rectángulo_660" data-name="Rectángulo 660" width="26" height="26" transform="translate(1219 5113) rotate(-90)" fill="#b5b5b5"/>
    <rect id="Rectángulo_661" data-name="Rectángulo 661" width="26" height="26" transform="translate(1219 5070) rotate(-90)" fill="#680f22"/>
    <rect id="Rectángulo_662" data-name="Rectángulo 662" width="25" height="26" transform="translate(1219 5026) rotate(-90)" fill="#d19486"/>
    <rect id="Rectángulo_663" data-name="Rectángulo 663" width="27" height="26" transform="translate(1219 4983) rotate(-90)" fill="#d19486"/>
    <rect id="Rectángulo_664" data-name="Rectángulo 664" width="26" height="26" transform="translate(1219 4939) rotate(-90)" fill="#f9e471"/>
    <rect id="Rectángulo_665" data-name="Rectángulo 665" width="27" height="26" transform="translate(1219 4896) rotate(-90)" fill="#000c2d"/>
    <rect id="Rectángulo_666" data-name="Rectángulo 666" width="26" height="26" transform="translate(1219 4852) rotate(-90)" fill="#000c2d"/>
    <rect id="Rectángulo_683" data-name="Rectángulo 683" width="26" height="25" transform="translate(1337 5157) rotate(-90)" fill="#b5b5b5"/>
    <rect id="Rectángulo_684" data-name="Rectángulo 684" width="26" height="25" transform="translate(1337 5113) rotate(-90)" fill="#b5b5b5"/>
    <rect id="Rectángulo_685" data-name="Rectángulo 685" width="26" height="25" transform="translate(1337 5070) rotate(-90)" fill="#b3d0f7"/>
    <rect id="Rectángulo_686" data-name="Rectángulo 686" width="25" height="25" transform="translate(1337 5026) rotate(-90)" fill="#d19486"/>
    <rect id="Rectángulo_687" data-name="Rectángulo 687" width="27" height="25" transform="translate(1337 4983) rotate(-90)" fill="#d19486"/>
    <rect id="Rectángulo_688" data-name="Rectángulo 688" width="26" height="25" transform="translate(1337 4939) rotate(-90)" fill="#f9e471"/>
    <rect id="Rectángulo_689" data-name="Rectángulo 689" width="27" height="25" transform="translate(1337 4896) rotate(-90)" fill="#f9e471"/>
    <rect id="Rectángulo_690" data-name="Rectángulo 690" width="26" height="25" transform="translate(1337 4852) rotate(-90)" fill="#000c2d"/>
    <rect id="Rectángulo_691" data-name="Rectángulo 691" width="17" height="17" transform="translate(1443 4830)" fill="#000c2d"/>
    <rect id="Rectángulo_692" data-name="Rectángulo 692" width="17" height="17" transform="translate(1443 4868)" fill="#fce371"/>
    <rect id="Rectángulo_693" data-name="Rectángulo 693" width="17" height="17" transform="translate(1443 4906)" fill="#d19486"/>
    <rect id="Rectángulo_694" data-name="Rectángulo 694" width="17" height="17" transform="translate(1443 4944)" fill="#a59035"/>
    <rect id="Rectángulo_695" data-name="Rectángulo 695" width="17" height="17" transform="translate(1443 4982)" fill="#680f22"/>
    <rect id="Rectángulo_696" data-name="Rectángulo 696" width="17" height="17" transform="translate(1443 5020)" fill="#b3d0f7"/>
    <rect id="Rectángulo_697" data-name="Rectángulo 697" width="17" height="17" transform="translate(1443 5058)" fill="#97c789"/>
    <rect id="Rectángulo_698" data-name="Rectángulo 698" width="17" height="17" transform="translate(1443 5096)" fill="#8765ab"/>
    <rect id="Rectángulo_699" data-name="Rectángulo 699" width="17" height="17" transform="translate(1443 5134)" fill="#b5b5b5"/>
    <g id="Grupo_549" data-name="Grupo 549" transform="translate(60 1095)">
      <line id="Línea_44" data-name="Línea 44" x2="294" transform="translate(1383.5 3762.5)" fill="none" stroke="#a5a5a5" stroke-width="1"/>
      <line id="Línea_47" data-name="Línea 47" x2="294" transform="translate(1383.5 3838.5)" fill="none" stroke="#a5a5a5" stroke-width="1"/>
      <line id="Línea_45" data-name="Línea 45" x2="294" transform="translate(1383.5 3800.5)" fill="none" stroke="#a5a5a5" stroke-width="1"/>
      <line id="Línea_46" data-name="Línea 46" x2="294" transform="translate(1383.5 3876.5)" fill="none" stroke="#a5a5a5" stroke-width="1"/>
    </g>
    <g id="Grupo_550" data-name="Grupo 550" transform="translate(60 1247)">
      <line id="Línea_44-2" data-name="Línea 44" x2="294" transform="translate(1383.5 3762.5)" fill="none" stroke="#a5a5a5" stroke-width="1"/>
      <line id="Línea_47-2" data-name="Línea 47" x2="294" transform="translate(1383.5 3838.5)" fill="none" stroke="#a5a5a5" stroke-width="1"/>
      <line id="Línea_45-2" data-name="Línea 45" x2="294" transform="translate(1383.5 3800.5)" fill="none" stroke="#a5a5a5" stroke-width="1"/>
      <line id="Línea_46-2" data-name="Línea 46" x2="294" transform="translate(1383.5 3876.5)" fill="none" stroke="#a5a5a5" stroke-width="1"/>
      <line id="Línea_48" data-name="Línea 48" x2="294" transform="translate(1383.5 3914.5)" fill="none" stroke="#a5a5a5" stroke-width="1"/>
    </g>
  </g>
</svg>
