<svg xmlns="http://www.w3.org/2000/svg" width="264" height="172" viewBox="0 0 264 172">
  <g id="Grupo_700" data-name="Grupo 700" transform="translate(-740 -3780)">
    <rect id="Rectángulo_264" data-name="Rectángulo 264" width="12" height="12" transform="translate(776 3932) rotate(-90)" fill="#070b2d"/>
    <rect id="Rectángulo_807" data-name="Rectángulo 807" width="12" height="12" transform="translate(776 3952) rotate(-90)" fill="#e54e56"/>
    <rect id="Rectángulo_265" data-name="Rectángulo 265" width="12" height="12" transform="translate(776 3912) rotate(-90)" fill="#070b2d"/>
    <rect id="Rectángulo_266" data-name="Rectángulo 266" width="12" height="12" transform="translate(776 3892) rotate(-90)" fill="#070b2d"/>
    <rect id="Rectángulo_267" data-name="Rectángulo 267" width="12" height="12" transform="translate(776 3872) rotate(-90)" fill="#070b2d"/>
    <rect id="Rectángulo_268" data-name="Rectángulo 268" width="12" height="12" transform="translate(776 3852) rotate(-90)" fill="#070b2d"/>
    <rect id="Rectángulo_269" data-name="Rectángulo 269" width="12" height="12" transform="translate(776 3832) rotate(-90)" fill="#070b2d"/>
    <rect id="Rectángulo_270" data-name="Rectángulo 270" width="12" height="12" transform="translate(776 3812) rotate(-90)" fill="#070b2d"/>
    <rect id="Rectángulo_271" data-name="Rectángulo 271" width="12" height="12" transform="translate(776 3792) rotate(-90)" fill="#070b2d"/>
    <rect id="Rectángulo_264-2" data-name="Rectángulo 264" width="12" height="12" transform="translate(758 3932) rotate(-90)" fill="#070b2d"/>
    <rect id="Rectángulo_805" data-name="Rectángulo 805" width="12" height="12" transform="translate(758 3952) rotate(-90)" fill="#e54e56"/>
    <rect id="Rectángulo_265-2" data-name="Rectángulo 265" width="12" height="12" transform="translate(758 3912) rotate(-90)" fill="#070b2d"/>
    <rect id="Rectángulo_266-2" data-name="Rectángulo 266" width="12" height="12" transform="translate(758 3892) rotate(-90)" fill="#070b2d"/>
    <rect id="Rectángulo_267-2" data-name="Rectángulo 267" width="12" height="12" transform="translate(758 3872) rotate(-90)" fill="#070b2d"/>
    <rect id="Rectángulo_268-2" data-name="Rectángulo 268" width="12" height="12" transform="translate(758 3852) rotate(-90)" fill="#070b2d"/>
    <rect id="Rectángulo_269-2" data-name="Rectángulo 269" width="12" height="12" transform="translate(758 3832) rotate(-90)" fill="#070b2d"/>
    <rect id="Rectángulo_270-2" data-name="Rectángulo 270" width="12" height="12" transform="translate(758 3812) rotate(-90)" fill="#070b2d"/>
    <rect id="Rectángulo_271-2" data-name="Rectángulo 271" width="12" height="12" transform="translate(758 3792) rotate(-90)" fill="#070b2d"/>
    <rect id="Rectángulo_264-3" data-name="Rectángulo 264" width="12" height="12" transform="translate(740 3932) rotate(-90)" fill="#070b2d"/>
    <rect id="Rectángulo_806" data-name="Rectángulo 806" width="12" height="12" transform="translate(740 3952) rotate(-90)" fill="#e54e56"/>
    <rect id="Rectángulo_265-3" data-name="Rectángulo 265" width="12" height="12" transform="translate(740 3912) rotate(-90)" fill="#070b2d"/>
    <rect id="Rectángulo_266-3" data-name="Rectángulo 266" width="12" height="12" transform="translate(740 3892) rotate(-90)" fill="#070b2d"/>
    <rect id="Rectángulo_267-3" data-name="Rectángulo 267" width="12" height="12" transform="translate(740 3872) rotate(-90)" fill="#070b2d"/>
    <rect id="Rectángulo_268-3" data-name="Rectángulo 268" width="12" height="12" transform="translate(740 3852) rotate(-90)" fill="#070b2d"/>
    <rect id="Rectángulo_269-3" data-name="Rectángulo 269" width="12" height="12" transform="translate(740 3832) rotate(-90)" fill="#070b2d"/>
    <rect id="Rectángulo_270-3" data-name="Rectángulo 270" width="12" height="12" transform="translate(740 3812) rotate(-90)" fill="#070b2d"/>
    <rect id="Rectángulo_271-3" data-name="Rectángulo 271" width="12" height="12" transform="translate(740 3792) rotate(-90)" fill="#070b2d"/>
    <rect id="Rectángulo_264-4" data-name="Rectángulo 264" width="12" height="12" transform="translate(848 3932) rotate(-90)" fill="#070b2d"/>
    <rect id="Rectángulo_265-4" data-name="Rectángulo 265" width="12" height="12" transform="translate(848 3912) rotate(-90)" fill="#070b2d"/>
    <rect id="Rectángulo_266-4" data-name="Rectángulo 266" width="12" height="12" transform="translate(848 3892) rotate(-90)" fill="#070b2d"/>
    <rect id="Rectángulo_267-4" data-name="Rectángulo 267" width="12" height="12" transform="translate(848 3872) rotate(-90)" fill="#070b2d"/>
    <rect id="Rectángulo_268-4" data-name="Rectángulo 268" width="12" height="12" transform="translate(848 3852) rotate(-90)" fill="#070b2d"/>
    <rect id="Rectángulo_269-4" data-name="Rectángulo 269" width="12" height="12" transform="translate(848 3832) rotate(-90)" fill="#070b2d"/>
    <rect id="Rectángulo_270-4" data-name="Rectángulo 270" width="12" height="12" transform="translate(848 3812) rotate(-90)" fill="#070b2d"/>
    <rect id="Rectángulo_271-4" data-name="Rectángulo 271" width="12" height="12" transform="translate(848 3792) rotate(-90)" fill="#070b2d"/>
    <rect id="Rectángulo_264-5" data-name="Rectángulo 264" width="12" height="12" transform="translate(812 3932) rotate(-90)" fill="#070b2d"/>
    <rect id="Rectángulo_265-5" data-name="Rectángulo 265" width="12" height="12" transform="translate(812 3912) rotate(-90)" fill="#070b2d"/>
    <rect id="Rectángulo_266-5" data-name="Rectángulo 266" width="12" height="12" transform="translate(812 3892) rotate(-90)" fill="#070b2d"/>
    <rect id="Rectángulo_267-5" data-name="Rectángulo 267" width="12" height="12" transform="translate(812 3872) rotate(-90)" fill="#070b2d"/>
    <rect id="Rectángulo_268-5" data-name="Rectángulo 268" width="12" height="12" transform="translate(812 3852) rotate(-90)" fill="#070b2d"/>
    <rect id="Rectángulo_269-5" data-name="Rectángulo 269" width="12" height="12" transform="translate(812 3832) rotate(-90)" fill="#070b2d"/>
    <rect id="Rectángulo_270-5" data-name="Rectángulo 270" width="12" height="12" transform="translate(812 3812) rotate(-90)" fill="#070b2d"/>
    <rect id="Rectángulo_271-5" data-name="Rectángulo 271" width="12" height="12" transform="translate(812 3792) rotate(-90)" fill="#070b2d"/>
    <rect id="Rectángulo_264-6" data-name="Rectángulo 264" width="12" height="12" transform="translate(884 3932) rotate(-90)" fill="#070b2d"/>
    <rect id="Rectángulo_265-6" data-name="Rectángulo 265" width="12" height="12" transform="translate(884 3912) rotate(-90)" fill="#070b2d"/>
    <rect id="Rectángulo_266-6" data-name="Rectángulo 266" width="12" height="12" transform="translate(884 3892) rotate(-90)" fill="#070b2d"/>
    <rect id="Rectángulo_267-6" data-name="Rectángulo 267" width="12" height="12" transform="translate(884 3872) rotate(-90)" fill="#070b2d"/>
    <rect id="Rectángulo_268-6" data-name="Rectángulo 268" width="12" height="12" transform="translate(884 3852) rotate(-90)" fill="#070b2d"/>
    <rect id="Rectángulo_269-6" data-name="Rectángulo 269" width="12" height="12" transform="translate(884 3832) rotate(-90)" fill="#070b2d"/>
    <rect id="Rectángulo_270-6" data-name="Rectángulo 270" width="12" height="12" transform="translate(884 3812) rotate(-90)" fill="#070b2d"/>
    <rect id="Rectángulo_271-6" data-name="Rectángulo 271" width="12" height="12" transform="translate(884 3792) rotate(-90)" fill="#070b2d"/>
    <rect id="Rectángulo_264-7" data-name="Rectángulo 264" width="12" height="12" transform="translate(920 3932) rotate(-90)" fill="#070b2d"/>
    <rect id="Rectángulo_265-7" data-name="Rectángulo 265" width="12" height="12" transform="translate(920 3912) rotate(-90)" fill="#070b2d"/>
    <rect id="Rectángulo_266-7" data-name="Rectángulo 266" width="12" height="12" transform="translate(920 3892) rotate(-90)" fill="#070b2d"/>
    <rect id="Rectángulo_267-7" data-name="Rectángulo 267" width="12" height="12" transform="translate(920 3872) rotate(-90)" fill="#070b2d"/>
    <rect id="Rectángulo_268-7" data-name="Rectángulo 268" width="12" height="12" transform="translate(920 3852) rotate(-90)" fill="#070b2d"/>
    <rect id="Rectángulo_269-7" data-name="Rectángulo 269" width="12" height="12" transform="translate(920 3832) rotate(-90)" fill="#070b2d"/>
    <rect id="Rectángulo_270-7" data-name="Rectángulo 270" width="12" height="12" transform="translate(920 3812) rotate(-90)" fill="#070b2d"/>
    <rect id="Rectángulo_271-7" data-name="Rectángulo 271" width="12" height="12" transform="translate(920 3792) rotate(-90)" fill="#070b2d"/>
    <rect id="Rectángulo_264-8" data-name="Rectángulo 264" width="12" height="12" transform="translate(974 3932) rotate(-90)" fill="#e54e56"/>
    <rect id="Rectángulo_265-8" data-name="Rectángulo 265" width="12" height="12" transform="translate(974 3912) rotate(-90)" fill="#070b2d"/>
    <rect id="Rectángulo_266-8" data-name="Rectángulo 266" width="12" height="12" transform="translate(974 3892) rotate(-90)" fill="#070b2d"/>
    <rect id="Rectángulo_267-8" data-name="Rectángulo 267" width="12" height="12" transform="translate(974 3872) rotate(-90)" fill="#070b2d"/>
    <rect id="Rectángulo_268-8" data-name="Rectángulo 268" width="12" height="12" transform="translate(974 3852) rotate(-90)" fill="#070b2d"/>
    <rect id="Rectángulo_269-8" data-name="Rectángulo 269" width="12" height="12" transform="translate(974 3832) rotate(-90)" fill="#070b2d"/>
    <rect id="Rectángulo_270-8" data-name="Rectángulo 270" width="12" height="12" transform="translate(974 3812) rotate(-90)" fill="#070b2d"/>
    <rect id="Rectángulo_271-8" data-name="Rectángulo 271" width="12" height="12" transform="translate(974 3792) rotate(-90)" fill="#070b2d"/>
    <rect id="Rectángulo_264-9" data-name="Rectángulo 264" width="12" height="12" transform="translate(794 3932) rotate(-90)" fill="#070b2d"/>
    <rect id="Rectángulo_808" data-name="Rectángulo 808" width="12" height="12" transform="translate(794 3952) rotate(-90)" fill="#e54e56"/>
    <rect id="Rectángulo_265-9" data-name="Rectángulo 265" width="12" height="12" transform="translate(794 3912) rotate(-90)" fill="#070b2d"/>
    <rect id="Rectángulo_266-9" data-name="Rectángulo 266" width="12" height="12" transform="translate(794 3892) rotate(-90)" fill="#070b2d"/>
    <rect id="Rectángulo_267-9" data-name="Rectángulo 267" width="12" height="12" transform="translate(794 3872) rotate(-90)" fill="#070b2d"/>
    <rect id="Rectángulo_268-9" data-name="Rectángulo 268" width="12" height="12" transform="translate(794 3852) rotate(-90)" fill="#070b2d"/>
    <rect id="Rectángulo_269-9" data-name="Rectángulo 269" width="12" height="12" transform="translate(794 3832) rotate(-90)" fill="#070b2d"/>
    <rect id="Rectángulo_270-9" data-name="Rectángulo 270" width="12" height="12" transform="translate(794 3812) rotate(-90)" fill="#070b2d"/>
    <rect id="Rectángulo_271-9" data-name="Rectángulo 271" width="12" height="12" transform="translate(794 3792) rotate(-90)" fill="#070b2d"/>
    <rect id="Rectángulo_264-10" data-name="Rectángulo 264" width="12" height="12" transform="translate(866 3932) rotate(-90)" fill="#070b2d"/>
    <rect id="Rectángulo_265-10" data-name="Rectángulo 265" width="12" height="12" transform="translate(866 3912) rotate(-90)" fill="#070b2d"/>
    <rect id="Rectángulo_266-10" data-name="Rectángulo 266" width="12" height="12" transform="translate(866 3892) rotate(-90)" fill="#070b2d"/>
    <rect id="Rectángulo_267-10" data-name="Rectángulo 267" width="12" height="12" transform="translate(866 3872) rotate(-90)" fill="#070b2d"/>
    <rect id="Rectángulo_268-10" data-name="Rectángulo 268" width="12" height="12" transform="translate(866 3852) rotate(-90)" fill="#070b2d"/>
    <rect id="Rectángulo_269-10" data-name="Rectángulo 269" width="12" height="12" transform="translate(866 3832) rotate(-90)" fill="#070b2d"/>
    <rect id="Rectángulo_270-10" data-name="Rectángulo 270" width="12" height="12" transform="translate(866 3812) rotate(-90)" fill="#070b2d"/>
    <rect id="Rectángulo_271-10" data-name="Rectángulo 271" width="12" height="12" transform="translate(866 3792) rotate(-90)" fill="#070b2d"/>
    <rect id="Rectángulo_264-11" data-name="Rectángulo 264" width="12" height="12" transform="translate(830 3932) rotate(-90)" fill="#070b2d"/>
    <rect id="Rectángulo_265-11" data-name="Rectángulo 265" width="12" height="12" transform="translate(830 3912) rotate(-90)" fill="#070b2d"/>
    <rect id="Rectángulo_266-11" data-name="Rectángulo 266" width="12" height="12" transform="translate(830 3892) rotate(-90)" fill="#070b2d"/>
    <rect id="Rectángulo_267-11" data-name="Rectángulo 267" width="12" height="12" transform="translate(830 3872) rotate(-90)" fill="#070b2d"/>
    <rect id="Rectángulo_268-11" data-name="Rectángulo 268" width="12" height="12" transform="translate(830 3852) rotate(-90)" fill="#070b2d"/>
    <rect id="Rectángulo_269-11" data-name="Rectángulo 269" width="12" height="12" transform="translate(830 3832) rotate(-90)" fill="#070b2d"/>
    <rect id="Rectángulo_270-11" data-name="Rectángulo 270" width="12" height="12" transform="translate(830 3812) rotate(-90)" fill="#070b2d"/>
    <rect id="Rectángulo_271-11" data-name="Rectángulo 271" width="12" height="12" transform="translate(830 3792) rotate(-90)" fill="#070b2d"/>
    <rect id="Rectángulo_264-12" data-name="Rectángulo 264" width="12" height="12" transform="translate(902 3932) rotate(-90)" fill="#070b2d"/>
    <rect id="Rectángulo_265-12" data-name="Rectángulo 265" width="12" height="12" transform="translate(902 3912) rotate(-90)" fill="#070b2d"/>
    <rect id="Rectángulo_266-12" data-name="Rectángulo 266" width="12" height="12" transform="translate(902 3892) rotate(-90)" fill="#070b2d"/>
    <rect id="Rectángulo_267-12" data-name="Rectángulo 267" width="12" height="12" transform="translate(902 3872) rotate(-90)" fill="#070b2d"/>
    <rect id="Rectángulo_268-12" data-name="Rectángulo 268" width="12" height="12" transform="translate(902 3852) rotate(-90)" fill="#070b2d"/>
    <rect id="Rectángulo_269-12" data-name="Rectángulo 269" width="12" height="12" transform="translate(902 3832) rotate(-90)" fill="#070b2d"/>
    <rect id="Rectángulo_270-12" data-name="Rectángulo 270" width="12" height="12" transform="translate(902 3812) rotate(-90)" fill="#070b2d"/>
    <rect id="Rectángulo_271-12" data-name="Rectángulo 271" width="12" height="12" transform="translate(902 3792) rotate(-90)" fill="#070b2d"/>
    <rect id="Rectángulo_264-13" data-name="Rectángulo 264" width="12" height="12" transform="translate(956 3932) rotate(-90)" fill="#070b2d"/>
    <rect id="Rectángulo_265-13" data-name="Rectángulo 265" width="12" height="12" transform="translate(956 3912) rotate(-90)" fill="#070b2d"/>
    <rect id="Rectángulo_266-13" data-name="Rectángulo 266" width="12" height="12" transform="translate(956 3892) rotate(-90)" fill="#070b2d"/>
    <rect id="Rectángulo_267-13" data-name="Rectángulo 267" width="12" height="12" transform="translate(956 3872) rotate(-90)" fill="#070b2d"/>
    <rect id="Rectángulo_268-13" data-name="Rectángulo 268" width="12" height="12" transform="translate(956 3852) rotate(-90)" fill="#070b2d"/>
    <rect id="Rectángulo_269-13" data-name="Rectángulo 269" width="12" height="12" transform="translate(956 3832) rotate(-90)" fill="#070b2d"/>
    <rect id="Rectángulo_270-13" data-name="Rectángulo 270" width="12" height="12" transform="translate(956 3812) rotate(-90)" fill="#070b2d"/>
    <rect id="Rectángulo_271-13" data-name="Rectángulo 271" width="12" height="12" transform="translate(956 3792) rotate(-90)" fill="#070b2d"/>
    <rect id="Rectángulo_264-14" data-name="Rectángulo 264" width="12" height="12" transform="translate(938 3932) rotate(-90)" fill="#070b2d"/>
    <rect id="Rectángulo_265-14" data-name="Rectángulo 265" width="12" height="12" transform="translate(938 3912) rotate(-90)" fill="#070b2d"/>
    <rect id="Rectángulo_266-14" data-name="Rectángulo 266" width="12" height="12" transform="translate(938 3892) rotate(-90)" fill="#070b2d"/>
    <rect id="Rectángulo_267-14" data-name="Rectángulo 267" width="12" height="12" transform="translate(938 3872) rotate(-90)" fill="#070b2d"/>
    <rect id="Rectángulo_268-14" data-name="Rectángulo 268" width="12" height="12" transform="translate(938 3852) rotate(-90)" fill="#070b2d"/>
    <rect id="Rectángulo_269-14" data-name="Rectángulo 269" width="12" height="12" transform="translate(938 3832) rotate(-90)" fill="#070b2d"/>
    <rect id="Rectángulo_270-14" data-name="Rectángulo 270" width="12" height="12" transform="translate(938 3812) rotate(-90)" fill="#070b2d"/>
    <rect id="Rectángulo_271-14" data-name="Rectángulo 271" width="12" height="12" transform="translate(938 3792) rotate(-90)" fill="#070b2d"/>
    <rect id="Rectángulo_264-15" data-name="Rectángulo 264" width="12" height="12" transform="translate(992 3932) rotate(-90)" fill="#e54e56"/>
    <rect id="Rectángulo_265-15" data-name="Rectángulo 265" width="12" height="12" transform="translate(992 3912) rotate(-90)" fill="#070b2d"/>
    <rect id="Rectángulo_266-15" data-name="Rectángulo 266" width="12" height="12" transform="translate(992 3892) rotate(-90)" fill="#070b2d"/>
    <rect id="Rectángulo_267-15" data-name="Rectángulo 267" width="12" height="12" transform="translate(992 3872) rotate(-90)" fill="#070b2d"/>
    <rect id="Rectángulo_268-15" data-name="Rectángulo 268" width="12" height="12" transform="translate(992 3852) rotate(-90)" fill="#070b2d"/>
    <rect id="Rectángulo_269-15" data-name="Rectángulo 269" width="12" height="12" transform="translate(992 3832) rotate(-90)" fill="#070b2d"/>
    <rect id="Rectángulo_270-15" data-name="Rectángulo 270" width="12" height="12" transform="translate(992 3812) rotate(-90)" fill="#070b2d"/>
    <rect id="Rectángulo_271-15" data-name="Rectángulo 271" width="12" height="12" transform="translate(992 3792) rotate(-90)" fill="#070b2d"/>
  </g>
</svg>
