<svg xmlns="http://www.w3.org/2000/svg" width="1005" height="378" viewBox="0 0 1005 378">
  <g id="Grupo_708" data-name="Grupo 708" transform="translate(-787 -5371)">
    <text id="SFP_SSA_Presidente_SE_SEP_Segob_Consejo_de_Salubridad_CENACE_Otros" data-name="SFP
SSA
Presidente
SE
SEP
Segob
Consejo de Salubridad
CENACE
Otros" transform="translate(1474 5371)" fill="#333" font-size="22" font-family="SkolarSansLatn-Bd, Skolar Sans Latin"><tspan x="0" y="22">SFP</tspan><tspan x="0" y="60">SSA</tspan><tspan x="0" y="98">Presidente</tspan><tspan x="0" y="136">SE</tspan><tspan x="0" y="174">SEP</tspan><tspan x="0" y="212">Segob</tspan><tspan x="0" y="250">Consejo de Salubridad</tspan><tspan x="0" y="288">CENACE</tspan><tspan x="0" y="326">Otros</tspan></text>
    <text id="_27_26_21_7_7_6_4_3_23" data-name="27
26
21
7
7
6
4
3
23" transform="translate(1716 5371)" fill="#333" font-size="22" font-family="SkolarSansLatn-Bd, Skolar Sans Latin"><tspan x="0" y="22">27</tspan><tspan x="0" y="60">26</tspan><tspan x="0" y="98">21</tspan><tspan x="0" y="136">7</tspan><tspan x="0" y="174">7</tspan><tspan x="0" y="212">6</tspan><tspan x="0" y="250">4</tspan><tspan x="0" y="288">3</tspan><tspan x="0" y="326">23</tspan></text>
    <rect id="Rectángulo_1707" data-name="Rectángulo 1707" width="26" height="26" transform="translate(867 5705) rotate(-90)" fill="#b5b5b5"/>
    <rect id="Rectángulo_1708" data-name="Rectángulo 1708" width="26" height="26" transform="translate(867 5749) rotate(-90)" fill="#b5b5b5"/>
    <rect id="Rectángulo_1712" data-name="Rectángulo 1712" width="26" height="26" transform="translate(827 5705) rotate(-90)" fill="#b5b5b5"/>
    <rect id="Rectángulo_1713" data-name="Rectángulo 1713" width="26" height="26" transform="translate(827 5749) rotate(-90)" fill="#b5b5b5"/>
    <rect id="Rectángulo_1784" data-name="Rectángulo 1784" width="26" height="26" transform="translate(787 5705) rotate(-90)" fill="#b5b5b5"/>
    <rect id="Rectángulo_1785" data-name="Rectángulo 1785" width="26" height="26" transform="translate(787 5749) rotate(-90)" fill="#b5b5b5"/>
    <rect id="Rectángulo_1714" data-name="Rectángulo 1714" width="26" height="26" transform="translate(867 5661) rotate(-90)" fill="#b3d0f7"/>
    <rect id="Rectángulo_1715" data-name="Rectángulo 1715" width="26" height="26" transform="translate(827 5661) rotate(-90)" fill="#b3d0f7"/>
    <rect id="Rectángulo_1786" data-name="Rectángulo 1786" width="26" height="26" transform="translate(787 5661) rotate(-90)" fill="#b3d0f7"/>
    <rect id="Rectángulo_1728" data-name="Rectángulo 1728" width="26" height="26" transform="translate(867 5618) rotate(-90)" fill="#a59035"/>
    <rect id="Rectángulo_1729" data-name="Rectángulo 1729" width="26" height="26" transform="translate(827 5618) rotate(-90)" fill="#a59035"/>
    <rect id="Rectángulo_1787" data-name="Rectángulo 1787" width="26" height="26" transform="translate(787 5618) rotate(-90)" fill="#a59035"/>
    <rect id="Rectángulo_1742" data-name="Rectángulo 1742" width="25" height="26" transform="translate(867 5574) rotate(-90)" fill="#d19486"/>
    <rect id="Rectángulo_1743" data-name="Rectángulo 1743" width="25" height="26" transform="translate(827 5574) rotate(-90)" fill="#d19486"/>
    <rect id="Rectángulo_1788" data-name="Rectángulo 1788" width="25" height="26" transform="translate(787 5574) rotate(-90)" fill="#d19486"/>
    <rect id="Rectángulo_1756" data-name="Rectángulo 1756" width="27" height="26" transform="translate(867 5531) rotate(-90)" fill="#fce371"/>
    <rect id="Rectángulo_1757" data-name="Rectángulo 1757" width="27" height="26" transform="translate(827 5531) rotate(-90)" fill="#fce371"/>
    <rect id="Rectángulo_1789" data-name="Rectángulo 1789" width="27" height="26" transform="translate(787 5531) rotate(-90)" fill="#fce371"/>
    <rect id="Rectángulo_1770" data-name="Rectángulo 1770" width="26" height="26" transform="translate(867 5487) rotate(-90)" fill="#f9e471"/>
    <rect id="Rectángulo_1771" data-name="Rectángulo 1771" width="26" height="26" transform="translate(827 5487) rotate(-90)" fill="#f9e471"/>
    <rect id="Rectángulo_1790" data-name="Rectángulo 1790" width="26" height="26" transform="translate(787 5487) rotate(-90)" fill="#f9e471"/>
    <rect id="Rectángulo_1791" data-name="Rectángulo 1791" width="27" height="26" transform="translate(867 5444) rotate(-90)" fill="#000c2d"/>
    <rect id="Rectángulo_1792" data-name="Rectángulo 1792" width="27" height="26" transform="translate(827 5444) rotate(-90)" fill="#000c2d"/>
    <rect id="Rectángulo_1793" data-name="Rectángulo 1793" width="27" height="26" transform="translate(787 5444) rotate(-90)" fill="#000c2d"/>
    <rect id="Rectángulo_1806" data-name="Rectángulo 1806" width="26" height="26" transform="translate(867 5400) rotate(-90)" fill="#000c2d"/>
    <rect id="Rectángulo_1807" data-name="Rectángulo 1807" width="26" height="26" transform="translate(827 5400) rotate(-90)" fill="#000c2d"/>
    <rect id="Rectángulo_1808" data-name="Rectángulo 1808" width="26" height="26" transform="translate(787 5400) rotate(-90)" fill="#000c2d"/>
    <rect id="Rectángulo_1697" data-name="Rectángulo 1697" width="26" height="25" transform="translate(1024 5705) rotate(-90)" fill="#b5b5b5"/>
    <rect id="Rectángulo_1716" data-name="Rectángulo 1716" width="26" height="25" transform="translate(1024 5661) rotate(-90)" fill="#97c789"/>
    <rect id="Rectángulo_1730" data-name="Rectángulo 1730" width="26" height="25" transform="translate(1024 5618) rotate(-90)" fill="#680f22"/>
    <rect id="Rectángulo_1744" data-name="Rectángulo 1744" width="25" height="25" transform="translate(1024 5574) rotate(-90)" fill="#d19486"/>
    <rect id="Rectángulo_1758" data-name="Rectángulo 1758" width="27" height="25" transform="translate(1024 5531) rotate(-90)" fill="#f9e471"/>
    <rect id="Rectángulo_1772" data-name="Rectángulo 1772" width="26" height="25" transform="translate(1024 5487) rotate(-90)" fill="#f9e471"/>
    <rect id="Rectángulo_1794" data-name="Rectángulo 1794" width="27" height="25" transform="translate(1024 5444) rotate(-90)" fill="#000c2d"/>
    <rect id="Rectángulo_1809" data-name="Rectángulo 1809" width="26" height="25" transform="translate(1024 5400) rotate(-90)" fill="#000c2d"/>
    <rect id="Rectángulo_1709" data-name="Rectángulo 1709" width="26" height="27" transform="translate(945 5705) rotate(-90)" fill="#b5b5b5"/>
    <rect id="Rectángulo_1717" data-name="Rectángulo 1717" width="26" height="27" transform="translate(945 5661) rotate(-90)" fill="#97c789"/>
    <rect id="Rectángulo_1731" data-name="Rectángulo 1731" width="26" height="27" transform="translate(945 5618) rotate(-90)" fill="#a59035"/>
    <rect id="Rectángulo_1745" data-name="Rectángulo 1745" width="25" height="27" transform="translate(945 5574) rotate(-90)" fill="#d19486"/>
    <rect id="Rectángulo_1759" data-name="Rectángulo 1759" width="27" height="27" transform="translate(945 5531) rotate(-90)" fill="#fce371"/>
    <rect id="Rectángulo_1773" data-name="Rectángulo 1773" width="26" height="27" transform="translate(945 5487) rotate(-90)" fill="#f9e471"/>
    <rect id="Rectángulo_1795" data-name="Rectángulo 1795" width="27" height="27" transform="translate(945 5444) rotate(-90)" fill="#000c2d"/>
    <rect id="Rectángulo_1810" data-name="Rectángulo 1810" width="26" height="27" transform="translate(945 5400) rotate(-90)" fill="#000c2d"/>
    <rect id="Rectángulo_1698" data-name="Rectángulo 1698" width="26" height="26" transform="translate(1102 5705) rotate(-90)" fill="#b5b5b5"/>
    <rect id="Rectángulo_1718" data-name="Rectángulo 1718" width="26" height="26" transform="translate(1102 5661) rotate(-90)" fill="#8765ab"/>
    <rect id="Rectángulo_1732" data-name="Rectángulo 1732" width="26" height="26" transform="translate(1102 5618) rotate(-90)" fill="#680f22"/>
    <rect id="Rectángulo_1746" data-name="Rectángulo 1746" width="25" height="26" transform="translate(1102 5574) rotate(-90)" fill="#d19486"/>
    <rect id="Rectángulo_1760" data-name="Rectángulo 1760" width="27" height="26" transform="translate(1102 5531) rotate(-90)" fill="#d19486"/>
    <rect id="Rectángulo_1774" data-name="Rectángulo 1774" width="26" height="26" transform="translate(1102 5487) rotate(-90)" fill="#f9e471"/>
    <rect id="Rectángulo_1796" data-name="Rectángulo 1796" width="27" height="26" transform="translate(1102 5444) rotate(-90)" fill="#000c2d"/>
    <rect id="Rectángulo_1811" data-name="Rectángulo 1811" width="26" height="26" transform="translate(1102 5400) rotate(-90)" fill="#000c2d"/>
    <rect id="Rectángulo_1699" data-name="Rectángulo 1699" width="26" height="25" transform="translate(1181 5705) rotate(-90)" fill="#b5b5b5"/>
    <rect id="Rectángulo_1719" data-name="Rectángulo 1719" width="26" height="25" transform="translate(1181 5661) rotate(-90)" fill="#8765ab"/>
    <rect id="Rectángulo_1733" data-name="Rectángulo 1733" width="26" height="25" transform="translate(1181 5618) rotate(-90)" fill="#680f22"/>
    <rect id="Rectángulo_1747" data-name="Rectángulo 1747" width="25" height="25" transform="translate(1181 5574) rotate(-90)" fill="#d19486"/>
    <rect id="Rectángulo_1761" data-name="Rectángulo 1761" width="27" height="25" transform="translate(1181 5531) rotate(-90)" fill="#d19486"/>
    <rect id="Rectángulo_1775" data-name="Rectángulo 1775" width="26" height="25" transform="translate(1181 5487) rotate(-90)" fill="#f9e471"/>
    <rect id="Rectángulo_1797" data-name="Rectángulo 1797" width="27" height="25" transform="translate(1181 5444) rotate(-90)" fill="#000c2d"/>
    <rect id="Rectángulo_1812" data-name="Rectángulo 1812" width="26" height="25" transform="translate(1181 5400) rotate(-90)" fill="#000c2d"/>
    <rect id="Rectángulo_1700" data-name="Rectángulo 1700" width="26" height="25" transform="translate(1299 5705) rotate(-90)" fill="#b5b5b5"/>
    <rect id="Rectángulo_1720" data-name="Rectángulo 1720" width="26" height="25" transform="translate(1299 5661) rotate(-90)" fill="#b5b5b5"/>
    <rect id="Rectángulo_1734" data-name="Rectángulo 1734" width="26" height="25" transform="translate(1299 5618) rotate(-90)" fill="#b3d0f7"/>
    <rect id="Rectángulo_1748" data-name="Rectángulo 1748" width="25" height="25" transform="translate(1299 5574) rotate(-90)" fill="#d19486"/>
    <rect id="Rectángulo_1762" data-name="Rectángulo 1762" width="27" height="25" transform="translate(1299 5531) rotate(-90)" fill="#d19486"/>
    <rect id="Rectángulo_1776" data-name="Rectángulo 1776" width="26" height="25" transform="translate(1299 5487) rotate(-90)" fill="#f9e471"/>
    <rect id="Rectángulo_1798" data-name="Rectángulo 1798" width="27" height="25" transform="translate(1299 5444) rotate(-90)" fill="#f9e471"/>
    <rect id="Rectángulo_1813" data-name="Rectángulo 1813" width="26" height="25" transform="translate(1299 5400) rotate(-90)" fill="#000c2d"/>
    <rect id="Rectángulo_1710" data-name="Rectángulo 1710" width="26" height="27" transform="translate(906 5705) rotate(-90)" fill="#b5b5b5"/>
    <rect id="Rectángulo_1711" data-name="Rectángulo 1711" width="26" height="27" transform="translate(906 5749) rotate(-90)" fill="#b5b5b5"/>
    <rect id="Rectángulo_1721" data-name="Rectángulo 1721" width="26" height="27" transform="translate(906 5661) rotate(-90)" fill="#b3d0f7"/>
    <rect id="Rectángulo_1735" data-name="Rectángulo 1735" width="26" height="27" transform="translate(906 5618) rotate(-90)" fill="#a59035"/>
    <rect id="Rectángulo_1749" data-name="Rectángulo 1749" width="25" height="27" transform="translate(906 5574) rotate(-90)" fill="#d19486"/>
    <rect id="Rectángulo_1763" data-name="Rectángulo 1763" width="27" height="27" transform="translate(906 5531) rotate(-90)" fill="#fce371"/>
    <rect id="Rectángulo_1777" data-name="Rectángulo 1777" width="26" height="27" transform="translate(906 5487) rotate(-90)" fill="#f9e471"/>
    <rect id="Rectángulo_1799" data-name="Rectángulo 1799" width="27" height="27" transform="translate(906 5444) rotate(-90)" fill="#000c2d"/>
    <rect id="Rectángulo_1814" data-name="Rectángulo 1814" width="26" height="27" transform="translate(906 5400) rotate(-90)" fill="#000c2d"/>
    <rect id="Rectángulo_1701" data-name="Rectángulo 1701" width="26" height="26" transform="translate(1063 5705) rotate(-90)" fill="#b5b5b5"/>
    <rect id="Rectángulo_1722" data-name="Rectángulo 1722" width="26" height="26" transform="translate(1063 5661) rotate(-90)" fill="#97c789"/>
    <rect id="Rectángulo_1736" data-name="Rectángulo 1736" width="26" height="26" transform="translate(1063 5618) rotate(-90)" fill="#680f22"/>
    <rect id="Rectángulo_1750" data-name="Rectángulo 1750" width="25" height="26" transform="translate(1063 5574) rotate(-90)" fill="#d19486"/>
    <rect id="Rectángulo_1764" data-name="Rectángulo 1764" width="27" height="26" transform="translate(1063 5531) rotate(-90)" fill="#f9e471"/>
    <rect id="Rectángulo_1778" data-name="Rectángulo 1778" width="26" height="26" transform="translate(1063 5487) rotate(-90)" fill="#f9e471"/>
    <rect id="Rectángulo_1800" data-name="Rectángulo 1800" width="27" height="26" transform="translate(1063 5444) rotate(-90)" fill="#000c2d"/>
    <rect id="Rectángulo_1815" data-name="Rectángulo 1815" width="26" height="26" transform="translate(1063 5400) rotate(-90)" fill="#000c2d"/>
    <rect id="Rectángulo_1702" data-name="Rectángulo 1702" width="26" height="26" transform="translate(985 5705) rotate(-90)" fill="#b5b5b5"/>
    <rect id="Rectángulo_1723" data-name="Rectángulo 1723" width="26" height="26" transform="translate(985 5661) rotate(-90)" fill="#97c789"/>
    <rect id="Rectángulo_1737" data-name="Rectángulo 1737" width="26" height="26" transform="translate(985 5618) rotate(-90)" fill="#a59035"/>
    <rect id="Rectángulo_1751" data-name="Rectángulo 1751" width="25" height="26" transform="translate(985 5574) rotate(-90)" fill="#d19486"/>
    <rect id="Rectángulo_1765" data-name="Rectángulo 1765" width="27" height="26" transform="translate(985 5531) rotate(-90)" fill="#f9e471"/>
    <rect id="Rectángulo_1779" data-name="Rectángulo 1779" width="26" height="26" transform="translate(985 5487) rotate(-90)" fill="#f9e471"/>
    <rect id="Rectángulo_1801" data-name="Rectángulo 1801" width="27" height="26" transform="translate(985 5444) rotate(-90)" fill="#000c2d"/>
    <rect id="Rectángulo_1816" data-name="Rectángulo 1816" width="26" height="26" transform="translate(985 5400) rotate(-90)" fill="#000c2d"/>
    <rect id="Rectángulo_1703" data-name="Rectángulo 1703" width="26" height="25" transform="translate(1142 5705) rotate(-90)" fill="#b5b5b5"/>
    <rect id="Rectángulo_1724" data-name="Rectángulo 1724" width="26" height="25" transform="translate(1142 5661) rotate(-90)" fill="#8765ab"/>
    <rect id="Rectángulo_1738" data-name="Rectángulo 1738" width="26" height="25" transform="translate(1142 5618) rotate(-90)" fill="#680f22"/>
    <rect id="Rectángulo_1752" data-name="Rectángulo 1752" width="25" height="25" transform="translate(1142 5574) rotate(-90)" fill="#d19486"/>
    <rect id="Rectángulo_1766" data-name="Rectángulo 1766" width="27" height="25" transform="translate(1142 5531) rotate(-90)" fill="#d19486"/>
    <rect id="Rectángulo_1780" data-name="Rectángulo 1780" width="26" height="25" transform="translate(1142 5487) rotate(-90)" fill="#f9e471"/>
    <rect id="Rectángulo_1802" data-name="Rectángulo 1802" width="27" height="25" transform="translate(1142 5444) rotate(-90)" fill="#000c2d"/>
    <rect id="Rectángulo_1817" data-name="Rectángulo 1817" width="26" height="25" transform="translate(1142 5400) rotate(-90)" fill="#000c2d"/>
    <rect id="Rectángulo_1704" data-name="Rectángulo 1704" width="26" height="26" transform="translate(1259 5705) rotate(-90)" fill="#b5b5b5"/>
    <rect id="Rectángulo_1725" data-name="Rectángulo 1725" width="26" height="26" transform="translate(1259 5661) rotate(-90)" fill="#b5b5b5"/>
    <rect id="Rectángulo_1739" data-name="Rectángulo 1739" width="26" height="26" transform="translate(1259 5618) rotate(-90)" fill="#680f22"/>
    <rect id="Rectángulo_1753" data-name="Rectángulo 1753" width="25" height="26" transform="translate(1259 5574) rotate(-90)" fill="#d19486"/>
    <rect id="Rectángulo_1767" data-name="Rectángulo 1767" width="27" height="26" transform="translate(1259 5531) rotate(-90)" fill="#d19486"/>
    <rect id="Rectángulo_1781" data-name="Rectángulo 1781" width="26" height="26" transform="translate(1259 5487) rotate(-90)" fill="#f9e471"/>
    <rect id="Rectángulo_1803" data-name="Rectángulo 1803" width="27" height="26" transform="translate(1259 5444) rotate(-90)" fill="#f9e471"/>
    <rect id="Rectángulo_1818" data-name="Rectángulo 1818" width="26" height="26" transform="translate(1259 5400) rotate(-90)" fill="#000c2d"/>
    <rect id="Rectángulo_1705" data-name="Rectángulo 1705" width="26" height="26" transform="translate(1220 5705) rotate(-90)" fill="#b5b5b5"/>
    <rect id="Rectángulo_1726" data-name="Rectángulo 1726" width="26" height="26" transform="translate(1220 5661) rotate(-90)" fill="#b5b5b5"/>
    <rect id="Rectángulo_1740" data-name="Rectángulo 1740" width="26" height="26" transform="translate(1220 5618) rotate(-90)" fill="#680f22"/>
    <rect id="Rectángulo_1754" data-name="Rectángulo 1754" width="25" height="26" transform="translate(1220 5574) rotate(-90)" fill="#d19486"/>
    <rect id="Rectángulo_1768" data-name="Rectángulo 1768" width="27" height="26" transform="translate(1220 5531) rotate(-90)" fill="#d19486"/>
    <rect id="Rectángulo_1782" data-name="Rectángulo 1782" width="26" height="26" transform="translate(1220 5487) rotate(-90)" fill="#f9e471"/>
    <rect id="Rectángulo_1804" data-name="Rectángulo 1804" width="27" height="26" transform="translate(1220 5444) rotate(-90)" fill="#000c2d"/>
    <rect id="Rectángulo_1819" data-name="Rectángulo 1819" width="26" height="26" transform="translate(1220 5400) rotate(-90)" fill="#000c2d"/>
    <rect id="Rectángulo_1706" data-name="Rectángulo 1706" width="26" height="25" transform="translate(1338 5705) rotate(-90)" fill="#b5b5b5"/>
    <rect id="Rectángulo_1727" data-name="Rectángulo 1727" width="26" height="25" transform="translate(1338 5661) rotate(-90)" fill="#b5b5b5"/>
    <rect id="Rectángulo_1741" data-name="Rectángulo 1741" width="26" height="25" transform="translate(1338 5618) rotate(-90)" fill="#b3d0f7"/>
    <rect id="Rectángulo_1755" data-name="Rectángulo 1755" width="25" height="25" transform="translate(1338 5574) rotate(-90)" fill="#a59035"/>
    <rect id="Rectángulo_1769" data-name="Rectángulo 1769" width="27" height="25" transform="translate(1338 5531) rotate(-90)" fill="#d19486"/>
    <rect id="Rectángulo_1783" data-name="Rectángulo 1783" width="26" height="25" transform="translate(1338 5487) rotate(-90)" fill="#f9e471"/>
    <rect id="Rectángulo_1805" data-name="Rectángulo 1805" width="27" height="25" transform="translate(1338 5444) rotate(-90)" fill="#f9e471"/>
    <rect id="Rectángulo_1820" data-name="Rectángulo 1820" width="26" height="25" transform="translate(1338 5400) rotate(-90)" fill="#000c2d"/>
    <rect id="Rectángulo_783" data-name="Rectángulo 783" width="17" height="17" transform="translate(1443 5378)" fill="#000c2d"/>
    <rect id="Rectángulo_784" data-name="Rectángulo 784" width="17" height="17" transform="translate(1443 5416)" fill="#fce371"/>
    <rect id="Rectángulo_785" data-name="Rectángulo 785" width="17" height="17" transform="translate(1443 5454)" fill="#d19486"/>
    <rect id="Rectángulo_786" data-name="Rectángulo 786" width="17" height="17" transform="translate(1443 5492)" fill="#a59035"/>
    <rect id="Rectángulo_787" data-name="Rectángulo 787" width="17" height="17" transform="translate(1443 5530)" fill="#680f22"/>
    <rect id="Rectángulo_788" data-name="Rectángulo 788" width="17" height="17" transform="translate(1443 5568)" fill="#b3d0f7"/>
    <rect id="Rectángulo_789" data-name="Rectángulo 789" width="17" height="17" transform="translate(1443 5606)" fill="#97c789"/>
    <rect id="Rectángulo_790" data-name="Rectángulo 790" width="17" height="17" transform="translate(1443 5644)" fill="#8765ab"/>
    <rect id="Rectángulo_791" data-name="Rectángulo 791" width="17" height="17" transform="translate(1443 5682)" fill="#b5b5b5"/>
    <line id="Línea_88" data-name="Línea 88" x2="294" transform="translate(1443.5 5405.5)" fill="none" stroke="#a5a5a5" stroke-width="1"/>
    <line id="Línea_93" data-name="Línea 93" x2="294" transform="translate(1443.5 5523)" fill="none" stroke="#a5a5a5" stroke-width="1"/>
    <line id="Línea_96" data-name="Línea 96" x2="294" transform="translate(1443.5 5633.5)" fill="none" stroke="#a5a5a5" stroke-width="1"/>
    <line id="Línea_89" data-name="Línea 89" x2="294" transform="translate(1443.5 5443.5)" fill="none" stroke="#a5a5a5" stroke-width="1"/>
    <line id="Línea_92" data-name="Línea 92" x2="294" transform="translate(1443.5 5561)" fill="none" stroke="#a5a5a5" stroke-width="1"/>
    <line id="Línea_95" data-name="Línea 95" x2="294" transform="translate(1443.5 5671.5)" fill="none" stroke="#a5a5a5" stroke-width="1"/>
    <line id="Línea_90" data-name="Línea 90" x2="294" transform="translate(1443.5 5481.5)" fill="none" stroke="#a5a5a5" stroke-width="1"/>
    <line id="Línea_91" data-name="Línea 91" x2="294" transform="translate(1443.5 5599)" fill="none" stroke="#a5a5a5" stroke-width="1"/>
    <line id="Línea_94" data-name="Línea 94" x2="294" transform="translate(1443.5 5709.5)" fill="none" stroke="#a5a5a5" stroke-width="1"/>
  </g>
</svg>
