<svg xmlns="http://www.w3.org/2000/svg" width="264" height="172" viewBox="0 0 264 172">
  <g id="Grupo_701" data-name="Grupo 701" transform="translate(-1270 -3780)">
    <rect id="Rectángulo_865" data-name="Rectángulo 865" width="12" height="12" transform="translate(1306 3932) rotate(-90)" fill="#e54e56"/>
    <rect id="Rectángulo_889" data-name="Rectángulo 889" width="12" height="12" transform="translate(1306 3952) rotate(-90)" fill="#e54e56"/>
    <rect id="Rectángulo_829" data-name="Rectángulo 829" width="12" height="12" transform="translate(1306 3912) rotate(-90)" fill="#e54e56"/>
    <rect id="Rectángulo_830" data-name="Rectángulo 830" width="12" height="12" transform="translate(1306 3892) rotate(-90)" fill="#070b2d"/>
    <rect id="Rectángulo_831" data-name="Rectángulo 831" width="12" height="12" transform="translate(1306 3872) rotate(-90)" fill="#070b2d"/>
    <rect id="Rectángulo_811" data-name="Rectángulo 811" width="12" height="12" transform="translate(1306 3852) rotate(-90)" fill="#070b2d"/>
    <rect id="Rectángulo_812" data-name="Rectángulo 812" width="12" height="12" transform="translate(1306 3832) rotate(-90)" fill="#070b2d"/>
    <rect id="Rectángulo_813" data-name="Rectángulo 813" width="12" height="12" transform="translate(1306 3812) rotate(-90)" fill="#070b2d"/>
    <rect id="Rectángulo_814" data-name="Rectángulo 814" width="12" height="12" transform="translate(1306 3792) rotate(-90)" fill="#070b2d"/>
    <rect id="Rectángulo_866" data-name="Rectángulo 866" width="12" height="12" transform="translate(1288 3932) rotate(-90)" fill="#e54e56"/>
    <rect id="Rectángulo_890" data-name="Rectángulo 890" width="12" height="12" transform="translate(1288 3952) rotate(-90)" fill="#e54e56"/>
    <rect id="Rectángulo_832" data-name="Rectángulo 832" width="12" height="12" transform="translate(1288 3912) rotate(-90)" fill="#e54e56"/>
    <rect id="Rectángulo_833" data-name="Rectángulo 833" width="12" height="12" transform="translate(1288 3892) rotate(-90)" fill="#070b2d"/>
    <rect id="Rectángulo_834" data-name="Rectángulo 834" width="12" height="12" transform="translate(1288 3872) rotate(-90)" fill="#070b2d"/>
    <rect id="Rectángulo_815" data-name="Rectángulo 815" width="12" height="12" transform="translate(1288 3852) rotate(-90)" fill="#070b2d"/>
    <rect id="Rectángulo_816" data-name="Rectángulo 816" width="12" height="12" transform="translate(1288 3832) rotate(-90)" fill="#070b2d"/>
    <rect id="Rectángulo_817" data-name="Rectángulo 817" width="12" height="12" transform="translate(1288 3812) rotate(-90)" fill="#070b2d"/>
    <rect id="Rectángulo_809" data-name="Rectángulo 809" width="12" height="12" transform="translate(1288 3792) rotate(-90)" fill="#070b2d"/>
    <rect id="Rectángulo_867" data-name="Rectángulo 867" width="12" height="12" transform="translate(1270 3932) rotate(-90)" fill="#e54e56"/>
    <rect id="Rectángulo_891" data-name="Rectángulo 891" width="12" height="12" transform="translate(1270 3952) rotate(-90)" fill="#e54e56"/>
    <rect id="Rectángulo_835" data-name="Rectángulo 835" width="12" height="12" transform="translate(1270 3912) rotate(-90)" fill="#e54e56"/>
    <rect id="Rectángulo_836" data-name="Rectángulo 836" width="12" height="12" transform="translate(1270 3892) rotate(-90)" fill="#070b2d"/>
    <rect id="Rectángulo_837" data-name="Rectángulo 837" width="12" height="12" transform="translate(1270 3872) rotate(-90)" fill="#070b2d"/>
    <rect id="Rectángulo_818" data-name="Rectángulo 818" width="12" height="12" transform="translate(1270 3852) rotate(-90)" fill="#070b2d"/>
    <rect id="Rectángulo_819" data-name="Rectángulo 819" width="12" height="12" transform="translate(1270 3832) rotate(-90)" fill="#070b2d"/>
    <rect id="Rectángulo_820" data-name="Rectángulo 820" width="12" height="12" transform="translate(1270 3812) rotate(-90)" fill="#070b2d"/>
    <rect id="Rectángulo_810" data-name="Rectángulo 810" width="12" height="12" transform="translate(1270 3792) rotate(-90)" fill="#070b2d"/>
    <rect id="Rectángulo_868" data-name="Rectángulo 868" width="12" height="12" transform="translate(1378 3932) rotate(-90)" fill="#e54e56"/>
    <rect id="Rectángulo_838" data-name="Rectángulo 838" width="12" height="12" transform="translate(1378 3912) rotate(-90)" fill="#e54e56"/>
    <rect id="Rectángulo_839" data-name="Rectángulo 839" width="12" height="12" transform="translate(1378 3892) rotate(-90)" fill="#e54e56"/>
    <rect id="Rectángulo_840" data-name="Rectángulo 840" width="12" height="12" transform="translate(1378 3872) rotate(-90)" fill="#070b2d"/>
    <rect id="Rectángulo_841" data-name="Rectángulo 841" width="12" height="12" transform="translate(1378 3852) rotate(-90)" fill="#070b2d"/>
    <rect id="Rectángulo_842" data-name="Rectángulo 842" width="12" height="12" transform="translate(1378 3832) rotate(-90)" fill="#070b2d"/>
    <rect id="Rectángulo_843" data-name="Rectángulo 843" width="12" height="12" transform="translate(1378 3812) rotate(-90)" fill="#070b2d"/>
    <rect id="Rectángulo_844" data-name="Rectángulo 844" width="12" height="12" transform="translate(1378 3792) rotate(-90)" fill="#070b2d"/>
    <rect id="Rectángulo_869" data-name="Rectángulo 869" width="12" height="12" transform="translate(1342 3932) rotate(-90)" fill="#e54e56"/>
    <rect id="Rectángulo_845" data-name="Rectángulo 845" width="12" height="12" transform="translate(1342 3912) rotate(-90)" fill="#e54e56"/>
    <rect id="Rectángulo_846" data-name="Rectángulo 846" width="12" height="12" transform="translate(1342 3892) rotate(-90)" fill="#070b2d"/>
    <rect id="Rectángulo_847" data-name="Rectángulo 847" width="12" height="12" transform="translate(1342 3872) rotate(-90)" fill="#070b2d"/>
    <rect id="Rectángulo_821" data-name="Rectángulo 821" width="12" height="12" transform="translate(1342 3852) rotate(-90)" fill="#070b2d"/>
    <rect id="Rectángulo_822" data-name="Rectángulo 822" width="12" height="12" transform="translate(1342 3832) rotate(-90)" fill="#070b2d"/>
    <rect id="Rectángulo_823" data-name="Rectángulo 823" width="12" height="12" transform="translate(1342 3812) rotate(-90)" fill="#070b2d"/>
    <rect id="Rectángulo_824" data-name="Rectángulo 824" width="12" height="12" transform="translate(1342 3792) rotate(-90)" fill="#070b2d"/>
    <rect id="Rectángulo_870" data-name="Rectángulo 870" width="12" height="12" transform="translate(1414 3932) rotate(-90)" fill="#e54e56"/>
    <rect id="Rectángulo_871" data-name="Rectángulo 871" width="12" height="12" transform="translate(1414 3912) rotate(-90)" fill="#e54e56"/>
    <rect id="Rectángulo_872" data-name="Rectángulo 872" width="12" height="12" transform="translate(1414 3892) rotate(-90)" fill="#e54e56"/>
    <rect id="Rectángulo_873" data-name="Rectángulo 873" width="12" height="12" transform="translate(1414 3872) rotate(-90)" fill="#070b2d"/>
    <rect id="Rectángulo_874" data-name="Rectángulo 874" width="12" height="12" transform="translate(1414 3852) rotate(-90)" fill="#070b2d"/>
    <rect id="Rectángulo_875" data-name="Rectángulo 875" width="12" height="12" transform="translate(1414 3832) rotate(-90)" fill="#070b2d"/>
    <rect id="Rectángulo_876" data-name="Rectángulo 876" width="12" height="12" transform="translate(1414 3812) rotate(-90)" fill="#070b2d"/>
    <rect id="Rectángulo_877" data-name="Rectángulo 877" width="12" height="12" transform="translate(1414 3792) rotate(-90)" fill="#070b2d"/>
    <rect id="Rectángulo_892" data-name="Rectángulo 892" width="12" height="12" transform="translate(1450 3932) rotate(-90)" fill="#e54e56"/>
    <rect id="Rectángulo_893" data-name="Rectángulo 893" width="12" height="12" transform="translate(1450 3912) rotate(-90)" fill="#e54e56"/>
    <rect id="Rectángulo_894" data-name="Rectángulo 894" width="12" height="12" transform="translate(1450 3892) rotate(-90)" fill="#e54e56"/>
    <rect id="Rectángulo_895" data-name="Rectángulo 895" width="12" height="12" transform="translate(1450 3872) rotate(-90)" fill="#070b2d"/>
    <rect id="Rectángulo_896" data-name="Rectángulo 896" width="12" height="12" transform="translate(1450 3852) rotate(-90)" fill="#070b2d"/>
    <rect id="Rectángulo_897" data-name="Rectángulo 897" width="12" height="12" transform="translate(1450 3832) rotate(-90)" fill="#070b2d"/>
    <rect id="Rectángulo_898" data-name="Rectángulo 898" width="12" height="12" transform="translate(1450 3812) rotate(-90)" fill="#070b2d"/>
    <rect id="Rectángulo_899" data-name="Rectángulo 899" width="12" height="12" transform="translate(1450 3792) rotate(-90)" fill="#070b2d"/>
    <rect id="Rectángulo_917" data-name="Rectángulo 917" width="12" height="12" transform="translate(1504 3932) rotate(-90)" fill="#e54e56"/>
    <rect id="Rectángulo_918" data-name="Rectángulo 918" width="12" height="12" transform="translate(1504 3912) rotate(-90)" fill="#e54e56"/>
    <rect id="Rectángulo_919" data-name="Rectángulo 919" width="12" height="12" transform="translate(1504 3892) rotate(-90)" fill="#e54e56"/>
    <rect id="Rectángulo_920" data-name="Rectángulo 920" width="12" height="12" transform="translate(1504 3872) rotate(-90)" fill="#070b2d"/>
    <rect id="Rectángulo_921" data-name="Rectángulo 921" width="12" height="12" transform="translate(1504 3852) rotate(-90)" fill="#070b2d"/>
    <rect id="Rectángulo_922" data-name="Rectángulo 922" width="12" height="12" transform="translate(1504 3832) rotate(-90)" fill="#070b2d"/>
    <rect id="Rectángulo_923" data-name="Rectángulo 923" width="12" height="12" transform="translate(1504 3812) rotate(-90)" fill="#070b2d"/>
    <rect id="Rectángulo_924" data-name="Rectángulo 924" width="12" height="12" transform="translate(1504 3792) rotate(-90)" fill="#070b2d"/>
    <rect id="Rectángulo_878" data-name="Rectángulo 878" width="12" height="12" transform="translate(1324 3932) rotate(-90)" fill="#e54e56"/>
    <rect id="Rectángulo_900" data-name="Rectángulo 900" width="12" height="12" transform="translate(1324 3952) rotate(-90)" fill="#e54e56"/>
    <rect id="Rectángulo_848" data-name="Rectángulo 848" width="12" height="12" transform="translate(1324 3912) rotate(-90)" fill="#e54e56"/>
    <rect id="Rectángulo_849" data-name="Rectángulo 849" width="12" height="12" transform="translate(1324 3892) rotate(-90)" fill="#070b2d"/>
    <rect id="Rectángulo_850" data-name="Rectángulo 850" width="12" height="12" transform="translate(1324 3872) rotate(-90)" fill="#070b2d"/>
    <rect id="Rectángulo_825" data-name="Rectángulo 825" width="12" height="12" transform="translate(1324 3852) rotate(-90)" fill="#070b2d"/>
    <rect id="Rectángulo_826" data-name="Rectángulo 826" width="12" height="12" transform="translate(1324 3832) rotate(-90)" fill="#070b2d"/>
    <rect id="Rectángulo_827" data-name="Rectángulo 827" width="12" height="12" transform="translate(1324 3812) rotate(-90)" fill="#070b2d"/>
    <rect id="Rectángulo_828" data-name="Rectángulo 828" width="12" height="12" transform="translate(1324 3792) rotate(-90)" fill="#070b2d"/>
    <rect id="Rectángulo_879" data-name="Rectángulo 879" width="12" height="12" transform="translate(1396 3932) rotate(-90)" fill="#e54e56"/>
    <rect id="Rectángulo_851" data-name="Rectángulo 851" width="12" height="12" transform="translate(1396 3912) rotate(-90)" fill="#e54e56"/>
    <rect id="Rectángulo_852" data-name="Rectángulo 852" width="12" height="12" transform="translate(1396 3892) rotate(-90)" fill="#e54e56"/>
    <rect id="Rectángulo_853" data-name="Rectángulo 853" width="12" height="12" transform="translate(1396 3872) rotate(-90)" fill="#070b2d"/>
    <rect id="Rectángulo_854" data-name="Rectángulo 854" width="12" height="12" transform="translate(1396 3852) rotate(-90)" fill="#070b2d"/>
    <rect id="Rectángulo_855" data-name="Rectángulo 855" width="12" height="12" transform="translate(1396 3832) rotate(-90)" fill="#070b2d"/>
    <rect id="Rectángulo_856" data-name="Rectángulo 856" width="12" height="12" transform="translate(1396 3812) rotate(-90)" fill="#070b2d"/>
    <rect id="Rectángulo_857" data-name="Rectángulo 857" width="12" height="12" transform="translate(1396 3792) rotate(-90)" fill="#070b2d"/>
    <rect id="Rectángulo_880" data-name="Rectángulo 880" width="12" height="12" transform="translate(1360 3932) rotate(-90)" fill="#e54e56"/>
    <rect id="Rectángulo_858" data-name="Rectángulo 858" width="12" height="12" transform="translate(1360 3912) rotate(-90)" fill="#e54e56"/>
    <rect id="Rectángulo_859" data-name="Rectángulo 859" width="12" height="12" transform="translate(1360 3892) rotate(-90)" fill="#070b2d"/>
    <rect id="Rectángulo_860" data-name="Rectángulo 860" width="12" height="12" transform="translate(1360 3872) rotate(-90)" fill="#070b2d"/>
    <rect id="Rectángulo_861" data-name="Rectángulo 861" width="12" height="12" transform="translate(1360 3852) rotate(-90)" fill="#070b2d"/>
    <rect id="Rectángulo_862" data-name="Rectángulo 862" width="12" height="12" transform="translate(1360 3832) rotate(-90)" fill="#070b2d"/>
    <rect id="Rectángulo_863" data-name="Rectángulo 863" width="12" height="12" transform="translate(1360 3812) rotate(-90)" fill="#070b2d"/>
    <rect id="Rectángulo_864" data-name="Rectángulo 864" width="12" height="12" transform="translate(1360 3792) rotate(-90)" fill="#070b2d"/>
    <rect id="Rectángulo_881" data-name="Rectángulo 881" width="12" height="12" transform="translate(1432 3932) rotate(-90)" fill="#e54e56"/>
    <rect id="Rectángulo_882" data-name="Rectángulo 882" width="12" height="12" transform="translate(1432 3912) rotate(-90)" fill="#e54e56"/>
    <rect id="Rectángulo_883" data-name="Rectángulo 883" width="12" height="12" transform="translate(1432 3892) rotate(-90)" fill="#e54e56"/>
    <rect id="Rectángulo_884" data-name="Rectángulo 884" width="12" height="12" transform="translate(1432 3872) rotate(-90)" fill="#070b2d"/>
    <rect id="Rectángulo_885" data-name="Rectángulo 885" width="12" height="12" transform="translate(1432 3852) rotate(-90)" fill="#070b2d"/>
    <rect id="Rectángulo_886" data-name="Rectángulo 886" width="12" height="12" transform="translate(1432 3832) rotate(-90)" fill="#070b2d"/>
    <rect id="Rectángulo_887" data-name="Rectángulo 887" width="12" height="12" transform="translate(1432 3812) rotate(-90)" fill="#070b2d"/>
    <rect id="Rectángulo_888" data-name="Rectángulo 888" width="12" height="12" transform="translate(1432 3792) rotate(-90)" fill="#070b2d"/>
    <rect id="Rectángulo_909" data-name="Rectángulo 909" width="12" height="12" transform="translate(1486 3932) rotate(-90)" fill="#e54e56"/>
    <rect id="Rectángulo_910" data-name="Rectángulo 910" width="12" height="12" transform="translate(1486 3912) rotate(-90)" fill="#e54e56"/>
    <rect id="Rectángulo_911" data-name="Rectángulo 911" width="12" height="12" transform="translate(1486 3892) rotate(-90)" fill="#e54e56"/>
    <rect id="Rectángulo_912" data-name="Rectángulo 912" width="12" height="12" transform="translate(1486 3872) rotate(-90)" fill="#070b2d"/>
    <rect id="Rectángulo_913" data-name="Rectángulo 913" width="12" height="12" transform="translate(1486 3852) rotate(-90)" fill="#070b2d"/>
    <rect id="Rectángulo_914" data-name="Rectángulo 914" width="12" height="12" transform="translate(1486 3832) rotate(-90)" fill="#070b2d"/>
    <rect id="Rectángulo_915" data-name="Rectángulo 915" width="12" height="12" transform="translate(1486 3812) rotate(-90)" fill="#070b2d"/>
    <rect id="Rectángulo_916" data-name="Rectángulo 916" width="12" height="12" transform="translate(1486 3792) rotate(-90)" fill="#070b2d"/>
    <rect id="Rectángulo_901" data-name="Rectángulo 901" width="12" height="12" transform="translate(1468 3932) rotate(-90)" fill="#e54e56"/>
    <rect id="Rectángulo_902" data-name="Rectángulo 902" width="12" height="12" transform="translate(1468 3912) rotate(-90)" fill="#e54e56"/>
    <rect id="Rectángulo_903" data-name="Rectángulo 903" width="12" height="12" transform="translate(1468 3892) rotate(-90)" fill="#e54e56"/>
    <rect id="Rectángulo_904" data-name="Rectángulo 904" width="12" height="12" transform="translate(1468 3872) rotate(-90)" fill="#070b2d"/>
    <rect id="Rectángulo_905" data-name="Rectángulo 905" width="12" height="12" transform="translate(1468 3852) rotate(-90)" fill="#070b2d"/>
    <rect id="Rectángulo_906" data-name="Rectángulo 906" width="12" height="12" transform="translate(1468 3832) rotate(-90)" fill="#070b2d"/>
    <rect id="Rectángulo_907" data-name="Rectángulo 907" width="12" height="12" transform="translate(1468 3812) rotate(-90)" fill="#070b2d"/>
    <rect id="Rectángulo_908" data-name="Rectángulo 908" width="12" height="12" transform="translate(1468 3792) rotate(-90)" fill="#070b2d"/>
    <rect id="Rectángulo_925" data-name="Rectángulo 925" width="12" height="12" transform="translate(1522 3932) rotate(-90)" fill="#e54e56"/>
    <rect id="Rectángulo_926" data-name="Rectángulo 926" width="12" height="12" transform="translate(1522 3912) rotate(-90)" fill="#e54e56"/>
    <rect id="Rectángulo_927" data-name="Rectángulo 927" width="12" height="12" transform="translate(1522 3892) rotate(-90)" fill="#e54e56"/>
    <rect id="Rectángulo_928" data-name="Rectángulo 928" width="12" height="12" transform="translate(1522 3872) rotate(-90)" fill="#070b2d"/>
    <rect id="Rectángulo_929" data-name="Rectángulo 929" width="12" height="12" transform="translate(1522 3852) rotate(-90)" fill="#070b2d"/>
    <rect id="Rectángulo_930" data-name="Rectángulo 930" width="12" height="12" transform="translate(1522 3832) rotate(-90)" fill="#070b2d"/>
    <rect id="Rectángulo_931" data-name="Rectángulo 931" width="12" height="12" transform="translate(1522 3812) rotate(-90)" fill="#070b2d"/>
    <rect id="Rectángulo_932" data-name="Rectángulo 932" width="12" height="12" transform="translate(1522 3792) rotate(-90)" fill="#070b2d"/>
  </g>
</svg>
