<svg xmlns="http://www.w3.org/2000/svg" width="264" height="172" viewBox="0 0 264 172">
  <g id="Grupo_706" data-name="Grupo 706" transform="translate(-740 -4486)">
    <rect id="Rectángulo_1236" data-name="Rectángulo 1236" width="12" height="12" transform="translate(776 4638) rotate(-90)" fill="#e54e56"/>
    <rect id="Rectángulo_1237" data-name="Rectángulo 1237" width="12" height="12" transform="translate(776 4658) rotate(-90)" fill="#e54e56"/>
    <rect id="Rectángulo_1238" data-name="Rectángulo 1238" width="12" height="12" transform="translate(776 4618) rotate(-90)" fill="#e54e56"/>
    <rect id="Rectángulo_1239" data-name="Rectángulo 1239" width="12" height="12" transform="translate(776 4598) rotate(-90)" fill="#e54e56"/>
    <rect id="Rectángulo_1240" data-name="Rectángulo 1240" width="12" height="12" transform="translate(776 4578) rotate(-90)" fill="#e54e56"/>
    <rect id="Rectángulo_1241" data-name="Rectángulo 1241" width="12" height="12" transform="translate(776 4558) rotate(-90)" fill="#e54e56"/>
    <rect id="Rectángulo_1242" data-name="Rectángulo 1242" width="12" height="12" transform="translate(776 4538) rotate(-90)" fill="#e54e56"/>
    <rect id="Rectángulo_1243" data-name="Rectángulo 1243" width="12" height="12" transform="translate(776 4518) rotate(-90)" fill="#e54e56"/>
    <rect id="Rectángulo_1274" data-name="Rectángulo 1274" width="12" height="12" transform="translate(776 4498) rotate(-90)" fill="#070b2d"/>
    <rect id="Rectángulo_1287" data-name="Rectángulo 1287" width="12" height="12" transform="translate(758 4638) rotate(-90)" fill="#e54e56"/>
    <rect id="Rectángulo_1288" data-name="Rectángulo 1288" width="12" height="12" transform="translate(758 4658) rotate(-90)" fill="#e54e56"/>
    <rect id="Rectángulo_1289" data-name="Rectángulo 1289" width="12" height="12" transform="translate(758 4618) rotate(-90)" fill="#e54e56"/>
    <rect id="Rectángulo_1290" data-name="Rectángulo 1290" width="12" height="12" transform="translate(758 4598) rotate(-90)" fill="#e54e56"/>
    <rect id="Rectángulo_1291" data-name="Rectángulo 1291" width="12" height="12" transform="translate(758 4578) rotate(-90)" fill="#e54e56"/>
    <rect id="Rectángulo_1292" data-name="Rectángulo 1292" width="12" height="12" transform="translate(758 4558) rotate(-90)" fill="#e54e56"/>
    <rect id="Rectángulo_1293" data-name="Rectángulo 1293" width="12" height="12" transform="translate(758 4538) rotate(-90)" fill="#e54e56"/>
    <rect id="Rectángulo_1294" data-name="Rectángulo 1294" width="12" height="12" transform="translate(758 4518) rotate(-90)" fill="#e54e56"/>
    <rect id="Rectángulo_1295" data-name="Rectángulo 1295" width="12" height="12" transform="translate(758 4498) rotate(-90)" fill="#070b2d"/>
    <rect id="Rectángulo_1296" data-name="Rectángulo 1296" width="12" height="12" transform="translate(740 4638) rotate(-90)" fill="#e54e56"/>
    <rect id="Rectángulo_1297" data-name="Rectángulo 1297" width="12" height="12" transform="translate(740 4658) rotate(-90)" fill="#e54e56"/>
    <rect id="Rectángulo_1298" data-name="Rectángulo 1298" width="12" height="12" transform="translate(740 4618) rotate(-90)" fill="#e54e56"/>
    <rect id="Rectángulo_1299" data-name="Rectángulo 1299" width="12" height="12" transform="translate(740 4598) rotate(-90)" fill="#e54e56"/>
    <rect id="Rectángulo_1300" data-name="Rectángulo 1300" width="12" height="12" transform="translate(740 4578) rotate(-90)" fill="#e54e56"/>
    <rect id="Rectángulo_1301" data-name="Rectángulo 1301" width="12" height="12" transform="translate(740 4558) rotate(-90)" fill="#e54e56"/>
    <rect id="Rectángulo_1302" data-name="Rectángulo 1302" width="12" height="12" transform="translate(740 4538) rotate(-90)" fill="#e54e56"/>
    <rect id="Rectángulo_1303" data-name="Rectángulo 1303" width="12" height="12" transform="translate(740 4518) rotate(-90)" fill="#e54e56"/>
    <rect id="Rectángulo_1304" data-name="Rectángulo 1304" width="12" height="12" transform="translate(740 4498) rotate(-90)" fill="#070b2d"/>
    <rect id="Rectángulo_1202" data-name="Rectángulo 1202" width="12" height="12" transform="translate(848 4638) rotate(-90)" fill="#e54e56"/>
    <rect id="Rectángulo_1203" data-name="Rectángulo 1203" width="12" height="12" transform="translate(848 4618) rotate(-90)" fill="#e54e56"/>
    <rect id="Rectángulo_1204" data-name="Rectángulo 1204" width="12" height="12" transform="translate(848 4598) rotate(-90)" fill="#e54e56"/>
    <rect id="Rectángulo_1205" data-name="Rectángulo 1205" width="12" height="12" transform="translate(848 4578) rotate(-90)" fill="#e54e56"/>
    <rect id="Rectángulo_1206" data-name="Rectángulo 1206" width="12" height="12" transform="translate(848 4558) rotate(-90)" fill="#e54e56"/>
    <rect id="Rectángulo_1244" data-name="Rectángulo 1244" width="12" height="12" transform="translate(848 4538) rotate(-90)" fill="#e54e56"/>
    <rect id="Rectángulo_1245" data-name="Rectángulo 1245" width="12" height="12" transform="translate(848 4518) rotate(-90)" fill="#e54e56"/>
    <rect id="Rectángulo_1275" data-name="Rectángulo 1275" width="12" height="12" transform="translate(848 4498) rotate(-90)" fill="#e54e56"/>
    <rect id="Rectángulo_1207" data-name="Rectángulo 1207" width="12" height="12" transform="translate(812 4638) rotate(-90)" fill="#e54e56"/>
    <rect id="Rectángulo_1208" data-name="Rectángulo 1208" width="12" height="12" transform="translate(812 4618) rotate(-90)" fill="#e54e56"/>
    <rect id="Rectángulo_1209" data-name="Rectángulo 1209" width="12" height="12" transform="translate(812 4598) rotate(-90)" fill="#e54e56"/>
    <rect id="Rectángulo_1210" data-name="Rectángulo 1210" width="12" height="12" transform="translate(812 4578) rotate(-90)" fill="#e54e56"/>
    <rect id="Rectángulo_1211" data-name="Rectángulo 1211" width="12" height="12" transform="translate(812 4558) rotate(-90)" fill="#e54e56"/>
    <rect id="Rectángulo_1246" data-name="Rectángulo 1246" width="12" height="12" transform="translate(812 4538) rotate(-90)" fill="#e54e56"/>
    <rect id="Rectángulo_1247" data-name="Rectángulo 1247" width="12" height="12" transform="translate(812 4518) rotate(-90)" fill="#e54e56"/>
    <rect id="Rectángulo_1276" data-name="Rectángulo 1276" width="12" height="12" transform="translate(812 4498) rotate(-90)" fill="#e54e56"/>
    <rect id="Rectángulo_1193" data-name="Rectángulo 1193" width="12" height="12" transform="translate(884 4638) rotate(-90)" fill="#e54e56"/>
    <rect id="Rectángulo_1194" data-name="Rectángulo 1194" width="12" height="12" transform="translate(884 4618) rotate(-90)" fill="#e54e56"/>
    <rect id="Rectángulo_1195" data-name="Rectángulo 1195" width="12" height="12" transform="translate(884 4598) rotate(-90)" fill="#e54e56"/>
    <rect id="Rectángulo_1212" data-name="Rectángulo 1212" width="12" height="12" transform="translate(884 4578) rotate(-90)" fill="#e54e56"/>
    <rect id="Rectángulo_1213" data-name="Rectángulo 1213" width="12" height="12" transform="translate(884 4558) rotate(-90)" fill="#e54e56"/>
    <rect id="Rectángulo_1248" data-name="Rectángulo 1248" width="12" height="12" transform="translate(884 4538) rotate(-90)" fill="#e54e56"/>
    <rect id="Rectángulo_1249" data-name="Rectángulo 1249" width="12" height="12" transform="translate(884 4518) rotate(-90)" fill="#e54e56"/>
    <rect id="Rectángulo_1277" data-name="Rectángulo 1277" width="12" height="12" transform="translate(884 4498) rotate(-90)" fill="#e54e56"/>
    <rect id="Rectángulo_1185" data-name="Rectángulo 1185" width="12" height="12" transform="translate(920 4638) rotate(-90)" fill="#e54e56"/>
    <rect id="Rectángulo_1186" data-name="Rectángulo 1186" width="12" height="12" transform="translate(920 4618) rotate(-90)" fill="#e54e56"/>
    <rect id="Rectángulo_1196" data-name="Rectángulo 1196" width="12" height="12" transform="translate(920 4598) rotate(-90)" fill="#e54e56"/>
    <rect id="Rectángulo_1214" data-name="Rectángulo 1214" width="12" height="12" transform="translate(920 4578) rotate(-90)" fill="#e54e56"/>
    <rect id="Rectángulo_1215" data-name="Rectángulo 1215" width="12" height="12" transform="translate(920 4558) rotate(-90)" fill="#e54e56"/>
    <rect id="Rectángulo_1250" data-name="Rectángulo 1250" width="12" height="12" transform="translate(920 4538) rotate(-90)" fill="#e54e56"/>
    <rect id="Rectángulo_1251" data-name="Rectángulo 1251" width="12" height="12" transform="translate(920 4518) rotate(-90)" fill="#e54e56"/>
    <rect id="Rectángulo_1278" data-name="Rectángulo 1278" width="12" height="12" transform="translate(920 4498) rotate(-90)" fill="#e54e56"/>
    <rect id="Rectángulo_1181" data-name="Rectángulo 1181" width="12" height="12" transform="translate(974 4638) rotate(-90)" fill="#e54e56"/>
    <rect id="Rectángulo_1187" data-name="Rectángulo 1187" width="12" height="12" transform="translate(974 4618) rotate(-90)" fill="#e54e56"/>
    <rect id="Rectángulo_1197" data-name="Rectángulo 1197" width="12" height="12" transform="translate(974 4598) rotate(-90)" fill="#e54e56"/>
    <rect id="Rectángulo_1216" data-name="Rectángulo 1216" width="12" height="12" transform="translate(974 4578) rotate(-90)" fill="#e54e56"/>
    <rect id="Rectángulo_1217" data-name="Rectángulo 1217" width="12" height="12" transform="translate(974 4558) rotate(-90)" fill="#e54e56"/>
    <rect id="Rectángulo_1252" data-name="Rectángulo 1252" width="12" height="12" transform="translate(974 4538) rotate(-90)" fill="#e54e56"/>
    <rect id="Rectángulo_1253" data-name="Rectángulo 1253" width="12" height="12" transform="translate(974 4518) rotate(-90)" fill="#e54e56"/>
    <rect id="Rectángulo_1279" data-name="Rectángulo 1279" width="12" height="12" transform="translate(974 4498) rotate(-90)" fill="#e54e56"/>
    <rect id="Rectángulo_1254" data-name="Rectángulo 1254" width="12" height="12" transform="translate(794 4638) rotate(-90)" fill="#e54e56"/>
    <rect id="Rectángulo_1255" data-name="Rectángulo 1255" width="12" height="12" transform="translate(794 4658) rotate(-90)" fill="#e54e56"/>
    <rect id="Rectángulo_1256" data-name="Rectángulo 1256" width="12" height="12" transform="translate(794 4618) rotate(-90)" fill="#e54e56"/>
    <rect id="Rectángulo_1257" data-name="Rectángulo 1257" width="12" height="12" transform="translate(794 4598) rotate(-90)" fill="#e54e56"/>
    <rect id="Rectángulo_1258" data-name="Rectángulo 1258" width="12" height="12" transform="translate(794 4578) rotate(-90)" fill="#e54e56"/>
    <rect id="Rectángulo_1259" data-name="Rectángulo 1259" width="12" height="12" transform="translate(794 4558) rotate(-90)" fill="#e54e56"/>
    <rect id="Rectángulo_1260" data-name="Rectángulo 1260" width="12" height="12" transform="translate(794 4538) rotate(-90)" fill="#e54e56"/>
    <rect id="Rectángulo_1261" data-name="Rectángulo 1261" width="12" height="12" transform="translate(794 4518) rotate(-90)" fill="#e54e56"/>
    <rect id="Rectángulo_1280" data-name="Rectángulo 1280" width="12" height="12" transform="translate(794 4498) rotate(-90)" fill="#070b2d"/>
    <rect id="Rectángulo_1218" data-name="Rectángulo 1218" width="12" height="12" transform="translate(866 4638) rotate(-90)" fill="#e54e56"/>
    <rect id="Rectángulo_1219" data-name="Rectángulo 1219" width="12" height="12" transform="translate(866 4618) rotate(-90)" fill="#e54e56"/>
    <rect id="Rectángulo_1220" data-name="Rectángulo 1220" width="12" height="12" transform="translate(866 4598) rotate(-90)" fill="#e54e56"/>
    <rect id="Rectángulo_1221" data-name="Rectángulo 1221" width="12" height="12" transform="translate(866 4578) rotate(-90)" fill="#e54e56"/>
    <rect id="Rectángulo_1222" data-name="Rectángulo 1222" width="12" height="12" transform="translate(866 4558) rotate(-90)" fill="#e54e56"/>
    <rect id="Rectángulo_1262" data-name="Rectángulo 1262" width="12" height="12" transform="translate(866 4538) rotate(-90)" fill="#e54e56"/>
    <rect id="Rectángulo_1263" data-name="Rectángulo 1263" width="12" height="12" transform="translate(866 4518) rotate(-90)" fill="#e54e56"/>
    <rect id="Rectángulo_1281" data-name="Rectángulo 1281" width="12" height="12" transform="translate(866 4498) rotate(-90)" fill="#e54e56"/>
    <rect id="Rectángulo_1223" data-name="Rectángulo 1223" width="12" height="12" transform="translate(830 4638) rotate(-90)" fill="#e54e56"/>
    <rect id="Rectángulo_1224" data-name="Rectángulo 1224" width="12" height="12" transform="translate(830 4618) rotate(-90)" fill="#e54e56"/>
    <rect id="Rectángulo_1225" data-name="Rectángulo 1225" width="12" height="12" transform="translate(830 4598) rotate(-90)" fill="#e54e56"/>
    <rect id="Rectángulo_1226" data-name="Rectángulo 1226" width="12" height="12" transform="translate(830 4578) rotate(-90)" fill="#e54e56"/>
    <rect id="Rectángulo_1227" data-name="Rectángulo 1227" width="12" height="12" transform="translate(830 4558) rotate(-90)" fill="#e54e56"/>
    <rect id="Rectángulo_1264" data-name="Rectángulo 1264" width="12" height="12" transform="translate(830 4538) rotate(-90)" fill="#e54e56"/>
    <rect id="Rectángulo_1265" data-name="Rectángulo 1265" width="12" height="12" transform="translate(830 4518) rotate(-90)" fill="#e54e56"/>
    <rect id="Rectángulo_1282" data-name="Rectángulo 1282" width="12" height="12" transform="translate(830 4498) rotate(-90)" fill="#e54e56"/>
    <rect id="Rectángulo_1188" data-name="Rectángulo 1188" width="12" height="12" transform="translate(902 4638) rotate(-90)" fill="#e54e56"/>
    <rect id="Rectángulo_1189" data-name="Rectángulo 1189" width="12" height="12" transform="translate(902 4618) rotate(-90)" fill="#e54e56"/>
    <rect id="Rectángulo_1198" data-name="Rectángulo 1198" width="12" height="12" transform="translate(902 4598) rotate(-90)" fill="#e54e56"/>
    <rect id="Rectángulo_1228" data-name="Rectángulo 1228" width="12" height="12" transform="translate(902 4578) rotate(-90)" fill="#e54e56"/>
    <rect id="Rectángulo_1229" data-name="Rectángulo 1229" width="12" height="12" transform="translate(902 4558) rotate(-90)" fill="#e54e56"/>
    <rect id="Rectángulo_1266" data-name="Rectángulo 1266" width="12" height="12" transform="translate(902 4538) rotate(-90)" fill="#e54e56"/>
    <rect id="Rectángulo_1267" data-name="Rectángulo 1267" width="12" height="12" transform="translate(902 4518) rotate(-90)" fill="#e54e56"/>
    <rect id="Rectángulo_1283" data-name="Rectángulo 1283" width="12" height="12" transform="translate(902 4498) rotate(-90)" fill="#e54e56"/>
    <rect id="Rectángulo_1182" data-name="Rectángulo 1182" width="12" height="12" transform="translate(956 4638) rotate(-90)" fill="#e54e56"/>
    <rect id="Rectángulo_1190" data-name="Rectángulo 1190" width="12" height="12" transform="translate(956 4618) rotate(-90)" fill="#e54e56"/>
    <rect id="Rectángulo_1199" data-name="Rectángulo 1199" width="12" height="12" transform="translate(956 4598) rotate(-90)" fill="#e54e56"/>
    <rect id="Rectángulo_1230" data-name="Rectángulo 1230" width="12" height="12" transform="translate(956 4578) rotate(-90)" fill="#e54e56"/>
    <rect id="Rectángulo_1231" data-name="Rectángulo 1231" width="12" height="12" transform="translate(956 4558) rotate(-90)" fill="#e54e56"/>
    <rect id="Rectángulo_1268" data-name="Rectángulo 1268" width="12" height="12" transform="translate(956 4538) rotate(-90)" fill="#e54e56"/>
    <rect id="Rectángulo_1269" data-name="Rectángulo 1269" width="12" height="12" transform="translate(956 4518) rotate(-90)" fill="#e54e56"/>
    <rect id="Rectángulo_1284" data-name="Rectángulo 1284" width="12" height="12" transform="translate(956 4498) rotate(-90)" fill="#e54e56"/>
    <rect id="Rectángulo_1183" data-name="Rectángulo 1183" width="12" height="12" transform="translate(938 4638) rotate(-90)" fill="#e54e56"/>
    <rect id="Rectángulo_1191" data-name="Rectángulo 1191" width="12" height="12" transform="translate(938 4618) rotate(-90)" fill="#e54e56"/>
    <rect id="Rectángulo_1200" data-name="Rectángulo 1200" width="12" height="12" transform="translate(938 4598) rotate(-90)" fill="#e54e56"/>
    <rect id="Rectángulo_1232" data-name="Rectángulo 1232" width="12" height="12" transform="translate(938 4578) rotate(-90)" fill="#e54e56"/>
    <rect id="Rectángulo_1233" data-name="Rectángulo 1233" width="12" height="12" transform="translate(938 4558) rotate(-90)" fill="#e54e56"/>
    <rect id="Rectángulo_1270" data-name="Rectángulo 1270" width="12" height="12" transform="translate(938 4538) rotate(-90)" fill="#e54e56"/>
    <rect id="Rectángulo_1271" data-name="Rectángulo 1271" width="12" height="12" transform="translate(938 4518) rotate(-90)" fill="#e54e56"/>
    <rect id="Rectángulo_1285" data-name="Rectángulo 1285" width="12" height="12" transform="translate(938 4498) rotate(-90)" fill="#e54e56"/>
    <rect id="Rectángulo_1184" data-name="Rectángulo 1184" width="12" height="12" transform="translate(992 4638) rotate(-90)" fill="#e54e56"/>
    <rect id="Rectángulo_1192" data-name="Rectángulo 1192" width="12" height="12" transform="translate(992 4618) rotate(-90)" fill="#e54e56"/>
    <rect id="Rectángulo_1201" data-name="Rectángulo 1201" width="12" height="12" transform="translate(992 4598) rotate(-90)" fill="#e54e56"/>
    <rect id="Rectángulo_1234" data-name="Rectángulo 1234" width="12" height="12" transform="translate(992 4578) rotate(-90)" fill="#e54e56"/>
    <rect id="Rectángulo_1235" data-name="Rectángulo 1235" width="12" height="12" transform="translate(992 4558) rotate(-90)" fill="#e54e56"/>
    <rect id="Rectángulo_1272" data-name="Rectángulo 1272" width="12" height="12" transform="translate(992 4538) rotate(-90)" fill="#e54e56"/>
    <rect id="Rectángulo_1273" data-name="Rectángulo 1273" width="12" height="12" transform="translate(992 4518) rotate(-90)" fill="#e54e56"/>
    <rect id="Rectángulo_1286" data-name="Rectángulo 1286" width="12" height="12" transform="translate(992 4498) rotate(-90)" fill="#e54e56"/>
  </g>
</svg>
