<svg xmlns="http://www.w3.org/2000/svg" width="264" height="172" viewBox="0 0 264 172">
  <g id="Grupo_702" data-name="Grupo 702" transform="translate(-740 -4008)">
    <rect id="Rectángulo_994" data-name="Rectángulo 994" width="12" height="12" transform="translate(776 4160) rotate(-90)" fill="#e54e56"/>
    <rect id="Rectángulo_995" data-name="Rectángulo 995" width="12" height="12" transform="translate(776 4180) rotate(-90)" fill="#e54e56"/>
    <rect id="Rectángulo_996" data-name="Rectángulo 996" width="12" height="12" transform="translate(776 4140) rotate(-90)" fill="#e54e56"/>
    <rect id="Rectángulo_997" data-name="Rectángulo 997" width="12" height="12" transform="translate(776 4120) rotate(-90)" fill="#e54e56"/>
    <rect id="Rectángulo_998" data-name="Rectángulo 998" width="12" height="12" transform="translate(776 4100) rotate(-90)" fill="#e54e56"/>
    <rect id="Rectángulo_999" data-name="Rectángulo 999" width="12" height="12" transform="translate(776 4080) rotate(-90)" fill="#070b2d"/>
    <rect id="Rectángulo_1000" data-name="Rectángulo 1000" width="12" height="12" transform="translate(776 4060) rotate(-90)" fill="#070b2d"/>
    <rect id="Rectángulo_1020" data-name="Rectángulo 1020" width="12" height="12" transform="translate(776 4040) rotate(-90)" fill="#070b2d"/>
    <rect id="Rectángulo_1042" data-name="Rectángulo 1042" width="12" height="12" transform="translate(776 4020) rotate(-90)" fill="#070b2d"/>
    <rect id="Rectángulo_1013" data-name="Rectángulo 1013" width="12" height="12" transform="translate(758 4160) rotate(-90)" fill="#e54e56"/>
    <rect id="Rectángulo_1014" data-name="Rectángulo 1014" width="12" height="12" transform="translate(758 4180) rotate(-90)" fill="#e54e56"/>
    <rect id="Rectángulo_1015" data-name="Rectángulo 1015" width="12" height="12" transform="translate(758 4140) rotate(-90)" fill="#e54e56"/>
    <rect id="Rectángulo_1016" data-name="Rectángulo 1016" width="12" height="12" transform="translate(758 4120) rotate(-90)" fill="#e54e56"/>
    <rect id="Rectángulo_1017" data-name="Rectángulo 1017" width="12" height="12" transform="translate(758 4100) rotate(-90)" fill="#e54e56"/>
    <rect id="Rectángulo_1018" data-name="Rectángulo 1018" width="12" height="12" transform="translate(758 4080) rotate(-90)" fill="#070b2d"/>
    <rect id="Rectángulo_1019" data-name="Rectángulo 1019" width="12" height="12" transform="translate(758 4060) rotate(-90)" fill="#070b2d"/>
    <rect id="Rectángulo_1021" data-name="Rectángulo 1021" width="12" height="12" transform="translate(758 4040) rotate(-90)" fill="#070b2d"/>
    <rect id="Rectángulo_1043" data-name="Rectángulo 1043" width="12" height="12" transform="translate(758 4020) rotate(-90)" fill="#070b2d"/>
    <rect id="Rectángulo_1022" data-name="Rectángulo 1022" width="12" height="12" transform="translate(740 4160) rotate(-90)" fill="#e54e56"/>
    <rect id="Rectángulo_1023" data-name="Rectángulo 1023" width="12" height="12" transform="translate(740 4180) rotate(-90)" fill="#e54e56"/>
    <rect id="Rectángulo_1024" data-name="Rectángulo 1024" width="12" height="12" transform="translate(740 4140) rotate(-90)" fill="#e54e56"/>
    <rect id="Rectángulo_1025" data-name="Rectángulo 1025" width="12" height="12" transform="translate(740 4120) rotate(-90)" fill="#e54e56"/>
    <rect id="Rectángulo_1026" data-name="Rectángulo 1026" width="12" height="12" transform="translate(740 4100) rotate(-90)" fill="#e54e56"/>
    <rect id="Rectángulo_1027" data-name="Rectángulo 1027" width="12" height="12" transform="translate(740 4080) rotate(-90)" fill="#070b2d"/>
    <rect id="Rectángulo_1028" data-name="Rectángulo 1028" width="12" height="12" transform="translate(740 4060) rotate(-90)" fill="#070b2d"/>
    <rect id="Rectángulo_1029" data-name="Rectángulo 1029" width="12" height="12" transform="translate(740 4040) rotate(-90)" fill="#070b2d"/>
    <rect id="Rectángulo_1044" data-name="Rectángulo 1044" width="12" height="12" transform="translate(740 4020) rotate(-90)" fill="#070b2d"/>
    <rect id="Rectángulo_949" data-name="Rectángulo 949" width="12" height="12" transform="translate(848 4160) rotate(-90)" fill="#e54e56"/>
    <rect id="Rectángulo_950" data-name="Rectángulo 950" width="12" height="12" transform="translate(848 4140) rotate(-90)" fill="#e54e56"/>
    <rect id="Rectángulo_951" data-name="Rectángulo 951" width="12" height="12" transform="translate(848 4120) rotate(-90)" fill="#e54e56"/>
    <rect id="Rectángulo_963" data-name="Rectángulo 963" width="12" height="12" transform="translate(848 4100) rotate(-90)" fill="#e54e56"/>
    <rect id="Rectángulo_982" data-name="Rectángulo 982" width="12" height="12" transform="translate(848 4080) rotate(-90)" fill="#070b2d"/>
    <rect id="Rectángulo_1001" data-name="Rectángulo 1001" width="12" height="12" transform="translate(848 4060) rotate(-90)" fill="#070b2d"/>
    <rect id="Rectángulo_1030" data-name="Rectángulo 1030" width="12" height="12" transform="translate(848 4040) rotate(-90)" fill="#070b2d"/>
    <rect id="Rectángulo_1045" data-name="Rectángulo 1045" width="12" height="12" transform="translate(848 4020) rotate(-90)" fill="#070b2d"/>
    <rect id="Rectángulo_964" data-name="Rectángulo 964" width="12" height="12" transform="translate(812 4160) rotate(-90)" fill="#e54e56"/>
    <rect id="Rectángulo_965" data-name="Rectángulo 965" width="12" height="12" transform="translate(812 4140) rotate(-90)" fill="#e54e56"/>
    <rect id="Rectángulo_966" data-name="Rectángulo 966" width="12" height="12" transform="translate(812 4120) rotate(-90)" fill="#e54e56"/>
    <rect id="Rectángulo_967" data-name="Rectángulo 967" width="12" height="12" transform="translate(812 4100) rotate(-90)" fill="#e54e56"/>
    <rect id="Rectángulo_983" data-name="Rectángulo 983" width="12" height="12" transform="translate(812 4080) rotate(-90)" fill="#070b2d"/>
    <rect id="Rectángulo_1002" data-name="Rectángulo 1002" width="12" height="12" transform="translate(812 4060) rotate(-90)" fill="#070b2d"/>
    <rect id="Rectángulo_1031" data-name="Rectángulo 1031" width="12" height="12" transform="translate(812 4040) rotate(-90)" fill="#070b2d"/>
    <rect id="Rectángulo_1046" data-name="Rectángulo 1046" width="12" height="12" transform="translate(812 4020) rotate(-90)" fill="#070b2d"/>
    <rect id="Rectángulo_939" data-name="Rectángulo 939" width="12" height="12" transform="translate(884 4160) rotate(-90)" fill="#e54e56"/>
    <rect id="Rectángulo_940" data-name="Rectángulo 940" width="12" height="12" transform="translate(884 4140) rotate(-90)" fill="#e54e56"/>
    <rect id="Rectángulo_952" data-name="Rectángulo 952" width="12" height="12" transform="translate(884 4120) rotate(-90)" fill="#e54e56"/>
    <rect id="Rectángulo_968" data-name="Rectángulo 968" width="12" height="12" transform="translate(884 4100) rotate(-90)" fill="#e54e56"/>
    <rect id="Rectángulo_984" data-name="Rectángulo 984" width="12" height="12" transform="translate(884 4080) rotate(-90)" fill="#e54e56"/>
    <rect id="Rectángulo_1003" data-name="Rectángulo 1003" width="12" height="12" transform="translate(884 4060) rotate(-90)" fill="#070b2d"/>
    <rect id="Rectángulo_1032" data-name="Rectángulo 1032" width="12" height="12" transform="translate(884 4040) rotate(-90)" fill="#070b2d"/>
    <rect id="Rectángulo_1047" data-name="Rectángulo 1047" width="12" height="12" transform="translate(884 4020) rotate(-90)" fill="#070b2d"/>
    <rect id="Rectángulo_933" data-name="Rectángulo 933" width="12" height="12" transform="translate(920 4160) rotate(-90)" fill="#e54e56"/>
    <rect id="Rectángulo_941" data-name="Rectángulo 941" width="12" height="12" transform="translate(920 4140) rotate(-90)" fill="#e54e56"/>
    <rect id="Rectángulo_953" data-name="Rectángulo 953" width="12" height="12" transform="translate(920 4120) rotate(-90)" fill="#e54e56"/>
    <rect id="Rectángulo_969" data-name="Rectángulo 969" width="12" height="12" transform="translate(920 4100) rotate(-90)" fill="#e54e56"/>
    <rect id="Rectángulo_985" data-name="Rectángulo 985" width="12" height="12" transform="translate(920 4080) rotate(-90)" fill="#e54e56"/>
    <rect id="Rectángulo_1004" data-name="Rectángulo 1004" width="12" height="12" transform="translate(920 4060) rotate(-90)" fill="#070b2d"/>
    <rect id="Rectángulo_1033" data-name="Rectángulo 1033" width="12" height="12" transform="translate(920 4040) rotate(-90)" fill="#070b2d"/>
    <rect id="Rectángulo_1048" data-name="Rectángulo 1048" width="12" height="12" transform="translate(920 4020) rotate(-90)" fill="#070b2d"/>
    <rect id="Rectángulo_934" data-name="Rectángulo 934" width="12" height="12" transform="translate(974 4160) rotate(-90)" fill="#e54e56"/>
    <rect id="Rectángulo_942" data-name="Rectángulo 942" width="12" height="12" transform="translate(974 4140) rotate(-90)" fill="#e54e56"/>
    <rect id="Rectángulo_954" data-name="Rectángulo 954" width="12" height="12" transform="translate(974 4120) rotate(-90)" fill="#e54e56"/>
    <rect id="Rectángulo_970" data-name="Rectángulo 970" width="12" height="12" transform="translate(974 4100) rotate(-90)" fill="#e54e56"/>
    <rect id="Rectángulo_986" data-name="Rectángulo 986" width="12" height="12" transform="translate(974 4080) rotate(-90)" fill="#e54e56"/>
    <rect id="Rectángulo_1005" data-name="Rectángulo 1005" width="12" height="12" transform="translate(974 4060) rotate(-90)" fill="#070b2d"/>
    <rect id="Rectángulo_1034" data-name="Rectángulo 1034" width="12" height="12" transform="translate(974 4040) rotate(-90)" fill="#070b2d"/>
    <rect id="Rectángulo_1049" data-name="Rectángulo 1049" width="12" height="12" transform="translate(974 4020) rotate(-90)" fill="#070b2d"/>
    <rect id="Rectángulo_977" data-name="Rectángulo 977" width="12" height="12" transform="translate(794 4160) rotate(-90)" fill="#e54e56"/>
    <rect id="Rectángulo_978" data-name="Rectángulo 978" width="12" height="12" transform="translate(794 4180) rotate(-90)" fill="#e54e56"/>
    <rect id="Rectángulo_979" data-name="Rectángulo 979" width="12" height="12" transform="translate(794 4140) rotate(-90)" fill="#e54e56"/>
    <rect id="Rectángulo_980" data-name="Rectángulo 980" width="12" height="12" transform="translate(794 4120) rotate(-90)" fill="#e54e56"/>
    <rect id="Rectángulo_981" data-name="Rectángulo 981" width="12" height="12" transform="translate(794 4100) rotate(-90)" fill="#e54e56"/>
    <rect id="Rectángulo_987" data-name="Rectángulo 987" width="12" height="12" transform="translate(794 4080) rotate(-90)" fill="#070b2d"/>
    <rect id="Rectángulo_1006" data-name="Rectángulo 1006" width="12" height="12" transform="translate(794 4060) rotate(-90)" fill="#070b2d"/>
    <rect id="Rectángulo_1035" data-name="Rectángulo 1035" width="12" height="12" transform="translate(794 4040) rotate(-90)" fill="#070b2d"/>
    <rect id="Rectángulo_1050" data-name="Rectángulo 1050" width="12" height="12" transform="translate(794 4020) rotate(-90)" fill="#070b2d"/>
    <rect id="Rectángulo_943" data-name="Rectángulo 943" width="12" height="12" transform="translate(866 4160) rotate(-90)" fill="#e54e56"/>
    <rect id="Rectángulo_944" data-name="Rectángulo 944" width="12" height="12" transform="translate(866 4140) rotate(-90)" fill="#e54e56"/>
    <rect id="Rectángulo_955" data-name="Rectángulo 955" width="12" height="12" transform="translate(866 4120) rotate(-90)" fill="#e54e56"/>
    <rect id="Rectángulo_971" data-name="Rectángulo 971" width="12" height="12" transform="translate(866 4100) rotate(-90)" fill="#e54e56"/>
    <rect id="Rectángulo_988" data-name="Rectángulo 988" width="12" height="12" transform="translate(866 4080) rotate(-90)" fill="#070b2d"/>
    <rect id="Rectángulo_1007" data-name="Rectángulo 1007" width="12" height="12" transform="translate(866 4060) rotate(-90)" fill="#070b2d"/>
    <rect id="Rectángulo_1036" data-name="Rectángulo 1036" width="12" height="12" transform="translate(866 4040) rotate(-90)" fill="#070b2d"/>
    <rect id="Rectángulo_1051" data-name="Rectángulo 1051" width="12" height="12" transform="translate(866 4020) rotate(-90)" fill="#070b2d"/>
    <rect id="Rectángulo_956" data-name="Rectángulo 956" width="12" height="12" transform="translate(830 4160) rotate(-90)" fill="#e54e56"/>
    <rect id="Rectángulo_957" data-name="Rectángulo 957" width="12" height="12" transform="translate(830 4140) rotate(-90)" fill="#e54e56"/>
    <rect id="Rectángulo_958" data-name="Rectángulo 958" width="12" height="12" transform="translate(830 4120) rotate(-90)" fill="#e54e56"/>
    <rect id="Rectángulo_972" data-name="Rectángulo 972" width="12" height="12" transform="translate(830 4100) rotate(-90)" fill="#e54e56"/>
    <rect id="Rectángulo_989" data-name="Rectángulo 989" width="12" height="12" transform="translate(830 4080) rotate(-90)" fill="#070b2d"/>
    <rect id="Rectángulo_1008" data-name="Rectángulo 1008" width="12" height="12" transform="translate(830 4060) rotate(-90)" fill="#070b2d"/>
    <rect id="Rectángulo_1037" data-name="Rectángulo 1037" width="12" height="12" transform="translate(830 4040) rotate(-90)" fill="#070b2d"/>
    <rect id="Rectángulo_1052" data-name="Rectángulo 1052" width="12" height="12" transform="translate(830 4020) rotate(-90)" fill="#070b2d"/>
    <rect id="Rectángulo_935" data-name="Rectángulo 935" width="12" height="12" transform="translate(902 4160) rotate(-90)" fill="#e54e56"/>
    <rect id="Rectángulo_945" data-name="Rectángulo 945" width="12" height="12" transform="translate(902 4140) rotate(-90)" fill="#e54e56"/>
    <rect id="Rectángulo_959" data-name="Rectángulo 959" width="12" height="12" transform="translate(902 4120) rotate(-90)" fill="#e54e56"/>
    <rect id="Rectángulo_973" data-name="Rectángulo 973" width="12" height="12" transform="translate(902 4100) rotate(-90)" fill="#e54e56"/>
    <rect id="Rectángulo_990" data-name="Rectángulo 990" width="12" height="12" transform="translate(902 4080) rotate(-90)" fill="#e54e56"/>
    <rect id="Rectángulo_1009" data-name="Rectángulo 1009" width="12" height="12" transform="translate(902 4060) rotate(-90)" fill="#070b2d"/>
    <rect id="Rectángulo_1038" data-name="Rectángulo 1038" width="12" height="12" transform="translate(902 4040) rotate(-90)" fill="#070b2d"/>
    <rect id="Rectángulo_1053" data-name="Rectángulo 1053" width="12" height="12" transform="translate(902 4020) rotate(-90)" fill="#070b2d"/>
    <rect id="Rectángulo_936" data-name="Rectángulo 936" width="12" height="12" transform="translate(956 4160) rotate(-90)" fill="#e54e56"/>
    <rect id="Rectángulo_946" data-name="Rectángulo 946" width="12" height="12" transform="translate(956 4140) rotate(-90)" fill="#e54e56"/>
    <rect id="Rectángulo_960" data-name="Rectángulo 960" width="12" height="12" transform="translate(956 4120) rotate(-90)" fill="#e54e56"/>
    <rect id="Rectángulo_974" data-name="Rectángulo 974" width="12" height="12" transform="translate(956 4100) rotate(-90)" fill="#e54e56"/>
    <rect id="Rectángulo_991" data-name="Rectángulo 991" width="12" height="12" transform="translate(956 4080) rotate(-90)" fill="#e54e56"/>
    <rect id="Rectángulo_1010" data-name="Rectángulo 1010" width="12" height="12" transform="translate(956 4060) rotate(-90)" fill="#070b2d"/>
    <rect id="Rectángulo_1039" data-name="Rectángulo 1039" width="12" height="12" transform="translate(956 4040) rotate(-90)" fill="#070b2d"/>
    <rect id="Rectángulo_1054" data-name="Rectángulo 1054" width="12" height="12" transform="translate(956 4020) rotate(-90)" fill="#070b2d"/>
    <rect id="Rectángulo_937" data-name="Rectángulo 937" width="12" height="12" transform="translate(938 4160) rotate(-90)" fill="#e54e56"/>
    <rect id="Rectángulo_947" data-name="Rectángulo 947" width="12" height="12" transform="translate(938 4140) rotate(-90)" fill="#e54e56"/>
    <rect id="Rectángulo_961" data-name="Rectángulo 961" width="12" height="12" transform="translate(938 4120) rotate(-90)" fill="#e54e56"/>
    <rect id="Rectángulo_975" data-name="Rectángulo 975" width="12" height="12" transform="translate(938 4100) rotate(-90)" fill="#e54e56"/>
    <rect id="Rectángulo_992" data-name="Rectángulo 992" width="12" height="12" transform="translate(938 4080) rotate(-90)" fill="#e54e56"/>
    <rect id="Rectángulo_1011" data-name="Rectángulo 1011" width="12" height="12" transform="translate(938 4060) rotate(-90)" fill="#070b2d"/>
    <rect id="Rectángulo_1040" data-name="Rectángulo 1040" width="12" height="12" transform="translate(938 4040) rotate(-90)" fill="#070b2d"/>
    <rect id="Rectángulo_1055" data-name="Rectángulo 1055" width="12" height="12" transform="translate(938 4020) rotate(-90)" fill="#070b2d"/>
    <rect id="Rectángulo_938" data-name="Rectángulo 938" width="12" height="12" transform="translate(992 4160) rotate(-90)" fill="#e54e56"/>
    <rect id="Rectángulo_948" data-name="Rectángulo 948" width="12" height="12" transform="translate(992 4140) rotate(-90)" fill="#e54e56"/>
    <rect id="Rectángulo_962" data-name="Rectángulo 962" width="12" height="12" transform="translate(992 4120) rotate(-90)" fill="#e54e56"/>
    <rect id="Rectángulo_976" data-name="Rectángulo 976" width="12" height="12" transform="translate(992 4100) rotate(-90)" fill="#e54e56"/>
    <rect id="Rectángulo_993" data-name="Rectángulo 993" width="12" height="12" transform="translate(992 4080) rotate(-90)" fill="#e54e56"/>
    <rect id="Rectángulo_1012" data-name="Rectángulo 1012" width="12" height="12" transform="translate(992 4060) rotate(-90)" fill="#070b2d"/>
    <rect id="Rectángulo_1041" data-name="Rectángulo 1041" width="12" height="12" transform="translate(992 4040) rotate(-90)" fill="#070b2d"/>
    <rect id="Rectángulo_1056" data-name="Rectángulo 1056" width="12" height="12" transform="translate(992 4020) rotate(-90)" fill="#070b2d"/>
  </g>
</svg>
