<svg xmlns="http://www.w3.org/2000/svg" width="264" height="172" viewBox="0 0 264 172">
  <g id="Grupo_703" data-name="Grupo 703" transform="translate(-1270 -4008)">
    <rect id="Rectángulo_1087" data-name="Rectángulo 1087" width="12" height="12" transform="translate(1306 4160) rotate(-90)" fill="#e54e56"/>
    <rect id="Rectángulo_1088" data-name="Rectángulo 1088" width="12" height="12" transform="translate(1306 4180) rotate(-90)" fill="#e54e56"/>
    <rect id="Rectángulo_1089" data-name="Rectángulo 1089" width="12" height="12" transform="translate(1306 4140) rotate(-90)" fill="#e54e56"/>
    <rect id="Rectángulo_1090" data-name="Rectángulo 1090" width="12" height="12" transform="translate(1306 4120) rotate(-90)" fill="#e54e56"/>
    <rect id="Rectángulo_1073" data-name="Rectángulo 1073" width="12" height="12" transform="translate(1306 4100) rotate(-90)" fill="#e54e56"/>
    <rect id="Rectángulo_1058" data-name="Rectángulo 1058" width="12" height="12" transform="translate(1306 4080) rotate(-90)" fill="#e54e56"/>
    <rect id="Rectángulo_1059" data-name="Rectángulo 1059" width="12" height="12" transform="translate(1306 4060) rotate(-90)" fill="#e54e56"/>
    <rect id="Rectángulo_1060" data-name="Rectángulo 1060" width="12" height="12" transform="translate(1306 4040) rotate(-90)" fill="#070b2d"/>
    <rect id="Rectángulo_1061" data-name="Rectángulo 1061" width="12" height="12" transform="translate(1306 4020) rotate(-90)" fill="#070b2d"/>
    <rect id="Rectángulo_1091" data-name="Rectángulo 1091" width="12" height="12" transform="translate(1288 4160) rotate(-90)" fill="#e54e56"/>
    <rect id="Rectángulo_1092" data-name="Rectángulo 1092" width="12" height="12" transform="translate(1288 4180) rotate(-90)" fill="#e54e56"/>
    <rect id="Rectángulo_1093" data-name="Rectángulo 1093" width="12" height="12" transform="translate(1288 4140) rotate(-90)" fill="#e54e56"/>
    <rect id="Rectángulo_1094" data-name="Rectángulo 1094" width="12" height="12" transform="translate(1288 4120) rotate(-90)" fill="#e54e56"/>
    <rect id="Rectángulo_1074" data-name="Rectángulo 1074" width="12" height="12" transform="translate(1288 4100) rotate(-90)" fill="#e54e56"/>
    <rect id="Rectángulo_1062" data-name="Rectángulo 1062" width="12" height="12" transform="translate(1288 4080) rotate(-90)" fill="#e54e56"/>
    <rect id="Rectángulo_1063" data-name="Rectángulo 1063" width="12" height="12" transform="translate(1288 4060) rotate(-90)" fill="#e54e56"/>
    <rect id="Rectángulo_1064" data-name="Rectángulo 1064" width="12" height="12" transform="translate(1288 4040) rotate(-90)" fill="#070b2d"/>
    <rect id="Rectángulo_1065" data-name="Rectángulo 1065" width="12" height="12" transform="translate(1288 4020) rotate(-90)" fill="#070b2d"/>
    <rect id="Rectángulo_1095" data-name="Rectángulo 1095" width="12" height="12" transform="translate(1270 4160) rotate(-90)" fill="#e54e56"/>
    <rect id="Rectángulo_1096" data-name="Rectángulo 1096" width="12" height="12" transform="translate(1270 4180) rotate(-90)" fill="#e54e56"/>
    <rect id="Rectángulo_1097" data-name="Rectángulo 1097" width="12" height="12" transform="translate(1270 4140) rotate(-90)" fill="#e54e56"/>
    <rect id="Rectángulo_1098" data-name="Rectángulo 1098" width="12" height="12" transform="translate(1270 4120) rotate(-90)" fill="#e54e56"/>
    <rect id="Rectángulo_1075" data-name="Rectángulo 1075" width="12" height="12" transform="translate(1270 4100) rotate(-90)" fill="#e54e56"/>
    <rect id="Rectángulo_1066" data-name="Rectángulo 1066" width="12" height="12" transform="translate(1270 4080) rotate(-90)" fill="#e54e56"/>
    <rect id="Rectángulo_1067" data-name="Rectángulo 1067" width="12" height="12" transform="translate(1270 4060) rotate(-90)" fill="#e54e56"/>
    <rect id="Rectángulo_1068" data-name="Rectángulo 1068" width="12" height="12" transform="translate(1270 4040) rotate(-90)" fill="#070b2d"/>
    <rect id="Rectángulo_1057" data-name="Rectángulo 1057" width="12" height="12" transform="translate(1270 4020) rotate(-90)" fill="#070b2d"/>
    <rect id="Rectángulo_1099" data-name="Rectángulo 1099" width="12" height="12" transform="translate(1378 4160) rotate(-90)" fill="#e54e56"/>
    <rect id="Rectángulo_1100" data-name="Rectángulo 1100" width="12" height="12" transform="translate(1378 4140) rotate(-90)" fill="#e54e56"/>
    <rect id="Rectángulo_1101" data-name="Rectángulo 1101" width="12" height="12" transform="translate(1378 4120) rotate(-90)" fill="#e54e56"/>
    <rect id="Rectángulo_1102" data-name="Rectángulo 1102" width="12" height="12" transform="translate(1378 4100) rotate(-90)" fill="#e54e56"/>
    <rect id="Rectángulo_1103" data-name="Rectángulo 1103" width="12" height="12" transform="translate(1378 4080) rotate(-90)" fill="#e54e56"/>
    <rect id="Rectángulo_1104" data-name="Rectángulo 1104" width="12" height="12" transform="translate(1378 4060) rotate(-90)" fill="#e54e56"/>
    <rect id="Rectángulo_1105" data-name="Rectángulo 1105" width="12" height="12" transform="translate(1378 4040) rotate(-90)" fill="#070b2d"/>
    <rect id="Rectángulo_1106" data-name="Rectángulo 1106" width="12" height="12" transform="translate(1378 4020) rotate(-90)" fill="#070b2d"/>
    <rect id="Rectángulo_1107" data-name="Rectángulo 1107" width="12" height="12" transform="translate(1342 4160) rotate(-90)" fill="#e54e56"/>
    <rect id="Rectángulo_1108" data-name="Rectángulo 1108" width="12" height="12" transform="translate(1342 4140) rotate(-90)" fill="#e54e56"/>
    <rect id="Rectángulo_1109" data-name="Rectángulo 1109" width="12" height="12" transform="translate(1342 4120) rotate(-90)" fill="#e54e56"/>
    <rect id="Rectángulo_1076" data-name="Rectángulo 1076" width="12" height="12" transform="translate(1342 4100) rotate(-90)" fill="#e54e56"/>
    <rect id="Rectángulo_1077" data-name="Rectángulo 1077" width="12" height="12" transform="translate(1342 4080) rotate(-90)" fill="#e54e56"/>
    <rect id="Rectángulo_1078" data-name="Rectángulo 1078" width="12" height="12" transform="translate(1342 4060) rotate(-90)" fill="#e54e56"/>
    <rect id="Rectángulo_1079" data-name="Rectángulo 1079" width="12" height="12" transform="translate(1342 4040) rotate(-90)" fill="#070b2d"/>
    <rect id="Rectángulo_1080" data-name="Rectángulo 1080" width="12" height="12" transform="translate(1342 4020) rotate(-90)" fill="#070b2d"/>
    <rect id="Rectángulo_1110" data-name="Rectángulo 1110" width="12" height="12" transform="translate(1414 4160) rotate(-90)" fill="#e54e56"/>
    <rect id="Rectángulo_1111" data-name="Rectángulo 1111" width="12" height="12" transform="translate(1414 4140) rotate(-90)" fill="#e54e56"/>
    <rect id="Rectángulo_1112" data-name="Rectángulo 1112" width="12" height="12" transform="translate(1414 4120) rotate(-90)" fill="#e54e56"/>
    <rect id="Rectángulo_1113" data-name="Rectángulo 1113" width="12" height="12" transform="translate(1414 4100) rotate(-90)" fill="#e54e56"/>
    <rect id="Rectángulo_1114" data-name="Rectángulo 1114" width="12" height="12" transform="translate(1414 4080) rotate(-90)" fill="#e54e56"/>
    <rect id="Rectángulo_1115" data-name="Rectángulo 1115" width="12" height="12" transform="translate(1414 4060) rotate(-90)" fill="#e54e56"/>
    <rect id="Rectángulo_1116" data-name="Rectángulo 1116" width="12" height="12" transform="translate(1414 4040) rotate(-90)" fill="#070b2d"/>
    <rect id="Rectángulo_1117" data-name="Rectángulo 1117" width="12" height="12" transform="translate(1414 4020) rotate(-90)" fill="#070b2d"/>
    <rect id="Rectángulo_1118" data-name="Rectángulo 1118" width="12" height="12" transform="translate(1450 4160) rotate(-90)" fill="#e54e56"/>
    <rect id="Rectángulo_1119" data-name="Rectángulo 1119" width="12" height="12" transform="translate(1450 4140) rotate(-90)" fill="#e54e56"/>
    <rect id="Rectángulo_1120" data-name="Rectángulo 1120" width="12" height="12" transform="translate(1450 4120) rotate(-90)" fill="#e54e56"/>
    <rect id="Rectángulo_1121" data-name="Rectángulo 1121" width="12" height="12" transform="translate(1450 4100) rotate(-90)" fill="#e54e56"/>
    <rect id="Rectángulo_1122" data-name="Rectángulo 1122" width="12" height="12" transform="translate(1450 4080) rotate(-90)" fill="#e54e56"/>
    <rect id="Rectángulo_1123" data-name="Rectángulo 1123" width="12" height="12" transform="translate(1450 4060) rotate(-90)" fill="#e54e56"/>
    <rect id="Rectángulo_1124" data-name="Rectángulo 1124" width="12" height="12" transform="translate(1450 4040) rotate(-90)" fill="#e54e56"/>
    <rect id="Rectángulo_1125" data-name="Rectángulo 1125" width="12" height="12" transform="translate(1450 4020) rotate(-90)" fill="#070b2d"/>
    <rect id="Rectángulo_1165" data-name="Rectángulo 1165" width="12" height="12" transform="translate(1504 4160) rotate(-90)" fill="#e54e56"/>
    <rect id="Rectángulo_1166" data-name="Rectángulo 1166" width="12" height="12" transform="translate(1504 4140) rotate(-90)" fill="#e54e56"/>
    <rect id="Rectángulo_1167" data-name="Rectángulo 1167" width="12" height="12" transform="translate(1504 4120) rotate(-90)" fill="#e54e56"/>
    <rect id="Rectángulo_1168" data-name="Rectángulo 1168" width="12" height="12" transform="translate(1504 4100) rotate(-90)" fill="#e54e56"/>
    <rect id="Rectángulo_1169" data-name="Rectángulo 1169" width="12" height="12" transform="translate(1504 4080) rotate(-90)" fill="#e54e56"/>
    <rect id="Rectángulo_1170" data-name="Rectángulo 1170" width="12" height="12" transform="translate(1504 4060) rotate(-90)" fill="#e54e56"/>
    <rect id="Rectángulo_1171" data-name="Rectángulo 1171" width="12" height="12" transform="translate(1504 4040) rotate(-90)" fill="#e54e56"/>
    <rect id="Rectángulo_1172" data-name="Rectángulo 1172" width="12" height="12" transform="translate(1504 4020) rotate(-90)" fill="#070b2d"/>
    <rect id="Rectángulo_1126" data-name="Rectángulo 1126" width="12" height="12" transform="translate(1324 4160) rotate(-90)" fill="#e54e56"/>
    <rect id="Rectángulo_1127" data-name="Rectángulo 1127" width="12" height="12" transform="translate(1324 4180) rotate(-90)" fill="#e54e56"/>
    <rect id="Rectángulo_1128" data-name="Rectángulo 1128" width="12" height="12" transform="translate(1324 4140) rotate(-90)" fill="#e54e56"/>
    <rect id="Rectángulo_1129" data-name="Rectángulo 1129" width="12" height="12" transform="translate(1324 4120) rotate(-90)" fill="#e54e56"/>
    <rect id="Rectángulo_1081" data-name="Rectángulo 1081" width="12" height="12" transform="translate(1324 4100) rotate(-90)" fill="#e54e56"/>
    <rect id="Rectángulo_1069" data-name="Rectángulo 1069" width="12" height="12" transform="translate(1324 4080) rotate(-90)" fill="#e54e56"/>
    <rect id="Rectángulo_1070" data-name="Rectángulo 1070" width="12" height="12" transform="translate(1324 4060) rotate(-90)" fill="#e54e56"/>
    <rect id="Rectángulo_1071" data-name="Rectángulo 1071" width="12" height="12" transform="translate(1324 4040) rotate(-90)" fill="#070b2d"/>
    <rect id="Rectángulo_1072" data-name="Rectángulo 1072" width="12" height="12" transform="translate(1324 4020) rotate(-90)" fill="#070b2d"/>
    <rect id="Rectángulo_1130" data-name="Rectángulo 1130" width="12" height="12" transform="translate(1396 4160) rotate(-90)" fill="#e54e56"/>
    <rect id="Rectángulo_1131" data-name="Rectángulo 1131" width="12" height="12" transform="translate(1396 4140) rotate(-90)" fill="#e54e56"/>
    <rect id="Rectángulo_1132" data-name="Rectángulo 1132" width="12" height="12" transform="translate(1396 4120) rotate(-90)" fill="#e54e56"/>
    <rect id="Rectángulo_1133" data-name="Rectángulo 1133" width="12" height="12" transform="translate(1396 4100) rotate(-90)" fill="#e54e56"/>
    <rect id="Rectángulo_1134" data-name="Rectángulo 1134" width="12" height="12" transform="translate(1396 4080) rotate(-90)" fill="#e54e56"/>
    <rect id="Rectángulo_1135" data-name="Rectángulo 1135" width="12" height="12" transform="translate(1396 4060) rotate(-90)" fill="#e54e56"/>
    <rect id="Rectángulo_1136" data-name="Rectángulo 1136" width="12" height="12" transform="translate(1396 4040) rotate(-90)" fill="#070b2d"/>
    <rect id="Rectángulo_1137" data-name="Rectángulo 1137" width="12" height="12" transform="translate(1396 4020) rotate(-90)" fill="#070b2d"/>
    <rect id="Rectángulo_1138" data-name="Rectángulo 1138" width="12" height="12" transform="translate(1360 4160) rotate(-90)" fill="#e54e56"/>
    <rect id="Rectángulo_1139" data-name="Rectángulo 1139" width="12" height="12" transform="translate(1360 4140) rotate(-90)" fill="#e54e56"/>
    <rect id="Rectángulo_1140" data-name="Rectángulo 1140" width="12" height="12" transform="translate(1360 4120) rotate(-90)" fill="#e54e56"/>
    <rect id="Rectángulo_1082" data-name="Rectángulo 1082" width="12" height="12" transform="translate(1360 4100) rotate(-90)" fill="#e54e56"/>
    <rect id="Rectángulo_1083" data-name="Rectángulo 1083" width="12" height="12" transform="translate(1360 4080) rotate(-90)" fill="#e54e56"/>
    <rect id="Rectángulo_1084" data-name="Rectángulo 1084" width="12" height="12" transform="translate(1360 4060) rotate(-90)" fill="#e54e56"/>
    <rect id="Rectángulo_1085" data-name="Rectángulo 1085" width="12" height="12" transform="translate(1360 4040) rotate(-90)" fill="#070b2d"/>
    <rect id="Rectángulo_1086" data-name="Rectángulo 1086" width="12" height="12" transform="translate(1360 4020) rotate(-90)" fill="#070b2d"/>
    <rect id="Rectángulo_1141" data-name="Rectángulo 1141" width="12" height="12" transform="translate(1432 4160) rotate(-90)" fill="#e54e56"/>
    <rect id="Rectángulo_1142" data-name="Rectángulo 1142" width="12" height="12" transform="translate(1432 4140) rotate(-90)" fill="#e54e56"/>
    <rect id="Rectángulo_1143" data-name="Rectángulo 1143" width="12" height="12" transform="translate(1432 4120) rotate(-90)" fill="#e54e56"/>
    <rect id="Rectángulo_1144" data-name="Rectángulo 1144" width="12" height="12" transform="translate(1432 4100) rotate(-90)" fill="#e54e56"/>
    <rect id="Rectángulo_1145" data-name="Rectángulo 1145" width="12" height="12" transform="translate(1432 4080) rotate(-90)" fill="#e54e56"/>
    <rect id="Rectángulo_1146" data-name="Rectángulo 1146" width="12" height="12" transform="translate(1432 4060) rotate(-90)" fill="#e54e56"/>
    <rect id="Rectángulo_1147" data-name="Rectángulo 1147" width="12" height="12" transform="translate(1432 4040) rotate(-90)" fill="#070b2d"/>
    <rect id="Rectángulo_1148" data-name="Rectángulo 1148" width="12" height="12" transform="translate(1432 4020) rotate(-90)" fill="#070b2d"/>
    <rect id="Rectángulo_1149" data-name="Rectángulo 1149" width="12" height="12" transform="translate(1486 4160) rotate(-90)" fill="#e54e56"/>
    <rect id="Rectángulo_1150" data-name="Rectángulo 1150" width="12" height="12" transform="translate(1486 4140) rotate(-90)" fill="#e54e56"/>
    <rect id="Rectángulo_1151" data-name="Rectángulo 1151" width="12" height="12" transform="translate(1486 4120) rotate(-90)" fill="#e54e56"/>
    <rect id="Rectángulo_1152" data-name="Rectángulo 1152" width="12" height="12" transform="translate(1486 4100) rotate(-90)" fill="#e54e56"/>
    <rect id="Rectángulo_1153" data-name="Rectángulo 1153" width="12" height="12" transform="translate(1486 4080) rotate(-90)" fill="#e54e56"/>
    <rect id="Rectángulo_1154" data-name="Rectángulo 1154" width="12" height="12" transform="translate(1486 4060) rotate(-90)" fill="#e54e56"/>
    <rect id="Rectángulo_1155" data-name="Rectángulo 1155" width="12" height="12" transform="translate(1486 4040) rotate(-90)" fill="#e54e56"/>
    <rect id="Rectángulo_1156" data-name="Rectángulo 1156" width="12" height="12" transform="translate(1486 4020) rotate(-90)" fill="#070b2d"/>
    <rect id="Rectángulo_1157" data-name="Rectángulo 1157" width="12" height="12" transform="translate(1468 4160) rotate(-90)" fill="#e54e56"/>
    <rect id="Rectángulo_1158" data-name="Rectángulo 1158" width="12" height="12" transform="translate(1468 4140) rotate(-90)" fill="#e54e56"/>
    <rect id="Rectángulo_1159" data-name="Rectángulo 1159" width="12" height="12" transform="translate(1468 4120) rotate(-90)" fill="#e54e56"/>
    <rect id="Rectángulo_1160" data-name="Rectángulo 1160" width="12" height="12" transform="translate(1468 4100) rotate(-90)" fill="#e54e56"/>
    <rect id="Rectángulo_1161" data-name="Rectángulo 1161" width="12" height="12" transform="translate(1468 4080) rotate(-90)" fill="#e54e56"/>
    <rect id="Rectángulo_1162" data-name="Rectángulo 1162" width="12" height="12" transform="translate(1468 4060) rotate(-90)" fill="#e54e56"/>
    <rect id="Rectángulo_1163" data-name="Rectángulo 1163" width="12" height="12" transform="translate(1468 4040) rotate(-90)" fill="#e54e56"/>
    <rect id="Rectángulo_1164" data-name="Rectángulo 1164" width="12" height="12" transform="translate(1468 4020) rotate(-90)" fill="#070b2d"/>
    <rect id="Rectángulo_1173" data-name="Rectángulo 1173" width="12" height="12" transform="translate(1522 4160) rotate(-90)" fill="#e54e56"/>
    <rect id="Rectángulo_1174" data-name="Rectángulo 1174" width="12" height="12" transform="translate(1522 4140) rotate(-90)" fill="#e54e56"/>
    <rect id="Rectángulo_1175" data-name="Rectángulo 1175" width="12" height="12" transform="translate(1522 4120) rotate(-90)" fill="#e54e56"/>
    <rect id="Rectángulo_1176" data-name="Rectángulo 1176" width="12" height="12" transform="translate(1522 4100) rotate(-90)" fill="#e54e56"/>
    <rect id="Rectángulo_1177" data-name="Rectángulo 1177" width="12" height="12" transform="translate(1522 4080) rotate(-90)" fill="#e54e56"/>
    <rect id="Rectángulo_1178" data-name="Rectángulo 1178" width="12" height="12" transform="translate(1522 4060) rotate(-90)" fill="#e54e56"/>
    <rect id="Rectángulo_1179" data-name="Rectángulo 1179" width="12" height="12" transform="translate(1522 4040) rotate(-90)" fill="#e54e56"/>
    <rect id="Rectángulo_1180" data-name="Rectángulo 1180" width="12" height="12" transform="translate(1522 4020) rotate(-90)" fill="#070b2d"/>
  </g>
</svg>
