<svg xmlns="http://www.w3.org/2000/svg" width="264" height="172" viewBox="0 0 264 172">
  <g id="Grupo_705" data-name="Grupo 705" transform="translate(-1270 -4258)">
    <rect id="Rectángulo_1557" data-name="Rectángulo 1557" width="12" height="12" transform="translate(1306 4410) rotate(-90)" fill="#e54e56"/>
    <rect id="Rectángulo_1553" data-name="Rectángulo 1553" width="12" height="12" transform="translate(1306 4430) rotate(-90)" fill="#e54e56"/>
    <rect id="Rectángulo_1572" data-name="Rectángulo 1572" width="12" height="12" transform="translate(1306 4390) rotate(-90)" fill="#e54e56"/>
    <rect id="Rectángulo_1587" data-name="Rectángulo 1587" width="12" height="12" transform="translate(1306 4370) rotate(-90)" fill="#e54e56"/>
    <rect id="Rectángulo_1602" data-name="Rectángulo 1602" width="12" height="12" transform="translate(1306 4350) rotate(-90)" fill="#e54e56"/>
    <rect id="Rectángulo_1617" data-name="Rectángulo 1617" width="12" height="12" transform="translate(1306 4330) rotate(-90)" fill="#e54e56"/>
    <rect id="Rectángulo_1632" data-name="Rectángulo 1632" width="12" height="12" transform="translate(1306 4310) rotate(-90)" fill="#e54e56"/>
    <rect id="Rectángulo_1647" data-name="Rectángulo 1647" width="12" height="12" transform="translate(1306 4290) rotate(-90)" fill="#e54e56"/>
    <rect id="Rectángulo_1662" data-name="Rectángulo 1662" width="12" height="12" transform="translate(1306 4270) rotate(-90)" fill="#070b2d"/>
    <rect id="Rectángulo_1558" data-name="Rectángulo 1558" width="12" height="12" transform="translate(1288 4410) rotate(-90)" fill="#e54e56"/>
    <rect id="Rectángulo_1554" data-name="Rectángulo 1554" width="12" height="12" transform="translate(1288 4430) rotate(-90)" fill="#e54e56"/>
    <rect id="Rectángulo_1573" data-name="Rectángulo 1573" width="12" height="12" transform="translate(1288 4390) rotate(-90)" fill="#e54e56"/>
    <rect id="Rectángulo_1588" data-name="Rectángulo 1588" width="12" height="12" transform="translate(1288 4370) rotate(-90)" fill="#e54e56"/>
    <rect id="Rectángulo_1603" data-name="Rectángulo 1603" width="12" height="12" transform="translate(1288 4350) rotate(-90)" fill="#e54e56"/>
    <rect id="Rectángulo_1618" data-name="Rectángulo 1618" width="12" height="12" transform="translate(1288 4330) rotate(-90)" fill="#e54e56"/>
    <rect id="Rectángulo_1633" data-name="Rectángulo 1633" width="12" height="12" transform="translate(1288 4310) rotate(-90)" fill="#e54e56"/>
    <rect id="Rectángulo_1648" data-name="Rectángulo 1648" width="12" height="12" transform="translate(1288 4290) rotate(-90)" fill="#e54e56"/>
    <rect id="Rectángulo_1663" data-name="Rectángulo 1663" width="12" height="12" transform="translate(1288 4270) rotate(-90)" fill="#070b2d"/>
    <rect id="Rectángulo_1559" data-name="Rectángulo 1559" width="12" height="12" transform="translate(1270 4410) rotate(-90)" fill="#e54e56"/>
    <rect id="Rectángulo_1555" data-name="Rectángulo 1555" width="12" height="12" transform="translate(1270 4430) rotate(-90)" fill="#e54e56"/>
    <rect id="Rectángulo_1574" data-name="Rectángulo 1574" width="12" height="12" transform="translate(1270 4390) rotate(-90)" fill="#e54e56"/>
    <rect id="Rectángulo_1589" data-name="Rectángulo 1589" width="12" height="12" transform="translate(1270 4370) rotate(-90)" fill="#e54e56"/>
    <rect id="Rectángulo_1604" data-name="Rectángulo 1604" width="12" height="12" transform="translate(1270 4350) rotate(-90)" fill="#e54e56"/>
    <rect id="Rectángulo_1619" data-name="Rectángulo 1619" width="12" height="12" transform="translate(1270 4330) rotate(-90)" fill="#e54e56"/>
    <rect id="Rectángulo_1634" data-name="Rectángulo 1634" width="12" height="12" transform="translate(1270 4310) rotate(-90)" fill="#e54e56"/>
    <rect id="Rectángulo_1649" data-name="Rectángulo 1649" width="12" height="12" transform="translate(1270 4290) rotate(-90)" fill="#e54e56"/>
    <rect id="Rectángulo_1664" data-name="Rectángulo 1664" width="12" height="12" transform="translate(1270 4270) rotate(-90)" fill="#070b2d"/>
    <rect id="Rectángulo_1560" data-name="Rectángulo 1560" width="12" height="12" transform="translate(1378 4410) rotate(-90)" fill="#e54e56"/>
    <rect id="Rectángulo_1575" data-name="Rectángulo 1575" width="12" height="12" transform="translate(1378 4390) rotate(-90)" fill="#e54e56"/>
    <rect id="Rectángulo_1590" data-name="Rectángulo 1590" width="12" height="12" transform="translate(1378 4370) rotate(-90)" fill="#e54e56"/>
    <rect id="Rectángulo_1605" data-name="Rectángulo 1605" width="12" height="12" transform="translate(1378 4350) rotate(-90)" fill="#e54e56"/>
    <rect id="Rectángulo_1620" data-name="Rectángulo 1620" width="12" height="12" transform="translate(1378 4330) rotate(-90)" fill="#e54e56"/>
    <rect id="Rectángulo_1635" data-name="Rectángulo 1635" width="12" height="12" transform="translate(1378 4310) rotate(-90)" fill="#e54e56"/>
    <rect id="Rectángulo_1650" data-name="Rectángulo 1650" width="12" height="12" transform="translate(1378 4290) rotate(-90)" fill="#e54e56"/>
    <rect id="Rectángulo_1665" data-name="Rectángulo 1665" width="12" height="12" transform="translate(1378 4270) rotate(-90)" fill="#070b2d"/>
    <rect id="Rectángulo_1561" data-name="Rectángulo 1561" width="12" height="12" transform="translate(1342 4410) rotate(-90)" fill="#e54e56"/>
    <rect id="Rectángulo_1576" data-name="Rectángulo 1576" width="12" height="12" transform="translate(1342 4390) rotate(-90)" fill="#e54e56"/>
    <rect id="Rectángulo_1591" data-name="Rectángulo 1591" width="12" height="12" transform="translate(1342 4370) rotate(-90)" fill="#e54e56"/>
    <rect id="Rectángulo_1606" data-name="Rectángulo 1606" width="12" height="12" transform="translate(1342 4350) rotate(-90)" fill="#e54e56"/>
    <rect id="Rectángulo_1621" data-name="Rectángulo 1621" width="12" height="12" transform="translate(1342 4330) rotate(-90)" fill="#e54e56"/>
    <rect id="Rectángulo_1636" data-name="Rectángulo 1636" width="12" height="12" transform="translate(1342 4310) rotate(-90)" fill="#e54e56"/>
    <rect id="Rectángulo_1651" data-name="Rectángulo 1651" width="12" height="12" transform="translate(1342 4290) rotate(-90)" fill="#e54e56"/>
    <rect id="Rectángulo_1666" data-name="Rectángulo 1666" width="12" height="12" transform="translate(1342 4270) rotate(-90)" fill="#070b2d"/>
    <rect id="Rectángulo_1562" data-name="Rectángulo 1562" width="12" height="12" transform="translate(1414 4410) rotate(-90)" fill="#e54e56"/>
    <rect id="Rectángulo_1577" data-name="Rectángulo 1577" width="12" height="12" transform="translate(1414 4390) rotate(-90)" fill="#e54e56"/>
    <rect id="Rectángulo_1592" data-name="Rectángulo 1592" width="12" height="12" transform="translate(1414 4370) rotate(-90)" fill="#e54e56"/>
    <rect id="Rectángulo_1607" data-name="Rectángulo 1607" width="12" height="12" transform="translate(1414 4350) rotate(-90)" fill="#e54e56"/>
    <rect id="Rectángulo_1622" data-name="Rectángulo 1622" width="12" height="12" transform="translate(1414 4330) rotate(-90)" fill="#e54e56"/>
    <rect id="Rectángulo_1637" data-name="Rectángulo 1637" width="12" height="12" transform="translate(1414 4310) rotate(-90)" fill="#e54e56"/>
    <rect id="Rectángulo_1652" data-name="Rectángulo 1652" width="12" height="12" transform="translate(1414 4290) rotate(-90)" fill="#e54e56"/>
    <rect id="Rectángulo_1667" data-name="Rectángulo 1667" width="12" height="12" transform="translate(1414 4270) rotate(-90)" fill="#070b2d"/>
    <rect id="Rectángulo_1563" data-name="Rectángulo 1563" width="12" height="12" transform="translate(1450 4410) rotate(-90)" fill="#e54e56"/>
    <rect id="Rectángulo_1578" data-name="Rectángulo 1578" width="12" height="12" transform="translate(1450 4390) rotate(-90)" fill="#e54e56"/>
    <rect id="Rectángulo_1593" data-name="Rectángulo 1593" width="12" height="12" transform="translate(1450 4370) rotate(-90)" fill="#e54e56"/>
    <rect id="Rectángulo_1608" data-name="Rectángulo 1608" width="12" height="12" transform="translate(1450 4350) rotate(-90)" fill="#e54e56"/>
    <rect id="Rectángulo_1623" data-name="Rectángulo 1623" width="12" height="12" transform="translate(1450 4330) rotate(-90)" fill="#e54e56"/>
    <rect id="Rectángulo_1638" data-name="Rectángulo 1638" width="12" height="12" transform="translate(1450 4310) rotate(-90)" fill="#e54e56"/>
    <rect id="Rectángulo_1653" data-name="Rectángulo 1653" width="12" height="12" transform="translate(1450 4290) rotate(-90)" fill="#e54e56"/>
    <rect id="Rectángulo_1668" data-name="Rectángulo 1668" width="12" height="12" transform="translate(1450 4270) rotate(-90)" fill="#070b2d"/>
    <rect id="Rectángulo_1564" data-name="Rectángulo 1564" width="12" height="12" transform="translate(1504 4410) rotate(-90)" fill="#e54e56"/>
    <rect id="Rectángulo_1579" data-name="Rectángulo 1579" width="12" height="12" transform="translate(1504 4390) rotate(-90)" fill="#e54e56"/>
    <rect id="Rectángulo_1594" data-name="Rectángulo 1594" width="12" height="12" transform="translate(1504 4370) rotate(-90)" fill="#e54e56"/>
    <rect id="Rectángulo_1609" data-name="Rectángulo 1609" width="12" height="12" transform="translate(1504 4350) rotate(-90)" fill="#e54e56"/>
    <rect id="Rectángulo_1624" data-name="Rectángulo 1624" width="12" height="12" transform="translate(1504 4330) rotate(-90)" fill="#e54e56"/>
    <rect id="Rectángulo_1639" data-name="Rectángulo 1639" width="12" height="12" transform="translate(1504 4310) rotate(-90)" fill="#e54e56"/>
    <rect id="Rectángulo_1654" data-name="Rectángulo 1654" width="12" height="12" transform="translate(1504 4290) rotate(-90)" fill="#e54e56"/>
    <rect id="Rectángulo_1669" data-name="Rectángulo 1669" width="12" height="12" transform="translate(1504 4270) rotate(-90)" fill="#070b2d"/>
    <rect id="Rectángulo_1565" data-name="Rectángulo 1565" width="12" height="12" transform="translate(1324 4410) rotate(-90)" fill="#e54e56"/>
    <rect id="Rectángulo_1556" data-name="Rectángulo 1556" width="12" height="12" transform="translate(1324 4430) rotate(-90)" fill="#e54e56"/>
    <rect id="Rectángulo_1580" data-name="Rectángulo 1580" width="12" height="12" transform="translate(1324 4390) rotate(-90)" fill="#e54e56"/>
    <rect id="Rectángulo_1595" data-name="Rectángulo 1595" width="12" height="12" transform="translate(1324 4370) rotate(-90)" fill="#e54e56"/>
    <rect id="Rectángulo_1610" data-name="Rectángulo 1610" width="12" height="12" transform="translate(1324 4350) rotate(-90)" fill="#e54e56"/>
    <rect id="Rectángulo_1625" data-name="Rectángulo 1625" width="12" height="12" transform="translate(1324 4330) rotate(-90)" fill="#e54e56"/>
    <rect id="Rectángulo_1640" data-name="Rectángulo 1640" width="12" height="12" transform="translate(1324 4310) rotate(-90)" fill="#e54e56"/>
    <rect id="Rectángulo_1655" data-name="Rectángulo 1655" width="12" height="12" transform="translate(1324 4290) rotate(-90)" fill="#e54e56"/>
    <rect id="Rectángulo_1670" data-name="Rectángulo 1670" width="12" height="12" transform="translate(1324 4270) rotate(-90)" fill="#070b2d"/>
    <rect id="Rectángulo_1566" data-name="Rectángulo 1566" width="12" height="12" transform="translate(1396 4410) rotate(-90)" fill="#e54e56"/>
    <rect id="Rectángulo_1581" data-name="Rectángulo 1581" width="12" height="12" transform="translate(1396 4390) rotate(-90)" fill="#e54e56"/>
    <rect id="Rectángulo_1596" data-name="Rectángulo 1596" width="12" height="12" transform="translate(1396 4370) rotate(-90)" fill="#e54e56"/>
    <rect id="Rectángulo_1611" data-name="Rectángulo 1611" width="12" height="12" transform="translate(1396 4350) rotate(-90)" fill="#e54e56"/>
    <rect id="Rectángulo_1626" data-name="Rectángulo 1626" width="12" height="12" transform="translate(1396 4330) rotate(-90)" fill="#e54e56"/>
    <rect id="Rectángulo_1641" data-name="Rectángulo 1641" width="12" height="12" transform="translate(1396 4310) rotate(-90)" fill="#e54e56"/>
    <rect id="Rectángulo_1656" data-name="Rectángulo 1656" width="12" height="12" transform="translate(1396 4290) rotate(-90)" fill="#e54e56"/>
    <rect id="Rectángulo_1671" data-name="Rectángulo 1671" width="12" height="12" transform="translate(1396 4270) rotate(-90)" fill="#070b2d"/>
    <rect id="Rectángulo_1567" data-name="Rectángulo 1567" width="12" height="12" transform="translate(1360 4410) rotate(-90)" fill="#e54e56"/>
    <rect id="Rectángulo_1582" data-name="Rectángulo 1582" width="12" height="12" transform="translate(1360 4390) rotate(-90)" fill="#e54e56"/>
    <rect id="Rectángulo_1597" data-name="Rectángulo 1597" width="12" height="12" transform="translate(1360 4370) rotate(-90)" fill="#e54e56"/>
    <rect id="Rectángulo_1612" data-name="Rectángulo 1612" width="12" height="12" transform="translate(1360 4350) rotate(-90)" fill="#e54e56"/>
    <rect id="Rectángulo_1627" data-name="Rectángulo 1627" width="12" height="12" transform="translate(1360 4330) rotate(-90)" fill="#e54e56"/>
    <rect id="Rectángulo_1642" data-name="Rectángulo 1642" width="12" height="12" transform="translate(1360 4310) rotate(-90)" fill="#e54e56"/>
    <rect id="Rectángulo_1657" data-name="Rectángulo 1657" width="12" height="12" transform="translate(1360 4290) rotate(-90)" fill="#e54e56"/>
    <rect id="Rectángulo_1672" data-name="Rectángulo 1672" width="12" height="12" transform="translate(1360 4270) rotate(-90)" fill="#070b2d"/>
    <rect id="Rectángulo_1568" data-name="Rectángulo 1568" width="12" height="12" transform="translate(1432 4410) rotate(-90)" fill="#e54e56"/>
    <rect id="Rectángulo_1583" data-name="Rectángulo 1583" width="12" height="12" transform="translate(1432 4390) rotate(-90)" fill="#e54e56"/>
    <rect id="Rectángulo_1598" data-name="Rectángulo 1598" width="12" height="12" transform="translate(1432 4370) rotate(-90)" fill="#e54e56"/>
    <rect id="Rectángulo_1613" data-name="Rectángulo 1613" width="12" height="12" transform="translate(1432 4350) rotate(-90)" fill="#e54e56"/>
    <rect id="Rectángulo_1628" data-name="Rectángulo 1628" width="12" height="12" transform="translate(1432 4330) rotate(-90)" fill="#e54e56"/>
    <rect id="Rectángulo_1643" data-name="Rectángulo 1643" width="12" height="12" transform="translate(1432 4310) rotate(-90)" fill="#e54e56"/>
    <rect id="Rectángulo_1658" data-name="Rectángulo 1658" width="12" height="12" transform="translate(1432 4290) rotate(-90)" fill="#e54e56"/>
    <rect id="Rectángulo_1673" data-name="Rectángulo 1673" width="12" height="12" transform="translate(1432 4270) rotate(-90)" fill="#070b2d"/>
    <rect id="Rectángulo_1569" data-name="Rectángulo 1569" width="12" height="12" transform="translate(1486 4410) rotate(-90)" fill="#e54e56"/>
    <rect id="Rectángulo_1584" data-name="Rectángulo 1584" width="12" height="12" transform="translate(1486 4390) rotate(-90)" fill="#e54e56"/>
    <rect id="Rectángulo_1599" data-name="Rectángulo 1599" width="12" height="12" transform="translate(1486 4370) rotate(-90)" fill="#e54e56"/>
    <rect id="Rectángulo_1614" data-name="Rectángulo 1614" width="12" height="12" transform="translate(1486 4350) rotate(-90)" fill="#e54e56"/>
    <rect id="Rectángulo_1629" data-name="Rectángulo 1629" width="12" height="12" transform="translate(1486 4330) rotate(-90)" fill="#e54e56"/>
    <rect id="Rectángulo_1644" data-name="Rectángulo 1644" width="12" height="12" transform="translate(1486 4310) rotate(-90)" fill="#e54e56"/>
    <rect id="Rectángulo_1659" data-name="Rectángulo 1659" width="12" height="12" transform="translate(1486 4290) rotate(-90)" fill="#e54e56"/>
    <rect id="Rectángulo_1674" data-name="Rectángulo 1674" width="12" height="12" transform="translate(1486 4270) rotate(-90)" fill="#070b2d"/>
    <rect id="Rectángulo_1570" data-name="Rectángulo 1570" width="12" height="12" transform="translate(1468 4410) rotate(-90)" fill="#e54e56"/>
    <rect id="Rectángulo_1585" data-name="Rectángulo 1585" width="12" height="12" transform="translate(1468 4390) rotate(-90)" fill="#e54e56"/>
    <rect id="Rectángulo_1600" data-name="Rectángulo 1600" width="12" height="12" transform="translate(1468 4370) rotate(-90)" fill="#e54e56"/>
    <rect id="Rectángulo_1615" data-name="Rectángulo 1615" width="12" height="12" transform="translate(1468 4350) rotate(-90)" fill="#e54e56"/>
    <rect id="Rectángulo_1630" data-name="Rectángulo 1630" width="12" height="12" transform="translate(1468 4330) rotate(-90)" fill="#e54e56"/>
    <rect id="Rectángulo_1645" data-name="Rectángulo 1645" width="12" height="12" transform="translate(1468 4310) rotate(-90)" fill="#e54e56"/>
    <rect id="Rectángulo_1660" data-name="Rectángulo 1660" width="12" height="12" transform="translate(1468 4290) rotate(-90)" fill="#e54e56"/>
    <rect id="Rectángulo_1675" data-name="Rectángulo 1675" width="12" height="12" transform="translate(1468 4270) rotate(-90)" fill="#070b2d"/>
    <rect id="Rectángulo_1571" data-name="Rectángulo 1571" width="12" height="12" transform="translate(1522 4410) rotate(-90)" fill="#e54e56"/>
    <rect id="Rectángulo_1586" data-name="Rectángulo 1586" width="12" height="12" transform="translate(1522 4390) rotate(-90)" fill="#e54e56"/>
    <rect id="Rectángulo_1601" data-name="Rectángulo 1601" width="12" height="12" transform="translate(1522 4370) rotate(-90)" fill="#e54e56"/>
    <rect id="Rectángulo_1616" data-name="Rectángulo 1616" width="12" height="12" transform="translate(1522 4350) rotate(-90)" fill="#e54e56"/>
    <rect id="Rectángulo_1631" data-name="Rectángulo 1631" width="12" height="12" transform="translate(1522 4330) rotate(-90)" fill="#e54e56"/>
    <rect id="Rectángulo_1646" data-name="Rectángulo 1646" width="12" height="12" transform="translate(1522 4310) rotate(-90)" fill="#e54e56"/>
    <rect id="Rectángulo_1661" data-name="Rectángulo 1661" width="12" height="12" transform="translate(1522 4290) rotate(-90)" fill="#e54e56"/>
    <rect id="Rectángulo_1676" data-name="Rectángulo 1676" width="12" height="12" transform="translate(1522 4270) rotate(-90)" fill="#070b2d"/>
  </g>
</svg>
