<svg xmlns="http://www.w3.org/2000/svg" width="264" height="172" viewBox="0 0 264 172">
  <g id="Grupo_704" data-name="Grupo 704" transform="translate(-740 -4258)">
    <rect id="Rectángulo_1309" data-name="Rectángulo 1309" width="12" height="12" transform="translate(776 4410) rotate(-90)" fill="#e54e56"/>
    <rect id="Rectángulo_1305" data-name="Rectángulo 1305" width="12" height="12" transform="translate(776 4430) rotate(-90)" fill="#e54e56"/>
    <rect id="Rectángulo_1324" data-name="Rectángulo 1324" width="12" height="12" transform="translate(776 4390) rotate(-90)" fill="#e54e56"/>
    <rect id="Rectángulo_1339" data-name="Rectángulo 1339" width="12" height="12" transform="translate(776 4370) rotate(-90)" fill="#e54e56"/>
    <rect id="Rectángulo_1354" data-name="Rectángulo 1354" width="12" height="12" transform="translate(776 4350) rotate(-90)" fill="#e54e56"/>
    <rect id="Rectángulo_1369" data-name="Rectángulo 1369" width="12" height="12" transform="translate(776 4330) rotate(-90)" fill="#e54e56"/>
    <rect id="Rectángulo_1384" data-name="Rectángulo 1384" width="12" height="12" transform="translate(776 4310) rotate(-90)" fill="#e54e56"/>
    <rect id="Rectángulo_1399" data-name="Rectángulo 1399" width="12" height="12" transform="translate(776 4290) rotate(-90)" fill="#070b2d"/>
    <rect id="Rectángulo_1414" data-name="Rectángulo 1414" width="12" height="12" transform="translate(776 4270) rotate(-90)" fill="#070b2d"/>
    <rect id="Rectángulo_1310" data-name="Rectángulo 1310" width="12" height="12" transform="translate(758 4410) rotate(-90)" fill="#e54e56"/>
    <rect id="Rectángulo_1306" data-name="Rectángulo 1306" width="12" height="12" transform="translate(758 4430) rotate(-90)" fill="#e54e56"/>
    <rect id="Rectángulo_1325" data-name="Rectángulo 1325" width="12" height="12" transform="translate(758 4390) rotate(-90)" fill="#e54e56"/>
    <rect id="Rectángulo_1340" data-name="Rectángulo 1340" width="12" height="12" transform="translate(758 4370) rotate(-90)" fill="#e54e56"/>
    <rect id="Rectángulo_1355" data-name="Rectángulo 1355" width="12" height="12" transform="translate(758 4350) rotate(-90)" fill="#e54e56"/>
    <rect id="Rectángulo_1370" data-name="Rectángulo 1370" width="12" height="12" transform="translate(758 4330) rotate(-90)" fill="#e54e56"/>
    <rect id="Rectángulo_1385" data-name="Rectángulo 1385" width="12" height="12" transform="translate(758 4310) rotate(-90)" fill="#e54e56"/>
    <rect id="Rectángulo_1400" data-name="Rectángulo 1400" width="12" height="12" transform="translate(758 4290) rotate(-90)" fill="#070b2d"/>
    <rect id="Rectángulo_1415" data-name="Rectángulo 1415" width="12" height="12" transform="translate(758 4270) rotate(-90)" fill="#070b2d"/>
    <rect id="Rectángulo_1311" data-name="Rectángulo 1311" width="12" height="12" transform="translate(740 4410) rotate(-90)" fill="#e54e56"/>
    <rect id="Rectángulo_1307" data-name="Rectángulo 1307" width="12" height="12" transform="translate(740 4430) rotate(-90)" fill="#e54e56"/>
    <rect id="Rectángulo_1326" data-name="Rectángulo 1326" width="12" height="12" transform="translate(740 4390) rotate(-90)" fill="#e54e56"/>
    <rect id="Rectángulo_1341" data-name="Rectángulo 1341" width="12" height="12" transform="translate(740 4370) rotate(-90)" fill="#e54e56"/>
    <rect id="Rectángulo_1356" data-name="Rectángulo 1356" width="12" height="12" transform="translate(740 4350) rotate(-90)" fill="#e54e56"/>
    <rect id="Rectángulo_1371" data-name="Rectángulo 1371" width="12" height="12" transform="translate(740 4330) rotate(-90)" fill="#e54e56"/>
    <rect id="Rectángulo_1386" data-name="Rectángulo 1386" width="12" height="12" transform="translate(740 4310) rotate(-90)" fill="#e54e56"/>
    <rect id="Rectángulo_1401" data-name="Rectángulo 1401" width="12" height="12" transform="translate(740 4290) rotate(-90)" fill="#070b2d"/>
    <rect id="Rectángulo_1416" data-name="Rectángulo 1416" width="12" height="12" transform="translate(740 4270) rotate(-90)" fill="#070b2d"/>
    <rect id="Rectángulo_1312" data-name="Rectángulo 1312" width="12" height="12" transform="translate(848 4410) rotate(-90)" fill="#e54e56"/>
    <rect id="Rectángulo_1327" data-name="Rectángulo 1327" width="12" height="12" transform="translate(848 4390) rotate(-90)" fill="#e54e56"/>
    <rect id="Rectángulo_1342" data-name="Rectángulo 1342" width="12" height="12" transform="translate(848 4370) rotate(-90)" fill="#e54e56"/>
    <rect id="Rectángulo_1357" data-name="Rectángulo 1357" width="12" height="12" transform="translate(848 4350) rotate(-90)" fill="#e54e56"/>
    <rect id="Rectángulo_1372" data-name="Rectángulo 1372" width="12" height="12" transform="translate(848 4330) rotate(-90)" fill="#e54e56"/>
    <rect id="Rectángulo_1387" data-name="Rectángulo 1387" width="12" height="12" transform="translate(848 4310) rotate(-90)" fill="#e54e56"/>
    <rect id="Rectángulo_1402" data-name="Rectángulo 1402" width="12" height="12" transform="translate(848 4290) rotate(-90)" fill="#070b2d"/>
    <rect id="Rectángulo_1417" data-name="Rectángulo 1417" width="12" height="12" transform="translate(848 4270) rotate(-90)" fill="#070b2d"/>
    <rect id="Rectángulo_1313" data-name="Rectángulo 1313" width="12" height="12" transform="translate(812 4410) rotate(-90)" fill="#e54e56"/>
    <rect id="Rectángulo_1328" data-name="Rectángulo 1328" width="12" height="12" transform="translate(812 4390) rotate(-90)" fill="#e54e56"/>
    <rect id="Rectángulo_1343" data-name="Rectángulo 1343" width="12" height="12" transform="translate(812 4370) rotate(-90)" fill="#e54e56"/>
    <rect id="Rectángulo_1358" data-name="Rectángulo 1358" width="12" height="12" transform="translate(812 4350) rotate(-90)" fill="#e54e56"/>
    <rect id="Rectángulo_1373" data-name="Rectángulo 1373" width="12" height="12" transform="translate(812 4330) rotate(-90)" fill="#e54e56"/>
    <rect id="Rectángulo_1388" data-name="Rectángulo 1388" width="12" height="12" transform="translate(812 4310) rotate(-90)" fill="#e54e56"/>
    <rect id="Rectángulo_1403" data-name="Rectángulo 1403" width="12" height="12" transform="translate(812 4290) rotate(-90)" fill="#070b2d"/>
    <rect id="Rectángulo_1418" data-name="Rectángulo 1418" width="12" height="12" transform="translate(812 4270) rotate(-90)" fill="#070b2d"/>
    <rect id="Rectángulo_1314" data-name="Rectángulo 1314" width="12" height="12" transform="translate(884 4410) rotate(-90)" fill="#e54e56"/>
    <rect id="Rectángulo_1329" data-name="Rectángulo 1329" width="12" height="12" transform="translate(884 4390) rotate(-90)" fill="#e54e56"/>
    <rect id="Rectángulo_1344" data-name="Rectángulo 1344" width="12" height="12" transform="translate(884 4370) rotate(-90)" fill="#e54e56"/>
    <rect id="Rectángulo_1359" data-name="Rectángulo 1359" width="12" height="12" transform="translate(884 4350) rotate(-90)" fill="#e54e56"/>
    <rect id="Rectángulo_1374" data-name="Rectángulo 1374" width="12" height="12" transform="translate(884 4330) rotate(-90)" fill="#e54e56"/>
    <rect id="Rectángulo_1389" data-name="Rectángulo 1389" width="12" height="12" transform="translate(884 4310) rotate(-90)" fill="#e54e56"/>
    <rect id="Rectángulo_1404" data-name="Rectángulo 1404" width="12" height="12" transform="translate(884 4290) rotate(-90)" fill="#070b2d"/>
    <rect id="Rectángulo_1419" data-name="Rectángulo 1419" width="12" height="12" transform="translate(884 4270) rotate(-90)" fill="#070b2d"/>
    <rect id="Rectángulo_1315" data-name="Rectángulo 1315" width="12" height="12" transform="translate(920 4410) rotate(-90)" fill="#e54e56"/>
    <rect id="Rectángulo_1330" data-name="Rectángulo 1330" width="12" height="12" transform="translate(920 4390) rotate(-90)" fill="#e54e56"/>
    <rect id="Rectángulo_1345" data-name="Rectángulo 1345" width="12" height="12" transform="translate(920 4370) rotate(-90)" fill="#e54e56"/>
    <rect id="Rectángulo_1360" data-name="Rectángulo 1360" width="12" height="12" transform="translate(920 4350) rotate(-90)" fill="#e54e56"/>
    <rect id="Rectángulo_1375" data-name="Rectángulo 1375" width="12" height="12" transform="translate(920 4330) rotate(-90)" fill="#e54e56"/>
    <rect id="Rectángulo_1390" data-name="Rectángulo 1390" width="12" height="12" transform="translate(920 4310) rotate(-90)" fill="#e54e56"/>
    <rect id="Rectángulo_1405" data-name="Rectángulo 1405" width="12" height="12" transform="translate(920 4290) rotate(-90)" fill="#e54e56"/>
    <rect id="Rectángulo_1420" data-name="Rectángulo 1420" width="12" height="12" transform="translate(920 4270) rotate(-90)" fill="#070b2d"/>
    <rect id="Rectángulo_1316" data-name="Rectángulo 1316" width="12" height="12" transform="translate(974 4410) rotate(-90)" fill="#e54e56"/>
    <rect id="Rectángulo_1331" data-name="Rectángulo 1331" width="12" height="12" transform="translate(974 4390) rotate(-90)" fill="#e54e56"/>
    <rect id="Rectángulo_1346" data-name="Rectángulo 1346" width="12" height="12" transform="translate(974 4370) rotate(-90)" fill="#e54e56"/>
    <rect id="Rectángulo_1361" data-name="Rectángulo 1361" width="12" height="12" transform="translate(974 4350) rotate(-90)" fill="#e54e56"/>
    <rect id="Rectángulo_1376" data-name="Rectángulo 1376" width="12" height="12" transform="translate(974 4330) rotate(-90)" fill="#e54e56"/>
    <rect id="Rectángulo_1391" data-name="Rectángulo 1391" width="12" height="12" transform="translate(974 4310) rotate(-90)" fill="#e54e56"/>
    <rect id="Rectángulo_1406" data-name="Rectángulo 1406" width="12" height="12" transform="translate(974 4290) rotate(-90)" fill="#e54e56"/>
    <rect id="Rectángulo_1421" data-name="Rectángulo 1421" width="12" height="12" transform="translate(974 4270) rotate(-90)" fill="#070b2d"/>
    <rect id="Rectángulo_1317" data-name="Rectángulo 1317" width="12" height="12" transform="translate(794 4410) rotate(-90)" fill="#e54e56"/>
    <rect id="Rectángulo_1308" data-name="Rectángulo 1308" width="12" height="12" transform="translate(794 4430) rotate(-90)" fill="#e54e56"/>
    <rect id="Rectángulo_1332" data-name="Rectángulo 1332" width="12" height="12" transform="translate(794 4390) rotate(-90)" fill="#e54e56"/>
    <rect id="Rectángulo_1347" data-name="Rectángulo 1347" width="12" height="12" transform="translate(794 4370) rotate(-90)" fill="#e54e56"/>
    <rect id="Rectángulo_1362" data-name="Rectángulo 1362" width="12" height="12" transform="translate(794 4350) rotate(-90)" fill="#e54e56"/>
    <rect id="Rectángulo_1377" data-name="Rectángulo 1377" width="12" height="12" transform="translate(794 4330) rotate(-90)" fill="#e54e56"/>
    <rect id="Rectángulo_1392" data-name="Rectángulo 1392" width="12" height="12" transform="translate(794 4310) rotate(-90)" fill="#e54e56"/>
    <rect id="Rectángulo_1407" data-name="Rectángulo 1407" width="12" height="12" transform="translate(794 4290) rotate(-90)" fill="#070b2d"/>
    <rect id="Rectángulo_1422" data-name="Rectángulo 1422" width="12" height="12" transform="translate(794 4270) rotate(-90)" fill="#070b2d"/>
    <rect id="Rectángulo_1318" data-name="Rectángulo 1318" width="12" height="12" transform="translate(866 4410) rotate(-90)" fill="#e54e56"/>
    <rect id="Rectángulo_1333" data-name="Rectángulo 1333" width="12" height="12" transform="translate(866 4390) rotate(-90)" fill="#e54e56"/>
    <rect id="Rectángulo_1348" data-name="Rectángulo 1348" width="12" height="12" transform="translate(866 4370) rotate(-90)" fill="#e54e56"/>
    <rect id="Rectángulo_1363" data-name="Rectángulo 1363" width="12" height="12" transform="translate(866 4350) rotate(-90)" fill="#e54e56"/>
    <rect id="Rectángulo_1378" data-name="Rectángulo 1378" width="12" height="12" transform="translate(866 4330) rotate(-90)" fill="#e54e56"/>
    <rect id="Rectángulo_1393" data-name="Rectángulo 1393" width="12" height="12" transform="translate(866 4310) rotate(-90)" fill="#e54e56"/>
    <rect id="Rectángulo_1408" data-name="Rectángulo 1408" width="12" height="12" transform="translate(866 4290) rotate(-90)" fill="#070b2d"/>
    <rect id="Rectángulo_1423" data-name="Rectángulo 1423" width="12" height="12" transform="translate(866 4270) rotate(-90)" fill="#070b2d"/>
    <rect id="Rectángulo_1319" data-name="Rectángulo 1319" width="12" height="12" transform="translate(830 4410) rotate(-90)" fill="#e54e56"/>
    <rect id="Rectángulo_1334" data-name="Rectángulo 1334" width="12" height="12" transform="translate(830 4390) rotate(-90)" fill="#e54e56"/>
    <rect id="Rectángulo_1349" data-name="Rectángulo 1349" width="12" height="12" transform="translate(830 4370) rotate(-90)" fill="#e54e56"/>
    <rect id="Rectángulo_1364" data-name="Rectángulo 1364" width="12" height="12" transform="translate(830 4350) rotate(-90)" fill="#e54e56"/>
    <rect id="Rectángulo_1379" data-name="Rectángulo 1379" width="12" height="12" transform="translate(830 4330) rotate(-90)" fill="#e54e56"/>
    <rect id="Rectángulo_1394" data-name="Rectángulo 1394" width="12" height="12" transform="translate(830 4310) rotate(-90)" fill="#e54e56"/>
    <rect id="Rectángulo_1409" data-name="Rectángulo 1409" width="12" height="12" transform="translate(830 4290) rotate(-90)" fill="#070b2d"/>
    <rect id="Rectángulo_1424" data-name="Rectángulo 1424" width="12" height="12" transform="translate(830 4270) rotate(-90)" fill="#070b2d"/>
    <rect id="Rectángulo_1320" data-name="Rectángulo 1320" width="12" height="12" transform="translate(902 4410) rotate(-90)" fill="#e54e56"/>
    <rect id="Rectángulo_1335" data-name="Rectángulo 1335" width="12" height="12" transform="translate(902 4390) rotate(-90)" fill="#e54e56"/>
    <rect id="Rectángulo_1350" data-name="Rectángulo 1350" width="12" height="12" transform="translate(902 4370) rotate(-90)" fill="#e54e56"/>
    <rect id="Rectángulo_1365" data-name="Rectángulo 1365" width="12" height="12" transform="translate(902 4350) rotate(-90)" fill="#e54e56"/>
    <rect id="Rectángulo_1380" data-name="Rectángulo 1380" width="12" height="12" transform="translate(902 4330) rotate(-90)" fill="#e54e56"/>
    <rect id="Rectángulo_1395" data-name="Rectángulo 1395" width="12" height="12" transform="translate(902 4310) rotate(-90)" fill="#e54e56"/>
    <rect id="Rectángulo_1410" data-name="Rectángulo 1410" width="12" height="12" transform="translate(902 4290) rotate(-90)" fill="#e54e56"/>
    <rect id="Rectángulo_1425" data-name="Rectángulo 1425" width="12" height="12" transform="translate(902 4270) rotate(-90)" fill="#070b2d"/>
    <rect id="Rectángulo_1321" data-name="Rectángulo 1321" width="12" height="12" transform="translate(956 4410) rotate(-90)" fill="#e54e56"/>
    <rect id="Rectángulo_1336" data-name="Rectángulo 1336" width="12" height="12" transform="translate(956 4390) rotate(-90)" fill="#e54e56"/>
    <rect id="Rectángulo_1351" data-name="Rectángulo 1351" width="12" height="12" transform="translate(956 4370) rotate(-90)" fill="#e54e56"/>
    <rect id="Rectángulo_1366" data-name="Rectángulo 1366" width="12" height="12" transform="translate(956 4350) rotate(-90)" fill="#e54e56"/>
    <rect id="Rectángulo_1381" data-name="Rectángulo 1381" width="12" height="12" transform="translate(956 4330) rotate(-90)" fill="#e54e56"/>
    <rect id="Rectángulo_1396" data-name="Rectángulo 1396" width="12" height="12" transform="translate(956 4310) rotate(-90)" fill="#e54e56"/>
    <rect id="Rectángulo_1411" data-name="Rectángulo 1411" width="12" height="12" transform="translate(956 4290) rotate(-90)" fill="#e54e56"/>
    <rect id="Rectángulo_1426" data-name="Rectángulo 1426" width="12" height="12" transform="translate(956 4270) rotate(-90)" fill="#070b2d"/>
    <rect id="Rectángulo_1322" data-name="Rectángulo 1322" width="12" height="12" transform="translate(938 4410) rotate(-90)" fill="#e54e56"/>
    <rect id="Rectángulo_1337" data-name="Rectángulo 1337" width="12" height="12" transform="translate(938 4390) rotate(-90)" fill="#e54e56"/>
    <rect id="Rectángulo_1352" data-name="Rectángulo 1352" width="12" height="12" transform="translate(938 4370) rotate(-90)" fill="#e54e56"/>
    <rect id="Rectángulo_1367" data-name="Rectángulo 1367" width="12" height="12" transform="translate(938 4350) rotate(-90)" fill="#e54e56"/>
    <rect id="Rectángulo_1382" data-name="Rectángulo 1382" width="12" height="12" transform="translate(938 4330) rotate(-90)" fill="#e54e56"/>
    <rect id="Rectángulo_1397" data-name="Rectángulo 1397" width="12" height="12" transform="translate(938 4310) rotate(-90)" fill="#e54e56"/>
    <rect id="Rectángulo_1412" data-name="Rectángulo 1412" width="12" height="12" transform="translate(938 4290) rotate(-90)" fill="#e54e56"/>
    <rect id="Rectángulo_1427" data-name="Rectángulo 1427" width="12" height="12" transform="translate(938 4270) rotate(-90)" fill="#070b2d"/>
    <rect id="Rectángulo_1323" data-name="Rectángulo 1323" width="12" height="12" transform="translate(992 4410) rotate(-90)" fill="#e54e56"/>
    <rect id="Rectángulo_1338" data-name="Rectángulo 1338" width="12" height="12" transform="translate(992 4390) rotate(-90)" fill="#e54e56"/>
    <rect id="Rectángulo_1353" data-name="Rectángulo 1353" width="12" height="12" transform="translate(992 4370) rotate(-90)" fill="#e54e56"/>
    <rect id="Rectángulo_1368" data-name="Rectángulo 1368" width="12" height="12" transform="translate(992 4350) rotate(-90)" fill="#e54e56"/>
    <rect id="Rectángulo_1383" data-name="Rectángulo 1383" width="12" height="12" transform="translate(992 4330) rotate(-90)" fill="#e54e56"/>
    <rect id="Rectángulo_1398" data-name="Rectángulo 1398" width="12" height="12" transform="translate(992 4310) rotate(-90)" fill="#e54e56"/>
    <rect id="Rectángulo_1413" data-name="Rectángulo 1413" width="12" height="12" transform="translate(992 4290) rotate(-90)" fill="#e54e56"/>
    <rect id="Rectángulo_1428" data-name="Rectángulo 1428" width="12" height="12" transform="translate(992 4270) rotate(-90)" fill="#070b2d"/>
  </g>
</svg>
