<svg xmlns="http://www.w3.org/2000/svg" width="228" height="152" viewBox="0 0 228 152">
  <g id="Grupo_531" data-name="Grupo 531" transform="translate(-2676 1005) rotate(-90)">
    <g id="Grupo_518" data-name="Grupo 518">
      <rect id="Rectángulo_264" data-name="Rectángulo 264" width="12" height="12" transform="translate(853 2676)" fill="#e54e56"/>
      <rect id="Rectángulo_265" data-name="Rectángulo 265" width="12" height="12" transform="translate(873 2676)" fill="#e54e56"/>
      <rect id="Rectángulo_266" data-name="Rectángulo 266" width="12" height="12" transform="translate(893 2676)" fill="#e54e56"/>
      <rect id="Rectángulo_267" data-name="Rectángulo 267" width="12" height="12" transform="translate(913 2676)" fill="#e54e56"/>
      <rect id="Rectángulo_268" data-name="Rectángulo 268" width="12" height="12" transform="translate(933 2676)" fill="#e54e56"/>
      <rect id="Rectángulo_269" data-name="Rectángulo 269" width="12" height="12" transform="translate(953 2676)" fill="#e54e56"/>
      <rect id="Rectángulo_270" data-name="Rectángulo 270" width="12" height="12" transform="translate(973 2676)" fill="#e54e56"/>
      <rect id="Rectángulo_271" data-name="Rectángulo 271" width="12" height="12" transform="translate(993 2676)" fill="#e54e56"/>
    </g>
    <g id="Grupo_525" data-name="Grupo 525" transform="translate(0 72)">
      <rect id="Rectángulo_264-2" data-name="Rectángulo 264" width="12" height="12" transform="translate(853 2676)" fill="#e54e56"/>
      <rect id="Rectángulo_265-2" data-name="Rectángulo 265" width="12" height="12" transform="translate(873 2676)" fill="#e54e56"/>
      <rect id="Rectángulo_266-2" data-name="Rectángulo 266" width="12" height="12" transform="translate(893 2676)" fill="#e54e56"/>
      <rect id="Rectángulo_267-2" data-name="Rectángulo 267" width="12" height="12" transform="translate(913 2676)" fill="#e54e56"/>
      <rect id="Rectángulo_268-2" data-name="Rectángulo 268" width="12" height="12" transform="translate(933 2676)" fill="#e54e56"/>
      <rect id="Rectángulo_269-2" data-name="Rectángulo 269" width="12" height="12" transform="translate(953 2676)" fill="#e54e56"/>
      <rect id="Rectángulo_270-2" data-name="Rectángulo 270" width="12" height="12" transform="translate(973 2676)" fill="#e54e56"/>
      <rect id="Rectángulo_271-2" data-name="Rectángulo 271" width="12" height="12" transform="translate(993 2676)" fill="#e54e56"/>
    </g>
    <g id="Grupo_521" data-name="Grupo 521" transform="translate(0 36)">
      <rect id="Rectángulo_264-3" data-name="Rectángulo 264" width="12" height="12" transform="translate(853 2676)" fill="#e54e56"/>
      <rect id="Rectángulo_265-3" data-name="Rectángulo 265" width="12" height="12" transform="translate(873 2676)" fill="#e54e56"/>
      <rect id="Rectángulo_266-3" data-name="Rectángulo 266" width="12" height="12" transform="translate(893 2676)" fill="#e54e56"/>
      <rect id="Rectángulo_267-3" data-name="Rectángulo 267" width="12" height="12" transform="translate(913 2676)" fill="#e54e56"/>
      <rect id="Rectángulo_268-3" data-name="Rectángulo 268" width="12" height="12" transform="translate(933 2676)" fill="#e54e56"/>
      <rect id="Rectángulo_269-3" data-name="Rectángulo 269" width="12" height="12" transform="translate(953 2676)" fill="#e54e56"/>
      <rect id="Rectángulo_270-3" data-name="Rectángulo 270" width="12" height="12" transform="translate(973 2676)" fill="#e54e56"/>
      <rect id="Rectángulo_271-3" data-name="Rectángulo 271" width="12" height="12" transform="translate(993 2676)" fill="#e54e56"/>
    </g>
    <g id="Grupo_523" data-name="Grupo 523" transform="translate(0 108)">
      <rect id="Rectángulo_264-4" data-name="Rectángulo 264" width="12" height="12" transform="translate(853 2676)" fill="#e54e56"/>
      <rect id="Rectángulo_265-4" data-name="Rectángulo 265" width="12" height="12" transform="translate(873 2676)" fill="#e54e56"/>
      <rect id="Rectángulo_266-4" data-name="Rectángulo 266" width="12" height="12" transform="translate(893 2676)" fill="#e54e56"/>
      <rect id="Rectángulo_267-4" data-name="Rectángulo 267" width="12" height="12" transform="translate(913 2676)" fill="#e54e56"/>
      <rect id="Rectángulo_268-4" data-name="Rectángulo 268" width="12" height="12" transform="translate(933 2676)" fill="#e54e56"/>
      <rect id="Rectángulo_269-4" data-name="Rectángulo 269" width="12" height="12" transform="translate(953 2676)" fill="#e54e56"/>
      <rect id="Rectángulo_270-4" data-name="Rectángulo 270" width="12" height="12" transform="translate(973 2676)" fill="#e54e56"/>
      <rect id="Rectángulo_271-4" data-name="Rectángulo 271" width="12" height="12" transform="translate(993 2676)" fill="#e54e56"/>
    </g>
    <g id="Grupo_526" data-name="Grupo 526" transform="translate(0 144)">
      <rect id="Rectángulo_264-5" data-name="Rectángulo 264" width="12" height="12" transform="translate(853 2676)" fill="#e54e56"/>
      <rect id="Rectángulo_265-5" data-name="Rectángulo 265" width="12" height="12" transform="translate(873 2676)" fill="#e54e56"/>
      <rect id="Rectángulo_266-5" data-name="Rectángulo 266" width="12" height="12" transform="translate(893 2676)" fill="#e54e56"/>
      <rect id="Rectángulo_267-5" data-name="Rectángulo 267" width="12" height="12" transform="translate(913 2676)" fill="#e54e56"/>
      <rect id="Rectángulo_268-5" data-name="Rectángulo 268" width="12" height="12" transform="translate(933 2676)" fill="#e54e56"/>
      <rect id="Rectángulo_269-5" data-name="Rectángulo 269" width="12" height="12" transform="translate(953 2676)" fill="#e54e56"/>
      <rect id="Rectángulo_270-5" data-name="Rectángulo 270" width="12" height="12" transform="translate(973 2676)" fill="#e54e56"/>
      <rect id="Rectángulo_271-5" data-name="Rectángulo 271" width="12" height="12" transform="translate(993 2676)" fill="#e54e56"/>
    </g>
    <g id="Grupo_528" data-name="Grupo 528" transform="translate(0 198)">
      <rect id="Rectángulo_264-6" data-name="Rectángulo 264" width="12" height="12" transform="translate(853 2676)" fill="#e54e56"/>
      <rect id="Rectángulo_265-6" data-name="Rectángulo 265" width="12" height="12" transform="translate(873 2676)" fill="#e54e56"/>
      <rect id="Rectángulo_266-6" data-name="Rectángulo 266" width="12" height="12" transform="translate(893 2676)" fill="#e54e56"/>
      <rect id="Rectángulo_267-6" data-name="Rectángulo 267" width="12" height="12" transform="translate(913 2676)" fill="#e54e56"/>
      <rect id="Rectángulo_268-6" data-name="Rectángulo 268" width="12" height="12" transform="translate(933 2676)" fill="#e54e56"/>
      <rect id="Rectángulo_269-6" data-name="Rectángulo 269" width="12" height="12" transform="translate(953 2676)" fill="#e54e56"/>
      <rect id="Rectángulo_270-6" data-name="Rectángulo 270" width="12" height="12" transform="translate(973 2676)" fill="#e54e56"/>
      <rect id="Rectángulo_271-6" data-name="Rectángulo 271" width="12" height="12" transform="translate(993 2676)" fill="#e54e56"/>
    </g>
    <g id="Grupo_519" data-name="Grupo 519" transform="translate(0 18)">
      <rect id="Rectángulo_264-7" data-name="Rectángulo 264" width="12" height="12" transform="translate(853 2676)" fill="#e54e56"/>
      <rect id="Rectángulo_265-7" data-name="Rectángulo 265" width="12" height="12" transform="translate(873 2676)" fill="#e54e56"/>
      <rect id="Rectángulo_266-7" data-name="Rectángulo 266" width="12" height="12" transform="translate(893 2676)" fill="#e54e56"/>
      <rect id="Rectángulo_267-7" data-name="Rectángulo 267" width="12" height="12" transform="translate(913 2676)" fill="#e54e56"/>
      <rect id="Rectángulo_268-7" data-name="Rectángulo 268" width="12" height="12" transform="translate(933 2676)" fill="#e54e56"/>
      <rect id="Rectángulo_269-7" data-name="Rectángulo 269" width="12" height="12" transform="translate(953 2676)" fill="#e54e56"/>
      <rect id="Rectángulo_270-7" data-name="Rectángulo 270" width="12" height="12" transform="translate(973 2676)" fill="#e54e56"/>
      <rect id="Rectángulo_271-7" data-name="Rectángulo 271" width="12" height="12" transform="translate(993 2676)" fill="#e54e56"/>
    </g>
    <g id="Grupo_524" data-name="Grupo 524" transform="translate(0 90)">
      <rect id="Rectángulo_264-8" data-name="Rectángulo 264" width="12" height="12" transform="translate(853 2676)" fill="#e54e56"/>
      <rect id="Rectángulo_265-8" data-name="Rectángulo 265" width="12" height="12" transform="translate(873 2676)" fill="#e54e56"/>
      <rect id="Rectángulo_266-8" data-name="Rectángulo 266" width="12" height="12" transform="translate(893 2676)" fill="#e54e56"/>
      <rect id="Rectángulo_267-8" data-name="Rectángulo 267" width="12" height="12" transform="translate(913 2676)" fill="#e54e56"/>
      <rect id="Rectángulo_268-8" data-name="Rectángulo 268" width="12" height="12" transform="translate(933 2676)" fill="#e54e56"/>
      <rect id="Rectángulo_269-8" data-name="Rectángulo 269" width="12" height="12" transform="translate(953 2676)" fill="#e54e56"/>
      <rect id="Rectángulo_270-8" data-name="Rectángulo 270" width="12" height="12" transform="translate(973 2676)" fill="#e54e56"/>
      <rect id="Rectángulo_271-8" data-name="Rectángulo 271" width="12" height="12" transform="translate(993 2676)" fill="#e54e56"/>
    </g>
    <g id="Grupo_520" data-name="Grupo 520" transform="translate(0 54)">
      <rect id="Rectángulo_264-9" data-name="Rectángulo 264" width="12" height="12" transform="translate(853 2676)" fill="#e54e56"/>
      <rect id="Rectángulo_265-9" data-name="Rectángulo 265" width="12" height="12" transform="translate(873 2676)" fill="#e54e56"/>
      <rect id="Rectángulo_266-9" data-name="Rectángulo 266" width="12" height="12" transform="translate(893 2676)" fill="#e54e56"/>
      <rect id="Rectángulo_267-9" data-name="Rectángulo 267" width="12" height="12" transform="translate(913 2676)" fill="#e54e56"/>
      <rect id="Rectángulo_268-9" data-name="Rectángulo 268" width="12" height="12" transform="translate(933 2676)" fill="#e54e56"/>
      <rect id="Rectángulo_269-9" data-name="Rectángulo 269" width="12" height="12" transform="translate(953 2676)" fill="#e54e56"/>
      <rect id="Rectángulo_270-9" data-name="Rectángulo 270" width="12" height="12" transform="translate(973 2676)" fill="#e54e56"/>
      <rect id="Rectángulo_271-9" data-name="Rectángulo 271" width="12" height="12" transform="translate(993 2676)" fill="#e54e56"/>
    </g>
    <g id="Grupo_522" data-name="Grupo 522" transform="translate(0 126)">
      <rect id="Rectángulo_264-10" data-name="Rectángulo 264" width="12" height="12" transform="translate(853 2676)" fill="#e54e56"/>
      <rect id="Rectángulo_265-10" data-name="Rectángulo 265" width="12" height="12" transform="translate(873 2676)" fill="#e54e56"/>
      <rect id="Rectángulo_266-10" data-name="Rectángulo 266" width="12" height="12" transform="translate(893 2676)" fill="#e54e56"/>
      <rect id="Rectángulo_267-10" data-name="Rectángulo 267" width="12" height="12" transform="translate(913 2676)" fill="#e54e56"/>
      <rect id="Rectángulo_268-10" data-name="Rectángulo 268" width="12" height="12" transform="translate(933 2676)" fill="#e54e56"/>
      <rect id="Rectángulo_269-10" data-name="Rectángulo 269" width="12" height="12" transform="translate(953 2676)" fill="#e54e56"/>
      <rect id="Rectángulo_270-10" data-name="Rectángulo 270" width="12" height="12" transform="translate(973 2676)" fill="#e54e56"/>
      <rect id="Rectángulo_271-10" data-name="Rectángulo 271" width="12" height="12" transform="translate(993 2676)" fill="#e54e56"/>
    </g>
    <g id="Grupo_529" data-name="Grupo 529" transform="translate(0 180)">
      <rect id="Rectángulo_264-11" data-name="Rectángulo 264" width="12" height="12" transform="translate(853 2676)" fill="#e54e56"/>
      <rect id="Rectángulo_265-11" data-name="Rectángulo 265" width="12" height="12" transform="translate(873 2676)" fill="#e54e56"/>
      <rect id="Rectángulo_266-11" data-name="Rectángulo 266" width="12" height="12" transform="translate(893 2676)" fill="#e54e56"/>
      <rect id="Rectángulo_267-11" data-name="Rectángulo 267" width="12" height="12" transform="translate(913 2676)" fill="#e54e56"/>
      <rect id="Rectángulo_268-11" data-name="Rectángulo 268" width="12" height="12" transform="translate(933 2676)" fill="#e54e56"/>
      <rect id="Rectángulo_269-11" data-name="Rectángulo 269" width="12" height="12" transform="translate(953 2676)" fill="#e54e56"/>
      <rect id="Rectángulo_270-11" data-name="Rectángulo 270" width="12" height="12" transform="translate(973 2676)" fill="#e54e56"/>
      <rect id="Rectángulo_271-11" data-name="Rectángulo 271" width="12" height="12" transform="translate(993 2676)" fill="#e54e56"/>
    </g>
    <g id="Grupo_527" data-name="Grupo 527" transform="translate(0 162)">
      <rect id="Rectángulo_264-12" data-name="Rectángulo 264" width="12" height="12" transform="translate(853 2676)" fill="#e54e56"/>
      <rect id="Rectángulo_265-12" data-name="Rectángulo 265" width="12" height="12" transform="translate(873 2676)" fill="#e54e56"/>
      <rect id="Rectángulo_266-12" data-name="Rectángulo 266" width="12" height="12" transform="translate(893 2676)" fill="#e54e56"/>
      <rect id="Rectángulo_267-12" data-name="Rectángulo 267" width="12" height="12" transform="translate(913 2676)" fill="#e54e56"/>
      <rect id="Rectángulo_268-12" data-name="Rectángulo 268" width="12" height="12" transform="translate(933 2676)" fill="#e54e56"/>
      <rect id="Rectángulo_269-12" data-name="Rectángulo 269" width="12" height="12" transform="translate(953 2676)" fill="#e54e56"/>
      <rect id="Rectángulo_270-12" data-name="Rectángulo 270" width="12" height="12" transform="translate(973 2676)" fill="#e54e56"/>
      <rect id="Rectángulo_271-12" data-name="Rectángulo 271" width="12" height="12" transform="translate(993 2676)" fill="#e54e56"/>
    </g>
    <g id="Grupo_530" data-name="Grupo 530" transform="translate(0 216)">
      <rect id="Rectángulo_264-13" data-name="Rectángulo 264" width="12" height="12" transform="translate(853 2676)" fill="#e54e56"/>
      <rect id="Rectángulo_265-13" data-name="Rectángulo 265" width="12" height="12" transform="translate(873 2676)" fill="#e54e56"/>
      <rect id="Rectángulo_266-13" data-name="Rectángulo 266" width="12" height="12" transform="translate(893 2676)" fill="#e54e56"/>
      <rect id="Rectángulo_267-13" data-name="Rectángulo 267" width="12" height="12" transform="translate(913 2676)" fill="#e54e56"/>
      <rect id="Rectángulo_268-13" data-name="Rectángulo 268" width="12" height="12" transform="translate(933 2676)" fill="#e54e56"/>
      <rect id="Rectángulo_269-13" data-name="Rectángulo 269" width="12" height="12" transform="translate(953 2676)" fill="#e54e56"/>
      <rect id="Rectángulo_270-13" data-name="Rectángulo 270" width="12" height="12" transform="translate(973 2676)" fill="#e54e56"/>
      <rect id="Rectángulo_271-13" data-name="Rectángulo 271" width="12" height="12" transform="translate(993 2676)" fill="#e54e56"/>
    </g>
  </g>
</svg>
