<svg xmlns="http://www.w3.org/2000/svg" width="228.991" height="343.481" viewBox="0 0 228.991 343.481">
  <g id="Grupo_572" data-name="Grupo 572" transform="translate(21488 -7196)">
    <rect id="Rect치ngulo_235" data-name="Rect치ngulo 235" width="114.496" height="114.494" transform="translate(-21488 7424.987)" fill="#e54e56"/>
    <path id="Trazado_997" data-name="Trazado 997" d="M397.625,666.723a114.575,114.575,0,0,0-71.717-33.549l-9.243.032V747.668h114.5A114.108,114.108,0,0,0,397.625,666.723Z" transform="translate(-21690.168 6791.814)" fill="#e54e56"/>
    <rect id="Rect치ngulo_257" data-name="Rect치ngulo 257" width="82.998" height="75.024" transform="translate(-21487.998 7349.964)" fill="#e3b9ad"/>
    <path id="Trazado_1022" data-name="Trazado 1022" d="M121.736,269.2A26.17,26.17,0,0,1,121,263.08a26.559,26.559,0,0,1,26.558-26.557c2.235,0,6.468.7,6.468-3.1V216.107H163.2c3.69,0-2.795-11.332-5.255-14.612s-3.919-11.069-3.919-16.4V134.933s-48.378,2.05-50.427,1.64S48.251,174.7,48.251,174.7L24.471,243.575,0,278.832H113.139c7.292,0,8.56-1.127,8.56-5.548C121.7,272.555,121.736,270.554,121.736,269.2Z" transform="translate(-21487.996 7109.908)" fill="#e3b9ad"/>
    <path id="Trazado_1023" data-name="Trazado 1023" d="M111.114-.15C22.731-.15,0,22.016,0,102v89.752c41.507,0,50.3-21.741,50.3-36.465,0-5.977-1.925-14.349,5.254-14.349,21.654,0,24.675-6.56,24.675-13.94V99.937c0-27.058,18.068-35.787,30.885-35.787,37.1,0,72.151-8.741,72.151-64.3Z" transform="translate(-21487.996 7196.15)" fill="#334060"/>
    <path id="Trazado_1024" data-name="Trazado 1024" d="M177.449,390.538c-17.326,0-31.45-3.728-40.844-10.78-7.393-5.55-11.807-13.267-11.807-20.644a8.764,8.764,0,0,1,2.661-6.407c6.7-6.69,25.24-6.672,55.964-6.636q3.158,0,6.457,0v5.785q-3.3,0-6.463,0c-26.186-.029-46.869-.051-51.869,4.944a3.051,3.051,0,0,0-.964,2.314c0,2.085.685,9.4,9.495,16.018,8.385,6.295,21.307,9.622,37.371,9.622Z" transform="translate(-21567.674 6975.114)" fill="#b3d0f7"/>
    <path id="Trazado_1025" data-name="Trazado 1025" d="M241.821,346.828c0,15.562-13.58,37.545-30.333,37.545,0,17.205,10.83,28.254,15.167,33.322,63.234,0,78.953-41.311,78.953-70.867Z" transform="translate(-21623.02 6974.627)" fill="#b3d0f7"/>
    <path id="Trazado_1026" data-name="Trazado 1026" d="M144.229,348.411a13.324,13.324,0,0,1-13.324,13.324h0a13.324,13.324,0,0,1-13.325-13.324V326.275a13.324,13.324,0,0,1,13.325-13.324h0a13.323,13.323,0,0,1,13.324,13.324Z" transform="translate(-21563.064 6996.255)" fill="#e3b9ad"/>
  </g>
</svg>
