<svg xmlns="http://www.w3.org/2000/svg" width="336.835" height="265.765" viewBox="0 0 336.835 265.765">
  <g id="Grupo_546" data-name="Grupo 546" transform="translate(-907.421 -413.191)">
    <path id="Trazado_1058" data-name="Trazado 1058" d="M1963.09,1068.858a5.6,5.6,0,0,0,.325,7.906l23.863,14.685a5.6,5.6,0,0,0,7.9.325l20.856-24.348c2.095-2.093-2.59-3.421-4.862-5.693l-17.312-20.588c-2.272-2.27-4.49-6.374-6.585-4.279Z" transform="translate(-774.425 -457.737)" fill="#e3b9ad"/>
    <g id="Grupo_545" data-name="Grupo 545" transform="translate(907.421 413.191)">
      <path id="Trazado_1059" data-name="Trazado 1059" d="M907.421,614.636c0-5.548,10.293-24.8,30.932-34.328,25.483-11.766,43.972-8.95,56.216-4.867l35.6,67.768c7.646,17.521-78.571,6.905-91.42,39.653Z" transform="translate(-907.421 -529.785)" fill="#e54e56"/>
      <path id="Trazado_1060" data-name="Trazado 1060" d="M1249.348,704.558l18.915,36c-5.926-16.4-31.633-4.674-35.635-12.685C1226.986,715.957,1244.627,702.982,1249.348,704.558Z" transform="translate(-1145.515 -627.138)" fill="#680f22"/>
      <path id="Trazado_1061" data-name="Trazado 1061" d="M1083.241,445.536c7.544-32.167,76.984-35.734,118.473-30.2l69.754,99.937c-51.033-29.143-156.714-24.252-147.773-1.337Z" transform="translate(-1036.581 -413.191)" fill="#e54e56"/>
      <path id="Trazado_1062" data-name="Trazado 1062" d="M1974.687,1173.914h32.3l3.712,63.881h-39.725Z" transform="translate(-1688.723 -972.031)" fill="#e3b9ad"/>
      <path id="Trazado_1063" data-name="Trazado 1063" d="M1683.62,645.659h6.585L1533.086,421.8l-6.338-.929Z" transform="translate(-1362.389 -418.834)" fill="#e54e56"/>
      <path id="Trazado_1064" data-name="Trazado 1064" d="M1951.822,1051.909l-4.071-17.855,12.764-28.911s8.75,7.39,5.934,13.774c-3.192,7.227-5.76,13.042-6.9,15.634,2.833,1.843,9.013,9.931,9.448,21.945-1.295,2.076-2.294,2.735-7.807,2.735C1954.976,1059.231,1953.338,1058.566,1951.822,1051.909Z" transform="translate(-1671.665 -848.049)" fill="#d19486"/>
      <path id="Trazado_1065" data-name="Trazado 1065" d="M2009.321,1052.775a5.4,5.4,0,0,1-7.612-.213h0a5.389,5.389,0,0,1-.209-7.614l15.217-15.12a5.388,5.388,0,0,1,7.611.211h0a5.388,5.388,0,0,1,.214,7.61Z" transform="translate(-1710.066 -865.101)" fill="#e3b9ad"/>
      <path id="Trazado_1066" data-name="Trazado 1066" d="M2042.209,1079.011a5.4,5.4,0,0,1-7.614-.213h0a5.393,5.393,0,0,1-.209-7.616l15.218-15.12a5.387,5.387,0,0,1,7.61.212h0a5.386,5.386,0,0,1,.212,7.61Z" transform="translate(-1734.225 -884.374)" fill="#e3b9ad"/>
      <path id="Trazado_1067" data-name="Trazado 1067" d="M2070.221,1108.17a4.974,4.974,0,0,1-7.022-.2h0a4.97,4.97,0,0,1-.195-7.023l15.272-14.052a4.963,4.963,0,0,1,7.018.193h0a4.971,4.971,0,0,1,.2,7.022Z" transform="translate(-1755.332 -907.108)" fill="#e3b9ad"/>
      <path id="Trazado_1068" data-name="Trazado 1068" d="M2105.981,1137.789a4.662,4.662,0,0,1-6.58-.187h0a4.655,4.655,0,0,1-.182-6.579l11.582-11.58a4.649,4.649,0,0,1,6.576.185h0a4.657,4.657,0,0,1,.185,6.579Z" transform="translate(-1781.999 -931.08)" fill="#e3b9ad"/>
    </g>
  </g>
</svg>
