<svg xmlns="http://www.w3.org/2000/svg" xmlns:xlink="http://www.w3.org/1999/xlink" viewBox="0 0 107.78 56"><defs><style>.b3a67134-3410-4106-ae1a-40a78cdaace1{fill:none;}.b348d33a-9121-4176-9d3b-3017e2792ffa{clip-path:url(#a18cce1e-b70f-4fc7-bc52-b6330ed92fe7);}.bdaef448-57f5-4d3a-a4ac-51928072aede{fill:#052237;}.a2007c08-17b8-4893-b1e6-0c6c9a704406{fill:#923548;}.fe51393b-89cd-4def-a4ca-1769ef53dfcf{fill:#221f20;}</style><clipPath id="a18cce1e-b70f-4fc7-bc52-b6330ed92fe7" transform="translate(0 0)"><rect class="b3a67134-3410-4106-ae1a-40a78cdaace1" width="107.78" height="56"/></clipPath></defs><g id="be8832ba-9f39-470f-a8f1-744d91cc6d42" data-name="Capa 2"><g id="b9d15a76-dbfa-4c94-b791-ae7ac8893271" data-name="Capa 1"><g class="b348d33a-9121-4176-9d3b-3017e2792ffa"><path class="bdaef448-57f5-4d3a-a4ac-51928072aede" d="M94.56,17.73V29c1,0,2,0,3-.1a4.12,4.12,0,0,0,4.07-3.37,7.53,7.53,0,0,0-.1-4.31,4.45,4.45,0,0,0-3.09-3.09,12.4,12.4,0,0,0-3.89-.36m-3.39,14.5V14.43l.15,0c1.65,0,3.29,0,4.94,0a13.33,13.33,0,0,1,3.66.53,7.14,7.14,0,0,1,4.22,3.62,10.09,10.09,0,0,1,1.18,5.11,9.48,9.48,0,0,1-1.16,4.69,6.75,6.75,0,0,1-5.46,3.69c-1.08.09-2.16.14-3.25.16-1.41,0-2.83,0-4.28,0" transform="translate(0 0)"/><polygon class="bdaef448-57f5-4d3a-a4ac-51928072aede" points="81.63 28.94 87.95 28.94 87.95 32.22 78.27 32.22 78.27 14.44 87.96 14.44 87.96 17.72 81.63 17.72 81.63 20.93 87.96 20.93 87.96 24.23 81.63 24.23 81.63 28.94"/><polygon class="bdaef448-57f5-4d3a-a4ac-51928072aede" points="75.24 14.44 75.24 17.71 69.77 17.71 69.77 20.93 75.23 20.93 75.23 24.24 69.75 24.24 69.75 32.22 66.39 32.22 66.39 14.44 75.24 14.44"/><rect class="bdaef448-57f5-4d3a-a4ac-51928072aede" x="59.13" y="14.44" width="3.34" height="17.79"/><path class="a2007c08-17b8-4893-b1e6-0c6c9a704406" d="M82.78,42.17h-.5c-.11-.6-.21-1.19-.31-1.78h-.06c-.16.46-.32.93-.47,1.4s-.14.4-.61.37c-.19-.58-.39-1.18-.59-1.77h-.06c-.11.58-.21,1.17-.31,1.77h-.52c.16-1,.33-1.94.49-2.91.53-.06.52-.06.68.41s.34,1.05.54,1.65c.07-.18.12-.28.15-.38.15-.44.29-.87.43-1.31s.15-.43.65-.36l.49,2.91" transform="translate(0 0)"/><path class="a2007c08-17b8-4893-b1e6-0c6c9a704406" d="M60.35,35.42v1.82H59.8V34.36c.42-.12.49-.1.72.26a17.29,17.29,0,0,0,1.07,1.56V34.34h.52v2.89a.55.55,0,0,1-.73-.3c-.3-.52-.65-1-1-1.53l-.06,0" transform="translate(0 0)"/><path class="a2007c08-17b8-4893-b1e6-0c6c9a704406" d="M86.55,39.26a.57.57,0,0,1,.74.3,11.79,11.79,0,0,0,1,1.53V39.25h.53v2.9a.56.56,0,0,1-.73-.3,12.69,12.69,0,0,0-1-1.52v1.83h-.55Z" transform="translate(0 0)"/><path class="a2007c08-17b8-4893-b1e6-0c6c9a704406" d="M93.64,40.7a1,1,0,1,0-2,0,1,1,0,1,0,2,0m-2.49,0a1.51,1.51,0,0,1,1.52-1.55,1.54,1.54,0,0,1,1.51,1.55,1.52,1.52,0,0,1-1.52,1.52,1.5,1.5,0,0,1-1.51-1.52" transform="translate(0 0)"/><path class="a2007c08-17b8-4893-b1e6-0c6c9a704406" d="M75.33,34.8a1,1,0,1,0,0,2,1,1,0,0,0,1-1,1,1,0,0,0-1-1m1.53,1a1.52,1.52,0,1,1-1.49-1.56,1.54,1.54,0,0,1,1.49,1.56" transform="translate(0 0)"/><path class="a2007c08-17b8-4893-b1e6-0c6c9a704406" d="M62,41.69a1,1,0,1,0-1-1,1,1,0,0,0,1,1m-1.52-1a1.52,1.52,0,1,1,3,0,1.52,1.52,0,1,1-3,0" transform="translate(0 0)"/><path class="a2007c08-17b8-4893-b1e6-0c6c9a704406" d="M106.25,44.64a1,1,0,1,0,0,2,1,1,0,0,0,0-2m-1.5,1a1.53,1.53,0,0,1,1.5-1.55,1.55,1.55,0,0,1,1.53,1.55,1.52,1.52,0,1,1-3,0" transform="translate(0 0)"/><path class="a2007c08-17b8-4893-b1e6-0c6c9a704406" d="M80.89,45.61a1,1,0,1,0-2,0,1,1,0,1,0,2,0m-2.49,0a1.52,1.52,0,1,1,3,0,1.52,1.52,0,1,1-3,0" transform="translate(0 0)"/><path class="a2007c08-17b8-4893-b1e6-0c6c9a704406" d="M76.23,46.53c.4,0,.8.09,1.07-.3a1.16,1.16,0,0,0,0-1.19,1,1,0,0,0-1.06-.33Zm-.54-2.42a9.67,9.67,0,0,1,1.34.12,1.27,1.27,0,0,1,.67.47,1.61,1.61,0,0,1,.1,1.75,1,1,0,0,1-.88.6l-1.23.06Z" transform="translate(0 0)"/><path class="a2007c08-17b8-4893-b1e6-0c6c9a704406" d="M59.2,46.53c.43,0,.86.09,1.09-.35a1,1,0,0,0,0-1.14,1,1,0,0,0-1-.33Zm-.54-2.42a11.5,11.5,0,0,1,1.34.12,1.25,1.25,0,0,1,.66.45,1.62,1.62,0,0,1,.09,1.8,1,1,0,0,1-.86.57l-1.23.06Z" transform="translate(0 0)"/><path class="a2007c08-17b8-4893-b1e6-0c6c9a704406" d="M83.72,44.7v1.83c.41,0,.82.09,1.07-.31a1,1,0,0,0,0-1.14c-.24-.4-.64-.41-1.08-.38m-.54,2.39V44.15a3.57,3.57,0,0,1,1.53.14,1.67,1.67,0,0,1,.59.59,1.63,1.63,0,0,1,.06,1.43,1.21,1.21,0,0,1-1.21.78h-1" transform="translate(0 0)"/><path class="a2007c08-17b8-4893-b1e6-0c6c9a704406" d="M89.89,46.53c.43,0,.86.09,1.09-.35a1,1,0,0,0,0-1.13,1,1,0,0,0-1.06-.34Zm-.54-2.4c.38,0,.72,0,1.06,0a1.34,1.34,0,0,1,1.25,1.48,1.51,1.51,0,0,1-.38,1.05,1.09,1.09,0,0,1-.81.36H89.35Z" transform="translate(0 0)"/><polygon class="a2007c08-17b8-4893-b1e6-0c6c9a704406" points="103.63 44.16 104.17 44.16 104.17 47.08 103.65 47.08 103.65 45.8 102.64 45.8 102.64 47.08 102.11 47.08 102.11 44.17 102.62 44.17 102.62 45.21 103.63 45.21 103.63 44.16"/><path class="a2007c08-17b8-4893-b1e6-0c6c9a704406" d="M69.36,40c-.14.39-.26.7-.38,1h.78l-.4-1m1.41,2.23h-.28a.28.28,0,0,1-.37-.27c-.06-.31-.24-.41-.55-.36a.61.61,0,0,1-.19,0c-.42-.06-.75,0-.83.5,0,.05-.12.11-.18.12a2.66,2.66,0,0,1-.41,0l.42-1.11c.21-.54.43-1.09.62-1.65.07-.21.22-.19.38-.2s.27,0,.34.2c.34.91.69,1.81,1,2.76" transform="translate(0 0)"/><path class="a2007c08-17b8-4893-b1e6-0c6c9a704406" d="M87.52,35.12h-.07c-.12.3-.23.61-.35.93h.77c-.12-.33-.24-.63-.35-.94m1.34,2.12c-.5.06-.51.06-.68-.39a.26.26,0,0,0-.3-.22h-.77a.27.27,0,0,0-.32.21c-.17.44-.18.44-.71.41.08-.19.14-.37.21-.55.27-.72.56-1.43.82-2.15.07-.21.19-.24.38-.24a.32.32,0,0,1,.37.24c.29.82.61,1.63.92,2.45a1,1,0,0,1,.08.24" transform="translate(0 0)"/><path class="a2007c08-17b8-4893-b1e6-0c6c9a704406" d="M82.45,36.07c-.13-.35-.25-.65-.4-1-.15.39-.26.7-.39,1Zm1,1.18a1.23,1.23,0,0,0-.2,0A.32.32,0,0,1,82.8,37a.38.38,0,0,0-.5-.35.45.45,0,0,1-.23,0c-.41-.06-.75,0-.83.5,0,.06-.11.11-.18.13a2.79,2.79,0,0,1-.41,0l.46-1.2c.19-.53.4-1.05.59-1.57a.24.24,0,0,1,.31-.18c.13,0,.3-.08.38.14l1,2.71a.28.28,0,0,1,0,.09" transform="translate(0 0)"/><path class="a2007c08-17b8-4893-b1e6-0c6c9a704406" d="M74.22,45.9l-.4-1c-.15.4-.26.71-.39,1Zm-1.81,1.19c.37-1,.73-1.88,1.07-2.8.07-.2.22-.16.35-.14s.29.05.32.14c.35.89.69,1.8,1,2.71a.22.22,0,0,1,0,.09H75a.31.31,0,0,1-.41-.28.37.37,0,0,0-.5-.34h-.23c-.42-.07-.75,0-.83.49,0,.06-.11.11-.18.13a2.92,2.92,0,0,1-.42,0" transform="translate(0 0)"/><path class="a2007c08-17b8-4893-b1e6-0c6c9a704406" d="M64.67,39.72v.73a5.43,5.43,0,0,0,.61-.25s0-.25,0-.27a5.94,5.94,0,0,0-.6-.21m.62,1.16L66,42.14c-.53.08-.53.08-.75-.33l-.47-.87h-.07v1.21h-.51v-3c.39,0,.79,0,1.18.1a.66.66,0,0,1,.49.58.77.77,0,0,1-.28.84l-.25.16" transform="translate(0 0)"/><path class="a2007c08-17b8-4893-b1e6-0c6c9a704406" d="M84.49,34.79v.73a6.06,6.06,0,0,0,.61-.21.34.34,0,0,0,0-.28,5.07,5.07,0,0,0-.62-.24m-.52-.5c.36,0,.69,0,1,.07a.71.71,0,0,1,.68.58.82.82,0,0,1-.39.93l-.15.09.66,1.25c-.48.12-.52.1-.74-.3L84.56,36h-.07v1.2H84Z" transform="translate(0 0)"/><path class="a2007c08-17b8-4893-b1e6-0c6c9a704406" d="M95,45.34a2.71,2.71,0,0,0,.61-.21s0-.26,0-.29a4,4,0,0,0-.61-.2Zm0,.54v1.19h-.5v-3a11.89,11.89,0,0,1,1.2.11.64.64,0,0,1,.48.58.79.79,0,0,1-.28.82l-.26.17.66,1.26c-.53.09-.53.09-.76-.36-.15-.27-.3-.56-.45-.84l-.09,0" transform="translate(0 0)"/><path class="a2007c08-17b8-4893-b1e6-0c6c9a704406" d="M77.48,41.3l.32.34a1.57,1.57,0,0,1-1.74.52,1.53,1.53,0,0,1,0-2.88,1.58,1.58,0,0,1,1.8.48c-.11.12-.21.24-.32.35-.72-.5-1.3-.51-1.71,0a1,1,0,0,0,0,1.3c.41.45,1,.43,1.69-.06" transform="translate(0 0)"/><path class="a2007c08-17b8-4893-b1e6-0c6c9a704406" d="M101.2,46.22l.32.33a1.55,1.55,0,0,1-1.7.54,1.54,1.54,0,0,1-.11-2.89,1.61,1.61,0,0,1,1.84.49l-.33.33c-.76-.5-1.32-.51-1.73,0a1,1,0,0,0,0,1.3c.41.43,1,.41,1.67-.07" transform="translate(0 0)"/><polygon class="a2007c08-17b8-4893-b1e6-0c6c9a704406" points="87.6 44.16 87.6 44.69 86.57 44.69 86.57 45.23 87.6 45.23 87.6 45.77 86.56 45.77 86.56 46.53 87.59 46.53 87.59 47.08 86.05 47.08 86.05 44.16 87.6 44.16"/><polygon class="a2007c08-17b8-4893-b1e6-0c6c9a704406" points="92.06 36.71 92.06 37.24 90.51 37.24 90.51 34.34 92.05 34.34 92.05 34.86 91.03 34.86 91.03 35.41 92.05 35.41 92.05 35.94 91.03 35.94 91.03 36.71 92.06 36.71"/><polygon class="a2007c08-17b8-4893-b1e6-0c6c9a704406" points="93.77 45.23 93.77 45.77 92.74 45.77 92.74 46.54 93.77 46.54 93.77 47.07 92.22 47.07 92.22 44.16 93.77 44.16 93.77 44.69 92.74 44.69 92.74 45.23 93.77 45.23"/><polygon class="a2007c08-17b8-4893-b1e6-0c6c9a704406" points="97.31 45.23 98.33 45.23 98.33 45.78 97.31 45.78 97.31 46.54 98.33 46.54 98.33 47.08 96.79 47.08 96.79 44.16 98.34 44.16 98.34 44.69 97.31 44.69 97.31 45.23"/><polygon class="a2007c08-17b8-4893-b1e6-0c6c9a704406" points="68.22 44.16 68.22 44.69 67.19 44.69 67.19 45.23 68.22 45.23 68.22 45.78 67.19 45.78 67.19 46.54 68.22 46.54 68.22 47.07 66.67 47.07 66.67 44.16 68.22 44.16"/><polygon class="a2007c08-17b8-4893-b1e6-0c6c9a704406" points="61.58 44.16 63.13 44.16 63.13 44.69 62.1 44.69 62.1 45.22 63.12 45.22 63.12 45.78 62.1 45.78 62.1 46.54 63.13 46.54 63.13 47.08 61.58 47.08 61.58 44.16"/><polygon class="a2007c08-17b8-4893-b1e6-0c6c9a704406" points="86 39.25 86 39.78 84.97 39.78 84.97 40.31 86 40.31 86 40.86 84.97 40.86 84.97 41.62 85.99 41.62 85.99 42.16 84.45 42.16 84.45 39.25 86 39.25"/><polygon class="a2007c08-17b8-4893-b1e6-0c6c9a704406" points="73.59 39.77 73.59 40.31 74.62 40.31 74.62 40.86 73.6 40.86 73.6 41.63 74.62 41.63 74.62 42.17 73.07 42.17 73.07 39.25 74.61 39.25 74.61 39.77 73.59 39.77"/><path class="a2007c08-17b8-4893-b1e6-0c6c9a704406" d="M69.62,34.32h.51V35.9c0,.14,0,.28,0,.43,0,.3.18.44.45.44a.41.41,0,0,0,.45-.45c0-.56,0-1.12,0-1.68a2.91,2.91,0,0,0,0-.31h.52V36c0,.13,0,.26,0,.39a.91.91,0,0,1-.94.91.9.9,0,0,1-1-.85c0-.71,0-1.41,0-2.15" transform="translate(0 0)"/><path class="a2007c08-17b8-4893-b1e6-0c6c9a704406" d="M79.08,35.53a5.07,5.07,0,0,0,.62-.24.35.35,0,0,0,0-.3,3.8,3.8,0,0,0-.59-.17Zm0,.51v1.21h-.5v-3a11.89,11.89,0,0,1,1.2.1.73.73,0,0,1,.49.84.74.74,0,0,1-.58.72c-.18,0-.37,0-.61.09" transform="translate(0 0)"/><path class="a2007c08-17b8-4893-b1e6-0c6c9a704406" d="M64,35.05a1.33,1.33,0,0,0-.41-.23.45.45,0,0,0-.31.13s0,.2.09.26c.22.22.47.41.7.62a.85.85,0,0,1,.33.83.77.77,0,0,1-.54.61.94.94,0,0,1-1-.19,3.5,3.5,0,0,1-.32-.4L63,36.4a1.9,1.9,0,0,0,.29.28.37.37,0,0,0,.53,0c.13-.18,0-.33-.09-.45l-.57-.48c-.27-.24-.52-.5-.41-.91a.7.7,0,0,1,.63-.53,1,1,0,0,1,1,.45l-.35.33" transform="translate(0 0)"/><path class="a2007c08-17b8-4893-b1e6-0c6c9a704406" d="M70.25,44.57l-.34.32c-.12-.09-.21-.2-.32-.21a1.37,1.37,0,0,0-.39.06c0,.11,0,.25.11.32a6.93,6.93,0,0,0,.58.5.94.94,0,0,1,.4,1,.85.85,0,0,1-.8.54,1,1,0,0,1-1-.66l.4-.26a2,2,0,0,0,.34.32.34.34,0,0,0,.48-.08c.13-.17,0-.31-.08-.43l-.6-.52c-.27-.24-.5-.5-.4-.89a.78.78,0,0,1,.65-.54,1,1,0,0,1,.93.48" transform="translate(0 0)"/><polygon class="a2007c08-17b8-4893-b1e6-0c6c9a704406" points="60.08 39.25 60.08 39.78 59.2 39.78 59.2 40.3 60.08 40.3 60.08 40.86 59.19 40.86 59.19 42.17 58.68 42.17 58.68 39.25 60.08 39.25"/><path class="a2007c08-17b8-4893-b1e6-0c6c9a704406" d="M73,37.25h-.54V34.88l-.51,0v-.52h1.55v.53H73Z" transform="translate(0 0)"/><path class="a2007c08-17b8-4893-b1e6-0c6c9a704406" d="M68.07,37.24V34.88l-.49,0v-.52h1.55v.51l-.49,0v2.36Z" transform="translate(0 0)"/><path class="a2007c08-17b8-4893-b1e6-0c6c9a704406" d="M65.23,34.88l-.51,0v-.52h1.56v.52c-.16,0-.31,0-.5,0v2.37h-.55Z" transform="translate(0 0)"/><path class="a2007c08-17b8-4893-b1e6-0c6c9a704406" d="M70.67,44.16h1.55v.52l-.49,0v2.37h-.56V44.7l-.5,0Z" transform="translate(0 0)"/><path class="a2007c08-17b8-4893-b1e6-0c6c9a704406" d="M66.71,39.79l-.5,0v-.52h1.55v.52l-.49,0v2.37h-.56Z" transform="translate(0 0)"/><path class="a2007c08-17b8-4893-b1e6-0c6c9a704406" d="M90.85,39.77l-.5,0v2.37H89.8V39.79l-.5,0v-.52h1.55Z" transform="translate(0 0)"/><polygon class="a2007c08-17b8-4893-b1e6-0c6c9a704406" points="93.13 36.71 93.93 36.71 93.93 37.25 92.62 37.25 92.62 34.33 93.13 34.33 93.13 36.71"/><polygon class="a2007c08-17b8-4893-b1e6-0c6c9a704406" points="63.7 44.16 64.21 44.16 64.21 46.55 65.02 46.55 65.02 47.07 63.7 47.07 63.7 44.16"/><polygon class="a2007c08-17b8-4893-b1e6-0c6c9a704406" points="71.24 39.25 71.75 39.25 71.75 41.62 72.56 41.62 72.56 42.16 71.24 42.16 71.24 39.25"/><rect class="a2007c08-17b8-4893-b1e6-0c6c9a704406" x="83.2" y="39.25" width="0.5" height="2.92"/><rect class="a2007c08-17b8-4893-b1e6-0c6c9a704406" x="78.4" y="39.25" width="0.5" height="2.91"/><rect class="a2007c08-17b8-4893-b1e6-0c6c9a704406" x="66.68" y="34.33" width="0.5" height="2.92"/><rect class="a2007c08-17b8-4893-b1e6-0c6c9a704406" x="58.63" y="34.33" width="0.5" height="2.92"/><path class="fe51393b-89cd-4def-a4ca-1769ef53dfcf" d="M53.45,35.58a.6.6,0,1,1-1.19,0,.6.6,0,0,1,1.19,0" transform="translate(0 0)"/><path class="fe51393b-89cd-4def-a4ca-1769ef53dfcf" d="M41.78,36.15a.6.6,0,0,1-.59.61.6.6,0,0,1,0-1.2.61.61,0,0,1,.62.59" transform="translate(0 0)"/><path class="fe51393b-89cd-4def-a4ca-1769ef53dfcf" d="M10.91,44.78a.58.58,0,0,1-.59.61.6.6,0,0,1-.6-.59.62.62,0,0,1,.58-.6.58.58,0,0,1,.61.58" transform="translate(0 0)"/><path class="fe51393b-89cd-4def-a4ca-1769ef53dfcf" d="M7.81,39.45a.6.6,0,1,1,0-1.2.61.61,0,0,1,.6.6.6.6,0,0,1-.59.6" transform="translate(0 0)"/><path class="fe51393b-89cd-4def-a4ca-1769ef53dfcf" d="M16.89,36.94a.61.61,0,0,1-.6-.6.63.63,0,0,1,.6-.6.62.62,0,0,1,.6.6.59.59,0,0,1-.6.6" transform="translate(0 0)"/><path class="fe51393b-89cd-4def-a4ca-1769ef53dfcf" d="M42.69,40.25a.6.6,0,1,1-.62-.57.58.58,0,0,1,.62.57" transform="translate(0 0)"/><path class="fe51393b-89cd-4def-a4ca-1769ef53dfcf" d="M11.8,40a.6.6,0,0,1,.59.61.61.61,0,0,1-.59.58.6.6,0,1,1,0-1.19" transform="translate(0 0)"/><path class="fe51393b-89cd-4def-a4ca-1769ef53dfcf" d="M19.4,38.59a.6.6,0,0,1,0-1.19.59.59,0,0,1,.6.6.6.6,0,0,1-.6.59" transform="translate(0 0)"/><path class="fe51393b-89cd-4def-a4ca-1769ef53dfcf" d="M16,41.62a.6.6,0,1,1,0-1.19.6.6,0,1,1,0,1.19" transform="translate(0 0)"/><path class="fe51393b-89cd-4def-a4ca-1769ef53dfcf" d="M29,10.59a.59.59,0,0,1-.58.61.62.62,0,0,1-.62-.58.61.61,0,0,1,.6-.61.58.58,0,0,1,.6.58" transform="translate(0 0)"/><path class="fe51393b-89cd-4def-a4ca-1769ef53dfcf" d="M50.41,21.31a.59.59,0,0,1-.6.59.6.6,0,1,1,.6-.59" transform="translate(0 0)"/><path class="fe51393b-89cd-4def-a4ca-1769ef53dfcf" d="M21.82,32.62a.59.59,0,0,1,.59-.6.6.6,0,0,1,0,1.19.59.59,0,0,1-.6-.59" transform="translate(0 0)"/><path class="fe51393b-89cd-4def-a4ca-1769ef53dfcf" d="M10.79,33.16a.59.59,0,0,1-.61-.59.6.6,0,0,1,.59-.6.61.61,0,0,1,.6.57.6.6,0,0,1-.58.62" transform="translate(0 0)"/><path class="fe51393b-89cd-4def-a4ca-1769ef53dfcf" d="M27.77,27.35a.58.58,0,0,1-.59.6.6.6,0,0,1-.6-.59.62.62,0,0,1,.58-.6.6.6,0,0,1,.61.59" transform="translate(0 0)"/><path class="fe51393b-89cd-4def-a4ca-1769ef53dfcf" d="M4.62,32.7a.57.57,0,0,1-.6.58.58.58,0,0,1-.58-.6.61.61,0,0,1,.61-.59.59.59,0,0,1,.57.61" transform="translate(0 0)"/><path class="fe51393b-89cd-4def-a4ca-1769ef53dfcf" d="M7.15,33.38a.59.59,0,0,1-.58-.61.6.6,0,0,1,1.19,0,.6.6,0,0,1-.61.59" transform="translate(0 0)"/><path class="fe51393b-89cd-4def-a4ca-1769ef53dfcf" d="M44.76,33.56a.57.57,0,0,1-.58-.6.59.59,0,0,1,.6-.58.62.62,0,0,1,.59.61.59.59,0,0,1-.61.57" transform="translate(0 0)"/><path class="fe51393b-89cd-4def-a4ca-1769ef53dfcf" d="M1.21,32.94a.61.61,0,0,1-.58-.62.62.62,0,0,1,.6-.57.6.6,0,1,1,0,1.19" transform="translate(0 0)"/><path class="fe51393b-89cd-4def-a4ca-1769ef53dfcf" d="M15.21,32.47a.59.59,0,0,1-.58-.61.6.6,0,0,1,1.19,0,.6.6,0,0,1-.61.59" transform="translate(0 0)"/><path class="fe51393b-89cd-4def-a4ca-1769ef53dfcf" d="M13.27,33.47a.61.61,0,0,1-.6.6.6.6,0,0,1,0-1.19.59.59,0,0,1,.61.59" transform="translate(0 0)"/><path class="fe51393b-89cd-4def-a4ca-1769ef53dfcf" d="M23,28.58a.58.58,0,0,1-.61-.58.6.6,0,0,1,.6-.6.63.63,0,0,1,.6.58.59.59,0,0,1-.59.6" transform="translate(0 0)"/><path class="fe51393b-89cd-4def-a4ca-1769ef53dfcf" d="M.58,27.06a.6.6,0,0,1,0-1.2.6.6,0,1,1,0,1.2" transform="translate(0 0)"/><path class="fe51393b-89cd-4def-a4ca-1769ef53dfcf" d="M53.05,28a.6.6,0,0,1-1.19,0,.6.6,0,1,1,1.19,0" transform="translate(0 0)"/><path class="fe51393b-89cd-4def-a4ca-1769ef53dfcf" d="M17.46,27.72a.58.58,0,0,1,.59.59.61.61,0,0,1-.59.61.63.63,0,0,1-.6-.61.6.6,0,0,1,.6-.59" transform="translate(0 0)"/><path class="fe51393b-89cd-4def-a4ca-1769ef53dfcf" d="M12.08,19.27a.6.6,0,0,1-.6-.6.61.61,0,0,1,.58-.59.62.62,0,0,1,.62.59.61.61,0,0,1-.6.6" transform="translate(0 0)"/><path class="fe51393b-89cd-4def-a4ca-1769ef53dfcf" d="M40.52,28.56a.58.58,0,0,1-.58.61.6.6,0,0,1-.61-.58.62.62,0,0,1,.59-.61.58.58,0,0,1,.6.58" transform="translate(0 0)"/><path class="fe51393b-89cd-4def-a4ca-1769ef53dfcf" d="M36.33,31.33a.6.6,0,0,1-.61-.59.62.62,0,0,1,.58-.6.61.61,0,0,1,.62.59.59.59,0,0,1-.59.6" transform="translate(0 0)"/><path class="fe51393b-89cd-4def-a4ca-1769ef53dfcf" d="M28.79,39.56a.59.59,0,0,1,.58.61.6.6,0,0,1-.59.58.62.62,0,0,1-.6-.61.59.59,0,0,1,.61-.58" transform="translate(0 0)"/><path class="fe51393b-89cd-4def-a4ca-1769ef53dfcf" d="M18.73,29.78a.58.58,0,0,1,.58.6.62.62,0,0,1-.61.59.61.61,0,0,1-.58-.61.59.59,0,0,1,.61-.58" transform="translate(0 0)"/><path class="fe51393b-89cd-4def-a4ca-1769ef53dfcf" d="M11.28,30.7a.6.6,0,0,1-.59-.61.62.62,0,0,1,.62-.58.6.6,0,0,1,.57.6.58.58,0,0,1-.6.59" transform="translate(0 0)"/><path class="fe51393b-89cd-4def-a4ca-1769ef53dfcf" d="M16.78,18.82a.59.59,0,0,1-.61-.59.6.6,0,0,1,.6-.6.61.61,0,0,1,.59.58.59.59,0,0,1-.58.61" transform="translate(0 0)"/><path class="fe51393b-89cd-4def-a4ca-1769ef53dfcf" d="M49.35,18.75a.6.6,0,0,1-.6-.59.6.6,0,1,1,1.19,0,.59.59,0,0,1-.59.6" transform="translate(0 0)"/><path class="fe51393b-89cd-4def-a4ca-1769ef53dfcf" d="M30.48,30.3a.57.57,0,0,1-.6-.58.6.6,0,0,1,.58-.61.62.62,0,0,1,.61.59.6.6,0,0,1-.59.6" transform="translate(0 0)"/><path class="fe51393b-89cd-4def-a4ca-1769ef53dfcf" d="M40,17.15a.59.59,0,1,1,0,1.18.59.59,0,1,1,0-1.18" transform="translate(0 0)"/><path class="fe51393b-89cd-4def-a4ca-1769ef53dfcf" d="M52.23,18.3a.59.59,0,0,1-.6-.59.62.62,0,0,1,.6-.6.6.6,0,0,1,.59.59.59.59,0,0,1-.59.6" transform="translate(0 0)"/><path class="fe51393b-89cd-4def-a4ca-1769ef53dfcf" d="M21.1,17a.6.6,0,0,1,.61.59.6.6,0,0,1-1.19,0A.57.57,0,0,1,21.1,17" transform="translate(0 0)"/><path class="fe51393b-89cd-4def-a4ca-1769ef53dfcf" d="M14.8,17.2a.6.6,0,0,1-.62.58.58.58,0,0,1-.57-.62.6.6,0,0,1,.6-.57.62.62,0,0,1,.59.61" transform="translate(0 0)"/><path class="fe51393b-89cd-4def-a4ca-1769ef53dfcf" d="M34.89,38.24a.6.6,0,0,1-.6-.6.6.6,0,0,1,1.2,0,.59.59,0,0,1-.6.59" transform="translate(0 0)"/><path class="fe51393b-89cd-4def-a4ca-1769ef53dfcf" d="M37.6,37.63a.6.6,0,0,1-.59.61.62.62,0,0,1-.6-.61.6.6,0,0,1,.59-.58.58.58,0,0,1,.6.58" transform="translate(0 0)"/><path class="fe51393b-89cd-4def-a4ca-1769ef53dfcf" d="M11,37.27a.57.57,0,0,1,.59.59.6.6,0,0,1-.6.6.63.63,0,0,1-.59-.59.59.59,0,0,1,.6-.6" transform="translate(0 0)"/><path class="fe51393b-89cd-4def-a4ca-1769ef53dfcf" d="M23.42,37.18a.6.6,0,0,1,.6-.59.63.63,0,0,1,.59.61.61.61,0,0,1-.61.59.58.58,0,0,1-.58-.61" transform="translate(0 0)"/><path class="fe51393b-89cd-4def-a4ca-1769ef53dfcf" d="M39.73,37.12a.6.6,0,0,1-.58.61.62.62,0,0,1-.61-.59.6.6,0,0,1,1.19,0" transform="translate(0 0)"/><path class="fe51393b-89cd-4def-a4ca-1769ef53dfcf" d="M26.26,36.19a.6.6,0,0,1,0,1.2.6.6,0,0,1-.61-.59.61.61,0,0,1,.59-.61" transform="translate(0 0)"/><path class="fe51393b-89cd-4def-a4ca-1769ef53dfcf" d="M17.84,38.57a.59.59,0,0,1-.61.58.6.6,0,0,1-.58-.59.62.62,0,0,1,.61-.6.59.59,0,0,1,.58.61" transform="translate(0 0)"/><path class="fe51393b-89cd-4def-a4ca-1769ef53dfcf" d="M15.71,38.68a.58.58,0,0,1-.58.6.59.59,0,0,1-.61-.58.61.61,0,0,1,.59-.61.59.59,0,0,1,.6.59" transform="translate(0 0)"/><path class="fe51393b-89cd-4def-a4ca-1769ef53dfcf" d="M43.85,36.13a.58.58,0,0,1,.61.58.61.61,0,0,1-.6.61.62.62,0,0,1-.59-.58.59.59,0,0,1,.58-.61" transform="translate(0 0)"/><path class="fe51393b-89cd-4def-a4ca-1769ef53dfcf" d="M27.28,38.07a.6.6,0,0,1,.61.59.62.62,0,0,1-.59.61.62.62,0,0,1-.61-.59.62.62,0,0,1,.59-.61" transform="translate(0 0)"/><path class="fe51393b-89cd-4def-a4ca-1769ef53dfcf" d="M44.3,38.18a.6.6,0,0,1,.61.59.6.6,0,0,1-1.19,0,.58.58,0,0,1,.58-.61" transform="translate(0 0)"/><path class="fe51393b-89cd-4def-a4ca-1769ef53dfcf" d="M14.72,36.93a.62.62,0,0,1-.61-.59.6.6,0,0,1,1.2,0,.61.61,0,0,1-.59.62" transform="translate(0 0)"/><path class="fe51393b-89cd-4def-a4ca-1769ef53dfcf" d="M10.74,20.57a.57.57,0,0,1-.6.58.6.6,0,0,1-.59-.58.62.62,0,0,1,.6-.61.6.6,0,0,1,.59.61" transform="translate(0 0)"/><path class="fe51393b-89cd-4def-a4ca-1769ef53dfcf" d="M39.64,38.65a.56.56,0,0,1,.59.58.59.59,0,0,1-.58.61.62.62,0,0,1-.61-.6.61.61,0,0,1,.6-.59" transform="translate(0 0)"/><path class="fe51393b-89cd-4def-a4ca-1769ef53dfcf" d="M16.9,20.32a.6.6,0,1,1,.6.6.59.59,0,0,1-.6-.6" transform="translate(0 0)"/><path class="fe51393b-89cd-4def-a4ca-1769ef53dfcf" d="M31,36.6A.59.59,0,0,1,30.4,36a.6.6,0,0,1,.59-.58.62.62,0,0,1,.61.6.61.61,0,0,1-.61.59" transform="translate(0 0)"/><path class="fe51393b-89cd-4def-a4ca-1769ef53dfcf" d="M35.33,22.47a.61.61,0,0,1,.6.59.63.63,0,0,1-.59.61.6.6,0,0,1,0-1.2" transform="translate(0 0)"/><path class="fe51393b-89cd-4def-a4ca-1769ef53dfcf" d="M36.07,34.77a.6.6,0,1,1,0,1.19.6.6,0,0,1,0-1.19" transform="translate(0 0)"/><path class="fe51393b-89cd-4def-a4ca-1769ef53dfcf" d="M45.1,23.37a.6.6,0,0,1-.61.58.6.6,0,1,1,.61-.58" transform="translate(0 0)"/><path class="fe51393b-89cd-4def-a4ca-1769ef53dfcf" d="M12,23.72a.59.59,0,0,1,.6.59.61.61,0,0,1-.59.6.6.6,0,1,1,0-1.19" transform="translate(0 0)"/><path class="fe51393b-89cd-4def-a4ca-1769ef53dfcf" d="M15,23.72a.59.59,0,1,1,0,1.18.59.59,0,0,1,0-1.18" transform="translate(0 0)"/><path class="fe51393b-89cd-4def-a4ca-1769ef53dfcf" d="M23.28,24.25a.62.62,0,0,1,.6.6.61.61,0,0,1-.61.59.59.59,0,0,1-.59-.6.59.59,0,0,1,.6-.59" transform="translate(0 0)"/><path class="fe51393b-89cd-4def-a4ca-1769ef53dfcf" d="M33.49,25.07a.59.59,0,0,1,.6-.6.6.6,0,0,1,.59.58.61.61,0,0,1-.59.61.59.59,0,0,1-.6-.59" transform="translate(0 0)"/><path class="fe51393b-89cd-4def-a4ca-1769ef53dfcf" d="M27.9,25.24a.6.6,0,0,1-.6.6.62.62,0,0,1-.59-.61.6.6,0,0,1,.6-.59.59.59,0,0,1,.59.6" transform="translate(0 0)"/><path class="fe51393b-89cd-4def-a4ca-1769ef53dfcf" d="M7.15,26a.6.6,0,0,1,0-1.19.63.63,0,0,1,.6.6.6.6,0,0,1-.61.59" transform="translate(0 0)"/><path class="fe51393b-89cd-4def-a4ca-1769ef53dfcf" d="M46.29,34.86a.57.57,0,0,1-.59.59.6.6,0,0,1-.6-.59.63.63,0,0,1,.6-.61.6.6,0,0,1,.59.61" transform="translate(0 0)"/><path class="fe51393b-89cd-4def-a4ca-1769ef53dfcf" d="M21.67,20.6a.6.6,0,0,1,0-1.2.6.6,0,1,1,0,1.2" transform="translate(0 0)"/><path class="fe51393b-89cd-4def-a4ca-1769ef53dfcf" d="M21.63,34.18a.6.6,0,1,1,0,1.19.61.61,0,0,1-.58-.59.6.6,0,0,1,.59-.6" transform="translate(0 0)"/><path class="fe51393b-89cd-4def-a4ca-1769ef53dfcf" d="M51.25,25.49a.59.59,0,0,1,.58.61.6.6,0,0,1-1.19,0,.6.6,0,0,1,.61-.59" transform="translate(0 0)"/><path class="fe51393b-89cd-4def-a4ca-1769ef53dfcf" d="M25.85,35a.59.59,0,0,1-.59-.6.6.6,0,0,1,1.19,0,.58.58,0,0,1-.6.59" transform="translate(0 0)"/><path class="fe51393b-89cd-4def-a4ca-1769ef53dfcf" d="M39.54,34.23a.59.59,0,0,1,.58-.6.6.6,0,1,1,0,1.19.59.59,0,0,1-.6-.59" transform="translate(0 0)"/><path class="fe51393b-89cd-4def-a4ca-1769ef53dfcf" d="M38.93,8.55a.6.6,0,0,1-.6.6.6.6,0,1,1,0-1.19.6.6,0,0,1,.6.59" transform="translate(0 0)"/><path class="fe51393b-89cd-4def-a4ca-1769ef53dfcf" d="M42.81,9.27a.62.62,0,0,1-.61-.6.62.62,0,0,1,.6-.6.6.6,0,0,1,.6.59.61.61,0,0,1-.59.61" transform="translate(0 0)"/><path class="fe51393b-89cd-4def-a4ca-1769ef53dfcf" d="M23,47a.59.59,0,0,1-.59-.6.6.6,0,0,1,1.19,0,.6.6,0,0,1-.6.6" transform="translate(0 0)"/><path class="fe51393b-89cd-4def-a4ca-1769ef53dfcf" d="M32.91,46.1a.59.59,0,0,1,.59-.6.61.61,0,0,1,.6.59.62.62,0,0,1-.6.61.59.59,0,0,1-.59-.6" transform="translate(0 0)"/><path class="fe51393b-89cd-4def-a4ca-1769ef53dfcf" d="M30,8.64a.59.59,0,0,1,.59.6.59.59,0,0,1-.57.59.6.6,0,1,1,0-1.19" transform="translate(0 0)"/><path class="fe51393b-89cd-4def-a4ca-1769ef53dfcf" d="M23.29,10a.58.58,0,0,1-.6-.59.59.59,0,0,1,.59-.6.6.6,0,1,1,0,1.19" transform="translate(0 0)"/><path class="fe51393b-89cd-4def-a4ca-1769ef53dfcf" d="M36.2,46.59a.58.58,0,0,1-.6-.58.61.61,0,0,1,.59-.61.62.62,0,0,1,.6.6.59.59,0,0,1-.59.59" transform="translate(0 0)"/><path class="fe51393b-89cd-4def-a4ca-1769ef53dfcf" d="M21.09,9.45a.58.58,0,0,1-.58.61.6.6,0,0,1-.61-.58.62.62,0,0,1,.59-.62.59.59,0,0,1,.6.59" transform="translate(0 0)"/><path class="fe51393b-89cd-4def-a4ca-1769ef53dfcf" d="M46.52,45.62a.6.6,0,0,1-.58.61.63.63,0,0,1-.61-.59.61.61,0,0,1,.59-.6.57.57,0,0,1,.6.58" transform="translate(0 0)"/><path class="fe51393b-89cd-4def-a4ca-1769ef53dfcf" d="M10.05,9.69a.6.6,0,0,1,.59-.61.6.6,0,0,1,.6.6.6.6,0,1,1-1.19,0" transform="translate(0 0)"/><path class="fe51393b-89cd-4def-a4ca-1769ef53dfcf" d="M15.66,4.08a.58.58,0,0,1,.6-.58.6.6,0,0,1,.59.58.62.62,0,0,1-.6.61.6.6,0,0,1-.59-.61" transform="translate(0 0)"/><path class="fe51393b-89cd-4def-a4ca-1769ef53dfcf" d="M40.7,52a.59.59,0,0,1-.59-.6.61.61,0,0,1,.59-.6.62.62,0,0,1,.6.61.6.6,0,0,1-.6.59" transform="translate(0 0)"/><path class="fe51393b-89cd-4def-a4ca-1769ef53dfcf" d="M38.35,45.46a.57.57,0,0,1,.6-.58.6.6,0,0,1,.59.58.62.62,0,0,1-.61.6.58.58,0,0,1-.58-.6" transform="translate(0 0)"/><path class="fe51393b-89cd-4def-a4ca-1769ef53dfcf" d="M22.63,51.6a.6.6,0,0,1-.6.59.62.62,0,0,1-.59-.61.62.62,0,0,1,.61-.59.59.59,0,0,1,.58.61" transform="translate(0 0)"/><path class="fe51393b-89cd-4def-a4ca-1769ef53dfcf" d="M27.22,51.33a.6.6,0,0,1,.6.6.63.63,0,0,1-.61.59.59.59,0,0,1-.58-.59.57.57,0,0,1,.59-.6" transform="translate(0 0)"/><path class="fe51393b-89cd-4def-a4ca-1769ef53dfcf" d="M12.17,10.15a.59.59,0,0,1,.59-.6.6.6,0,0,1,.6.58.64.64,0,0,1-.59.62.61.61,0,0,1-.6-.6" transform="translate(0 0)"/><path class="fe51393b-89cd-4def-a4ca-1769ef53dfcf" d="M13.1,45.38a.59.59,0,0,1-.61.58.6.6,0,0,1-.59-.58.62.62,0,0,1,.6-.61.61.61,0,0,1,.6.61" transform="translate(0 0)"/><path class="fe51393b-89cd-4def-a4ca-1769ef53dfcf" d="M40.43,10.12a.61.61,0,0,1,.6.6.63.63,0,0,1-.61.6.61.61,0,0,1-.59-.61.6.6,0,0,1,.6-.59" transform="translate(0 0)"/><path class="fe51393b-89cd-4def-a4ca-1769ef53dfcf" d="M42.61,11.45a.6.6,0,0,1-.6-.59.61.61,0,0,1,.61-.6.6.6,0,0,1,.58.58.59.59,0,0,1-.59.61" transform="translate(0 0)"/><path class="fe51393b-89cd-4def-a4ca-1769ef53dfcf" d="M22.81,11.25a.6.6,0,0,1-.6.59.62.62,0,0,1-.6-.6.62.62,0,0,1,.61-.6.6.6,0,0,1,.59.61" transform="translate(0 0)"/><path class="fe51393b-89cd-4def-a4ca-1769ef53dfcf" d="M45.39,11.28a.59.59,0,0,1-.58.61.62.62,0,0,1-.61-.59.6.6,0,0,1,1.19,0" transform="translate(0 0)"/><path class="fe51393b-89cd-4def-a4ca-1769ef53dfcf" d="M38.77,51.05a.58.58,0,0,1-.6-.59.6.6,0,0,1,.6-.6.61.61,0,0,1,.59.58.6.6,0,0,1-.59.61" transform="translate(0 0)"/><path class="fe51393b-89cd-4def-a4ca-1769ef53dfcf" d="M19.83,49.93a.6.6,0,0,1-.6.6.63.63,0,0,1-.59-.59.62.62,0,0,1,.59-.61.6.6,0,0,1,.6.6" transform="translate(0 0)"/><path class="fe51393b-89cd-4def-a4ca-1769ef53dfcf" d="M14.23,6a.58.58,0,0,1,.63-.55.59.59,0,0,1,.56.61A.6.6,0,1,1,14.23,6" transform="translate(0 0)"/><path class="fe51393b-89cd-4def-a4ca-1769ef53dfcf" d="M36.91,48.7a.59.59,0,0,1,.59.61.6.6,0,0,1-.58.58.61.61,0,0,1-.61-.59.6.6,0,0,1,.6-.6" transform="translate(0 0)"/><path class="fe51393b-89cd-4def-a4ca-1769ef53dfcf" d="M20,6.82a.59.59,0,0,1-.59-.6.61.61,0,0,1,.6-.59.6.6,0,1,1,0,1.19" transform="translate(0 0)"/><path class="fe51393b-89cd-4def-a4ca-1769ef53dfcf" d="M35.29,5.16a.6.6,0,0,1,0-1.19.61.61,0,0,1,.61.59.59.59,0,0,1-.59.6" transform="translate(0 0)"/><path class="fe51393b-89cd-4def-a4ca-1769ef53dfcf" d="M23.46,49.34a.58.58,0,0,1-.6-.58.6.6,0,1,1,1.19,0,.59.59,0,0,1-.59.6" transform="translate(0 0)"/><path class="fe51393b-89cd-4def-a4ca-1769ef53dfcf" d="M47.23,47.5a.62.62,0,0,1,.6.61.6.6,0,0,1-1.2,0,.6.6,0,0,1,.6-.61" transform="translate(0 0)"/><path class="fe51393b-89cd-4def-a4ca-1769ef53dfcf" d="M16.18,47.94a.6.6,0,0,1,.6-.6.6.6,0,0,1,.59.58.6.6,0,1,1-1.19,0" transform="translate(0 0)"/><path class="fe51393b-89cd-4def-a4ca-1769ef53dfcf" d="M17.38,6.9a.59.59,0,0,1-.6.59.61.61,0,0,1-.59-.61.62.62,0,0,1,.6-.58.59.59,0,0,1,.59.6" transform="translate(0 0)"/><path class="fe51393b-89cd-4def-a4ca-1769ef53dfcf" d="M24.83,5.16a.59.59,0,0,1-.6-.59.6.6,0,0,1,.59-.6.62.62,0,0,1,.6.6.6.6,0,0,1-.59.59" transform="translate(0 0)"/><path class="fe51393b-89cd-4def-a4ca-1769ef53dfcf" d="M45.13,48.43a.59.59,0,0,1-.6-.59.6.6,0,1,1,1.19,0,.6.6,0,0,1-.59.6" transform="translate(0 0)"/><path class="fe51393b-89cd-4def-a4ca-1769ef53dfcf" d="M34.35,7.29a.6.6,0,0,1-.62.58.62.62,0,0,1-.57-.62.6.6,0,0,1,.62-.58.58.58,0,0,1,.57.62" transform="translate(0 0)"/><path class="fe51393b-89cd-4def-a4ca-1769ef53dfcf" d="M25.94,47.75a.6.6,0,0,1-.59.61.6.6,0,0,1-.6-.6.61.61,0,0,1,.58-.59.59.59,0,0,1,.61.58" transform="translate(0 0)"/><path class="fe51393b-89cd-4def-a4ca-1769ef53dfcf" d="M19.54,47.72a.59.59,0,0,1-.6.59.6.6,0,0,1,0-1.2.6.6,0,0,1,.59.61" transform="translate(0 0)"/><path class="fe51393b-89cd-4def-a4ca-1769ef53dfcf" d="M12.86,47.53a.58.58,0,0,1-.59.6.61.61,0,0,1-.61-.59.63.63,0,0,1,.62-.6.61.61,0,0,1,.58.59" transform="translate(0 0)"/><path class="fe51393b-89cd-4def-a4ca-1769ef53dfcf" d="M21.51,5.15a.59.59,0,0,1-.59-.61A.62.62,0,0,1,21.54,4a.6.6,0,0,1,.57.6.59.59,0,0,1-.6.59" transform="translate(0 0)"/><path class="fe51393b-89cd-4def-a4ca-1769ef53dfcf" d="M29.57,48a.58.58,0,0,1-.59-.59.6.6,0,0,1,.59-.6.62.62,0,0,1,.6.6.59.59,0,0,1-.6.59" transform="translate(0 0)"/><path class="fe51393b-89cd-4def-a4ca-1769ef53dfcf" d="M27.41,7.72a.59.59,0,0,1,.59.6.6.6,0,0,1-.61.58.59.59,0,0,1-.58-.6.58.58,0,0,1,.6-.58" transform="translate(0 0)"/><path class="fe51393b-89cd-4def-a4ca-1769ef53dfcf" d="M42.44,3.84a.58.58,0,0,1,.59.59.6.6,0,0,1-.61.6.61.61,0,0,1-.58-.6.59.59,0,0,1,.6-.59" transform="translate(0 0)"/><path class="fe51393b-89cd-4def-a4ca-1769ef53dfcf" d="M23.59,50.9a.59.59,0,0,1,.6-.6.6.6,0,1,1-.6.6" transform="translate(0 0)"/><path class="fe51393b-89cd-4def-a4ca-1769ef53dfcf" d="M14.47,41a.6.6,0,0,1-.6.6.6.6,0,0,1-.59-.61.6.6,0,0,1,1.19,0" transform="translate(0 0)"/><path class="fe51393b-89cd-4def-a4ca-1769ef53dfcf" d="M46.12,41.18a.57.57,0,0,1,.58-.59.59.59,0,0,1,.61.58.62.62,0,0,1-.59.61.6.6,0,0,1-.6-.6" transform="translate(0 0)"/><path class="fe51393b-89cd-4def-a4ca-1769ef53dfcf" d="M49.5,41.17a.61.61,0,0,1-.59.61.64.64,0,0,1-.61-.6.62.62,0,0,1,.6-.6.59.59,0,0,1,.6.59" transform="translate(0 0)"/><path class="fe51393b-89cd-4def-a4ca-1769ef53dfcf" d="M6.67,16.38a.6.6,0,0,1,1.19,0,.6.6,0,1,1-1.19,0" transform="translate(0 0)"/><path class="fe51393b-89cd-4def-a4ca-1769ef53dfcf" d="M25.89,16.32a.59.59,0,0,1-.6.58.62.62,0,0,1-.59-.61.59.59,0,0,1,.61-.57.57.57,0,0,1,.58.6" transform="translate(0 0)"/><path class="fe51393b-89cd-4def-a4ca-1769ef53dfcf" d="M4.06,42a.6.6,0,0,1-.58-.62.62.62,0,0,1,.6-.57.62.62,0,0,1,.6.61.6.6,0,0,1-.62.58" transform="translate(0 0)"/><path class="fe51393b-89cd-4def-a4ca-1769ef53dfcf" d="M38,42a.6.6,0,0,1-.6.61.62.62,0,0,1-.59-.61A.6.6,0,0,1,38,42" transform="translate(0 0)"/><path class="fe51393b-89cd-4def-a4ca-1769ef53dfcf" d="M18.1,54.82a.6.6,0,1,1,0-1.19.6.6,0,0,1,0,1.19" transform="translate(0 0)"/><path class="fe51393b-89cd-4def-a4ca-1769ef53dfcf" d="M27.75,42.82a.6.6,0,0,1,0-1.19.62.62,0,0,1,.63.58.61.61,0,0,1-.59.61" transform="translate(0 0)"/><path class="fe51393b-89cd-4def-a4ca-1769ef53dfcf" d="M23.28,16.18a.58.58,0,0,1-.59-.6.59.59,0,0,1,.6-.59.63.63,0,0,1,.59.59.61.61,0,0,1-.6.6" transform="translate(0 0)"/><path class="fe51393b-89cd-4def-a4ca-1769ef53dfcf" d="M31.36,54.06a.6.6,0,1,1,1.19,0,.62.62,0,0,1-.58.59.6.6,0,0,1-.61-.59" transform="translate(0 0)"/><path class="fe51393b-89cd-4def-a4ca-1769ef53dfcf" d="M28.22,2.2a.59.59,0,0,1,.6-.59.6.6,0,0,1,.59.59.61.61,0,0,1-.6.6.59.59,0,0,1-.59-.6" transform="translate(0 0)"/><path class="fe51393b-89cd-4def-a4ca-1769ef53dfcf" d="M18.52,2.28a.59.59,0,0,1-.6.6.61.61,0,0,1-.6-.6.63.63,0,0,1,.59-.59.6.6,0,0,1,.61.59" transform="translate(0 0)"/><path class="fe51393b-89cd-4def-a4ca-1769ef53dfcf" d="M36.94,43.45a.6.6,0,0,1,.6.59.63.63,0,0,1-.58.6.6.6,0,0,1-.61-.59.58.58,0,0,1,.59-.6" transform="translate(0 0)"/><path class="fe51393b-89cd-4def-a4ca-1769ef53dfcf" d="M12.41,14.45a.6.6,0,1,1-.6-.6.6.6,0,0,1,.6.6" transform="translate(0 0)"/><path class="fe51393b-89cd-4def-a4ca-1769ef53dfcf" d="M51.73,14.25a.59.59,0,0,1-.57.61.62.62,0,0,1-.62-.59.61.61,0,0,1,.59-.61.58.58,0,0,1,.6.59" transform="translate(0 0)"/><path class="fe51393b-89cd-4def-a4ca-1769ef53dfcf" d="M23.28,2.46a.58.58,0,0,1,.6.58.61.61,0,0,1-.58.61.62.62,0,0,1-.61-.59.61.61,0,0,1,.59-.6" transform="translate(0 0)"/><path class="fe51393b-89cd-4def-a4ca-1769ef53dfcf" d="M28.52,45.62a.59.59,0,0,1-.59-.61.6.6,0,0,1,1.19,0,.59.59,0,0,1-.6.59" transform="translate(0 0)"/><path class="fe51393b-89cd-4def-a4ca-1769ef53dfcf" d="M30,11.76a.6.6,0,0,1,.59-.61.6.6,0,0,1,0,1.2.59.59,0,0,1-.6-.59" transform="translate(0 0)"/><path class="fe51393b-89cd-4def-a4ca-1769ef53dfcf" d="M42.69,51.45a.62.62,0,0,1,.61.59.6.6,0,0,1-1.19,0,.61.61,0,0,1,.58-.62" transform="translate(0 0)"/><path class="fe51393b-89cd-4def-a4ca-1769ef53dfcf" d="M24.72,12.12a.59.59,0,0,1-.6-.6.62.62,0,0,1,.62-.59.61.61,0,0,1,.57.6.58.58,0,0,1-.59.59" transform="translate(0 0)"/><path class="fe51393b-89cd-4def-a4ca-1769ef53dfcf" d="M12.15,12.88a.6.6,0,0,1-.61-.59.6.6,0,0,1,1.2,0,.59.59,0,0,1-.59.61" transform="translate(0 0)"/><path class="fe51393b-89cd-4def-a4ca-1769ef53dfcf" d="M24.78,45.9a.59.59,0,0,1-.59-.6.62.62,0,0,1,.61-.59.6.6,0,0,1,.58.61.57.57,0,0,1-.6.58" transform="translate(0 0)"/><path class="fe51393b-89cd-4def-a4ca-1769ef53dfcf" d="M29.71,13.28a.61.61,0,0,1-.6.61.6.6,0,0,1,0-1.19.6.6,0,0,1,.62.58" transform="translate(0 0)"/><path class="fe51393b-89cd-4def-a4ca-1769ef53dfcf" d="M15.94,14a.58.58,0,0,1,.58-.6.6.6,0,0,1,.61.58.62.62,0,0,1-.59.61.6.6,0,0,1-.6-.59" transform="translate(0 0)"/><path class="fe51393b-89cd-4def-a4ca-1769ef53dfcf" d="M7.4,13.5a.56.56,0,0,1,.6.57.59.59,0,0,1-.58.61.62.62,0,0,1-.61-.59.58.58,0,0,1,.59-.59" transform="translate(0 0)"/><path class="fe51393b-89cd-4def-a4ca-1769ef53dfcf" d="M15.54,29.91a.6.6,0,0,1,.6-.57.61.61,0,0,1,.59.61.6.6,0,0,1-.62.58.59.59,0,0,1-.57-.62" transform="translate(0 0)"/><path class="fe51393b-89cd-4def-a4ca-1769ef53dfcf" d="M37.72,29.91a.58.58,0,0,1,.58-.6.59.59,0,0,1,.6.59.62.62,0,0,1-.59.61.6.6,0,0,1-.59-.6" transform="translate(0 0)"/><path class="fe51393b-89cd-4def-a4ca-1769ef53dfcf" d="M48.08,34a.6.6,0,0,1,.61.6.62.62,0,0,1-.58.6.6.6,0,0,1-.61-.59.59.59,0,0,1,.58-.61" transform="translate(0 0)"/><path class="fe51393b-89cd-4def-a4ca-1769ef53dfcf" d="M54.77,35.29a.6.6,0,0,1-.59-.61.6.6,0,1,1,1.19,0,.6.6,0,0,1-.6.59" transform="translate(0 0)"/><path class="fe51393b-89cd-4def-a4ca-1769ef53dfcf" d="M7.51,30.48a.61.61,0,0,1-.59-.6.62.62,0,0,1,.61-.59.61.61,0,0,1,.59.61.59.59,0,0,1-.61.58" transform="translate(0 0)"/><path class="fe51393b-89cd-4def-a4ca-1769ef53dfcf" d="M25.1,32.52a.59.59,0,0,1-.6.59.6.6,0,0,1-.59-.6.63.63,0,0,1,.61-.6.6.6,0,0,1,.58.61" transform="translate(0 0)"/><path class="fe51393b-89cd-4def-a4ca-1769ef53dfcf" d="M28.27,29.38a.61.61,0,0,1,.59.61.6.6,0,0,1-1.2,0,.6.6,0,0,1,.61-.59" transform="translate(0 0)"/><path class="fe51393b-89cd-4def-a4ca-1769ef53dfcf" d="M26.3,54.07a.6.6,0,0,1,.59.61.6.6,0,0,1-1.2,0,.59.59,0,0,1,.61-.58" transform="translate(0 0)"/><path class="fe51393b-89cd-4def-a4ca-1769ef53dfcf" d="M30.47,55.3a.6.6,0,0,1-.61.58.63.63,0,0,1-.59-.61.6.6,0,0,1,.62-.57.58.58,0,0,1,.58.6" transform="translate(0 0)"/><path class="fe51393b-89cd-4def-a4ca-1769ef53dfcf" d="M22.13,30.7a.58.58,0,0,1-.59-.6.6.6,0,0,1,.58-.59.62.62,0,0,1,.61.6.6.6,0,0,1-.6.59" transform="translate(0 0)"/><path class="fe51393b-89cd-4def-a4ca-1769ef53dfcf" d="M49.53,31.43a.58.58,0,0,1,.59.59.6.6,0,0,1-.6.6.62.62,0,0,1-.59-.61.58.58,0,0,1,.6-.58" transform="translate(0 0)"/><path class="fe51393b-89cd-4def-a4ca-1769ef53dfcf" d="M53.47,29.48a.59.59,0,0,1,.59.6.61.61,0,0,1-.6.59.6.6,0,0,1-.59-.6.58.58,0,0,1,.6-.59" transform="translate(0 0)"/><path class="fe51393b-89cd-4def-a4ca-1769ef53dfcf" d="M32.47,32a.6.6,0,0,1-.61.59.63.63,0,0,1-.59-.61.62.62,0,0,1,.61-.59.6.6,0,0,1,.59.61" transform="translate(0 0)"/><path class="fe51393b-89cd-4def-a4ca-1769ef53dfcf" d="M19.83,31.85a.57.57,0,0,1,.6-.59.6.6,0,0,1,.59.61.62.62,0,0,1-.6.58.59.59,0,0,1-.59-.6" transform="translate(0 0)"/><path class="fe51393b-89cd-4def-a4ca-1769ef53dfcf" d="M24.32,31a.61.61,0,0,1-.57-.62.6.6,0,0,1,.62-.57.59.59,0,0,1,.57.62.59.59,0,0,1-.62.57" transform="translate(0 0)"/><path class="fe51393b-89cd-4def-a4ca-1769ef53dfcf" d="M19.19,52a.57.57,0,0,1,.6-.58.59.59,0,0,1,.59.57.64.64,0,0,1-.6.62.6.6,0,0,1-.59-.61" transform="translate(0 0)"/><path class="fe51393b-89cd-4def-a4ca-1769ef53dfcf" d="M14.16,34.05a.57.57,0,0,1,.58-.6.6.6,0,0,1,.61.59.63.63,0,0,1-.58.6.6.6,0,0,1-.61-.59" transform="translate(0 0)"/><path class="fe51393b-89cd-4def-a4ca-1769ef53dfcf" d="M19.5,33.21a.6.6,0,0,1,.6.6.62.62,0,0,1-.61.59.61.61,0,0,1-.59-.61.58.58,0,0,1,.6-.58" transform="translate(0 0)"/><path class="fe51393b-89cd-4def-a4ca-1769ef53dfcf" d="M18,52.23a.59.59,0,0,1-.61.58.61.61,0,0,1-.58-.59.6.6,0,0,1,.6-.6.6.6,0,0,1,.59.61" transform="translate(0 0)"/><path class="fe51393b-89cd-4def-a4ca-1769ef53dfcf" d="M2.69,31.38a.56.56,0,0,1-.6-.57.6.6,0,0,1,.59-.61.61.61,0,0,1,.6.59.58.58,0,0,1-.59.59" transform="translate(0 0)"/><path class="fe51393b-89cd-4def-a4ca-1769ef53dfcf" d="M33.9,30.3a.59.59,0,0,1,.61.58.62.62,0,0,1-.6.61.6.6,0,0,1-.59-.58.58.58,0,0,1,.58-.61" transform="translate(0 0)"/><path class="fe51393b-89cd-4def-a4ca-1769ef53dfcf" d="M51.6,31.75a.6.6,0,0,1-.61-.59.61.61,0,0,1,.58-.61.62.62,0,0,1,.61.59.59.59,0,0,1-.58.61" transform="translate(0 0)"/><path class="fe51393b-89cd-4def-a4ca-1769ef53dfcf" d="M37.15,33a.6.6,0,0,1-.59.61A.62.62,0,0,1,36,33a.59.59,0,0,1,.58-.58.57.57,0,0,1,.61.57" transform="translate(0 0)"/><path class="fe51393b-89cd-4def-a4ca-1769ef53dfcf" d="M27.48,33.62a.61.61,0,0,1-.6-.59.62.62,0,0,1,.59-.61.62.62,0,0,1,.6.6.59.59,0,0,1-.59.6" transform="translate(0 0)"/><path class="fe51393b-89cd-4def-a4ca-1769ef53dfcf" d="M32.26,50.53a.6.6,0,0,1,0,1.2.6.6,0,0,1-.6-.6.6.6,0,0,1,.6-.6" transform="translate(0 0)"/><path class="fe51393b-89cd-4def-a4ca-1769ef53dfcf" d="M35.5,51.62a.57.57,0,0,1-.6-.57.59.59,0,0,1,.58-.61.61.61,0,0,1,.61.58.59.59,0,0,1-.59.6" transform="translate(0 0)"/><path class="fe51393b-89cd-4def-a4ca-1769ef53dfcf" d="M42.53,32.94a.61.61,0,0,1-.58.61.64.64,0,0,1-.61-.6.58.58,0,0,1,.59-.59.57.57,0,0,1,.6.58" transform="translate(0 0)"/><path class="fe51393b-89cd-4def-a4ca-1769ef53dfcf" d="M22.69,38.94a.58.58,0,0,1-.6.58.61.61,0,0,1-.59-.6.61.61,0,0,1,.61-.59.59.59,0,0,1,.58.61" transform="translate(0 0)"/><path class="fe51393b-89cd-4def-a4ca-1769ef53dfcf" d="M49.5,38.9a.59.59,0,0,1-.59.6.6.6,0,0,1-.6-.58.62.62,0,0,1,.59-.61.59.59,0,0,1,.6.59" transform="translate(0 0)"/><path class="fe51393b-89cd-4def-a4ca-1769ef53dfcf" d="M25.39,39.15a.59.59,0,0,1-.6.58.6.6,0,0,1-.6-.59.62.62,0,0,1,.61-.59.59.59,0,0,1,.59.6" transform="translate(0 0)"/><path class="fe51393b-89cd-4def-a4ca-1769ef53dfcf" d="M6.17,44.86a.58.58,0,0,1-.59.6.6.6,0,0,1-.6-.6.61.61,0,0,1,.58-.59.6.6,0,0,1,.61.59" transform="translate(0 0)"/><path class="fe51393b-89cd-4def-a4ca-1769ef53dfcf" d="M5.49,39.47a.61.61,0,0,1-.6.6.63.63,0,0,1-.6-.58.62.62,0,0,1,.6-.62.6.6,0,0,1,.6.6" transform="translate(0 0)"/><path class="fe51393b-89cd-4def-a4ca-1769ef53dfcf" d="M32,44.53a.59.59,0,0,1-.61-.58.62.62,0,0,1,.6-.61.6.6,0,0,1,.59.61.57.57,0,0,1-.58.58" transform="translate(0 0)"/><path class="fe51393b-89cd-4def-a4ca-1769ef53dfcf" d="M27,43.94a.61.61,0,0,1-.61.59.62.62,0,0,1-.58-.62.6.6,0,0,1,1.19,0" transform="translate(0 0)"/><path class="fe51393b-89cd-4def-a4ca-1769ef53dfcf" d="M39.51,44a.57.57,0,0,1-.59-.59.61.61,0,0,1,.6-.6.62.62,0,0,1,.59.62.6.6,0,0,1-.6.57" transform="translate(0 0)"/><path class="fe51393b-89cd-4def-a4ca-1769ef53dfcf" d="M29.14,43.28a.58.58,0,0,1,.58-.6.6.6,0,1,1,0,1.19.59.59,0,0,1-.6-.59" transform="translate(0 0)"/><path class="fe51393b-89cd-4def-a4ca-1769ef53dfcf" d="M11.5,42.66a.6.6,0,1,1-.61-.58.59.59,0,0,1,.61.58" transform="translate(0 0)"/><path class="fe51393b-89cd-4def-a4ca-1769ef53dfcf" d="M25.16,42.51a.6.6,0,0,1-1.19,0,.6.6,0,1,1,1.19,0" transform="translate(0 0)"/><path class="fe51393b-89cd-4def-a4ca-1769ef53dfcf" d="M42,41.79a.59.59,0,0,1,.6.59A.62.62,0,0,1,42,43a.61.61,0,0,1-.58-.59.59.59,0,0,1,.59-.6" transform="translate(0 0)"/><path class="fe51393b-89cd-4def-a4ca-1769ef53dfcf" d="M35.77,40a.6.6,0,0,1-.62.58.59.59,0,0,1-.57-.62.6.6,0,0,1,.6-.57.61.61,0,0,1,.59.61" transform="translate(0 0)"/><path class="fe51393b-89cd-4def-a4ca-1769ef53dfcf" d="M20.68,42a.59.59,0,0,1,.61-.58.61.61,0,0,1,.59.61.62.62,0,0,1-.61.58.6.6,0,0,1-.59-.61" transform="translate(0 0)"/><path class="fe51393b-89cd-4def-a4ca-1769ef53dfcf" d="M9.42,41.86a.59.59,0,0,1-.59.61.6.6,0,0,1-.6-.57.61.61,0,0,1,.58-.62.6.6,0,0,1,.61.58" transform="translate(0 0)"/><path class="fe51393b-89cd-4def-a4ca-1769ef53dfcf" d="M39.77,40.75a.59.59,0,0,1,.58.61.6.6,0,0,1-1.19,0,.6.6,0,0,1,.61-.59" transform="translate(0 0)"/><path class="fe51393b-89cd-4def-a4ca-1769ef53dfcf" d="M31.2,41.23a.59.59,0,0,1-.59.61.62.62,0,0,1-.6-.61.61.61,0,0,1,.59-.59.59.59,0,0,1,.6.59" transform="translate(0 0)"/><path class="fe51393b-89cd-4def-a4ca-1769ef53dfcf" d="M18.06,41.34a.59.59,0,0,1-.59-.61.6.6,0,1,1,1.19,0,.59.59,0,0,1-.6.6" transform="translate(0 0)"/><path class="fe51393b-89cd-4def-a4ca-1769ef53dfcf" d="M6.22,40.81a.6.6,0,0,1,.59-.61.62.62,0,0,1,.6.6.61.61,0,0,1-.59.6.58.58,0,0,1-.6-.59" transform="translate(0 0)"/><path class="fe51393b-89cd-4def-a4ca-1769ef53dfcf" d="M23.13,40.23a.6.6,0,0,1,.58.62.61.61,0,0,1-.59.58.62.62,0,0,1-.6-.61.6.6,0,0,1,.61-.59" transform="translate(0 0)"/><path class="fe51393b-89cd-4def-a4ca-1769ef53dfcf" d="M25.47,40.84a.59.59,0,0,1,.59-.6.6.6,0,0,1,.6.6.6.6,0,1,1-1.19,0" transform="translate(0 0)"/><path class="fe51393b-89cd-4def-a4ca-1769ef53dfcf" d="M45,40.89a.62.62,0,0,1-.6.61.64.64,0,0,1-.6-.62.61.61,0,0,1,.59-.58.6.6,0,0,1,.61.59" transform="translate(0 0)"/><path class="fe51393b-89cd-4def-a4ca-1769ef53dfcf" d="M14.05,50a.58.58,0,0,1,.59-.6.6.6,0,1,1,0,1.19.6.6,0,0,1-.61-.59" transform="translate(0 0)"/><path class="fe51393b-89cd-4def-a4ca-1769ef53dfcf" d="M44.63,50a.59.59,0,0,1-.62.57.64.64,0,0,1-.57-.61.59.59,0,0,1,.62-.57.56.56,0,0,1,.57.61" transform="translate(0 0)"/><path class="fe51393b-89cd-4def-a4ca-1769ef53dfcf" d="M22,49.48a.6.6,0,0,1-.6.6.63.63,0,0,1-.59-.59.6.6,0,1,1,1.19,0" transform="translate(0 0)"/><path class="fe51393b-89cd-4def-a4ca-1769ef53dfcf" d="M10.51,49.05a.58.58,0,0,1-.6.58.61.61,0,0,1-.59-.58.62.62,0,0,1,.6-.61.58.58,0,0,1,.59.61" transform="translate(0 0)"/><path class="fe51393b-89cd-4def-a4ca-1769ef53dfcf" d="M28,48.18a.6.6,0,0,1,0,1.2.62.62,0,0,1-.61-.6.6.6,0,0,1,.6-.6" transform="translate(0 0)"/><path class="fe51393b-89cd-4def-a4ca-1769ef53dfcf" d="M15.13,47.88a.6.6,0,1,1-.59-.6.6.6,0,0,1,.59.6" transform="translate(0 0)"/><path class="fe51393b-89cd-4def-a4ca-1769ef53dfcf" d="M38.07,48a.58.58,0,0,1-.6-.59.6.6,0,0,1,.59-.6.62.62,0,0,1,.6.59.59.59,0,0,1-.59.6" transform="translate(0 0)"/><path class="fe51393b-89cd-4def-a4ca-1769ef53dfcf" d="M34,35.68a.59.59,0,0,1-.59-.6.62.62,0,0,1,.61-.59.63.63,0,0,1,.59.62.59.59,0,0,1-.61.57" transform="translate(0 0)"/><path class="fe51393b-89cd-4def-a4ca-1769ef53dfcf" d="M27.05,47.11a.57.57,0,0,1-.59-.59.59.59,0,0,1,.6-.59.61.61,0,0,1,.59.6.58.58,0,0,1-.6.58" transform="translate(0 0)"/><path class="fe51393b-89cd-4def-a4ca-1769ef53dfcf" d="M38.75,35a.6.6,0,0,1-.59.61.62.62,0,0,1-.61-.59.61.61,0,0,1,.6-.6.57.57,0,0,1,.6.58" transform="translate(0 0)"/><path class="fe51393b-89cd-4def-a4ca-1769ef53dfcf" d="M10.69,34.59a.56.56,0,0,1,.57.6.58.58,0,0,1-.6.58.62.62,0,0,1-.59-.61.59.59,0,0,1,.62-.57" transform="translate(0 0)"/><path class="fe51393b-89cd-4def-a4ca-1769ef53dfcf" d="M28.14,35.13a.62.62,0,0,1,.6.6.61.61,0,0,1-.6.6.59.59,0,0,1-.59-.59.61.61,0,0,1,.59-.61" transform="translate(0 0)"/><path class="fe51393b-89cd-4def-a4ca-1769ef53dfcf" d="M19.77,35.89a.57.57,0,0,1-.61.58.6.6,0,0,1-.58-.59.62.62,0,0,1,.61-.6.59.59,0,0,1,.58.61" transform="translate(0 0)"/><path class="fe51393b-89cd-4def-a4ca-1769ef53dfcf" d="M1.46,36.66a.6.6,0,1,1,0-1.19.61.61,0,0,1,.61.58.62.62,0,0,1-.59.61" transform="translate(0 0)"/><path class="fe51393b-89cd-4def-a4ca-1769ef53dfcf" d="M46.92,36.87a.58.58,0,0,1-.58.6.62.62,0,0,1-.61-.59.62.62,0,0,1,.6-.61.59.59,0,0,1,.59.6" transform="translate(0 0)"/><path class="fe51393b-89cd-4def-a4ca-1769ef53dfcf" d="M9.67,37a.57.57,0,0,1-.59.59.59.59,0,0,1-.6-.59.61.61,0,0,1,.59-.6.62.62,0,0,1,.6.6" transform="translate(0 0)"/><path class="fe51393b-89cd-4def-a4ca-1769ef53dfcf" d="M33.44,37.12a.59.59,0,0,1-.58.61.6.6,0,0,1,0-1.19.58.58,0,0,1,.61.58" transform="translate(0 0)"/><path class="fe51393b-89cd-4def-a4ca-1769ef53dfcf" d="M14.68,46.25a.58.58,0,0,1-.58-.61.6.6,0,0,1,.59-.58.62.62,0,0,1,.6.6.6.6,0,0,1-.61.59" transform="translate(0 0)"/><path class="fe51393b-89cd-4def-a4ca-1769ef53dfcf" d="M5.94,37a.62.62,0,0,1,.61.59.62.62,0,0,1-.61.6.57.57,0,0,1-.58-.58A.59.59,0,0,1,5.94,37" transform="translate(0 0)"/><path class="fe51393b-89cd-4def-a4ca-1769ef53dfcf" d="M19.55,45.35A.61.61,0,0,1,19,46a.63.63,0,0,1-.59-.62.6.6,0,0,1,.59-.58.58.58,0,0,1,.6.59" transform="translate(0 0)"/><path class="fe51393b-89cd-4def-a4ca-1769ef53dfcf" d="M50.46,38.57a.6.6,0,0,1,.59-.61.6.6,0,1,1,0,1.19.59.59,0,0,1-.61-.58" transform="translate(0 0)"/><path class="fe51393b-89cd-4def-a4ca-1769ef53dfcf" d="M43.2,45.2a.61.61,0,0,1,.59-.6.62.62,0,0,1,.6.6.6.6,0,0,1-1.19,0" transform="translate(0 0)"/><path class="fe51393b-89cd-4def-a4ca-1769ef53dfcf" d="M18.76,23a.57.57,0,0,1-.59-.59.6.6,0,0,1,.6-.6.63.63,0,0,1,.59.59.6.6,0,0,1-.6.6" transform="translate(0 0)"/><path class="fe51393b-89cd-4def-a4ca-1769ef53dfcf" d="M10.93,23.11a.59.59,0,0,1-.59-.6.61.61,0,0,1,.61-.6.63.63,0,0,1,.58.6.6.6,0,0,1-.6.6" transform="translate(0 0)"/><path class="fe51393b-89cd-4def-a4ca-1769ef53dfcf" d="M33.22,23.15a.6.6,0,0,1,0-1.19.6.6,0,1,1,0,1.19" transform="translate(0 0)"/><path class="fe51393b-89cd-4def-a4ca-1769ef53dfcf" d="M42.53,22a.58.58,0,0,1,.58.6.6.6,0,0,1-.6.59.62.62,0,0,1-.59-.61.6.6,0,0,1,.61-.58" transform="translate(0 0)"/><path class="fe51393b-89cd-4def-a4ca-1769ef53dfcf" d="M27.86,23.34a.6.6,0,0,1,0-1.19.6.6,0,1,1,0,1.19" transform="translate(0 0)"/><path class="fe51393b-89cd-4def-a4ca-1769ef53dfcf" d="M26,14.71a.6.6,0,0,1-.6-.58.62.62,0,0,1,.59-.61.59.59,0,0,1,.6.59.58.58,0,0,1-.59.6" transform="translate(0 0)"/><path class="fe51393b-89cd-4def-a4ca-1769ef53dfcf" d="M8.49,23.4a.61.61,0,0,1-.6-.6.62.62,0,0,1,.62-.59.58.58,0,0,1,.57.59.59.59,0,0,1-.59.6" transform="translate(0 0)"/><path class="fe51393b-89cd-4def-a4ca-1769ef53dfcf" d="M35.89,14.53a.58.58,0,0,1-.58-.6.6.6,0,0,1,.6-.59.61.61,0,0,1,.59.62.59.59,0,0,1-.61.57" transform="translate(0 0)"/><path class="fe51393b-89cd-4def-a4ca-1769ef53dfcf" d="M19.6,13.38A.58.58,0,0,1,19,14a.62.62,0,0,1-.61-.6.59.59,0,0,1,.58-.58.56.56,0,0,1,.61.57" transform="translate(0 0)"/><path class="fe51393b-89cd-4def-a4ca-1769ef53dfcf" d="M32.49,12.62a.6.6,0,1,1,0,1.19.58.58,0,0,1-.58-.6.59.59,0,0,1,.6-.59" transform="translate(0 0)"/><path class="fe51393b-89cd-4def-a4ca-1769ef53dfcf" d="M1.65,23.51a.57.57,0,0,1-.57-.6.59.59,0,0,1,.6-.59.62.62,0,0,1,.59.61.6.6,0,0,1-.62.58" transform="translate(0 0)"/><path class="fe51393b-89cd-4def-a4ca-1769ef53dfcf" d="M14.91,13a.58.58,0,0,1-.58.61.6.6,0,1,1,0-1.19.57.57,0,0,1,.59.58" transform="translate(0 0)"/><path class="fe51393b-89cd-4def-a4ca-1769ef53dfcf" d="M48.81,22.92a.58.58,0,0,1-.59.6.61.61,0,0,1-.6-.59.62.62,0,0,1,.6-.6.58.58,0,0,1,.59.59" transform="translate(0 0)"/><path class="fe51393b-89cd-4def-a4ca-1769ef53dfcf" d="M34.87,12.1a.58.58,0,0,1-.59.6.6.6,0,0,1-.6-.58.62.62,0,0,1,.59-.62.6.6,0,0,1,.6.6" transform="translate(0 0)"/><path class="fe51393b-89cd-4def-a4ca-1769ef53dfcf" d="M17,11.37a.58.58,0,0,1,.58.6.6.6,0,0,1-.61.58.59.59,0,0,1-.58-.6.58.58,0,0,1,.61-.58" transform="translate(0 0)"/><path class="fe51393b-89cd-4def-a4ca-1769ef53dfcf" d="M4.21,23.61a.57.57,0,0,1,.59.59.6.6,0,0,1-.59.6.63.63,0,0,1-.6-.6.6.6,0,0,1,.6-.59" transform="translate(0 0)"/><path class="fe51393b-89cd-4def-a4ca-1769ef53dfcf" d="M36.68,24.3a.57.57,0,0,1,.61-.57.6.6,0,0,1,.58.59.61.61,0,0,1-.61.59.59.59,0,0,1-.58-.61" transform="translate(0 0)"/><path class="fe51393b-89cd-4def-a4ca-1769ef53dfcf" d="M46.33,23.82a.6.6,0,0,1,0,1.19.61.61,0,0,1-.59-.61.59.59,0,0,1,.61-.58" transform="translate(0 0)"/><path class="fe51393b-89cd-4def-a4ca-1769ef53dfcf" d="M50.41,24.4a.58.58,0,0,1-.61.58.59.59,0,0,1-.58-.61.62.62,0,0,1,.6-.58.6.6,0,0,1,.59.61" transform="translate(0 0)"/><path class="fe51393b-89cd-4def-a4ca-1769ef53dfcf" d="M21.38,24.45a.58.58,0,0,1-.59.59.59.59,0,0,1-.61-.58.63.63,0,0,1,.6-.61.61.61,0,0,1,.6.6" transform="translate(0 0)"/><path class="fe51393b-89cd-4def-a4ca-1769ef53dfcf" d="M9.44,25.28a.58.58,0,0,1-.58-.6.6.6,0,1,1,1.19,0,.59.59,0,0,1-.61.58" transform="translate(0 0)"/><path class="fe51393b-89cd-4def-a4ca-1769ef53dfcf" d="M17.66,9.35a.62.62,0,0,1,.61.59.62.62,0,0,1-.59.61.6.6,0,0,1,0-1.2" transform="translate(0 0)"/><path class="fe51393b-89cd-4def-a4ca-1769ef53dfcf" d="M18.63,25.45a.58.58,0,0,1-.58-.61.59.59,0,0,1,.61-.58.62.62,0,0,1,.59.62.61.61,0,0,1-.62.57" transform="translate(0 0)"/><path class="fe51393b-89cd-4def-a4ca-1769ef53dfcf" d="M26.52,9.81a.59.59,0,0,1-.59.6.6.6,0,0,1-.6-.6.61.61,0,0,1,.58-.59.59.59,0,0,1,.61.59" transform="translate(0 0)"/><path class="fe51393b-89cd-4def-a4ca-1769ef53dfcf" d="M2.92,25.22a.6.6,0,0,1-.59.62.62.62,0,0,1-.6-.61.58.58,0,0,1,.58-.58.57.57,0,0,1,.61.57" transform="translate(0 0)"/><path class="fe51393b-89cd-4def-a4ca-1769ef53dfcf" d="M43.43,25.73a.58.58,0,0,1,.61-.58.59.59,0,0,1,.58.6.63.63,0,0,1-.61.59.61.61,0,0,1-.58-.61" transform="translate(0 0)"/><path class="fe51393b-89cd-4def-a4ca-1769ef53dfcf" d="M48.53,25.75a.6.6,0,0,1-.59.61.6.6,0,0,1,0-1.2.59.59,0,0,1,.6.59" transform="translate(0 0)"/><path class="fe51393b-89cd-4def-a4ca-1769ef53dfcf" d="M17.38,25.83a.59.59,0,0,1-.59.6.61.61,0,0,1-.61-.58.64.64,0,0,1,.59-.62.62.62,0,0,1,.61.6" transform="translate(0 0)"/><path class="fe51393b-89cd-4def-a4ca-1769ef53dfcf" d="M25.08,18.3a.58.58,0,0,1,.59.59.61.61,0,0,1-.59.6.62.62,0,0,1-.6-.6.59.59,0,0,1,.6-.59" transform="translate(0 0)"/><path class="fe51393b-89cd-4def-a4ca-1769ef53dfcf" d="M8,18.62a.59.59,0,0,1-.6.59.6.6,0,0,1-.59-.58.6.6,0,1,1,1.19,0" transform="translate(0 0)"/><path class="fe51393b-89cd-4def-a4ca-1769ef53dfcf" d="M46.77,19a.6.6,0,0,1-.59.6.6.6,0,0,1,0-1.2.6.6,0,0,1,.6.6" transform="translate(0 0)"/><path class="fe51393b-89cd-4def-a4ca-1769ef53dfcf" d="M5.84,19a.6.6,0,0,1-.6.59.62.62,0,0,1-.6-.6.62.62,0,0,1,.6-.6.6.6,0,0,1,.6.61" transform="translate(0 0)"/><path class="fe51393b-89cd-4def-a4ca-1769ef53dfcf" d="M28.44,19.67a.59.59,0,0,1-.6-.59.61.61,0,0,1,.59-.6.6.6,0,0,1,.6.59.59.59,0,0,1-.59.6" transform="translate(0 0)"/><path class="fe51393b-89cd-4def-a4ca-1769ef53dfcf" d="M14.66,18.65a.61.61,0,0,1,.59.61.6.6,0,0,1-1.19,0,.61.61,0,0,1,.6-.6" transform="translate(0 0)"/><path class="fe51393b-89cd-4def-a4ca-1769ef53dfcf" d="M9.08,18.49a.58.58,0,0,1,.59-.59.6.6,0,0,1,.6.6.63.63,0,0,1-.59.59.6.6,0,0,1-.6-.6" transform="translate(0 0)"/><path class="fe51393b-89cd-4def-a4ca-1769ef53dfcf" d="M20.18,19.91a.6.6,0,0,1-.61.59.6.6,0,1,1,0-1.2.6.6,0,0,1,.59.61" transform="translate(0 0)"/><path class="fe51393b-89cd-4def-a4ca-1769ef53dfcf" d="M48.65,20a.59.59,0,0,1-.6.59.6.6,0,1,1,.6-.59" transform="translate(0 0)"/><path class="fe51393b-89cd-4def-a4ca-1769ef53dfcf" d="M44.2,18.81a.58.58,0,0,1-.6-.6.61.61,0,0,1,.6-.59.64.64,0,0,1,.6.59.61.61,0,0,1-.6.6" transform="translate(0 0)"/><path class="fe51393b-89cd-4def-a4ca-1769ef53dfcf" d="M23.19,17.38a.58.58,0,0,1,.59.6.61.61,0,0,1-.6.59.63.63,0,0,1-.59-.61.58.58,0,0,1,.6-.58" transform="translate(0 0)"/><path class="fe51393b-89cd-4def-a4ca-1769ef53dfcf" d="M42.14,17.21a.6.6,0,0,1,.6.6.62.62,0,0,1-.59.59.59.59,0,0,1-.6-.59.58.58,0,0,1,.59-.6" transform="translate(0 0)"/><path class="fe51393b-89cd-4def-a4ca-1769ef53dfcf" d="M33.52,20.93a.6.6,0,1,1,0-1.19.63.63,0,0,1,.59.58.6.6,0,0,1-.6.61" transform="translate(0 0)"/><path class="fe51393b-89cd-4def-a4ca-1769ef53dfcf" d="M26.46,17.46a.59.59,0,0,1,.61-.58.59.59,0,0,1,0,1.18.58.58,0,0,1-.59-.6" transform="translate(0 0)"/><path class="fe51393b-89cd-4def-a4ca-1769ef53dfcf" d="M35.07,17.44a.59.59,0,0,1-.58-.6.62.62,0,0,1,.61-.59.61.61,0,0,1,.58.61.58.58,0,0,1-.61.58" transform="translate(0 0)"/><path class="fe51393b-89cd-4def-a4ca-1769ef53dfcf" d="M30.68,20.41a.61.61,0,0,1,.61-.6.62.62,0,0,1,.58.6.6.6,0,0,1-.59.6.59.59,0,0,1-.6-.6" transform="translate(0 0)"/><path class="fe51393b-89cd-4def-a4ca-1769ef53dfcf" d="M5.72,16.69a.6.6,0,0,1-1.19,0,.62.62,0,0,1,.6-.61.6.6,0,0,1,.59.61" transform="translate(0 0)"/><path class="fe51393b-89cd-4def-a4ca-1769ef53dfcf" d="M10.08,16.35a.6.6,0,0,1-.61.58.61.61,0,0,1-.59-.61.63.63,0,0,1,.62-.59.62.62,0,0,1,.58.62" transform="translate(0 0)"/><path class="fe51393b-89cd-4def-a4ca-1769ef53dfcf" d="M49.78,16.24a.58.58,0,0,1,.59-.59.61.61,0,0,1,.6.6.64.64,0,0,1-.61.6.59.59,0,0,1-.58-.61" transform="translate(0 0)"/><path class="fe51393b-89cd-4def-a4ca-1769ef53dfcf" d="M7.79,20.18a.58.58,0,0,1,.61.57.6.6,0,0,1-.58.62.61.61,0,0,1-.61-.58.59.59,0,0,1,.58-.61" transform="translate(0 0)"/><path class="fe51393b-89cd-4def-a4ca-1769ef53dfcf" d="M37.71,16a.62.62,0,0,1-.6.61.62.62,0,0,1-.59-.61.58.58,0,0,1,.59-.59.6.6,0,0,1,.6.59" transform="translate(0 0)"/><path class="fe51393b-89cd-4def-a4ca-1769ef53dfcf" d="M29.89,21.21a.57.57,0,0,1-.58.6.6.6,0,1,1,0-1.19.58.58,0,0,1,.59.59" transform="translate(0 0)"/><path class="fe51393b-89cd-4def-a4ca-1769ef53dfcf" d="M39.78,15.48a.6.6,0,0,1-.61.59.61.61,0,0,1-.59-.58.62.62,0,0,1,.6-.61.6.6,0,0,1,.6.6" transform="translate(0 0)"/><path class="fe51393b-89cd-4def-a4ca-1769ef53dfcf" d="M53.39,21.2a.58.58,0,0,1-.61.58.59.59,0,0,1-.58-.58.6.6,0,0,1,.6-.6.58.58,0,0,1,.59.6" transform="translate(0 0)"/><path class="fe51393b-89cd-4def-a4ca-1769ef53dfcf" d="M5.63,21.85a.59.59,0,0,1-.6-.6.61.61,0,0,1,.59-.6.62.62,0,0,1,.6.6.6.6,0,0,1-.59.6" transform="translate(0 0)"/><path class="fe51393b-89cd-4def-a4ca-1769ef53dfcf" d="M14.9,21.23a.58.58,0,0,1,.6-.59.59.59,0,0,1,.59.6.61.61,0,0,1-.6.59.61.61,0,0,1-.59-.6" transform="translate(0 0)"/><path class="fe51393b-89cd-4def-a4ca-1769ef53dfcf" d="M27.32,15.18a.57.57,0,0,1,.58-.6.61.61,0,0,1,.61.57.62.62,0,0,1-.61.62.6.6,0,0,1-.58-.59" transform="translate(0 0)"/><path class="fe51393b-89cd-4def-a4ca-1769ef53dfcf" d="M4.17,22a.6.6,0,0,1-.6.6.6.6,0,0,1,0-1.2.6.6,0,0,1,.6.6" transform="translate(0 0)"/><path class="fe51393b-89cd-4def-a4ca-1769ef53dfcf" d="M26.18,22.2a.59.59,0,0,1-.6.59.6.6,0,1,1,0-1.19.59.59,0,0,1,.58.6" transform="translate(0 0)"/><path class="fe51393b-89cd-4def-a4ca-1769ef53dfcf" d="M24.62,26.18a.58.58,0,0,1,.6.58.6.6,0,0,1-.59.61.62.62,0,0,1-.61-.59.62.62,0,0,1,.6-.6" transform="translate(0 0)"/><path class="fe51393b-89cd-4def-a4ca-1769ef53dfcf" d="M41.78,26.86a.58.58,0,0,1-.59.59.61.61,0,0,1-.6-.59.63.63,0,0,1,.59-.61.61.61,0,0,1,.6.61" transform="translate(0 0)"/><path class="fe51393b-89cd-4def-a4ca-1769ef53dfcf" d="M45.76,26.35a.6.6,0,0,1,.59.61.61.61,0,0,1-.59.58.62.62,0,0,1-.61-.6.61.61,0,0,1,.61-.59" transform="translate(0 0)"/><path class="fe51393b-89cd-4def-a4ca-1769ef53dfcf" d="M18.63,27.09a.59.59,0,0,1,.6-.59.6.6,0,0,1,0,1.2.59.59,0,0,1-.59-.61" transform="translate(0 0)"/><path class="fe51393b-89cd-4def-a4ca-1769ef53dfcf" d="M8.3,26.57a.61.61,0,0,1,.6.61.63.63,0,0,1-.62.59.6.6,0,0,1,0-1.2" transform="translate(0 0)"/><path class="fe51393b-89cd-4def-a4ca-1769ef53dfcf" d="M15.21,27.87a.61.61,0,0,1-.58-.61.6.6,0,0,1,.6-.59.6.6,0,1,1,0,1.2" transform="translate(0 0)"/><path class="fe51393b-89cd-4def-a4ca-1769ef53dfcf" d="M38.69,6.34A.61.61,0,0,1,38.1,7a.6.6,0,0,1-.6-.59.6.6,0,1,1,1.19,0" transform="translate(0 0)"/><path class="fe51393b-89cd-4def-a4ca-1769ef53dfcf" d="M26.21,5.72a.59.59,0,0,1,.59.6.6.6,0,0,1-1.19,0,.6.6,0,0,1,.6-.6" transform="translate(0 0)"/><path class="fe51393b-89cd-4def-a4ca-1769ef53dfcf" d="M3.82,27.41a.62.62,0,0,1-.61.59.59.59,0,0,1-.58-.62.58.58,0,0,1,.59-.57.6.6,0,0,1,.6.6" transform="translate(0 0)"/><path class="fe51393b-89cd-4def-a4ca-1769ef53dfcf" d="M36.8,27.71a.59.59,0,0,1,.62-.58.61.61,0,0,1,.57.62.6.6,0,0,1-.62.57.58.58,0,0,1-.57-.61" transform="translate(0 0)"/><path class="fe51393b-89cd-4def-a4ca-1769ef53dfcf" d="M11.6,27.85a.57.57,0,0,1,.61-.57.6.6,0,0,1,.58.59.62.62,0,0,1-.61.6.6.6,0,0,1-.58-.62" transform="translate(0 0)"/><path class="fe51393b-89cd-4def-a4ca-1769ef53dfcf" d="M38.19,4.25a.59.59,0,0,1-.59.6.61.61,0,0,1-.6-.6.6.6,0,0,1,.58-.59.58.58,0,0,1,.61.59" transform="translate(0 0)"/><path class="fe51393b-89cd-4def-a4ca-1769ef53dfcf" d="M40.59,4.22A.59.59,0,0,1,40,4.8a.61.61,0,0,1-.58-.61A.59.59,0,0,1,40,3.61a.6.6,0,0,1,.58.61" transform="translate(0 0)"/><path class="fe51393b-89cd-4def-a4ca-1769ef53dfcf" d="M30,4.58a.57.57,0,0,1-.58-.6A.6.6,0,0,1,30,3.39a.63.63,0,0,1,.6.61.59.59,0,0,1-.61.58" transform="translate(0 0)"/><path class="fe51393b-89cd-4def-a4ca-1769ef53dfcf" d="M5.6,28.16a.6.6,0,1,1,1.19,0,.6.6,0,0,1-.61.58.61.61,0,0,1-.58-.62" transform="translate(0 0)"/><path class="fe51393b-89cd-4def-a4ca-1769ef53dfcf" d="M27.32,3.31a.59.59,0,0,1-.62.57.63.63,0,0,1-.58-.6.6.6,0,0,1,.62-.58.58.58,0,0,1,.58.61" transform="translate(0 0)"/><path class="fe51393b-89cd-4def-a4ca-1769ef53dfcf" d="M36.29,2.25a.58.58,0,0,1,.6-.59.6.6,0,0,1,.59.59.63.63,0,0,1-.6.61.6.6,0,0,1-.59-.61" transform="translate(0 0)"/><path class="fe51393b-89cd-4def-a4ca-1769ef53dfcf" d="M25.62,28a.62.62,0,0,1,.61.59.6.6,0,1,1-1.19,0,.61.61,0,0,1,.58-.61" transform="translate(0 0)"/><path class="fe51393b-89cd-4def-a4ca-1769ef53dfcf" d="M21,1.74a.58.58,0,0,1,.6-.59.61.61,0,0,1,.6.6.63.63,0,0,1-.6.59.6.6,0,0,1-.6-.6" transform="translate(0 0)"/><path class="fe51393b-89cd-4def-a4ca-1769ef53dfcf" d="M35.4,29.4a.58.58,0,0,1-.6-.58.6.6,0,0,1,.58-.61.6.6,0,1,1,0,1.19" transform="translate(0 0)"/><path class="fe51393b-89cd-4def-a4ca-1769ef53dfcf" d="M33.45,1.32a.57.57,0,0,1-.59-.59.6.6,0,0,1,.6-.6.62.62,0,0,1,.59.59.6.6,0,0,1-.6.6" transform="translate(0 0)"/><path class="fe51393b-89cd-4def-a4ca-1769ef53dfcf" d="M4.32,28.81a.58.58,0,0,1,.61.58.6.6,0,0,1-.58.61.63.63,0,0,1-.62-.59.61.61,0,0,1,.59-.6" transform="translate(0 0)"/><path class="fe51393b-89cd-4def-a4ca-1769ef53dfcf" d="M13.45,25.32a.6.6,0,0,1,.59.61.62.62,0,0,1-.61.59.6.6,0,0,1-.58-.61.59.59,0,0,1,.6-.59" transform="translate(0 0)"/><path class="fe51393b-89cd-4def-a4ca-1769ef53dfcf" d="M36.53,26.05a.58.58,0,0,1-.59.6.6.6,0,0,1-.6-.59.62.62,0,0,1,.6-.6.6.6,0,0,1,.59.59" transform="translate(0 0)"/><path class="fe51393b-89cd-4def-a4ca-1769ef53dfcf" d="M7.94,9.46a.59.59,0,0,1,.6-.6.61.61,0,0,1,.59.59.62.62,0,0,1-.6.61.59.59,0,0,1-.59-.6" transform="translate(0 0)"/><path class="fe51393b-89cd-4def-a4ca-1769ef53dfcf" d="M15.69,9.45a.6.6,0,0,1-.6-.6.61.61,0,0,1,.58-.59.6.6,0,0,1,.61.59.59.59,0,0,1-.59.6" transform="translate(0 0)"/><path class="fe51393b-89cd-4def-a4ca-1769ef53dfcf" d="M18.69,7.44a.6.6,0,1,1,0,1.19.6.6,0,0,1,0-1.19" transform="translate(0 0)"/><path class="fe51393b-89cd-4def-a4ca-1769ef53dfcf" d="M13.05,8a.62.62,0,0,1,.61-.59.6.6,0,0,1,.59.61.59.59,0,0,1-.6.58.61.61,0,0,1-.6-.6" transform="translate(0 0)"/><path class="fe51393b-89cd-4def-a4ca-1769ef53dfcf" d="M11.28,26.4a.6.6,0,0,1-.61.59.61.61,0,0,1-.59-.61.63.63,0,0,1,.61-.59.62.62,0,0,1,.59.61" transform="translate(0 0)"/><path class="fe51393b-89cd-4def-a4ca-1769ef53dfcf" d="M21.47,27.05a.6.6,0,0,1-.61-.59.63.63,0,0,1,.61-.61.63.63,0,0,1,.59.59.6.6,0,0,1-.59.61" transform="translate(0 0)"/><path class="fe51393b-89cd-4def-a4ca-1769ef53dfcf" d="M45.11,7.61a.58.58,0,0,1-.6-.58.61.61,0,0,1,.59-.61.63.63,0,0,1,.61.59.6.6,0,0,1-.6.6" transform="translate(0 0)"/><path class="fe51393b-89cd-4def-a4ca-1769ef53dfcf" d="M21.68,7.09a.58.58,0,0,1,.6.58.6.6,0,0,1-.58.61.62.62,0,0,1-.61-.59.59.59,0,0,1,.59-.6" transform="translate(0 0)"/><path class="fe51393b-89cd-4def-a4ca-1769ef53dfcf" d="M35,42.76a.58.58,0,0,1-.6-.59.6.6,0,0,1,.6-.6.62.62,0,0,1,.59.61.6.6,0,0,1-.59.58" transform="translate(0 0)"/><path class="fe51393b-89cd-4def-a4ca-1769ef53dfcf" d="M29.72,50.77a.6.6,0,0,1-1.19,0,.62.62,0,0,1,.6-.6.6.6,0,0,1,.59.61" transform="translate(0 0)"/><path class="fe51393b-89cd-4def-a4ca-1769ef53dfcf" d="M41,46a.58.58,0,0,1,.6.59.59.59,0,0,1-.6.59.61.61,0,0,1-.59-.61A.6.6,0,0,1,41,46" transform="translate(0 0)"/><path class="fe51393b-89cd-4def-a4ca-1769ef53dfcf" d="M32.71,41.33a.6.6,0,0,1,.6.6.63.63,0,0,1-.59.59.6.6,0,0,1-.6-.6.57.57,0,0,1,.59-.59" transform="translate(0 0)"/><path class="fe51393b-89cd-4def-a4ca-1769ef53dfcf" d="M40.55,7.88a.58.58,0,0,1,.59.59.6.6,0,1,1-1.19,0,.6.6,0,0,1,.6-.59" transform="translate(0 0)"/><path class="fe51393b-89cd-4def-a4ca-1769ef53dfcf" d="M17.44,45.65a.57.57,0,0,1-.58.6.61.61,0,0,1-.61-.59.63.63,0,0,1,.6-.61.6.6,0,0,1,.59.6" transform="translate(0 0)"/><path class="fe51393b-89cd-4def-a4ca-1769ef53dfcf" d="M11.2,16.6a.57.57,0,0,1,.58-.6.59.59,0,0,1,.61.58.63.63,0,0,1-.59.61.6.6,0,0,1-.6-.59" transform="translate(0 0)"/><path class="fe51393b-89cd-4def-a4ca-1769ef53dfcf" d="M34.76,9.59a.6.6,0,0,1-.61.59.63.63,0,0,1-.58-.6.61.61,0,0,1,.61-.6.58.58,0,0,1,.58.61" transform="translate(0 0)"/><path class="fe51393b-89cd-4def-a4ca-1769ef53dfcf" d="M32.18,2.58a.58.58,0,0,1,.58.6.6.6,0,0,1-.61.59.62.62,0,0,1-.58-.62.59.59,0,0,1,.61-.57" transform="translate(0 0)"/><path class="fe51393b-89cd-4def-a4ca-1769ef53dfcf" d="M36.8,8.93a.62.62,0,0,1-.6.59.6.6,0,1,1,0-1.19.62.62,0,0,1,.6.6" transform="translate(0 0)"/><path class="fe51393b-89cd-4def-a4ca-1769ef53dfcf" d="M15,52.72a.59.59,0,0,1-.61-.58.61.61,0,0,1,.59-.61.6.6,0,0,1,.6.58.58.58,0,0,1-.58.61" transform="translate(0 0)"/><path class="fe51393b-89cd-4def-a4ca-1769ef53dfcf" d="M45.67,9.16a.6.6,0,0,1-1.19,0,.63.63,0,0,1,.6-.61.61.61,0,0,1,.59.62" transform="translate(0 0)"/><path class="fe51393b-89cd-4def-a4ca-1769ef53dfcf" d="M18.94,18.25a.58.58,0,0,1-.59-.59.6.6,0,0,1,1.19,0,.59.59,0,0,1-.6.59" transform="translate(0 0)"/><path class="fe51393b-89cd-4def-a4ca-1769ef53dfcf" d="M32.29,48.42a.58.58,0,0,1-.59-.59.6.6,0,0,1,.59-.6.62.62,0,0,1,.6.6.59.59,0,0,1-.6.59" transform="translate(0 0)"/><path class="fe51393b-89cd-4def-a4ca-1769ef53dfcf" d="M31.05,52.52a.59.59,0,0,1-.6.59.6.6,0,0,1,0-1.2.6.6,0,0,1,.59.61" transform="translate(0 0)"/><path class="fe51393b-89cd-4def-a4ca-1769ef53dfcf" d="M53.08,39.84a.58.58,0,0,1,.61.58.6.6,0,1,1-1.19,0,.58.58,0,0,1,.58-.6" transform="translate(0 0)"/><path class="fe51393b-89cd-4def-a4ca-1769ef53dfcf" d="M30.91,45.16a.62.62,0,0,1,.61.6.61.61,0,0,1-.6.6.58.58,0,0,1-.59-.59.6.6,0,0,1,.58-.61" transform="translate(0 0)"/><path class="fe51393b-89cd-4def-a4ca-1769ef53dfcf" d="M34.42,52.63a.58.58,0,0,1-.59.59.6.6,0,0,1-.6-.59.62.62,0,0,1,.6-.6.59.59,0,0,1,.59.6" transform="translate(0 0)"/><path class="fe51393b-89cd-4def-a4ca-1769ef53dfcf" d="M25.14,53.45a.59.59,0,0,1-.6-.59.62.62,0,0,1,.6-.6.6.6,0,0,1,.59.58.58.58,0,0,1-.59.61" transform="translate(0 0)"/><path class="fe51393b-89cd-4def-a4ca-1769ef53dfcf" d="M33.73,18.25a.6.6,0,0,1-.59.61.62.62,0,0,1-.6-.6.59.59,0,0,1,.6-.59.56.56,0,0,1,.59.58" transform="translate(0 0)"/><path class="fe51393b-89cd-4def-a4ca-1769ef53dfcf" d="M30.64,18.93a.57.57,0,0,1-.58-.6.6.6,0,0,1,.61-.59.63.63,0,0,1,.58.6.61.61,0,0,1-.61.59" transform="translate(0 0)"/><path class="fe51393b-89cd-4def-a4ca-1769ef53dfcf" d="M23.49,53.58a.58.58,0,0,1-.61.58.6.6,0,0,1-.58-.6.6.6,0,0,1,.61-.59.58.58,0,0,1,.58.61" transform="translate(0 0)"/><path class="fe51393b-89cd-4def-a4ca-1769ef53dfcf" d="M27.87,53.7a.57.57,0,0,1,.59-.59.58.58,0,0,1,.6.58.62.62,0,0,1-.6.6.6.6,0,0,1-.59-.59" transform="translate(0 0)"/><path class="fe51393b-89cd-4def-a4ca-1769ef53dfcf" d="M21.14,54a.6.6,0,0,1-.61.58A.59.59,0,0,1,20,54a.58.58,0,0,1,.6-.58.6.6,0,0,1,.59.61" transform="translate(0 0)"/><path class="fe51393b-89cd-4def-a4ca-1769ef53dfcf" d="M31.66,1.34a.61.61,0,0,1-.6.61.6.6,0,1,1,.6-.61" transform="translate(0 0)"/><path class="fe51393b-89cd-4def-a4ca-1769ef53dfcf" d="M27,12.82a.58.58,0,0,1-.59-.6.59.59,0,0,1,.6-.59.62.62,0,0,1,.59.59.6.6,0,0,1-.6.6" transform="translate(0 0)"/><path class="fe51393b-89cd-4def-a4ca-1769ef53dfcf" d="M23.37,55.42a.6.6,0,0,1,.59-.61.6.6,0,0,1,.61.59A.63.63,0,0,1,24,56a.61.61,0,0,1-.59-.58" transform="translate(0 0)"/><path class="fe51393b-89cd-4def-a4ca-1769ef53dfcf" d="M36.46,6.67a.59.59,0,0,1-.6.6.6.6,0,0,1-.59-.58.62.62,0,0,1,.62-.62.61.61,0,0,1,.57.6" transform="translate(0 0)"/><path class="fe51393b-89cd-4def-a4ca-1769ef53dfcf" d="M23.82,12.86a.58.58,0,0,1,.59.59.6.6,0,1,1-.59-.59" transform="translate(0 0)"/><path class="fe51393b-89cd-4def-a4ca-1769ef53dfcf" d="M43.65,13.43a.59.59,0,0,1,.62-.57.59.59,0,0,1,.57.59.6.6,0,1,1-1.19,0" transform="translate(0 0)"/><path class="fe51393b-89cd-4def-a4ca-1769ef53dfcf" d="M7.83,12.36a.57.57,0,0,1-.59-.59.6.6,0,0,1,.59-.6.62.62,0,0,1,.6.6.6.6,0,0,1-.6.59" transform="translate(0 0)"/><path class="fe51393b-89cd-4def-a4ca-1769ef53dfcf" d="M10.18,14.13a.59.59,0,0,1-.6.59A.6.6,0,0,1,9,14.14a.6.6,0,0,1,.59-.61.59.59,0,0,1,.6.6" transform="translate(0 0)"/><path class="fe51393b-89cd-4def-a4ca-1769ef53dfcf" d="M40.59,48.56a.6.6,0,0,1-.58.59.62.62,0,0,1-.61-.6A.6.6,0,0,1,40,48a.58.58,0,0,1,.58.61" transform="translate(0 0)"/><path class="fe51393b-89cd-4def-a4ca-1769ef53dfcf" d="M29.12,7.61a.6.6,0,0,1,0-1.19.63.63,0,0,1,.63.61.6.6,0,0,1-.59.58" transform="translate(0 0)"/><path class="fe51393b-89cd-4def-a4ca-1769ef53dfcf" d="M14.27,10.9a.59.59,0,0,1,.59-.6.6.6,0,0,1,.6.6.61.61,0,0,1-.58.59.6.6,0,0,1-.61-.59" transform="translate(0 0)"/><path class="fe51393b-89cd-4def-a4ca-1769ef53dfcf" d="M21.56,44.73a.59.59,0,0,1-.59.6.61.61,0,0,1-.6-.59.6.6,0,0,1,.59-.6.59.59,0,0,1,.6.59" transform="translate(0 0)"/><path class="fe51393b-89cd-4def-a4ca-1769ef53dfcf" d="M41,6.29a.59.59,0,0,1-.59.61.6.6,0,0,1,0-1.19.58.58,0,0,1,.61.58" transform="translate(0 0)"/><path class="fe51393b-89cd-4def-a4ca-1769ef53dfcf" d="M46.74,9.9a.58.58,0,0,1,.59-.59.6.6,0,0,1,.6.59.61.61,0,0,1-.59.6.6.6,0,0,1-.6-.6" transform="translate(0 0)"/><path class="fe51393b-89cd-4def-a4ca-1769ef53dfcf" d="M5.3,14.88a.58.58,0,0,1-.61-.57.6.6,0,1,1,1.19,0,.58.58,0,0,1-.58.6" transform="translate(0 0)"/><path class="fe51393b-89cd-4def-a4ca-1769ef53dfcf" d="M33.82,44.2a.57.57,0,0,1,.6-.58.59.59,0,0,1,.59.6.62.62,0,0,1-.61.59.59.59,0,0,1-.58-.61" transform="translate(0 0)"/><path class="fe51393b-89cd-4def-a4ca-1769ef53dfcf" d="M5.71,12.47a.58.58,0,0,1-.59-.6.6.6,0,0,1,1.19,0,.59.59,0,0,1-.6.59" transform="translate(0 0)"/><path class="fe51393b-89cd-4def-a4ca-1769ef53dfcf" d="M22.06,13.21a.58.58,0,0,1-.61.59.6.6,0,0,1-.58-.59.62.62,0,0,1,.6-.6.6.6,0,0,1,.59.6" transform="translate(0 0)"/><path class="fe51393b-89cd-4def-a4ca-1769ef53dfcf" d="M14.11,15.68a.61.61,0,0,1-.61-.59.62.62,0,0,1,.6-.6.6.6,0,0,1,.59.58.58.58,0,0,1-.58.61" transform="translate(0 0)"/><path class="fe51393b-89cd-4def-a4ca-1769ef53dfcf" d="M8.76,43.93a.59.59,0,0,1-.59.6.59.59,0,0,1-.6-.59.62.62,0,0,1,.58-.6.6.6,0,0,1,.61.59" transform="translate(0 0)"/><path class="fe51393b-89cd-4def-a4ca-1769ef53dfcf" d="M23.44,43.8a.59.59,0,0,1-.59.59.62.62,0,0,1-.6-.6.6.6,0,0,1,.6-.59.59.59,0,0,1,.59.6" transform="translate(0 0)"/><path class="fe51393b-89cd-4def-a4ca-1769ef53dfcf" d="M23.73,6.05a.6.6,0,0,1-.61.59.6.6,0,0,1,0-1.2.6.6,0,0,1,.59.61" transform="translate(0 0)"/><path class="fe51393b-89cd-4def-a4ca-1769ef53dfcf" d="M48.62,44.08a.6.6,0,0,1,0-1.2.6.6,0,0,1,.59.6.59.59,0,0,1-.59.6" transform="translate(0 0)"/><path class="fe51393b-89cd-4def-a4ca-1769ef53dfcf" d="M30.23,49.4a.59.59,0,0,1,.59-.6.6.6,0,0,1,.6.59.62.62,0,0,1-.59.61.61.61,0,0,1-.6-.6" transform="translate(0 0)"/><path class="fe51393b-89cd-4def-a4ca-1769ef53dfcf" d="M48.5,13a.6.6,0,1,1,1.19,0,.61.61,0,0,1-.6.59.6.6,0,0,1-.59-.6" transform="translate(0 0)"/><path class="fe51393b-89cd-4def-a4ca-1769ef53dfcf" d="M15.15,44a.59.59,0,0,1-.59-.61.6.6,0,1,1,.59.61" transform="translate(0 0)"/><path class="fe51393b-89cd-4def-a4ca-1769ef53dfcf" d="M20.44,47.19a.62.62,0,0,1,.61-.6.62.62,0,0,1,.58.62.6.6,0,0,1-1.19,0" transform="translate(0 0)"/><path class="fe51393b-89cd-4def-a4ca-1769ef53dfcf" d="M13,42.59a.56.56,0,0,1,.59.58.58.58,0,0,1-.58.6.61.61,0,0,1-.61-.59.59.59,0,0,1,.6-.59" transform="translate(0 0)"/><path class="fe51393b-89cd-4def-a4ca-1769ef53dfcf" d="M31,5.37a.58.58,0,0,1,.58.6.58.58,0,0,1-.6.58.6.6,0,0,1-.59-.6A.59.59,0,0,1,31,5.37" transform="translate(0 0)"/><path class="fe51393b-89cd-4def-a4ca-1769ef53dfcf" d="M33.67,5.13a.59.59,0,0,1-.59.6.6.6,0,0,1-.6-.6.61.61,0,0,1,.58-.59.6.6,0,0,1,.61.59" transform="translate(0 0)"/><path class="fe51393b-89cd-4def-a4ca-1769ef53dfcf" d="M44.28,43.63a.58.58,0,0,1-.61-.57.6.6,0,1,1,1.19,0,.58.58,0,0,1-.58.6" transform="translate(0 0)"/><path class="fe51393b-89cd-4def-a4ca-1769ef53dfcf" d="M17,50.71a.58.58,0,0,1-.59-.59.6.6,0,1,1,1.19,0,.59.59,0,0,1-.6.59" transform="translate(0 0)"/><path class="fe51393b-89cd-4def-a4ca-1769ef53dfcf" d="M33.79,28a.6.6,0,0,1,0-1.19.62.62,0,0,1,.59.61.61.61,0,0,1-.61.58" transform="translate(0 0)"/><path class="fe51393b-89cd-4def-a4ca-1769ef53dfcf" d="M41,31.32a.57.57,0,0,1-.6.58.6.6,0,0,1-.59-.58.62.62,0,0,1,.59-.61.6.6,0,0,1,.6.61" transform="translate(0 0)"/><path class="fe51393b-89cd-4def-a4ca-1769ef53dfcf" d="M43.53,31.86a.59.59,0,0,1-.61-.58.62.62,0,0,1,.59-.61.6.6,0,0,1,.6.59.58.58,0,0,1-.58.6" transform="translate(0 0)"/><path class="fe51393b-89cd-4def-a4ca-1769ef53dfcf" d="M32.53,25a.57.57,0,0,1-.6.58.59.59,0,0,1-.59-.59.61.61,0,0,1,.6-.59.59.59,0,0,1,.59.6" transform="translate(0 0)"/><path class="fe51393b-89cd-4def-a4ca-1769ef53dfcf" d="M42.65,24.87a.6.6,0,0,1-.62.57.62.62,0,0,1-.57-.63.59.59,0,0,1,.63-.56.58.58,0,0,1,.56.62" transform="translate(0 0)"/><path class="fe51393b-89cd-4def-a4ca-1769ef53dfcf" d="M1.55,28.12a.58.58,0,0,1,.57.61.59.59,0,0,1-.59.58.6.6,0,1,1,0-1.19" transform="translate(0 0)"/><path class="fe51393b-89cd-4def-a4ca-1769ef53dfcf" d="M13,37.85a.6.6,0,1,1-.59.6.59.59,0,0,1,.59-.6" transform="translate(0 0)"/><path class="fe51393b-89cd-4def-a4ca-1769ef53dfcf" d="M53.71,23.05a.57.57,0,0,1,.6-.58.59.59,0,0,1,.59.6.62.62,0,0,1-.6.58.58.58,0,0,1-.59-.6" transform="translate(0 0)"/><path class="fe51393b-89cd-4def-a4ca-1769ef53dfcf" d="M25.41,23.77a.6.6,0,1,1-.6.61.6.6,0,0,1,.6-.61" transform="translate(0 0)"/><path class="fe51393b-89cd-4def-a4ca-1769ef53dfcf" d="M16.78,22.52a.59.59,0,0,1,.59.6.61.61,0,0,1-.6.6.63.63,0,0,1-.59-.59.6.6,0,0,1,.6-.61" transform="translate(0 0)"/><path class="fe51393b-89cd-4def-a4ca-1769ef53dfcf" d="M17,32.17a.59.59,0,0,1,.58-.61.61.61,0,0,1,.6.6.6.6,0,0,1-.58.59.57.57,0,0,1-.6-.58" transform="translate(0 0)"/><path class="fe51393b-89cd-4def-a4ca-1769ef53dfcf" d="M40.42,24.32a.59.59,0,0,1-.58.61.61.61,0,0,1-.61-.59.62.62,0,0,1,.59-.61.6.6,0,0,1,.6.59" transform="translate(0 0)"/><path class="fe51393b-89cd-4def-a4ca-1769ef53dfcf" d="M46.76,30.84a.59.59,0,0,1-.59.6.62.62,0,0,1-.6-.6.61.61,0,0,1,.6-.59.58.58,0,0,1,.59.59" transform="translate(0 0)"/><path class="fe51393b-89cd-4def-a4ca-1769ef53dfcf" d="M52.51,38a.59.59,0,0,1,.6-.59.6.6,0,0,1,.6.59.62.62,0,0,1-.6.6.6.6,0,0,1-.6-.6" transform="translate(0 0)"/><path class="fe51393b-89cd-4def-a4ca-1769ef53dfcf" d="M3.09,38.47a.57.57,0,0,1-.58-.6.6.6,0,0,1,.58-.59.63.63,0,0,1,.61.6.6.6,0,0,1-.61.59" transform="translate(0 0)"/><path class="fe51393b-89cd-4def-a4ca-1769ef53dfcf" d="M6.27,24a.6.6,0,0,1-.61-.59.63.63,0,0,1,.6-.6.61.61,0,0,1,.6.6.58.58,0,0,1-.59.59" transform="translate(0 0)"/><path class="fe51393b-89cd-4def-a4ca-1769ef53dfcf" d="M28.27,28.2a.58.58,0,0,1,.59-.59.6.6,0,0,1,.6.6.63.63,0,0,1-.6.6.6.6,0,0,1-.59-.61" transform="translate(0 0)"/><path class="fe51393b-89cd-4def-a4ca-1769ef53dfcf" d="M50,27.36a.59.59,0,0,1-.6.59.62.62,0,0,1-.59-.62.6.6,0,0,1,.6-.57.58.58,0,0,1,.59.6" transform="translate(0 0)"/><path class="fe51393b-89cd-4def-a4ca-1769ef53dfcf" d="M21.58,36.3a.58.58,0,0,1,.59.6.6.6,0,0,1-.57.6.64.64,0,0,1-.62-.6.6.6,0,0,1,.6-.6" transform="translate(0 0)"/><path class="fe51393b-89cd-4def-a4ca-1769ef53dfcf" d="M30,37.59a.59.59,0,0,1-.6.59.6.6,0,0,1,0-1.19.58.58,0,0,1,.59.6" transform="translate(0 0)"/><path class="fe51393b-89cd-4def-a4ca-1769ef53dfcf" d="M29.35,24.82a.59.59,0,0,1-.6-.59.61.61,0,0,1,.61-.59.6.6,0,0,1,.58.59.58.58,0,0,1-.59.59" transform="translate(0 0)"/><path class="fe51393b-89cd-4def-a4ca-1769ef53dfcf" d="M38.58,22.36a.57.57,0,0,1-.61.57.61.61,0,0,1-.58-.61.63.63,0,0,1,.62-.58.59.59,0,0,1,.57.62" transform="translate(0 0)"/><path class="fe51393b-89cd-4def-a4ca-1769ef53dfcf" d="M53.65,32.32a.58.58,0,0,1,.59-.59.59.59,0,0,1,.6.59.62.62,0,0,1-.6.6.6.6,0,0,1-.59-.6" transform="translate(0 0)"/><path class="fe51393b-89cd-4def-a4ca-1769ef53dfcf" d="M29.19,31.81a.57.57,0,0,1,.59-.6.59.59,0,0,1,.6.59.6.6,0,0,1-.6.59.59.59,0,0,1-.59-.58" transform="translate(0 0)"/><path class="fe51393b-89cd-4def-a4ca-1769ef53dfcf" d="M41.92,30.38a.59.59,0,0,1-.59-.6.6.6,0,1,1,1.19,0,.59.59,0,0,1-.6.59" transform="translate(0 0)"/><path class="fe51393b-89cd-4def-a4ca-1769ef53dfcf" d="M53.37,19.39a.57.57,0,0,1,.6-.57.59.59,0,0,1,.58.61.59.59,0,0,1-1.18,0" transform="translate(0 0)"/><path class="fe51393b-89cd-4def-a4ca-1769ef53dfcf" d="M9.43,34.11a.57.57,0,0,1-.58.6.59.59,0,0,1-.6-.6.61.61,0,0,1,.58-.59.59.59,0,0,1,.6.59" transform="translate(0 0)"/><path class="fe51393b-89cd-4def-a4ca-1769ef53dfcf" d="M29.42,25.89a.58.58,0,0,1,.6.59.59.59,0,0,1-.6.6.64.64,0,0,1-.6-.59.61.61,0,0,1,.6-.6" transform="translate(0 0)"/><path class="fe51393b-89cd-4def-a4ca-1769ef53dfcf" d="M3.78,19.64a.58.58,0,0,1-.58.6.6.6,0,0,1-.6-.6.61.61,0,0,1,.58-.59.58.58,0,0,1,.6.59" transform="translate(0 0)"/><path class="fe51393b-89cd-4def-a4ca-1769ef53dfcf" d="M37.39,40.43a.58.58,0,0,1-.58-.6.59.59,0,0,1,.6-.59.61.61,0,0,1,.59.6.6.6,0,0,1-.61.59" transform="translate(0 0)"/><path class="fe51393b-89cd-4def-a4ca-1769ef53dfcf" d="M31.93,29.17a.59.59,0,0,1,.6-.59.6.6,0,0,1,.59.61.62.62,0,0,1-.61.59.61.61,0,0,1-.58-.61" transform="translate(0 0)"/><path class="fe51393b-89cd-4def-a4ca-1769ef53dfcf" d="M40.4,19.43A.61.61,0,0,1,41,20a.62.62,0,0,1-.6.61.6.6,0,0,1-.59-.58.59.59,0,0,1,.57-.61" transform="translate(0 0)"/><path class="fe51393b-89cd-4def-a4ca-1769ef53dfcf" d="M12,35.94a.6.6,0,0,1,.59-.61.6.6,0,0,1,.6.6.61.61,0,0,1-.58.59.6.6,0,0,1-.61-.58" transform="translate(0 0)"/><path class="fe51393b-89cd-4def-a4ca-1769ef53dfcf" d="M52.93,33.35a.59.59,0,0,1-.61.55.62.62,0,0,1-.58-.63.62.62,0,0,1,.64-.56.59.59,0,0,1,.55.64" transform="translate(0 0)"/><path class="fe51393b-89cd-4def-a4ca-1769ef53dfcf" d="M14.58,29.07a.59.59,0,0,1-.59.6.62.62,0,0,1-.6-.6.6.6,0,0,1,.61-.59.57.57,0,0,1,.58.59" transform="translate(0 0)"/><path class="fe51393b-89cd-4def-a4ca-1769ef53dfcf" d="M42.55,20.82a.59.59,0,0,1-.6-.59.61.61,0,0,1,.6-.59.6.6,0,0,1,.59.59.57.57,0,0,1-.59.59" transform="translate(0 0)"/><path class="fe51393b-89cd-4def-a4ca-1769ef53dfcf" d="M30.57,22.86a.56.56,0,0,1,.58-.57.6.6,0,0,1,.61.59.62.62,0,0,1-.61.59.58.58,0,0,1-.58-.61" transform="translate(0 0)"/><path class="fe51393b-89cd-4def-a4ca-1769ef53dfcf" d="M4.5,26.26a.6.6,0,0,1,.61-.58.62.62,0,0,1,.58.59.6.6,0,0,1-.6.6.58.58,0,0,1-.59-.61" transform="translate(0 0)"/><path class="fe51393b-89cd-4def-a4ca-1769ef53dfcf" d="M2,34.32a.58.58,0,0,1,.58-.59.57.57,0,0,1,.61.57.6.6,0,1,1-1.19,0" transform="translate(0 0)"/><path class="fe51393b-89cd-4def-a4ca-1769ef53dfcf" d="M47.26,39a.61.61,0,0,1-.59.61.62.62,0,0,1-.6-.61.6.6,0,0,1,.6-.59.58.58,0,0,1,.59.59" transform="translate(0 0)"/><path class="fe51393b-89cd-4def-a4ca-1769ef53dfcf" d="M6.16,34.36a.61.61,0,0,1-.59.6.6.6,0,0,1,0-1.19.6.6,0,0,1,.6.59" transform="translate(0 0)"/><path class="fe51393b-89cd-4def-a4ca-1769ef53dfcf" d="M55.17,29.4a.6.6,0,0,1,0-1.19.61.61,0,0,1,.61.59.6.6,0,0,1-.6.6" transform="translate(0 0)"/><path class="fe51393b-89cd-4def-a4ca-1769ef53dfcf" d="M49.1,30.12a.59.59,0,0,1-.59.6.61.61,0,0,1-.6-.61.63.63,0,0,1,.59-.59.6.6,0,0,1,.6.6" transform="translate(0 0)"/><path class="fe51393b-89cd-4def-a4ca-1769ef53dfcf" d="M50.82,35.67a.6.6,0,1,1,0,1.19.6.6,0,0,1,0-1.19" transform="translate(0 0)"/><path class="fe51393b-89cd-4def-a4ca-1769ef53dfcf" d="M12.7,21.28a.6.6,0,0,1,0-1.19.62.62,0,0,1,.61.59.61.61,0,0,1-.59.6" transform="translate(0 0)"/><path class="fe51393b-89cd-4def-a4ca-1769ef53dfcf" d="M34.41,49.56a.59.59,0,0,1-.58.61.6.6,0,0,1-.6-.6.6.6,0,0,1,.58-.59.58.58,0,0,1,.6.58" transform="translate(0 0)"/><path class="fe51393b-89cd-4def-a4ca-1769ef53dfcf" d="M37.91,13.91a.58.58,0,0,1-.59-.6.6.6,0,0,1,.59-.59.62.62,0,0,1,.6.6.59.59,0,0,1-.6.59" transform="translate(0 0)"/><path class="fe51393b-89cd-4def-a4ca-1769ef53dfcf" d="M24.42,35a.62.62,0,0,1-.61.6.63.63,0,0,1-.58-.6.59.59,0,0,1,.6-.6.58.58,0,0,1,.59.6" transform="translate(0 0)"/><path class="fe51393b-89cd-4def-a4ca-1769ef53dfcf" d="M38,32.4a.6.6,0,0,1,.6-.59.61.61,0,0,1,.59.61.6.6,0,0,1-.61.58.57.57,0,0,1-.58-.6" transform="translate(0 0)"/><path class="fe51393b-89cd-4def-a4ca-1769ef53dfcf" d="M50.14,10.94a.6.6,0,0,1-.6.59.62.62,0,0,1-.59-.61.59.59,0,0,1,.61-.58.58.58,0,0,1,.58.6" transform="translate(0 0)"/><path class="fe51393b-89cd-4def-a4ca-1769ef53dfcf" d="M43.33,6.51a.57.57,0,0,1-.58.6.59.59,0,0,1-.61-.57.6.6,0,0,1,.58-.61.59.59,0,0,1,.61.58" transform="translate(0 0)"/><path class="fe51393b-89cd-4def-a4ca-1769ef53dfcf" d="M32.3,11.11a.58.58,0,0,1-.6-.59.6.6,0,0,1,.59-.6.61.61,0,0,1,.6.6.6.6,0,0,1-.59.59" transform="translate(0 0)"/><path class="fe51393b-89cd-4def-a4ca-1769ef53dfcf" d="M35.15,47.27a.58.58,0,0,1,.59.59.6.6,0,1,1-1.19,0,.58.58,0,0,1,.6-.58" transform="translate(0 0)"/><path class="fe51393b-89cd-4def-a4ca-1769ef53dfcf" d="M55,25.12a.58.58,0,0,1,.6-.59.6.6,0,0,1,.59.61.61.61,0,0,1-.59.58.6.6,0,0,1-.6-.6" transform="translate(0 0)"/><path class="fe51393b-89cd-4def-a4ca-1769ef53dfcf" d="M43.09,34.18a.58.58,0,0,1,.59.59.6.6,0,0,1-.6.59.62.62,0,0,1-.6-.6.6.6,0,0,1,.61-.58" transform="translate(0 0)"/><path class="fe51393b-89cd-4def-a4ca-1769ef53dfcf" d="M39.44,26.2a.59.59,0,0,1-.59.59.61.61,0,0,1-.6-.59.6.6,0,0,1,.6-.6.59.59,0,0,1,.59.6" transform="translate(0 0)"/><path class="fe51393b-89cd-4def-a4ca-1769ef53dfcf" d="M53.54,26.63a.58.58,0,0,1,.59-.59.6.6,0,0,1,.59.61.59.59,0,0,1-.59.57.56.56,0,0,1-.59-.59" transform="translate(0 0)"/><path class="fe51393b-89cd-4def-a4ca-1769ef53dfcf" d="M17,34.77a.58.58,0,0,1-.58-.6.62.62,0,0,1,.61-.59.61.61,0,0,1,.58.62.58.58,0,0,1-.61.57" transform="translate(0 0)"/><path class="fe51393b-89cd-4def-a4ca-1769ef53dfcf" d="M49.71,34.09a.57.57,0,0,1,.58-.6.61.61,0,0,1,.61.59.63.63,0,0,1-.58.6.6.6,0,0,1-.61-.59" transform="translate(0 0)"/><path class="fe51393b-89cd-4def-a4ca-1769ef53dfcf" d="M10,47.51a.59.59,0,1,1,0-1.18.58.58,0,0,1,.6.59.58.58,0,0,1-.6.59" transform="translate(0 0)"/><path class="fe51393b-89cd-4def-a4ca-1769ef53dfcf" d="M43,47.91a.58.58,0,0,1-.58-.6.61.61,0,0,1,.61-.59.6.6,0,0,1,.58.61.59.59,0,0,1-.61.58" transform="translate(0 0)"/><path class="fe51393b-89cd-4def-a4ca-1769ef53dfcf" d="M25.21,7.79a.59.59,0,0,1-.61.58A.6.6,0,0,1,24,7.75a.62.62,0,0,1,.6-.57.6.6,0,0,1,.59.61" transform="translate(0 0)"/><path class="fe51393b-89cd-4def-a4ca-1769ef53dfcf" d="M38.56,53.25a.58.58,0,0,1,.59-.6.6.6,0,0,1,.6.6.62.62,0,0,1-.58.59.59.59,0,0,1-.61-.59" transform="translate(0 0)"/><path class="fe51393b-89cd-4def-a4ca-1769ef53dfcf" d="M1.26,19.9a.62.62,0,0,1,.6.6.64.64,0,0,1-.61.59.58.58,0,0,1-.58-.6.58.58,0,0,1,.59-.59" transform="translate(0 0)"/><path class="fe51393b-89cd-4def-a4ca-1769ef53dfcf" d="M32.22,15.77a.57.57,0,0,1,.6.58.6.6,0,0,1-.59.61.62.62,0,0,1-.6-.58.6.6,0,0,1,.59-.61" transform="translate(0 0)"/><path class="fe51393b-89cd-4def-a4ca-1769ef53dfcf" d="M24.3,20.7a.6.6,0,0,1-.59.61.62.62,0,0,1-.6-.6.59.59,0,0,1,.58-.59.58.58,0,0,1,.61.58" transform="translate(0 0)"/><path class="fe51393b-89cd-4def-a4ca-1769ef53dfcf" d="M47.42,17.62a.59.59,0,0,1-.58-.61.6.6,0,0,1,.61-.58A.61.61,0,0,1,48,17a.59.59,0,0,1-.61.58" transform="translate(0 0)"/><path class="fe51393b-89cd-4def-a4ca-1769ef53dfcf" d="M45.44,16.77a.58.58,0,0,1-.59-.6.57.57,0,0,1,.57-.59.61.61,0,0,1,.62.58.62.62,0,0,1-.6.61" transform="translate(0 0)"/><path class="fe51393b-89cd-4def-a4ca-1769ef53dfcf" d="M9.67,28.17a.6.6,0,0,1,.61.59.62.62,0,0,1-.61.6.61.61,0,0,1-.59-.61.6.6,0,0,1,.59-.58" transform="translate(0 0)"/><path class="fe51393b-89cd-4def-a4ca-1769ef53dfcf" d="M36.68,52.27a.59.59,0,0,1,.58-.61.6.6,0,0,1,.61.58.62.62,0,0,1-.59.61.59.59,0,0,1-.6-.58" transform="translate(0 0)"/><path class="fe51393b-89cd-4def-a4ca-1769ef53dfcf" d="M35.82,20.4a.57.57,0,0,1,.59.58.59.59,0,0,1-.58.61.62.62,0,0,1-.61-.59.61.61,0,0,1,.6-.6" transform="translate(0 0)"/><path class="fe51393b-89cd-4def-a4ca-1769ef53dfcf" d="M47.24,27.83a.59.59,0,1,1-.59.6.59.59,0,0,1,.59-.6" transform="translate(0 0)"/><path class="fe51393b-89cd-4def-a4ca-1769ef53dfcf" d="M42.42,38.2a.59.59,0,0,1-.61.58.61.61,0,0,1-.59-.61.62.62,0,0,1,.62-.58.59.59,0,0,1,.58.61" transform="translate(0 0)"/><path class="fe51393b-89cd-4def-a4ca-1769ef53dfcf" d="M18.78,16.08a.59.59,0,0,1-.6-.58.61.61,0,0,1,.59-.6.61.61,0,0,1,.6.59.57.57,0,0,1-.59.59" transform="translate(0 0)"/><path class="fe51393b-89cd-4def-a4ca-1769ef53dfcf" d="M41.29,16a.58.58,0,0,1-.6-.59.61.61,0,0,1,.6-.6.63.63,0,0,1,.59.58.6.6,0,0,1-.59.61" transform="translate(0 0)"/><path class="fe51393b-89cd-4def-a4ca-1769ef53dfcf" d="M6.08,43.4a.58.58,0,0,1-.6-.6.61.61,0,0,1,.58-.59.62.62,0,0,1,.62.59.59.59,0,0,1-.6.6" transform="translate(0 0)"/><path class="fe51393b-89cd-4def-a4ca-1769ef53dfcf" d="M27.27,20.4a.57.57,0,0,1-.59.59.6.6,0,0,1-.6-.57.63.63,0,0,1,.59-.62.59.59,0,0,1,.6.6" transform="translate(0 0)"/><path class="fe51393b-89cd-4def-a4ca-1769ef53dfcf" d="M33.88,2.57a.57.57,0,0,1,.6-.57.58.58,0,0,1,.59.59.63.63,0,0,1-.61.6.61.61,0,0,1-.58-.62" transform="translate(0 0)"/><path class="fe51393b-89cd-4def-a4ca-1769ef53dfcf" d="M19.76,3.91a.6.6,0,0,1,0-1.2.62.62,0,0,1,.6.61.6.6,0,0,1-.61.59" transform="translate(0 0)"/><path class="fe51393b-89cd-4def-a4ca-1769ef53dfcf" d="M36.13,53.94a.59.59,0,0,1-.63.56.61.61,0,0,1-.56-.62.62.62,0,0,1,.63-.57.59.59,0,0,1,.56.63" transform="translate(0 0)"/><path class="fe51393b-89cd-4def-a4ca-1769ef53dfcf" d="M46.46,42.81a.59.59,0,0,1,.6.59.61.61,0,0,1-.6.6.62.62,0,0,1-.6-.6.59.59,0,0,1,.6-.59" transform="translate(0 0)"/><path class="fe51393b-89cd-4def-a4ca-1769ef53dfcf" d="M20.86,22.82a.6.6,0,0,1,0-1.19.62.62,0,0,1,.61.6.6.6,0,0,1-.61.59" transform="translate(0 0)"/><path class="fe51393b-89cd-4def-a4ca-1769ef53dfcf" d="M39.76,22.25a.58.58,0,0,1,.6-.59.6.6,0,0,1,.6.57.62.62,0,0,1-.59.61.6.6,0,0,1-.61-.59" transform="translate(0 0)"/><path class="fe51393b-89cd-4def-a4ca-1769ef53dfcf" d="M49,15a.58.58,0,0,1-.61.59.6.6,0,0,1,0-1.19.59.59,0,0,1,.6.6" transform="translate(0 0)"/><path class="fe51393b-89cd-4def-a4ca-1769ef53dfcf" d="M34.58,14.92a.59.59,0,0,1-.58.61.62.62,0,0,1-.61-.57.6.6,0,0,1,.58-.62.58.58,0,0,1,.61.58" transform="translate(0 0)"/><path class="fe51393b-89cd-4def-a4ca-1769ef53dfcf" d="M50,29.16a.59.59,0,0,1,.59-.6.6.6,0,0,1,0,1.19.58.58,0,0,1-.61-.59" transform="translate(0 0)"/><path class="fe51393b-89cd-4def-a4ca-1769ef53dfcf" d="M52,22.87a.58.58,0,0,1-.61.58.6.6,0,0,1-.58-.59.61.61,0,0,1,.6-.6.6.6,0,0,1,.59.61" transform="translate(0 0)"/><path class="fe51393b-89cd-4def-a4ca-1769ef53dfcf" d="M26.85.58A.58.58,0,0,1,27.46,0,.6.6,0,0,1,28,.59a.62.62,0,0,1-.61.6.59.59,0,0,1-.58-.61" transform="translate(0 0)"/><path class="fe51393b-89cd-4def-a4ca-1769ef53dfcf" d="M18.75,5a.6.6,0,0,1-.6.6A.62.62,0,0,1,17.56,5a.59.59,0,0,1,.59-.58.58.58,0,0,1,.6.59" transform="translate(0 0)"/><path class="fe51393b-89cd-4def-a4ca-1769ef53dfcf" d="M9.05,32a.6.6,0,0,1-.59-.61A.6.6,0,0,1,9,30.76a.6.6,0,1,1,0,1.2" transform="translate(0 0)"/><path class="fe51393b-89cd-4def-a4ca-1769ef53dfcf" d="M23.66,22.77a.61.61,0,0,1-.61.59.62.62,0,0,1-.59-.62.6.6,0,0,1,.6-.57.59.59,0,0,1,.6.6" transform="translate(0 0)"/><path class="fe51393b-89cd-4def-a4ca-1769ef53dfcf" d="M34.18,55.41a.59.59,0,0,1-.61.58.62.62,0,0,1-.58-.62.6.6,0,0,1,.6-.57.58.58,0,0,1,.59.61" transform="translate(0 0)"/><path class="fe51393b-89cd-4def-a4ca-1769ef53dfcf" d="M45.39,29.29a.59.59,0,0,1-1.18-.06.59.59,0,1,1,1.18.06" transform="translate(0 0)"/><path class="fe51393b-89cd-4def-a4ca-1769ef53dfcf" d="M25.26,2.31a.58.58,0,0,1-.58-.61.59.59,0,0,1,.59-.57.6.6,0,0,1,.6.6.59.59,0,0,1-.61.58" transform="translate(0 0)"/><path class="fe51393b-89cd-4def-a4ca-1769ef53dfcf" d="M11.6,6.91a.58.58,0,0,1,.58.61.59.59,0,0,1-.59.57.61.61,0,0,1-.6-.6.59.59,0,0,1,.61-.58" transform="translate(0 0)"/><path class="fe51393b-89cd-4def-a4ca-1769ef53dfcf" d="M19.81,28.9a.6.6,0,0,1,.62-.58.61.61,0,0,1,.57.6.59.59,0,0,1-.6.59.6.6,0,0,1-.59-.61" transform="translate(0 0)"/><path class="fe51393b-89cd-4def-a4ca-1769ef53dfcf" d="M34.93,32.93a.6.6,0,0,1-.59.61.61.61,0,0,1-.59-.58.59.59,0,0,1,.58-.61.57.57,0,0,1,.6.58" transform="translate(0 0)"/><path class="fe51393b-89cd-4def-a4ca-1769ef53dfcf" d="M30.85,27a.58.58,0,0,1,.61-.58A.6.6,0,0,1,32,27a.62.62,0,0,1-.61.6.59.59,0,0,1-.58-.61" transform="translate(0 0)"/><path class="fe51393b-89cd-4def-a4ca-1769ef53dfcf" d="M47.28,33.23a.59.59,0,1,1,0-1.18.6.6,0,0,1,.6.6.6.6,0,0,1-.59.58" transform="translate(0 0)"/><path class="fe51393b-89cd-4def-a4ca-1769ef53dfcf" d="M26,31.15a.6.6,0,0,1,.6-.6.6.6,0,0,1,0,1.2.6.6,0,0,1-.6-.6" transform="translate(0 0)"/><path class="fe51393b-89cd-4def-a4ca-1769ef53dfcf" d="M5.67,31.79a.56.56,0,0,1-.6-.58.59.59,0,0,1,.59-.6.61.61,0,0,1,.6.57.6.6,0,0,1-.59.61" transform="translate(0 0)"/><path class="fe51393b-89cd-4def-a4ca-1769ef53dfcf" d="M13.15,30.57a.59.59,0,0,1,.58.61.62.62,0,0,1-.61.59.64.64,0,0,1-.59-.62.61.61,0,0,1,.62-.58" transform="translate(0 0)"/><path class="fe51393b-89cd-4def-a4ca-1769ef53dfcf" d="M42,50a.59.59,0,0,1-.59-.6.61.61,0,0,1,.59-.59.59.59,0,0,1,.6.6A.58.58,0,0,1,42,50" transform="translate(0 0)"/><path class="fe51393b-89cd-4def-a4ca-1769ef53dfcf" d="M12.29,50.26a.58.58,0,0,1-.6-.59.6.6,0,0,1,1.19,0,.59.59,0,0,1-.59.6" transform="translate(0 0)"/><path class="fe51393b-89cd-4def-a4ca-1769ef53dfcf" d="M26.16,50.54a.58.58,0,0,1-.58-.61.6.6,0,0,1,.59-.57.59.59,0,0,1,.59.6.57.57,0,0,1-.6.58" transform="translate(0 0)"/><path class="fe51393b-89cd-4def-a4ca-1769ef53dfcf" d="M28,4.45a.6.6,0,1,1,0,1.19.6.6,0,0,1,0-1.19" transform="translate(0 0)"/><path class="fe51393b-89cd-4def-a4ca-1769ef53dfcf" d="M46.94,14.1a.59.59,0,0,1-.59.6.6.6,0,0,1-.6-.6.63.63,0,0,1,.6-.6.6.6,0,0,1,.59.6" transform="translate(0 0)"/><path class="fe51393b-89cd-4def-a4ca-1769ef53dfcf" d="M14.24,22.57a.59.59,0,0,1-.59.6.6.6,0,0,1,0-1.19.6.6,0,0,1,.61.59" transform="translate(0 0)"/><path class="fe51393b-89cd-4def-a4ca-1769ef53dfcf" d="M30.86,15.28a.58.58,0,0,1-.59-.6.6.6,0,0,1,.58-.59.62.62,0,0,1,.61.59.59.59,0,0,1-.6.6" transform="translate(0 0)"/><path class="fe51393b-89cd-4def-a4ca-1769ef53dfcf" d="M41.65,43.89a.58.58,0,0,1,.59.6.6.6,0,0,1-.6.59.62.62,0,0,1-.59-.62.6.6,0,0,1,.6-.57" transform="translate(0 0)"/><path class="fe51393b-89cd-4def-a4ca-1769ef53dfcf" d="M48.05,36.72a.58.58,0,0,1,.59-.6.59.59,0,0,1,.6.59.62.62,0,0,1-.61.6.6.6,0,0,1-.58-.59" transform="translate(0 0)"/><path class="fe51393b-89cd-4def-a4ca-1769ef53dfcf" d="M45.88,21.71a.55.55,0,0,1,.61-.56.57.57,0,0,1,.57.58.59.59,0,0,1-.6.59.58.58,0,0,1-.58-.61" transform="translate(0 0)"/><path class="fe51393b-89cd-4def-a4ca-1769ef53dfcf" d="M50.74,43.91a.59.59,0,0,1-.6-.59.62.62,0,0,1,.61-.6.6.6,0,0,1,.58.59.58.58,0,0,1-.59.6" transform="translate(0 0)"/><path class="fe51393b-89cd-4def-a4ca-1769ef53dfcf" d="M21.67,15.3a.58.58,0,0,1-.59.61.6.6,0,0,1-.6-.6.61.61,0,0,1,.58-.59.6.6,0,0,1,.61.58" transform="translate(0 0)"/><path class="fe51393b-89cd-4def-a4ca-1769ef53dfcf" d="M17.27,43.86a.57.57,0,0,1-.6-.58.6.6,0,0,1,.59-.61.61.61,0,0,1,.6.58.6.6,0,0,1-.59.61" transform="translate(0 0)"/><path class="fe51393b-89cd-4def-a4ca-1769ef53dfcf" d="M19.3,42.23a.58.58,0,0,1,.6.6.6.6,0,0,1-.6.6.61.61,0,0,1-.58-.59.59.59,0,0,1,.58-.61" transform="translate(0 0)"/><path class="fe51393b-89cd-4def-a4ca-1769ef53dfcf" d="M42.79,15.61A.57.57,0,0,1,43.4,15a.59.59,0,0,1,.57.61.61.61,0,0,1-.59.58.6.6,0,0,1-.59-.61" transform="translate(0 0)"/><path class="fe51393b-89cd-4def-a4ca-1769ef53dfcf" d="M53.09,16.36a.58.58,0,0,1-.6-.59.6.6,0,0,1,1.19,0,.58.58,0,0,1-.59.61" transform="translate(0 0)"/><path class="fe51393b-89cd-4def-a4ca-1769ef53dfcf" d="M44.56,20.23a.57.57,0,0,1,.6.58.6.6,0,0,1-.59.61.61.61,0,0,1-.6-.59.59.59,0,0,1,.59-.6" transform="translate(0 0)"/><path class="fe51393b-89cd-4def-a4ca-1769ef53dfcf" d="M16.45,16.71a.57.57,0,0,1-.58-.6.6.6,0,0,1,.61-.59.61.61,0,0,1,.58.6.59.59,0,0,1-.61.59" transform="translate(0 0)"/><path class="fe51393b-89cd-4def-a4ca-1769ef53dfcf" d="M28.9,16.59a.58.58,0,0,1,.6-.59.58.58,0,0,1,.58.61.59.59,0,1,1-1.18,0" transform="translate(0 0)"/><path class="fe51393b-89cd-4def-a4ca-1769ef53dfcf" d="M51.62,40.93a.57.57,0,0,1-.61.58.59.59,0,0,1-.57-.59.59.59,0,0,1,.6-.59.57.57,0,0,1,.58.6" transform="translate(0 0)"/><path class="fe51393b-89cd-4def-a4ca-1769ef53dfcf" d="M3.66,17.22a.6.6,0,0,1-.6.6.62.62,0,0,1-.59-.62.6.6,0,0,1,.6-.57.57.57,0,0,1,.59.59" transform="translate(0 0)"/><path class="fe51393b-89cd-4def-a4ca-1769ef53dfcf" d="M33,40.26a.58.58,0,0,1-.59-.6.59.59,0,0,1,.6-.59.63.63,0,0,1,.59.59.6.6,0,0,1-.6.6" transform="translate(0 0)"/><path class="fe51393b-89cd-4def-a4ca-1769ef53dfcf" d="M38.19,20.82a.58.58,0,0,1-.6-.59.6.6,0,0,1,1.19,0,.59.59,0,0,1-.59.59" transform="translate(0 0)"/><path class="fe51393b-89cd-4def-a4ca-1769ef53dfcf" d="M38.47,18.07a.59.59,0,0,1-.58.6.6.6,0,1,1,0-1.19.58.58,0,0,1,.59.59" transform="translate(0 0)"/><path class="fe51393b-89cd-4def-a4ca-1769ef53dfcf" d="M51.74,19.56a.59.59,0,0,1-.6.59.61.61,0,0,1-.6-.59.62.62,0,0,1,.6-.6.59.59,0,0,1,.6.6" transform="translate(0 0)"/><path class="fe51393b-89cd-4def-a4ca-1769ef53dfcf" d="M10.35,39.83a.56.56,0,0,1-.58.6.59.59,0,1,1,0-1.17.57.57,0,0,1,.61.57" transform="translate(0 0)"/><path class="fe51393b-89cd-4def-a4ca-1769ef53dfcf" d="M36.3,18.93a.59.59,0,0,1-.6.56.61.61,0,0,1-.58-.62.6.6,0,0,1,.63-.57.57.57,0,0,1,.55.63" transform="translate(0 0)"/><path class="fe51393b-89cd-4def-a4ca-1769ef53dfcf" d="M30,34.07a.6.6,0,0,1-.61.6.6.6,0,1,1,0-1.19.59.59,0,0,1,.6.59" transform="translate(0 0)"/><path class="fe51393b-89cd-4def-a4ca-1769ef53dfcf" d="M31.89,33.48a.59.59,0,0,1,.58.61.6.6,0,0,1-.6.59.62.62,0,0,1-.59-.61.61.61,0,0,1,.61-.59" transform="translate(0 0)"/><path class="fe51393b-89cd-4def-a4ca-1769ef53dfcf" d="M31.77,8.71a.57.57,0,0,1-.58-.6.58.58,0,0,1,.59-.58.61.61,0,0,1,.6.59.59.59,0,0,1-.61.59" transform="translate(0 0)"/><path class="fe51393b-89cd-4def-a4ca-1769ef53dfcf" d="M8.35,46a.6.6,0,0,1-.59.61.62.62,0,0,1-.6-.61.6.6,0,0,1,.58-.59.59.59,0,0,1,.61.59" transform="translate(0 0)"/><path class="fe51393b-89cd-4def-a4ca-1769ef53dfcf" d="M48.07,45.21a.6.6,0,0,1,0,1.19.62.62,0,0,1-.6-.6.6.6,0,0,1,.61-.59" transform="translate(0 0)"/><path class="fe51393b-89cd-4def-a4ca-1769ef53dfcf" d="M52.28,24.66a.59.59,0,0,1,.59-.61.6.6,0,0,1,.6.6.61.61,0,0,1-.58.59.59.59,0,0,1-.61-.58" transform="translate(0 0)"/><path class="fe51393b-89cd-4def-a4ca-1769ef53dfcf" d="M37.7,10.86a.58.58,0,0,1,.61-.58.59.59,0,0,1,.58.61.6.6,0,0,1-.6.58.6.6,0,0,1-.59-.61" transform="translate(0 0)"/><path class="fe51393b-89cd-4def-a4ca-1769ef53dfcf" d="M20.19,11.37a.58.58,0,0,1-.6.6.6.6,0,0,1-.59-.61.62.62,0,0,1,.59-.58.59.59,0,0,1,.6.59" transform="translate(0 0)"/><path class="fe51393b-89cd-4def-a4ca-1769ef53dfcf" d="M36.82,11.34a.59.59,0,0,1-.6.59.6.6,0,0,1-.58-.59.59.59,0,0,1,.59-.6.58.58,0,0,1,.59.6" transform="translate(0 0)"/><path class="fe51393b-89cd-4def-a4ca-1769ef53dfcf" d="M10,11.31a.58.58,0,0,1,.56.63.6.6,0,0,1-1.19-.07.58.58,0,0,1,.63-.56" transform="translate(0 0)"/><path class="fe51393b-89cd-4def-a4ca-1769ef53dfcf" d="M4.8,36.07a.58.58,0,0,1-.6.59.61.61,0,0,1-.58-.59.62.62,0,0,1,.6-.61.59.59,0,0,1,.58.61" transform="translate(0 0)"/><path class="fe51393b-89cd-4def-a4ca-1769ef53dfcf" d="M7.84,35.78a.58.58,0,0,1-.58.61.59.59,0,1,1,0-1.18.57.57,0,0,1,.61.57" transform="translate(0 0)"/><path class="fe51393b-89cd-4def-a4ca-1769ef53dfcf" d="M42.11,13.68a.58.58,0,0,1-.59-.6.6.6,0,0,1,.62-.58.59.59,0,0,1,.57.59.58.58,0,0,1-.6.59" transform="translate(0 0)"/><path class="fe51393b-89cd-4def-a4ca-1769ef53dfcf" d="M40,12.46a.57.57,0,0,1,.6.58.6.6,0,1,1-1.19,0,.58.58,0,0,1,.59-.59" transform="translate(0 0)"/><path class="fe51393b-89cd-4def-a4ca-1769ef53dfcf" d="M47.56,12a.58.58,0,0,1-.6.6.6.6,0,0,1-.59-.6.62.62,0,0,1,.59-.59.59.59,0,0,1,.6.59" transform="translate(0 0)"/><path class="fe51393b-89cd-4def-a4ca-1769ef53dfcf" d="M42.56,27.89a.59.59,0,0,1,.61-.58.6.6,0,0,1,.58.6.6.6,0,1,1-1.19,0" transform="translate(0 0)"/><path class="fe51393b-89cd-4def-a4ca-1769ef53dfcf" d="M12.79,4.79a.6.6,0,0,1,.61.59.6.6,0,0,1-.57.6.6.6,0,0,1-.62-.58.58.58,0,0,1,.58-.61" transform="translate(0 0)"/><path class="fe51393b-89cd-4def-a4ca-1769ef53dfcf" d="M20.11,40.66a.59.59,0,0,1-.59-.6.6.6,0,0,1,1.19,0,.59.59,0,0,1-.6.6" transform="translate(0 0)"/><path class="fe51393b-89cd-4def-a4ca-1769ef53dfcf" d="M31.68,38.87a.59.59,0,1,1-.61-.59.59.59,0,0,1,.61.59" transform="translate(0 0)"/></g></g></g></svg>