<svg xmlns="http://www.w3.org/2000/svg" width="175.012" height="61.019" viewBox="0 0 175.012 61.019">
  <g id="Grupo_555" data-name="Grupo 555" transform="translate(0 -0.001)">
    <path id="Trazado_1" data-name="Trazado 1" d="M103.485,515.268v-7.684l-2.776,7.684H99.032l-2.777-7.684v7.684H92.491V502.486h5.2l2.18,6.132,2.18-6.132h5.2v12.782Z" transform="translate(-28.576 -500.944)" fill="#334060"/>
    <path id="Trazado_2" data-name="Trazado 2" d="M119.805,515.268V502.486h9.429v3.373h-5.665v1.265H129.1V510.5h-5.535v1.4h5.665v3.373Z" transform="translate(-39.12 -500.944)" fill="#334060"/>
    <path id="Trazado_3" data-name="Trazado 3" d="M144.69,515.268l-2.273-3.91-2.274,3.91h-4.435l4.155-6.554-3.876-6.228H140.4l2.013,3.641,1.975-3.641h4.454L144.97,508.7l4.155,6.573Z" transform="translate(-45.256 -500.944)" fill="#334060"/>
    <path id="Trazado_4" data-name="Trazado 4" d="M158.651,515.268V502.486h3.764v12.782Z" transform="translate(-54.112 -500.944)" fill="#334060"/>
    <path id="Trazado_5" data-name="Trazado 5" d="M166.966,508.754a6.479,6.479,0,0,1,6.839-6.611,5.8,5.8,0,0,1,5.647,3.717l-3.243,1.552a2.647,2.647,0,0,0-2.4-1.859,3.205,3.205,0,0,0,0,6.4,2.647,2.647,0,0,0,2.4-1.859l3.243,1.533a5.873,5.873,0,0,1-5.647,3.737A6.49,6.49,0,0,1,166.966,508.754Z" transform="translate(-57.321 -500.812)" fill="#334060"/>
    <path id="Trazado_6" data-name="Trazado 6" d="M196.357,515.268l-.447-1.495h-4.473l-.447,1.495h-4.268l4.584-12.782h4.733l4.584,12.782Zm-2.683-8.988-1.23,4.12h2.46Z" transform="translate(-64.946 -500.944)" fill="#334060"/>
    <path id="Trazado_7" data-name="Trazado 7" d="M218.8,515.268l-4.584-6.477v6.477h-3.764V502.486h3.876l4.323,6.056v-6.056h3.765v12.782Z" transform="translate(-74.106 -500.944)" fill="#334060"/>
    <path id="Trazado_8" data-name="Trazado 8" d="M232.125,508.754a6.8,6.8,0,1,1,6.8,6.611A6.49,6.49,0,0,1,232.125,508.754Zm9.783,0a2.989,2.989,0,1,0-2.982,3.2A2.989,2.989,0,0,0,241.909,508.754Z" transform="translate(-82.469 -500.812)" fill="#334060"/>
    <path id="Trazado_9" data-name="Trazado 9" d="M254.917,513.346l1.956-2.874a5.712,5.712,0,0,0,4.007,1.648c.708,0,1.379-.192,1.379-.69,0-1.227-6.933.019-6.933-5.021,0-2.165,1.752-4.235,5.162-4.235a8.054,8.054,0,0,1,5.274,1.783l-2.013,2.74a6.167,6.167,0,0,0-3.652-1.264c-.745,0-.951.249-.951.575,0,1.207,6.913.173,6.913,4.925,0,2.817-2.031,4.446-5.367,4.446A8.053,8.053,0,0,1,254.917,513.346Z" transform="translate(-91.266 -500.824)" fill="#334060"/>
    <path id="Trazado_18" data-name="Trazado 18" d="M91.9,563.353a5.707,5.707,0,0,1,6.025-5.824A5.112,5.112,0,0,1,102.9,560.8l-2.857,1.367a2.333,2.333,0,0,0-2.118-1.638,2.824,2.824,0,0,0,0,5.639,2.332,2.332,0,0,0,2.118-1.637l2.857,1.35a5.173,5.173,0,0,1-4.975,3.292A5.717,5.717,0,0,1,91.9,563.353Z" transform="translate(-28.351 -522.189)" fill="#334060"/>
    <path id="Trazado_19" data-name="Trazado 19" d="M110.807,563.353a5.995,5.995,0,1,1,5.992,5.824A5.718,5.718,0,0,1,110.807,563.353Zm8.619,0a2.633,2.633,0,1,0-2.627,2.819A2.634,2.634,0,0,0,119.426,563.353Z" transform="translate(-35.646 -522.189)" fill="#334060"/>
    <path id="Trazado_20" data-name="Trazado 20" d="M138.542,569.091l-1.51-3.545h-1.2v3.545h-3.316v-11.26h5.844a3.692,3.692,0,0,1,3.94,3.866,3.639,3.639,0,0,1-1.97,3.41l1.986,3.984Zm.394-7.411c0-.608-.525-.878-1.084-.878h-2.019v1.773h2.019C138.411,562.575,138.936,562.3,138.936,561.68Z" transform="translate(-44.026 -522.305)" fill="#334060"/>
    <path id="Trazado_21" data-name="Trazado 21" d="M156.937,569.091l-1.51-3.545h-1.2v3.545h-3.316v-11.26h5.844a3.692,3.692,0,0,1,3.94,3.866,3.639,3.639,0,0,1-1.97,3.41l1.986,3.984Zm.394-7.411c0-.608-.525-.878-1.083-.878h-2.02v1.773h2.02C156.806,562.575,157.331,562.3,157.331,561.68Z" transform="translate(-51.126 -522.305)" fill="#334060"/>
    <path id="Trazado_22" data-name="Trazado 22" d="M169.307,564.466v-6.635h3.366v6.517a2.047,2.047,0,0,0,4.088,0v-6.517h3.366v6.617c0,2.8-1.708,4.845-5.4,4.845S169.307,567.252,169.307,564.466Z" transform="translate(-58.225 -522.305)" fill="#334060"/>
    <path id="Trazado_23" data-name="Trazado 23" d="M190.082,569.091v-11.26h5.844a3.859,3.859,0,1,1,0,7.715H193.4v3.545ZM196.5,561.7a.883.883,0,0,0-1-.895h-2.1v1.773h2.1C196.058,562.575,196.5,562.288,196.5,561.7Z" transform="translate(-66.244 -522.305)" fill="#334060"/>
    <path id="Trazado_24" data-name="Trazado 24" d="M207.086,563.353a5.708,5.708,0,0,1,6.026-5.824,5.11,5.11,0,0,1,4.974,3.275l-2.857,1.367a2.333,2.333,0,0,0-2.118-1.638,2.824,2.824,0,0,0,0,5.639,2.333,2.333,0,0,0,2.118-1.637l2.857,1.35a5.172,5.172,0,0,1-4.974,3.292A5.718,5.718,0,0,1,207.086,563.353Z" transform="translate(-72.805 -522.189)" fill="#334060"/>
    <path id="Trazado_25" data-name="Trazado 25" d="M226.952,569.091v-11.26h3.316v11.26Z" transform="translate(-80.474 -522.305)" fill="#334060"/>
    <path id="Trazado_26" data-name="Trazado 26" d="M234.545,561.294a5.995,5.995,0,1,1,5.992,5.824A5.718,5.718,0,0,1,234.545,561.294Zm8.619,0a2.633,2.633,0,1,0-2.627,2.819A2.633,2.633,0,0,0,243.164,561.294Zm-2.233-6.668h-1.97l1.97-2.431h2.545Z" transform="translate(-83.404 -520.13)" fill="#334060"/>
    <path id="Trazado_27" data-name="Trazado 27" d="M263.611,569.091l-4.039-5.706v5.706h-3.316v-11.26h3.415l3.809,5.335v-5.335H266.8v11.26Z" transform="translate(-91.784 -522.305)" fill="#334060"/>
    <path id="Trazado_28" data-name="Trazado 28" d="M94.243,591.413v-3.483l-3.2-5.284h2.9l1.585,2.958,1.56-2.958H100l-3.17,5.284v3.483Z" transform="translate(-28.021 -531.882)" fill="#334060"/>
    <path id="Trazado_29" data-name="Trazado 29" d="M113.219,591.413v-8.768H115.8V589.1h3.234v2.314Z" transform="translate(-36.578 -531.882)" fill="#334060"/>
    <path id="Trazado_30" data-name="Trazado 30" d="M130.259,591.413l-.307-1.025h-3.068l-.307,1.025h-2.928l3.145-8.768h3.247l3.144,8.768Zm-1.841-6.165-.844,2.826h1.687Z" transform="translate(-40.603 -531.882)" fill="#334060"/>
    <path id="Trazado_31" data-name="Trazado 31" d="M146.779,591.413v-8.768h2.582v8.768Z" transform="translate(-49.531 -531.882)" fill="#334060"/>
    <path id="Trazado_32" data-name="Trazado 32" d="M161.545,591.413v-5.271l-1.9,5.271H158.49l-1.9-5.271v5.271H154v-8.768h3.566l1.5,4.206,1.5-4.206h3.566v8.768Z" transform="translate(-52.318 -531.882)" fill="#334060"/>
    <path id="Trazado_33" data-name="Trazado 33" d="M173.51,591.413v-8.768h4.551a3,3,0,1,1,0,6.007h-1.969v2.761Zm5-5.758a.688.688,0,0,0-.78-.7h-1.636v1.38h1.636C178.163,586.338,178.508,586.116,178.508,585.655Z" transform="translate(-59.847 -531.882)" fill="#334060"/>
    <path id="Trazado_34" data-name="Trazado 34" d="M188.062,587.811v-5.166h2.621v5.074a1.594,1.594,0,0,0,3.183,0v-5.074h2.621V587.8c0,2.182-1.329,3.773-4.206,3.773S188.062,589.98,188.062,587.811Z" transform="translate(-65.464 -531.882)" fill="#334060"/>
    <path id="Trazado_35" data-name="Trazado 35" d="M210.527,591.413l-3.145-4.443v4.443H204.8v-8.768h2.659l2.966,4.154v-4.154h2.582v8.768Z" transform="translate(-71.924 -531.882)" fill="#334060"/>
    <path id="Trazado_36" data-name="Trazado 36" d="M221.185,591.413v-8.768h2.582v8.768Z" transform="translate(-78.248 -531.882)" fill="#334060"/>
    <path id="Trazado_37" data-name="Trazado 37" d="M228.409,591.413v-8.768h3.81c2.685,0,4.679,1.577,4.679,4.377s-1.994,4.39-4.666,4.39Zm5.868-4.39a1.891,1.891,0,0,0-2.045-2.064h-1.24v4.14h1.227A2,2,0,0,0,234.277,587.022Z" transform="translate(-81.036 -531.882)" fill="#334060"/>
    <path id="Trazado_38" data-name="Trazado 38" d="M248.988,591.413l-.307-1.025h-3.068l-.307,1.025h-2.928l3.145-8.768h3.247l3.144,8.768Zm-1.841-6.165-.844,2.826h1.687Z" transform="translate(-86.427 -531.882)" fill="#334060"/>
    <path id="Trazado_39" data-name="Trazado 39" d="M259.429,591.413v-8.768h3.81c2.685,0,4.679,1.577,4.679,4.377s-1.994,4.39-4.666,4.39Zm5.868-4.39a1.891,1.891,0,0,0-2.045-2.064h-1.24v4.14h1.227A2,2,0,0,0,265.3,587.022Z" transform="translate(-93.009 -531.882)" fill="#334060"/>
    <path id="Trazado_10" data-name="Trazado 10" d="M91.4,536.12a6.535,6.535,0,0,1,6.9-6.668,5.853,5.853,0,0,1,5.7,3.75l-3.271,1.565a2.672,2.672,0,0,0-2.425-1.875,3.233,3.233,0,0,0,0,6.456,2.672,2.672,0,0,0,2.425-1.875L104,539.02a5.923,5.923,0,0,1-5.7,3.77A6.547,6.547,0,0,1,91.4,536.12Z" transform="translate(-28.157 -511.352)" fill="#e54e56"/>
    <path id="Trazado_11" data-name="Trazado 11" d="M113.6,536.12a6.864,6.864,0,1,1,6.861,6.669A6.547,6.547,0,0,1,113.6,536.12Zm9.869,0a3.015,3.015,0,1,0-3.008,3.228A3.015,3.015,0,0,0,123.469,536.12Z" transform="translate(-36.724 -511.352)" fill="#e54e56"/>
    <path id="Trazado_12" data-name="Trazado 12" d="M147.433,542.691l-4.625-6.533v6.533h-3.8V529.8h3.91l4.361,6.108V529.8h3.8v12.893Z" transform="translate(-46.532 -511.486)" fill="#e54e56"/>
    <path id="Trazado_13" data-name="Trazado 13" d="M165.093,542.691V533.2h-3.365v-3.4h10.509v3.4H168.89v9.491Z" transform="translate(-55.3 -511.486)" fill="#e54e56"/>
    <path id="Trazado_14" data-name="Trazado 14" d="M188.8,542.691l-1.729-4.059H185.7v4.059h-3.8V529.8H188.6a4.227,4.227,0,0,1,4.512,4.427,4.166,4.166,0,0,1-2.256,3.9l2.275,4.562Zm.451-8.486c0-.7-.6-1.005-1.241-1.005H185.7v2.03h2.312C188.652,535.23,189.254,534.92,189.254,534.2Z" transform="translate(-63.085 -511.486)" fill="#e54e56"/>
    <path id="Trazado_15" data-name="Trazado 15" d="M211.033,542.691l-.451-1.508h-4.512l-.451,1.508h-4.305l4.625-12.893h4.775l4.625,12.893Zm-2.707-9.066-1.241,4.156h2.482Z" transform="translate(-70.578 -511.486)" fill="#e54e56"/>
    <path id="Trazado_16" data-name="Trazado 16" d="M234.776,542.691V529.8h3.8v9.491h4.756v3.4Z" transform="translate(-83.493 -511.486)" fill="#e54e56"/>
    <path id="Trazado_17" data-name="Trazado 17" d="M259.559,542.691l-.451-1.508H254.6l-.451,1.508h-4.305l4.625-12.893h4.775l4.625,12.893Zm-2.707-9.066-1.241,4.156h2.482Z" transform="translate(-89.307 -511.486)" fill="#e54e56"/>
    <path id="Trazado_40" data-name="Trazado 40" d="M24.054,500.579a29.714,29.714,0,1,0,5.276,56.633l9.855,3.7a1.184,1.184,0,0,0,1.579-1.33l-1.689-8.826a29.713,29.713,0,0,0-15.021-50.182Zm13.337,33.042a19.666,19.666,0,1,1-15.343-23.2A19.665,19.665,0,0,1,37.391,533.621Z" transform="translate(11.598 -499.975)" fill="#e54e56"/>
    <path id="Trazado_41" data-name="Trazado 41" d="M40.65,539.258a5.229,5.229,0,0,1-5.469-8.573.521.521,0,0,0-.111-.815,12.328,12.328,0,1,0,6.274,9.831A.522.522,0,0,0,40.65,539.258Z" transform="translate(0.666 -510.907)" fill="#e54e56"/>
  </g>
</svg>
