<svg xmlns="http://www.w3.org/2000/svg" width="801.469" height="687.083" viewBox="0 0 801.469 687.083">
  <g id="Grupo_516" data-name="Grupo 516" transform="translate(0.003 0.15)">
    <rect id="Rectángulo_215" data-name="Rectángulo 215" width="114.495" height="114.495" transform="translate(228.99 343.33)" fill="#fef7e5"/>
    <rect id="Rectángulo_216" data-name="Rectángulo 216" width="114.495" height="114.494" transform="translate(686.97 228.837)" fill="#fef7e5"/>
    <rect id="Rectángulo_217" data-name="Rectángulo 217" width="114.495" height="114.495" transform="translate(686.97 -0.15)" fill="#fef7e5"/>
    <rect id="Rectángulo_218" data-name="Rectángulo 218" width="114.495" height="114.52" transform="translate(114.493 -0.15)" fill="#fef7e5"/>
    <rect id="Rectángulo_219" data-name="Rectángulo 219" width="114.495" height="114.495" transform="translate(228.988 -0.15)" fill="#fef7e5"/>
    <rect id="Rectángulo_220" data-name="Rectángulo 220" width="114.494" height="114.495" transform="translate(572.475 -0.15)" fill="#fef7e5"/>
    <path id="Trazado_992" data-name="Trazado 992" d="M1899.993,114.344h114.495L1899.993-.15Z" transform="translate(-1213.024)" fill="#e54e56"/>
    <rect id="Rectángulo_221" data-name="Rectángulo 221" width="114.496" height="114.495" transform="translate(457.979 -0.15)" fill="#fce371"/>
    <rect id="Rectángulo_222" data-name="Rectángulo 222" width="114.496" height="114.495" transform="translate(114.494 457.824)" fill="#fef7e5"/>
    <rect id="Rectángulo_223" data-name="Rectángulo 223" width="114.496" height="114.495" transform="translate(114.494 343.33)" fill="#e3b9ad"/>
    <rect id="Rectángulo_224" data-name="Rectángulo 224" width="114.495" height="114.494" transform="translate(343.483 572.329)" fill="#fef7e5"/>
    <rect id="Rectángulo_225" data-name="Rectángulo 225" width="114.494" height="114.494" transform="translate(572.475 114.343)" fill="#e54e56"/>
    <rect id="Rectángulo_226" data-name="Rectángulo 226" width="114.495" height="114.495" transform="translate(228.99 457.824)" fill="#e3b9ad"/>
    <rect id="Rectángulo_227" data-name="Rectángulo 227" width="114.495" height="114.494" transform="translate(114.493 228.837)" fill="#f6f7f9"/>
    <rect id="Rectángulo_228" data-name="Rectángulo 228" width="114.495" height="114.495" transform="translate(343.483 457.824)" fill="#fef7e5"/>
    <rect id="Rectángulo_229" data-name="Rectángulo 229" width="114.495" height="114.495" transform="translate(343.483 457.824)" fill="#fef7e5"/>
    <rect id="Rectángulo_230" data-name="Rectángulo 230" width="114.496" height="114.495" transform="translate(-0.003 457.824)" fill="#fce371"/>
    <path id="Trazado_993" data-name="Trazado 993" d="M0,1266.494v114.5h114.5Z" transform="translate(0 -808.67)" fill="#e54e56"/>
    <rect id="Rectángulo_231" data-name="Rectángulo 231" width="114.497" height="114.495" transform="translate(457.98 457.824)" fill="#334060"/>
    <rect id="Rectángulo_232" data-name="Rectángulo 232" width="114.496" height="114.505" transform="translate(-0.003 572.318)" fill="#fce371"/>
    <rect id="Rectángulo_233" data-name="Rectángulo 233" width="114.494" height="114.495" transform="translate(572.475 457.824)" fill="#aa0732"/>
    <rect id="Rectángulo_234" data-name="Rectángulo 234" width="114.496" height="114.495" transform="translate(-0.003 -0.15)" fill="#e3b9ad"/>
    <rect id="Rectángulo_235" data-name="Rectángulo 235" width="114.496" height="114.494" transform="translate(-0.003 228.837)" fill="#e54e56"/>
    <rect id="Rectángulo_236" data-name="Rectángulo 236" width="114.493" height="114.495" transform="translate(572.477 343.33)" fill="#e54e56"/>
    <rect id="Rectángulo_237" data-name="Rectángulo 237" width="114.495" height="114.519" transform="translate(114.493 114.343)" fill="#fef7e5"/>
    <path id="Trazado_994" data-name="Trazado 994" d="M455.685,316.511,355.079,431.03H455.685Z" transform="translate(-226.697 -202.168)" fill="#e3b9ad"/>
    <rect id="Rectángulo_238" data-name="Rectángulo 238" width="114.495" height="114.495" transform="translate(343.485 343.33)" fill="#fef7e5"/>
    <rect id="Rectángulo_239" data-name="Rectángulo 239" width="114.495" height="114.494" transform="translate(343.483 228.837)" fill="#fef7e5"/>
    <rect id="Rectángulo_240" data-name="Rectángulo 240" width="114.495" height="114.495" transform="translate(343.483 -0.15)" fill="#e3b9ad"/>
    <rect id="Rectángulo_241" data-name="Rectángulo 241" width="114.494" height="114.494" transform="translate(572.475 228.837)" fill="#fef7e5"/>
    <rect id="Rectángulo_242" data-name="Rectángulo 242" width="114.496" height="114.494" transform="translate(457.979 114.343)" fill="#fef7e5"/>
    <rect id="Rectángulo_243" data-name="Rectángulo 243" width="114.495" height="114.494" transform="translate(343.483 114.343)" fill="#e3b9ad"/>
    <rect id="Rectángulo_244" data-name="Rectángulo 244" width="114.496" height="114.494" transform="translate(-0.002 114.343)" fill="#fef7e5"/>
    <rect id="Rectángulo_245" data-name="Rectángulo 245" width="114.496" height="114.494" transform="translate(457.979 228.837)" fill="#e3b9ad"/>
    <rect id="Rectángulo_246" data-name="Rectángulo 246" width="114.495" height="114.494" transform="translate(228.988 228.837)" fill="#fce371"/>
    <path id="Trazado_995" data-name="Trazado 995" d="M316.668,949.833v114.494h114.5Z" transform="translate(-202.174 -606.503)" fill="#334060"/>
    <rect id="Rectángulo_247" data-name="Rectángulo 247" width="114.495" height="114.495" transform="translate(-0.001 343.33)" fill="#ca3442"/>
    <rect id="Rectángulo_248" data-name="Rectángulo 248" width="114.497" height="114.495" transform="translate(457.98 343.33)" fill="#e54e56"/>
    <rect id="Rectángulo_249" data-name="Rectángulo 249" width="114.496" height="114.505" transform="translate(114.494 572.318)" fill="#334060"/>
    <path id="Trazado_996" data-name="Trazado 996" d="M316.668,1697.662h114.5l-114.5-114.506Z" transform="translate(-202.174 -1010.838)" fill="#e54e56"/>
    <rect id="Rectángulo_250" data-name="Rectángulo 250" width="114.495" height="114.506" transform="translate(228.99 572.317)" fill="#334060"/>
    <rect id="Rectángulo_251" data-name="Rectángulo 251" width="114.496" height="114.494" transform="translate(457.979 572.329)" fill="#fef7e5"/>
    <rect id="Rectángulo_252" data-name="Rectángulo 252" width="114.495" height="114.494" transform="translate(686.97 114.343)" fill="#fce371"/>
    <rect id="Rectángulo_253" data-name="Rectángulo 253" width="114.495" height="114.495" transform="translate(686.97 457.824)" fill="#334060"/>
    <rect id="Rectángulo_254" data-name="Rectángulo 254" width="114.495" height="114.495" transform="translate(686.972 343.33)" fill="#334060"/>
    <rect id="Rectángulo_255" data-name="Rectángulo 255" width="114.495" height="114.494" transform="translate(686.969 572.329)" fill="#e54e56"/>
    <path id="Trazado_997" data-name="Trazado 997" d="M397.625,666.723a114.575,114.575,0,0,0-71.717-33.549l-9.243.032V747.668h114.5A114.108,114.108,0,0,0,397.625,666.723Z" transform="translate(-202.171 -404.336)" fill="#e54e56"/>
    <path id="Trazado_998" data-name="Trazado 998" d="M1381.157,1583.186v0a115.262,115.262,0,0,0-114.5,105.25l.032,9.243h228.958V1583.186Z" transform="translate(-808.682 -1010.857)" fill="#fce371"/>
    <path id="Trazado_999" data-name="Trazado 999" d="M1664.29,33.4A114.571,114.571,0,0,0,1592.573-.147l-9.243.032V114.347h114.494A114.112,114.112,0,0,0,1664.29,33.4Z" transform="translate(-1010.855 -0.002)" fill="#334060"/>
    <rect id="Rectángulo_256" data-name="Rectángulo 256" width="114.495" height="114.494" transform="translate(228.988 114.343)" fill="#e54e56"/>
    <path id="Trazado_1000" data-name="Trazado 1000" d="M740.661,292.944a4.122,4.122,0,0,1,4.127-4.127l16.063.005a4.12,4.12,0,0,1,4.119,4.129l6.6,82.352a4.131,4.131,0,0,1-4.128,4.131l-29.284-.009a4.126,4.126,0,0,1-4.124-4.129Z" transform="translate(-468.634 -184.487)" fill="#fce371"/>
    <g id="Grupo_514" data-name="Grupo 514" transform="translate(378.565 34.624)">
      <path id="Trazado_1001" data-name="Trazado 1001" d="M1104.069,124.564a28.523,28.523,0,1,1-28.519-28.538A28.532,28.532,0,0,1,1104.069,124.564Z" transform="translate(-1047.022 -96.026)" fill="#e54e56"/>
    </g>
    <g id="Grupo_515" data-name="Grupo 515" transform="translate(248.127 38.012)">
      <path id="Trazado_1002" data-name="Trazado 1002" d="M714.527,148.271A14.13,14.13,0,0,1,700.4,162.4h0a14.133,14.133,0,0,1-14.132-14.134l.011-28.734A14.139,14.139,0,0,1,700.415,105.4h0a14.134,14.134,0,0,1,14.123,14.144Z" transform="translate(-686.263 -105.397)" fill="#fce371"/>
    </g>
    <path id="Trazado_1003" data-name="Trazado 1003" d="M931.958,133.516c-48.164-37.864-87.3-36.622-117.1-35.98l.019-60.914c29.8.66,68.93,1.925,117.116-35.9Z" transform="translate(-520.235 -0.556)" fill="#fce371"/>
    <path id="Trazado_1004" data-name="Trazado 1004" d="M1130.477,133.274h0a4.679,4.679,0,0,1-4.676-4.684l.034-124.075a4.68,4.68,0,0,1,4.678-4.666h0a4.671,4.671,0,0,1,4.677,4.667l-.037,124.075A4.681,4.681,0,0,1,1130.477,133.274Z" transform="translate(-718.752 0)" fill="#fff"/>
    <path id="Trazado_1005" data-name="Trazado 1005" d="M735.418,275.579a4.119,4.119,0,0,1-4.12-4.126l0-10.446a4.117,4.117,0,0,1,4.118-4.124l32.477.005a4.127,4.127,0,0,1,4.125,4.124l0,10.447a4.126,4.126,0,0,1-4.127,4.127Z" transform="translate(-466.888 -164.1)" fill="#334060"/>
    <path id="Trazado_1006" data-name="Trazado 1006" d="M767.068,155.25A2.061,2.061,0,0,1,765,157.309l-52.03-.016a2.069,2.069,0,0,1-2.065-2.062l.021-60.709a2.065,2.065,0,0,1,2.06-2.074l52.039.02a2.068,2.068,0,0,1,2.065,2.068Z" transform="translate(-453.869 -59.118)" fill="#e54e56"/>
    <path id="Trazado_1007" data-name="Trazado 1007" d="M1083.241,1373.594l38.719,55.69h69.077l-7.208-87.141Z" transform="translate(-691.581 -856.967)" fill="#e3b9ad"/>
    <path id="Trazado_1008" data-name="Trazado 1008" d="M1079.308,1115.766c-7.895,21.711-31.9,39.311-53.607,39.311H996.867c-21.711,0-32.911-17.6-25.017-39.311l31.767-87.355c7.9-21.713,31.9-39.314,53.607-39.314h28.835c21.712,0,32.911,17.6,25.017,39.314Z" transform="translate(-618.85 -631.57)" fill="#e3b9ad"/>
    <path id="Trazado_1009" data-name="Trazado 1009" d="M997.809,1165.992c-3.7,4.237-18,23.3-21.7,27.539s-2.293,6.53,6.528,6.53h20.482Z" transform="translate(-621.955 -744.506)" fill="#e3b9ad"/>
    <path id="Trazado_1010" data-name="Trazado 1010" d="M1069.467,1285.268v-5.785c45.092,0,57.006-20.078,57.006-30.7,0-2.181-2.835-6.135-21.818-8.129-14.783-1.552-35.224-1.542-56.866-1.535h-4.824v-5.785h4.821c21.8-.009,42.387-.016,57.473,1.567,12.57,1.32,27,4.09,27,13.882,0,8.638-5.236,17.618-14.007,24.023C1107.09,1280.96,1090.222,1285.268,1069.467,1285.268Z" transform="translate(-665.868 -787.502)" fill="#b3d0f7"/>
    <path id="Trazado_1011" data-name="Trazado 1011" d="M988.581,1233.544c0,18.733,13.817,45.2,33.984,45.2,0,20.711-13.037,34.012-18.257,40.112-67.506,0-55.71-57.137-55.71-85.309Z" transform="translate(-605.115 -787.634)" fill="#b3d0f7"/>
    <path id="Trazado_1012" data-name="Trazado 1012" d="M1384.413,983.379A114.567,114.567,0,0,0,1312.7,949.83l-46.035.032,36.792,114.463h114.494A114.1,114.1,0,0,0,1384.413,983.379Z" transform="translate(-808.682 -606.5)" fill="#334060"/>
    <path id="Trazado_1013" data-name="Trazado 1013" d="M1294.757,1373.6l56.147,55.689h32.632l-7.207-87.141Z" transform="translate(-826.62 -856.972)" fill="#e3b9ad"/>
    <path id="Trazado_1014" data-name="Trazado 1014" d="M1127.694,949.83h-36.546a48.5,48.5,0,0,0-48.183,44.291l.013,3.892h45.855c-.016.643-.036,1.285-.036,1.933,0,45.074,7.769,79.956,39.47,79.956,21.8,0,39.47-50.051,39.47-79.956S1164.806,949.83,1127.694,949.83Z" transform="translate(-665.868 -606.5)" fill="#334060"/>
    <path id="Trazado_1015" data-name="Trazado 1015" d="M1346.643,1120.3c-7.9,21.711-31.9,39.311-53.608,39.311h-19.219c-21.711,0-32.912-17.6-25.016-39.311l31.766-87.355c7.9-21.713,31.9-36.749,53.607-36.749h19.219c21.711,0,32.91,15.036,25.018,36.749Z" transform="translate(-795.664 -636.1)" fill="#e3b9ad"/>
    <path id="Trazado_1016" data-name="Trazado 1016" d="M1274.759,1165.992c-3.7,4.237-18,23.3-21.706,27.539s-2.292,6.53,6.528,6.53h20.482Z" transform="translate(-798.77 -744.506)" fill="#e3b9ad"/>
    <path id="Trazado_1017" data-name="Trazado 1017" d="M1353.188,1285.269v-5.785c25.151,0,40.732-6.244,49.375-11.482,11.236-6.81,15.223-14.607,15.223-19.214,0-1.349-1.831-5.923-25.39-8.126-16.634-1.554-39.129-1.548-60.885-1.538h-4.825v-5.785h4.822c21.888-.006,44.521-.017,61.425,1.563,14.264,1.333,30.637,4.116,30.637,13.885,0,8.294-6.733,17.326-18.01,24.162C1396.288,1278.569,1379.675,1285.269,1353.188,1285.269Z" transform="translate(-847.005 -787.502)" fill="#b3d0f7"/>
    <path id="Trazado_1018" data-name="Trazado 1018" d="M1272.3,1233.544c0,18.733,13.817,45.2,33.983,45.2,0,20.711-13.037,34.012-18.257,40.112-67.506,0-55.71-57.137-55.71-85.309Z" transform="translate(-786.252 -787.634)" fill="#b3d0f7"/>
    <path id="Trazado_1019" data-name="Trazado 1019" d="M1647.116,1236.234H1503.905V1039.759h60.744l82.467,81.979Z" transform="translate(-960.148 -663.914)" fill="#fff"/>
    <path id="Trazado_1020" data-name="Trazado 1020" d="M1664.292,1024.8a114.564,114.564,0,0,0-71.717-33.548l-9.243.031v114.463h114.494A114.1,114.1,0,0,0,1664.292,1024.8Z" transform="translate(-1010.856 -632.947)" fill="#fff"/>
    <path id="Trazado_1021" data-name="Trazado 1021" d="M1425.3,1027.935V990.918c-14.748,0-89.5-5.573-89.5,37.018Z" transform="translate(-852.828 -632.579)" fill="#fff"/>
    <rect id="Rectángulo_257" data-name="Rectángulo 257" width="82.998" height="75.024" transform="translate(-0.002 153.814)" fill="#e3b9ad"/>
    <path id="Trazado_1022" data-name="Trazado 1022" d="M121.736,269.2A26.17,26.17,0,0,1,121,263.08a26.559,26.559,0,0,1,26.558-26.557c2.235,0,6.468.7,6.468-3.1V216.107H163.2c3.69,0-2.795-11.332-5.255-14.612s-3.919-11.069-3.919-16.4V134.933s-48.378,2.05-50.427,1.64S48.251,174.7,48.251,174.7L24.471,243.575,0,278.832H113.139c7.292,0,8.56-1.127,8.56-5.548C121.7,272.555,121.736,270.554,121.736,269.2Z" transform="translate(0 -86.242)" fill="#e3b9ad"/>
    <path id="Trazado_1023" data-name="Trazado 1023" d="M111.114-.15C22.731-.15,0,22.016,0,102v89.752c41.507,0,50.3-21.741,50.3-36.465,0-5.977-1.925-14.349,5.254-14.349,21.654,0,24.675-6.56,24.675-13.94V99.937c0-27.058,18.068-35.787,30.885-35.787,37.1,0,72.151-8.741,72.151-64.3Z" transform="translate(0 0)" fill="#334060"/>
    <path id="Trazado_1024" data-name="Trazado 1024" d="M177.449,390.538c-17.326,0-31.45-3.728-40.844-10.78-7.393-5.55-11.807-13.267-11.807-20.644a8.764,8.764,0,0,1,2.661-6.407c6.7-6.69,25.24-6.672,55.964-6.636q3.158,0,6.457,0v5.785q-3.3,0-6.463,0c-26.186-.029-46.869-.051-51.869,4.944a3.051,3.051,0,0,0-.964,2.314c0,2.085.685,9.4,9.495,16.018,8.385,6.295,21.307,9.622,37.371,9.622Z" transform="translate(-79.677 -221.036)" fill="#b3d0f7"/>
    <path id="Trazado_1025" data-name="Trazado 1025" d="M241.821,346.828c0,15.562-13.58,37.545-30.333,37.545,0,17.205,10.83,28.254,15.167,33.322,63.234,0,78.953-41.311,78.953-70.867Z" transform="translate(-135.023 -221.523)" fill="#b3d0f7"/>
    <path id="Trazado_1026" data-name="Trazado 1026" d="M144.229,348.411a13.324,13.324,0,0,1-13.324,13.324h0a13.324,13.324,0,0,1-13.325-13.324V326.275a13.324,13.324,0,0,1,13.325-13.324h0a13.323,13.323,0,0,1,13.324,13.324Z" transform="translate(-75.069 -199.895)" fill="#e3b9ad"/>
    <path id="Trazado_1027" data-name="Trazado 1027" d="M590.936,740.589s-25.827,20.187-57.687,20.187-57.688-20.187-57.688-20.187,20.681-39.015,57.688-39.015C569.7,701.574,590.936,740.589,590.936,740.589Z" transform="translate(-303.617 -448.005)" fill="#334060"/>
    <path id="Trazado_1028" data-name="Trazado 1028" d="M590.936,763.537s-25.827,26.016-57.687,26.016-57.688-26.016-57.688-26.016,25.828-26.019,57.688-26.019S590.936,763.537,590.936,763.537Z" transform="translate(-303.617 -470.953)" fill="#fff"/>
    <path id="Trazado_1029" data-name="Trazado 1029" d="M575.939,771.74a20.938,20.938,0,1,1,20.936,20.934A20.936,20.936,0,0,1,575.939,771.74Z" transform="translate(-367.701 -479.435)" fill="#334060"/>
    <path id="Trazado_1030" data-name="Trazado 1030" d="M633.841,768.463a8.883,8.883,0,1,1,8.885,8.881A8.886,8.886,0,0,1,633.841,768.463Z" transform="translate(-404.668 -485.039)" fill="#fff"/>
    <path id="Trazado_1031" data-name="Trazado 1031" d="M121.311,1128.823l-62.037-62.037,7.592-146.671h46.854Z" transform="translate(-37.844 -587.53)" fill="#e3b9ad"/>
    <path id="Trazado_1032" data-name="Trazado 1032" d="M116.827,732.053a9.042,9.042,0,0,0-8.85-9.222,8.934,8.934,0,0,0-8.62,7.161v-1.771a8.858,8.858,0,1,0-17.7,0v3.832a8.858,8.858,0,1,0-17.7,0v3.834a8.858,8.858,0,1,0-17.7,0v61a9.563,9.563,0,0,0,.422,2.813,16.5,16.5,0,0,0,16.08,12.837h37.567A16.5,16.5,0,0,0,116.736,794.3a9.622,9.622,0,0,0,.091-1.253Z" transform="translate(-29.532 -459.129)" fill="#e3b9ad"/>
    <path id="Trazado_1033" data-name="Trazado 1033" d="M169.567,813.494c-1.792-2.274-3.842-5.04-5.858-7.686h0a.1.1,0,0,0-.01-.013q-.4-.53-.8-1.05l-.183-.237-.638-.823-.281-.359q-.274-.35-.544-.69l-.315-.4c-.167-.208-.332-.412-.5-.614l-.334-.409c-.155-.188-.307-.37-.458-.549-.112-.134-.224-.268-.333-.4-.152-.179-.3-.347-.448-.517-.1-.117-.206-.238-.306-.351-.159-.179-.311-.344-.465-.51-.083-.091-.17-.189-.252-.276-.231-.245-.457-.477-.673-.689-2.868-2.813-4-4.17-8.688-4.17h-28.8c0,10.07,1.465,17.7,12.006,17.7s14.314,5.088,14.314,5.088c-9.487,2.159-23.252,6.237-16.906,43.718h18.1a16.49,16.49,0,0,0,14.8-9.23l.032-.377c3.725-3.193,9.679-17.636,11.924-25.467C174.974,821.656,172.412,817.1,169.567,813.494Z" transform="translate(-76.414 -506.859)" fill="#d19486"/>
    <path id="Trazado_1034" data-name="Trazado 1034" d="M818.122,1735.764l-53.69,59.327-110.293-8.558v-40.244Z" transform="translate(-417.626 -1108.268)" fill="#e3b9ad"/>
    <path id="Trazado_1035" data-name="Trazado 1035" d="M485.574,1723.345a8.177,8.177,0,0,0-8.339,8,8.078,8.078,0,0,0,6.475,7.792h-1.6a8.009,8.009,0,1,0,0,16h3.465a8.009,8.009,0,1,0,0,16h3.467a8.014,8.014,0,1,0,0,16.015h55.147a8.855,8.855,0,0,0,2.544,0,15.365,15.365,0,0,0,11.606-14.931v-33.969a14.921,14.921,0,0,0-16.481-14.836,8.7,8.7,0,0,0-1.133-.082Z" transform="translate(-302.473 -1100.34)" fill="#e3b9ad"/>
    <rect id="Rectángulo_258" data-name="Rectángulo 258" width="184.398" height="114.583" transform="translate(134.761 406.135)" fill="#e54e56"/>
    <rect id="Rectángulo_259" data-name="Rectángulo 259" width="13.016" height="165.251" transform="translate(215.644 520.63)" fill="#fce371"/>
    <path id="Trazado_1036" data-name="Trazado 1036" d="M609.439,1451.861l-13.016,12.544V1440.2h13.016Z" transform="translate(-380.779 -919.569)" fill="#a59035"/>
    <path id="Trazado_1037" data-name="Trazado 1037" d="M559.207,1701.326c-2.057,1.62-4.555,3.473-6.948,5.3h0a.088.088,0,0,1-.013.009c-.321.245-.634.487-.948.73-.073.053-.144.107-.216.163-.249.194-.5.385-.744.576-.107.085-.215.169-.323.255-.212.165-.42.327-.623.49l-.358.284-.555.449c-.124.1-.248.2-.369.3-.171.14-.336.277-.5.413-.122.1-.243.2-.359.3-.163.136-.314.271-.467.4-.105.09-.214.186-.317.276-.162.146-.312.282-.461.42-.082.075-.172.156-.25.229-.22.209-.431.411-.622.609-2.543,2.592-3.771,3.617-3.771,7.852v26.037c9.105,0,16-1.326,16-10.856s4.6-12.943,4.6-12.943c1.953,8.577,5.639,21.022,39.526,15.286v-16.371a14.9,14.9,0,0,0-8.345-13.374l-.339-.03c-2.887-3.367-15.945-8.75-23.024-10.781C566.587,1696.438,562.467,1698.753,559.207,1701.326Z" transform="translate(-345.628 -1083.616)" fill="#d19486"/>
    <path id="Trazado_1038" data-name="Trazado 1038" d="M1899.992,747.667h114.5V633.174Z" transform="translate(-1213.023 -404.336)" fill="#e54e56"/>
    <path id="Trazado_1039" data-name="Trazado 1039" d="M983.544,1616.726A114.571,114.571,0,0,0,950,1688.441l.032,9.243H1064.49V1583.191A114.109,114.109,0,0,0,983.544,1616.726Z" transform="translate(-606.512 -1010.86)" fill="#e54e56"/>
    <path id="Trazado_1040" data-name="Trazado 1040" d="M1719.532,1602.859h-56.976l5.061-168.2h46.854Z" transform="translate(-1061.435 -916.036)" fill="#e3b9ad"/>
    <path id="Trazado_1041" data-name="Trazado 1041" d="M1699.839,1246.6a9.043,9.043,0,0,0-8.849-9.222,8.935,8.935,0,0,0-8.621,7.161v-1.771a8.858,8.858,0,1,0-17.7,0v3.832a8.858,8.858,0,1,0-17.7,0v3.834a8.858,8.858,0,1,0-17.7,0v61a9.562,9.562,0,0,0,.422,2.813,16.5,16.5,0,0,0,16.08,12.837h37.568a16.5,16.5,0,0,0,16.5-16.5,16.945,16.945,0,0,0-.091-1.727,9.666,9.666,0,0,0,.091-1.254Z" transform="translate(-1040.182 -787.634)" fill="#e3b9ad"/>
    <path id="Trazado_1042" data-name="Trazado 1042" d="M1752.579,1328.04c-1.791-2.273-3.842-5.039-5.858-7.685h0l-.01-.013q-.4-.531-.8-1.051l-.183-.236q-.321-.416-.637-.823c-.094-.12-.187-.24-.281-.359q-.273-.35-.544-.69l-.315-.4c-.167-.208-.331-.411-.495-.614l-.334-.41c-.155-.187-.306-.369-.458-.549-.112-.134-.224-.268-.333-.4-.151-.179-.3-.347-.447-.516-.1-.117-.207-.239-.307-.351-.159-.179-.311-.344-.464-.51-.084-.091-.171-.188-.252-.276-.231-.245-.457-.477-.673-.689-2.868-2.813-4-4.17-8.689-4.17H1702.7c0,10.07,1.465,17.7,12.006,17.7s14.315,5.088,14.315,5.088c-9.487,2.159-23.252,6.237-16.907,43.718h18.105a16.487,16.487,0,0,0,14.8-9.23l.033-.377c3.724-3.194,9.678-17.636,11.924-25.467C1757.986,1336.2,1755.423,1331.646,1752.579,1328.04Z" transform="translate(-1087.064 -835.364)" fill="#d19486"/>
    <path id="Trazado_1043" data-name="Trazado 1043" d="M907.421,630.123c0-7.558,14.023-33.786,42.142-46.77,34.718-16.031,59.908-12.193,76.59-6.63l48.5,92.329c10.418,23.872-107.046,9.408-124.552,54.024Z" transform="translate(-579.331 -365.22)" fill="#e54e56"/>
    <path id="Trazado_1044" data-name="Trazado 1044" d="M1255.807,704.605l25.771,49.053c-8.074-22.343-43.1-6.368-48.549-17.282C1225.34,720.136,1249.375,702.458,1255.807,704.605Z" transform="translate(-786.252 -449.827)" fill="#680f22"/>
    <path id="Trazado_1045" data-name="Trazado 1045" d="M1083.241,457.258c10.278-43.826,104.885-48.684,161.41-41.151l95.035,136.157c-69.529-39.7-213.511-33.042-201.33-1.822Z" transform="translate(-691.581 -263.892)" fill="#e54e56"/>
    <path id="Trazado_1046" data-name="Trazado 1046" d="M1976.033,1173.914h44l5.057,262.473h-54.122Z" transform="translate(-1258.339 -749.564)" fill="#e3b9ad"/>
    <path id="Trazado_1047" data-name="Trazado 1047" d="M1963.626,1080.663c-2.852,2.853-2.653,7.679.443,10.772l32.512,20.006c3.1,3.1,7.918,3.293,10.768.443l28.414-33.173c2.854-2.852-3.529-4.66-6.625-7.757l-23.585-28.049c-3.1-3.093-6.119-8.684-8.972-5.83Z" transform="translate(-1252.363 -661.698)" fill="#e3b9ad"/>
    <path id="Trazado_1048" data-name="Trazado 1048" d="M1740.474,727.127h8.971L1535.384,422.139l-8.635-1.266Z" transform="translate(-974.731 -268.796)" fill="#e54e56"/>
    <path id="Trazado_1049" data-name="Trazado 1049" d="M1953.3,1068.858c-2.067-9.071-5.546-24.326-5.546-24.326l17.39-39.389s11.921,10.068,8.084,18.765c-4.349,9.846-7.847,17.769-9.405,21.3,3.859,2.511,12.279,13.53,12.872,29.9-1.764,2.829-3.126,3.727-10.636,3.727C1957.594,1078.833,1955.363,1077.928,1953.3,1068.858Z" transform="translate(-1243.514 -641.814)" fill="#d19486"/>
    <path id="Trazado_1050" data-name="Trazado 1050" d="M2012.69,1061.625a7.353,7.353,0,0,1-10.371-.29h0a7.343,7.343,0,0,1-.285-10.374l20.731-20.6a7.341,7.341,0,0,1,10.369.287h0a7.341,7.341,0,0,1,.291,10.369Z" transform="translate(-1276.887 -656.634)" fill="#e3b9ad"/>
    <path id="Trazado_1051" data-name="Trazado 1051" d="M2045.579,1087.862a7.36,7.36,0,0,1-10.373-.29h0a7.349,7.349,0,0,1-.285-10.377l20.733-20.6a7.338,7.338,0,0,1,10.368.289h0a7.34,7.34,0,0,1,.29,10.368Z" transform="translate(-1297.884 -673.383)" fill="#e3b9ad"/>
    <path id="Trazado_1052" data-name="Trazado 1052" d="M2073.33,1116.372a6.778,6.778,0,0,1-9.568-.268h0a6.773,6.773,0,0,1-.265-9.568l20.807-19.145a6.763,6.763,0,0,1,9.562.263h0a6.773,6.773,0,0,1,.269,9.567Z" transform="translate(-1316.228 -693.141)" fill="#e3b9ad"/>
    <path id="Trazado_1053" data-name="Trazado 1053" d="M2108.894,1144.9a6.352,6.352,0,0,1-8.965-.254h0a6.342,6.342,0,0,1-.248-8.964l15.78-15.777a6.332,6.332,0,0,1,8.958.252h0a6.344,6.344,0,0,1,.252,8.963Z" transform="translate(-1339.403 -713.974)" fill="#e3b9ad"/>
  </g>
</svg>
